%TF.GenerationSoftware,KiCad,Pcbnew,(5.1.9-0-10_14)*%
%TF.CreationDate,2021-07-30T11:39:19+01:00*%
%TF.ProjectId,SignalBox,5369676e-616c-4426-9f78-2e6b69636164,V2.1*%
%TF.SameCoordinates,Original*%
%TF.FileFunction,Legend,Top*%
%TF.FilePolarity,Positive*%
%FSLAX46Y46*%
G04 Gerber Fmt 4.6, Leading zero omitted, Abs format (unit mm)*
G04 Created by KiCad (PCBNEW (5.1.9-0-10_14)) date 2021-07-30 11:39:19*
%MOMM*%
%LPD*%
G01*
G04 APERTURE LIST*
%ADD10C,0.150000*%
%ADD11C,0.120000*%
%ADD12C,0.200000*%
%ADD13C,0.100000*%
%ADD14C,0.800000*%
%ADD15C,1.000000*%
G04 APERTURE END LIST*
D10*
X134477619Y-57761142D02*
X134430000Y-57808761D01*
X134287142Y-57856380D01*
X134191904Y-57856380D01*
X134049047Y-57808761D01*
X133953809Y-57713523D01*
X133906190Y-57618285D01*
X133858571Y-57427809D01*
X133858571Y-57284952D01*
X133906190Y-57094476D01*
X133953809Y-56999238D01*
X134049047Y-56904000D01*
X134191904Y-56856380D01*
X134287142Y-56856380D01*
X134430000Y-56904000D01*
X134477619Y-56951619D01*
X135049047Y-57856380D02*
X134953809Y-57808761D01*
X134906190Y-57713523D01*
X134906190Y-56856380D01*
X135810952Y-57808761D02*
X135715714Y-57856380D01*
X135525238Y-57856380D01*
X135430000Y-57808761D01*
X135382380Y-57713523D01*
X135382380Y-57332571D01*
X135430000Y-57237333D01*
X135525238Y-57189714D01*
X135715714Y-57189714D01*
X135810952Y-57237333D01*
X135858571Y-57332571D01*
X135858571Y-57427809D01*
X135382380Y-57523047D01*
X136715714Y-57856380D02*
X136715714Y-57332571D01*
X136668095Y-57237333D01*
X136572857Y-57189714D01*
X136382380Y-57189714D01*
X136287142Y-57237333D01*
X136715714Y-57808761D02*
X136620476Y-57856380D01*
X136382380Y-57856380D01*
X136287142Y-57808761D01*
X136239523Y-57713523D01*
X136239523Y-57618285D01*
X136287142Y-57523047D01*
X136382380Y-57475428D01*
X136620476Y-57475428D01*
X136715714Y-57427809D01*
X137191904Y-57856380D02*
X137191904Y-57189714D01*
X137191904Y-57380190D02*
X137239523Y-57284952D01*
X137287142Y-57237333D01*
X137382380Y-57189714D01*
X137477619Y-57189714D01*
X140049047Y-57808761D02*
X140191904Y-57856380D01*
X140430000Y-57856380D01*
X140525238Y-57808761D01*
X140572857Y-57761142D01*
X140620476Y-57665904D01*
X140620476Y-57570666D01*
X140572857Y-57475428D01*
X140525238Y-57427809D01*
X140430000Y-57380190D01*
X140239523Y-57332571D01*
X140144285Y-57284952D01*
X140096666Y-57237333D01*
X140049047Y-57142095D01*
X140049047Y-57046857D01*
X140096666Y-56951619D01*
X140144285Y-56904000D01*
X140239523Y-56856380D01*
X140477619Y-56856380D01*
X140620476Y-56904000D01*
X140906190Y-57189714D02*
X141287142Y-57189714D01*
X141049047Y-56856380D02*
X141049047Y-57713523D01*
X141096666Y-57808761D01*
X141191904Y-57856380D01*
X141287142Y-57856380D01*
X141763333Y-57856380D02*
X141668095Y-57808761D01*
X141620476Y-57761142D01*
X141572857Y-57665904D01*
X141572857Y-57380190D01*
X141620476Y-57284952D01*
X141668095Y-57237333D01*
X141763333Y-57189714D01*
X141906190Y-57189714D01*
X142001428Y-57237333D01*
X142049047Y-57284952D01*
X142096666Y-57380190D01*
X142096666Y-57665904D01*
X142049047Y-57761142D01*
X142001428Y-57808761D01*
X141906190Y-57856380D01*
X141763333Y-57856380D01*
X142525238Y-57189714D02*
X142525238Y-58189714D01*
X142525238Y-57237333D02*
X142620476Y-57189714D01*
X142810952Y-57189714D01*
X142906190Y-57237333D01*
X142953809Y-57284952D01*
X143001428Y-57380190D01*
X143001428Y-57665904D01*
X142953809Y-57761142D01*
X142906190Y-57808761D01*
X142810952Y-57856380D01*
X142620476Y-57856380D01*
X142525238Y-57808761D01*
D11*
X178435000Y-49276000D02*
X178435000Y-57150000D01*
X169479000Y-57173000D02*
X178479000Y-57173000D01*
X169479000Y-49273000D02*
X169479000Y-57173000D01*
X178379000Y-49273000D02*
X169479000Y-49273000D01*
D10*
X171640904Y-50700380D02*
X171640904Y-49700380D01*
X171879000Y-49700380D01*
X172021857Y-49748000D01*
X172117095Y-49843238D01*
X172164714Y-49938476D01*
X172212333Y-50128952D01*
X172212333Y-50271809D01*
X172164714Y-50462285D01*
X172117095Y-50557523D01*
X172021857Y-50652761D01*
X171879000Y-50700380D01*
X171640904Y-50700380D01*
X172640904Y-50700380D02*
X172640904Y-50033714D01*
X172640904Y-49700380D02*
X172593285Y-49748000D01*
X172640904Y-49795619D01*
X172688523Y-49748000D01*
X172640904Y-49700380D01*
X172640904Y-49795619D01*
X173259952Y-50700380D02*
X173164714Y-50652761D01*
X173117095Y-50605142D01*
X173069476Y-50509904D01*
X173069476Y-50224190D01*
X173117095Y-50128952D01*
X173164714Y-50081333D01*
X173259952Y-50033714D01*
X173402809Y-50033714D01*
X173498047Y-50081333D01*
X173545666Y-50128952D01*
X173593285Y-50224190D01*
X173593285Y-50509904D01*
X173545666Y-50605142D01*
X173498047Y-50652761D01*
X173402809Y-50700380D01*
X173259952Y-50700380D01*
X174450428Y-50700380D02*
X174450428Y-49700380D01*
X174450428Y-50652761D02*
X174355190Y-50700380D01*
X174164714Y-50700380D01*
X174069476Y-50652761D01*
X174021857Y-50605142D01*
X173974238Y-50509904D01*
X173974238Y-50224190D01*
X174021857Y-50128952D01*
X174069476Y-50081333D01*
X174164714Y-50033714D01*
X174355190Y-50033714D01*
X174450428Y-50081333D01*
X175307571Y-50652761D02*
X175212333Y-50700380D01*
X175021857Y-50700380D01*
X174926619Y-50652761D01*
X174879000Y-50557523D01*
X174879000Y-50176571D01*
X174926619Y-50081333D01*
X175021857Y-50033714D01*
X175212333Y-50033714D01*
X175307571Y-50081333D01*
X175355190Y-50176571D01*
X175355190Y-50271809D01*
X174879000Y-50367047D01*
X175736142Y-50652761D02*
X175831380Y-50700380D01*
X176021857Y-50700380D01*
X176117095Y-50652761D01*
X176164714Y-50557523D01*
X176164714Y-50509904D01*
X176117095Y-50414666D01*
X176021857Y-50367047D01*
X175879000Y-50367047D01*
X175783761Y-50319428D01*
X175736142Y-50224190D01*
X175736142Y-50176571D01*
X175783761Y-50081333D01*
X175879000Y-50033714D01*
X176021857Y-50033714D01*
X176117095Y-50081333D01*
X171688523Y-52255142D02*
X171640904Y-52302761D01*
X171498047Y-52350380D01*
X171402809Y-52350380D01*
X171259952Y-52302761D01*
X171164714Y-52207523D01*
X171117095Y-52112285D01*
X171069476Y-51921809D01*
X171069476Y-51778952D01*
X171117095Y-51588476D01*
X171164714Y-51493238D01*
X171259952Y-51398000D01*
X171402809Y-51350380D01*
X171498047Y-51350380D01*
X171640904Y-51398000D01*
X171688523Y-51445619D01*
X172259952Y-52350380D02*
X172164714Y-52302761D01*
X172117095Y-52255142D01*
X172069476Y-52159904D01*
X172069476Y-51874190D01*
X172117095Y-51778952D01*
X172164714Y-51731333D01*
X172259952Y-51683714D01*
X172402809Y-51683714D01*
X172498047Y-51731333D01*
X172545666Y-51778952D01*
X172593285Y-51874190D01*
X172593285Y-52159904D01*
X172545666Y-52255142D01*
X172498047Y-52302761D01*
X172402809Y-52350380D01*
X172259952Y-52350380D01*
X173021857Y-51683714D02*
X173021857Y-52350380D01*
X173021857Y-51778952D02*
X173069476Y-51731333D01*
X173164714Y-51683714D01*
X173307571Y-51683714D01*
X173402809Y-51731333D01*
X173450428Y-51826571D01*
X173450428Y-52350380D01*
X173926619Y-51683714D02*
X173926619Y-52350380D01*
X173926619Y-51778952D02*
X173974238Y-51731333D01*
X174069476Y-51683714D01*
X174212333Y-51683714D01*
X174307571Y-51731333D01*
X174355190Y-51826571D01*
X174355190Y-52350380D01*
X175212333Y-52302761D02*
X175117095Y-52350380D01*
X174926619Y-52350380D01*
X174831380Y-52302761D01*
X174783761Y-52207523D01*
X174783761Y-51826571D01*
X174831380Y-51731333D01*
X174926619Y-51683714D01*
X175117095Y-51683714D01*
X175212333Y-51731333D01*
X175259952Y-51826571D01*
X175259952Y-51921809D01*
X174783761Y-52017047D01*
X176117095Y-52302761D02*
X176021857Y-52350380D01*
X175831380Y-52350380D01*
X175736142Y-52302761D01*
X175688523Y-52255142D01*
X175640904Y-52159904D01*
X175640904Y-51874190D01*
X175688523Y-51778952D01*
X175736142Y-51731333D01*
X175831380Y-51683714D01*
X176021857Y-51683714D01*
X176117095Y-51731333D01*
X176402809Y-51683714D02*
X176783761Y-51683714D01*
X176545666Y-51350380D02*
X176545666Y-52207523D01*
X176593285Y-52302761D01*
X176688523Y-52350380D01*
X176783761Y-52350380D01*
X113908766Y-130396080D02*
X113908766Y-129396080D01*
X114146861Y-129396080D01*
X114289719Y-129443700D01*
X114384957Y-129538938D01*
X114432576Y-129634176D01*
X114480195Y-129824652D01*
X114480195Y-129967509D01*
X114432576Y-130157985D01*
X114384957Y-130253223D01*
X114289719Y-130348461D01*
X114146861Y-130396080D01*
X113908766Y-130396080D01*
X114908766Y-130396080D02*
X114908766Y-129729414D01*
X114908766Y-129396080D02*
X114861147Y-129443700D01*
X114908766Y-129491319D01*
X114956385Y-129443700D01*
X114908766Y-129396080D01*
X114908766Y-129491319D01*
X115337338Y-130348461D02*
X115432576Y-130396080D01*
X115623052Y-130396080D01*
X115718290Y-130348461D01*
X115765909Y-130253223D01*
X115765909Y-130205604D01*
X115718290Y-130110366D01*
X115623052Y-130062747D01*
X115480195Y-130062747D01*
X115384957Y-130015128D01*
X115337338Y-129919890D01*
X115337338Y-129872271D01*
X115384957Y-129777033D01*
X115480195Y-129729414D01*
X115623052Y-129729414D01*
X115718290Y-129777033D01*
X116623052Y-130348461D02*
X116527814Y-130396080D01*
X116337338Y-130396080D01*
X116242100Y-130348461D01*
X116194480Y-130300842D01*
X116146861Y-130205604D01*
X116146861Y-129919890D01*
X116194480Y-129824652D01*
X116242100Y-129777033D01*
X116337338Y-129729414D01*
X116527814Y-129729414D01*
X116623052Y-129777033D01*
X117194480Y-130396080D02*
X117099242Y-130348461D01*
X117051623Y-130300842D01*
X117004004Y-130205604D01*
X117004004Y-129919890D01*
X117051623Y-129824652D01*
X117099242Y-129777033D01*
X117194480Y-129729414D01*
X117337338Y-129729414D01*
X117432576Y-129777033D01*
X117480195Y-129824652D01*
X117527814Y-129919890D01*
X117527814Y-130205604D01*
X117480195Y-130300842D01*
X117432576Y-130348461D01*
X117337338Y-130396080D01*
X117194480Y-130396080D01*
X117956385Y-129729414D02*
X117956385Y-130396080D01*
X117956385Y-129824652D02*
X118004004Y-129777033D01*
X118099242Y-129729414D01*
X118242100Y-129729414D01*
X118337338Y-129777033D01*
X118384957Y-129872271D01*
X118384957Y-130396080D01*
X118861147Y-129729414D02*
X118861147Y-130396080D01*
X118861147Y-129824652D02*
X118908766Y-129777033D01*
X119004004Y-129729414D01*
X119146861Y-129729414D01*
X119242100Y-129777033D01*
X119289719Y-129872271D01*
X119289719Y-130396080D01*
X120146861Y-130348461D02*
X120051623Y-130396080D01*
X119861147Y-130396080D01*
X119765909Y-130348461D01*
X119718290Y-130253223D01*
X119718290Y-129872271D01*
X119765909Y-129777033D01*
X119861147Y-129729414D01*
X120051623Y-129729414D01*
X120146861Y-129777033D01*
X120194480Y-129872271D01*
X120194480Y-129967509D01*
X119718290Y-130062747D01*
X121051623Y-130348461D02*
X120956385Y-130396080D01*
X120765909Y-130396080D01*
X120670671Y-130348461D01*
X120623052Y-130300842D01*
X120575433Y-130205604D01*
X120575433Y-129919890D01*
X120623052Y-129824652D01*
X120670671Y-129777033D01*
X120765909Y-129729414D01*
X120956385Y-129729414D01*
X121051623Y-129777033D01*
X121337338Y-129729414D02*
X121718290Y-129729414D01*
X121480195Y-129396080D02*
X121480195Y-130253223D01*
X121527814Y-130348461D01*
X121623052Y-130396080D01*
X121718290Y-130396080D01*
X112551623Y-131998461D02*
X112456385Y-132046080D01*
X112265909Y-132046080D01*
X112170671Y-131998461D01*
X112123052Y-131903223D01*
X112123052Y-131522271D01*
X112170671Y-131427033D01*
X112265909Y-131379414D01*
X112456385Y-131379414D01*
X112551623Y-131427033D01*
X112599242Y-131522271D01*
X112599242Y-131617509D01*
X112123052Y-131712747D01*
X112932576Y-132046080D02*
X113456385Y-131379414D01*
X112932576Y-131379414D02*
X113456385Y-132046080D01*
X113694480Y-131379414D02*
X114075433Y-131379414D01*
X113837338Y-131046080D02*
X113837338Y-131903223D01*
X113884957Y-131998461D01*
X113980195Y-132046080D01*
X114075433Y-132046080D01*
X114789719Y-131998461D02*
X114694480Y-132046080D01*
X114504004Y-132046080D01*
X114408766Y-131998461D01*
X114361147Y-131903223D01*
X114361147Y-131522271D01*
X114408766Y-131427033D01*
X114504004Y-131379414D01*
X114694480Y-131379414D01*
X114789719Y-131427033D01*
X114837338Y-131522271D01*
X114837338Y-131617509D01*
X114361147Y-131712747D01*
X115265909Y-132046080D02*
X115265909Y-131379414D01*
X115265909Y-131569890D02*
X115313528Y-131474652D01*
X115361147Y-131427033D01*
X115456385Y-131379414D01*
X115551623Y-131379414D01*
X115884957Y-131379414D02*
X115884957Y-132046080D01*
X115884957Y-131474652D02*
X115932576Y-131427033D01*
X116027814Y-131379414D01*
X116170671Y-131379414D01*
X116265909Y-131427033D01*
X116313528Y-131522271D01*
X116313528Y-132046080D01*
X117218290Y-132046080D02*
X117218290Y-131522271D01*
X117170671Y-131427033D01*
X117075433Y-131379414D01*
X116884957Y-131379414D01*
X116789719Y-131427033D01*
X117218290Y-131998461D02*
X117123052Y-132046080D01*
X116884957Y-132046080D01*
X116789719Y-131998461D01*
X116742100Y-131903223D01*
X116742100Y-131807985D01*
X116789719Y-131712747D01*
X116884957Y-131665128D01*
X117123052Y-131665128D01*
X117218290Y-131617509D01*
X117837338Y-132046080D02*
X117742100Y-131998461D01*
X117694480Y-131903223D01*
X117694480Y-131046080D01*
X118932576Y-131998461D02*
X119027814Y-132046080D01*
X119218290Y-132046080D01*
X119313528Y-131998461D01*
X119361147Y-131903223D01*
X119361147Y-131855604D01*
X119313528Y-131760366D01*
X119218290Y-131712747D01*
X119075433Y-131712747D01*
X118980195Y-131665128D01*
X118932576Y-131569890D01*
X118932576Y-131522271D01*
X118980195Y-131427033D01*
X119075433Y-131379414D01*
X119218290Y-131379414D01*
X119313528Y-131427033D01*
X120218290Y-131379414D02*
X120218290Y-132046080D01*
X119789719Y-131379414D02*
X119789719Y-131903223D01*
X119837338Y-131998461D01*
X119932576Y-132046080D01*
X120075433Y-132046080D01*
X120170671Y-131998461D01*
X120218290Y-131950842D01*
X120694480Y-131379414D02*
X120694480Y-132379414D01*
X120694480Y-131427033D02*
X120789719Y-131379414D01*
X120980195Y-131379414D01*
X121075433Y-131427033D01*
X121123052Y-131474652D01*
X121170671Y-131569890D01*
X121170671Y-131855604D01*
X121123052Y-131950842D01*
X121075433Y-131998461D01*
X120980195Y-132046080D01*
X120789719Y-132046080D01*
X120694480Y-131998461D01*
X121599242Y-131379414D02*
X121599242Y-132379414D01*
X121599242Y-131427033D02*
X121694480Y-131379414D01*
X121884957Y-131379414D01*
X121980195Y-131427033D01*
X122027814Y-131474652D01*
X122075433Y-131569890D01*
X122075433Y-131855604D01*
X122027814Y-131950842D01*
X121980195Y-131998461D01*
X121884957Y-132046080D01*
X121694480Y-132046080D01*
X121599242Y-131998461D01*
X122646861Y-132046080D02*
X122551623Y-131998461D01*
X122504004Y-131903223D01*
X122504004Y-131046080D01*
X122932576Y-131379414D02*
X123170671Y-132046080D01*
X123408766Y-131379414D02*
X123170671Y-132046080D01*
X123075433Y-132284176D01*
X123027814Y-132331795D01*
X122932576Y-132379414D01*
X111361147Y-133696080D02*
X111361147Y-132696080D01*
X111361147Y-133077033D02*
X111456385Y-133029414D01*
X111646861Y-133029414D01*
X111742100Y-133077033D01*
X111789719Y-133124652D01*
X111837338Y-133219890D01*
X111837338Y-133505604D01*
X111789719Y-133600842D01*
X111742100Y-133648461D01*
X111646861Y-133696080D01*
X111456385Y-133696080D01*
X111361147Y-133648461D01*
X112646861Y-133648461D02*
X112551623Y-133696080D01*
X112361147Y-133696080D01*
X112265909Y-133648461D01*
X112218290Y-133553223D01*
X112218290Y-133172271D01*
X112265909Y-133077033D01*
X112361147Y-133029414D01*
X112551623Y-133029414D01*
X112646861Y-133077033D01*
X112694480Y-133172271D01*
X112694480Y-133267509D01*
X112218290Y-133362747D01*
X112980195Y-133029414D02*
X113361147Y-133029414D01*
X113123052Y-133696080D02*
X113123052Y-132838938D01*
X113170671Y-132743700D01*
X113265909Y-132696080D01*
X113361147Y-132696080D01*
X113837338Y-133696080D02*
X113742100Y-133648461D01*
X113694480Y-133600842D01*
X113646861Y-133505604D01*
X113646861Y-133219890D01*
X113694480Y-133124652D01*
X113742100Y-133077033D01*
X113837338Y-133029414D01*
X113980195Y-133029414D01*
X114075433Y-133077033D01*
X114123052Y-133124652D01*
X114170671Y-133219890D01*
X114170671Y-133505604D01*
X114123052Y-133600842D01*
X114075433Y-133648461D01*
X113980195Y-133696080D01*
X113837338Y-133696080D01*
X114599242Y-133696080D02*
X114599242Y-133029414D01*
X114599242Y-133219890D02*
X114646861Y-133124652D01*
X114694480Y-133077033D01*
X114789719Y-133029414D01*
X114884957Y-133029414D01*
X115599242Y-133648461D02*
X115504004Y-133696080D01*
X115313528Y-133696080D01*
X115218290Y-133648461D01*
X115170671Y-133553223D01*
X115170671Y-133172271D01*
X115218290Y-133077033D01*
X115313528Y-133029414D01*
X115504004Y-133029414D01*
X115599242Y-133077033D01*
X115646861Y-133172271D01*
X115646861Y-133267509D01*
X115170671Y-133362747D01*
X117265909Y-133029414D02*
X117265909Y-133696080D01*
X116837338Y-133029414D02*
X116837338Y-133553223D01*
X116884957Y-133648461D01*
X116980195Y-133696080D01*
X117123052Y-133696080D01*
X117218290Y-133648461D01*
X117265909Y-133600842D01*
X117694480Y-133648461D02*
X117789719Y-133696080D01*
X117980195Y-133696080D01*
X118075433Y-133648461D01*
X118123052Y-133553223D01*
X118123052Y-133505604D01*
X118075433Y-133410366D01*
X117980195Y-133362747D01*
X117837338Y-133362747D01*
X117742100Y-133315128D01*
X117694480Y-133219890D01*
X117694480Y-133172271D01*
X117742100Y-133077033D01*
X117837338Y-133029414D01*
X117980195Y-133029414D01*
X118075433Y-133077033D01*
X118551623Y-133696080D02*
X118551623Y-133029414D01*
X118551623Y-132696080D02*
X118504004Y-132743700D01*
X118551623Y-132791319D01*
X118599242Y-132743700D01*
X118551623Y-132696080D01*
X118551623Y-132791319D01*
X119027814Y-133029414D02*
X119027814Y-133696080D01*
X119027814Y-133124652D02*
X119075433Y-133077033D01*
X119170671Y-133029414D01*
X119313528Y-133029414D01*
X119408766Y-133077033D01*
X119456385Y-133172271D01*
X119456385Y-133696080D01*
X120361147Y-133029414D02*
X120361147Y-133838938D01*
X120313528Y-133934176D01*
X120265909Y-133981795D01*
X120170671Y-134029414D01*
X120027814Y-134029414D01*
X119932576Y-133981795D01*
X120361147Y-133648461D02*
X120265909Y-133696080D01*
X120075433Y-133696080D01*
X119980195Y-133648461D01*
X119932576Y-133600842D01*
X119884957Y-133505604D01*
X119884957Y-133219890D01*
X119932576Y-133124652D01*
X119980195Y-133077033D01*
X120075433Y-133029414D01*
X120265909Y-133029414D01*
X120361147Y-133077033D01*
X121599242Y-132696080D02*
X121599242Y-133505604D01*
X121646861Y-133600842D01*
X121694480Y-133648461D01*
X121789719Y-133696080D01*
X121980195Y-133696080D01*
X122075433Y-133648461D01*
X122123052Y-133600842D01*
X122170671Y-133505604D01*
X122170671Y-132696080D01*
X122599242Y-133648461D02*
X122742100Y-133696080D01*
X122980195Y-133696080D01*
X123075433Y-133648461D01*
X123123052Y-133600842D01*
X123170671Y-133505604D01*
X123170671Y-133410366D01*
X123123052Y-133315128D01*
X123075433Y-133267509D01*
X122980195Y-133219890D01*
X122789719Y-133172271D01*
X122694480Y-133124652D01*
X122646861Y-133077033D01*
X122599242Y-132981795D01*
X122599242Y-132886557D01*
X122646861Y-132791319D01*
X122694480Y-132743700D01*
X122789719Y-132696080D01*
X123027814Y-132696080D01*
X123170671Y-132743700D01*
X123932576Y-133172271D02*
X124075433Y-133219890D01*
X124123052Y-133267509D01*
X124170671Y-133362747D01*
X124170671Y-133505604D01*
X124123052Y-133600842D01*
X124075433Y-133648461D01*
X123980195Y-133696080D01*
X123599242Y-133696080D01*
X123599242Y-132696080D01*
X123932576Y-132696080D01*
X124027814Y-132743700D01*
X124075433Y-132791319D01*
X124123052Y-132886557D01*
X124123052Y-132981795D01*
X124075433Y-133077033D01*
X124027814Y-133124652D01*
X123932576Y-133172271D01*
X123599242Y-133172271D01*
X138398476Y-132992761D02*
X138541333Y-133040380D01*
X138779428Y-133040380D01*
X138874666Y-132992761D01*
X138922285Y-132945142D01*
X138969904Y-132849904D01*
X138969904Y-132754666D01*
X138922285Y-132659428D01*
X138874666Y-132611809D01*
X138779428Y-132564190D01*
X138588952Y-132516571D01*
X138493714Y-132468952D01*
X138446095Y-132421333D01*
X138398476Y-132326095D01*
X138398476Y-132230857D01*
X138446095Y-132135619D01*
X138493714Y-132088000D01*
X138588952Y-132040380D01*
X138827047Y-132040380D01*
X138969904Y-132088000D01*
X139541333Y-133040380D02*
X139446095Y-132992761D01*
X139398476Y-132897523D01*
X139398476Y-132040380D01*
X140350857Y-133040380D02*
X140350857Y-132516571D01*
X140303238Y-132421333D01*
X140208000Y-132373714D01*
X140017523Y-132373714D01*
X139922285Y-132421333D01*
X140350857Y-132992761D02*
X140255619Y-133040380D01*
X140017523Y-133040380D01*
X139922285Y-132992761D01*
X139874666Y-132897523D01*
X139874666Y-132802285D01*
X139922285Y-132707047D01*
X140017523Y-132659428D01*
X140255619Y-132659428D01*
X140350857Y-132611809D01*
X140731809Y-132373714D02*
X140969904Y-133040380D01*
X141208000Y-132373714D01*
X141969904Y-132992761D02*
X141874666Y-133040380D01*
X141684190Y-133040380D01*
X141588952Y-132992761D01*
X141541333Y-132897523D01*
X141541333Y-132516571D01*
X141588952Y-132421333D01*
X141684190Y-132373714D01*
X141874666Y-132373714D01*
X141969904Y-132421333D01*
X142017523Y-132516571D01*
X142017523Y-132611809D01*
X141541333Y-132707047D01*
X138247714Y-130246380D02*
X138247714Y-129246380D01*
X138581047Y-129960666D01*
X138914380Y-129246380D01*
X138914380Y-130246380D01*
X139819142Y-130246380D02*
X139819142Y-129722571D01*
X139771523Y-129627333D01*
X139676285Y-129579714D01*
X139485809Y-129579714D01*
X139390571Y-129627333D01*
X139819142Y-130198761D02*
X139723904Y-130246380D01*
X139485809Y-130246380D01*
X139390571Y-130198761D01*
X139342952Y-130103523D01*
X139342952Y-130008285D01*
X139390571Y-129913047D01*
X139485809Y-129865428D01*
X139723904Y-129865428D01*
X139819142Y-129817809D01*
X140247714Y-130198761D02*
X140342952Y-130246380D01*
X140533428Y-130246380D01*
X140628666Y-130198761D01*
X140676285Y-130103523D01*
X140676285Y-130055904D01*
X140628666Y-129960666D01*
X140533428Y-129913047D01*
X140390571Y-129913047D01*
X140295333Y-129865428D01*
X140247714Y-129770190D01*
X140247714Y-129722571D01*
X140295333Y-129627333D01*
X140390571Y-129579714D01*
X140533428Y-129579714D01*
X140628666Y-129627333D01*
X140962000Y-129579714D02*
X141342952Y-129579714D01*
X141104857Y-129246380D02*
X141104857Y-130103523D01*
X141152476Y-130198761D01*
X141247714Y-130246380D01*
X141342952Y-130246380D01*
X142057238Y-130198761D02*
X141962000Y-130246380D01*
X141771523Y-130246380D01*
X141676285Y-130198761D01*
X141628666Y-130103523D01*
X141628666Y-129722571D01*
X141676285Y-129627333D01*
X141771523Y-129579714D01*
X141962000Y-129579714D01*
X142057238Y-129627333D01*
X142104857Y-129722571D01*
X142104857Y-129817809D01*
X141628666Y-129913047D01*
X142533428Y-130246380D02*
X142533428Y-129579714D01*
X142533428Y-129770190D02*
X142581047Y-129674952D01*
X142628666Y-129627333D01*
X142723904Y-129579714D01*
X142819142Y-129579714D01*
D12*
X149627428Y-131557571D02*
X149984571Y-133057571D01*
X150270285Y-131986142D01*
X150556000Y-133057571D01*
X150913142Y-131557571D01*
X152056000Y-132986142D02*
X151913142Y-133057571D01*
X151627428Y-133057571D01*
X151484571Y-132986142D01*
X151413142Y-132843285D01*
X151413142Y-132271857D01*
X151484571Y-132129000D01*
X151627428Y-132057571D01*
X151913142Y-132057571D01*
X152056000Y-132129000D01*
X152127428Y-132271857D01*
X152127428Y-132414714D01*
X151413142Y-132557571D01*
X152698857Y-132986142D02*
X152841714Y-133057571D01*
X153127428Y-133057571D01*
X153270285Y-132986142D01*
X153341714Y-132843285D01*
X153341714Y-132771857D01*
X153270285Y-132629000D01*
X153127428Y-132557571D01*
X152913142Y-132557571D01*
X152770285Y-132486142D01*
X152698857Y-132343285D01*
X152698857Y-132271857D01*
X152770285Y-132129000D01*
X152913142Y-132057571D01*
X153127428Y-132057571D01*
X153270285Y-132129000D01*
X153770285Y-132057571D02*
X154341714Y-132057571D01*
X153984571Y-131557571D02*
X153984571Y-132843285D01*
X154056000Y-132986142D01*
X154198857Y-133057571D01*
X154341714Y-133057571D01*
X155984571Y-133057571D02*
X155984571Y-131557571D01*
X155984571Y-132271857D02*
X156841714Y-132271857D01*
X156841714Y-133057571D02*
X156841714Y-131557571D01*
X158198857Y-132057571D02*
X158198857Y-133057571D01*
X157556000Y-132057571D02*
X157556000Y-132843285D01*
X157627428Y-132986142D01*
X157770285Y-133057571D01*
X157984571Y-133057571D01*
X158127428Y-132986142D01*
X158198857Y-132914714D01*
X158913142Y-132057571D02*
X158913142Y-133057571D01*
X158913142Y-132200428D02*
X158984571Y-132129000D01*
X159127428Y-132057571D01*
X159341714Y-132057571D01*
X159484571Y-132129000D01*
X159556000Y-132271857D01*
X159556000Y-133057571D01*
X160056000Y-132057571D02*
X160627428Y-132057571D01*
X160270285Y-131557571D02*
X160270285Y-132843285D01*
X160341714Y-132986142D01*
X160484571Y-133057571D01*
X160627428Y-133057571D01*
X161056000Y-132986142D02*
X161198857Y-133057571D01*
X161484571Y-133057571D01*
X161627428Y-132986142D01*
X161698857Y-132843285D01*
X161698857Y-132771857D01*
X161627428Y-132629000D01*
X161484571Y-132557571D01*
X161270285Y-132557571D01*
X161127428Y-132486142D01*
X161056000Y-132343285D01*
X161056000Y-132271857D01*
X161127428Y-132129000D01*
X161270285Y-132057571D01*
X161484571Y-132057571D01*
X161627428Y-132129000D01*
X162341714Y-132057571D02*
X162341714Y-133557571D01*
X162341714Y-132129000D02*
X162484571Y-132057571D01*
X162770285Y-132057571D01*
X162913142Y-132129000D01*
X162984571Y-132200428D01*
X163056000Y-132343285D01*
X163056000Y-132771857D01*
X162984571Y-132914714D01*
X162913142Y-132986142D01*
X162770285Y-133057571D01*
X162484571Y-133057571D01*
X162341714Y-132986142D01*
X163698857Y-133057571D02*
X163698857Y-132057571D01*
X163698857Y-131557571D02*
X163627428Y-131629000D01*
X163698857Y-131700428D01*
X163770285Y-131629000D01*
X163698857Y-131557571D01*
X163698857Y-131700428D01*
X164627428Y-133057571D02*
X164484571Y-132986142D01*
X164413142Y-132843285D01*
X164413142Y-131557571D01*
X165413142Y-133057571D02*
X165270285Y-132986142D01*
X165198857Y-132843285D01*
X165198857Y-131557571D01*
X167984571Y-133057571D02*
X167484571Y-132343285D01*
X167127428Y-133057571D02*
X167127428Y-131557571D01*
X167698857Y-131557571D01*
X167841714Y-131629000D01*
X167913142Y-131700428D01*
X167984571Y-131843285D01*
X167984571Y-132057571D01*
X167913142Y-132200428D01*
X167841714Y-132271857D01*
X167698857Y-132343285D01*
X167127428Y-132343285D01*
X169270285Y-133057571D02*
X169270285Y-132271857D01*
X169198857Y-132129000D01*
X169056000Y-132057571D01*
X168770285Y-132057571D01*
X168627428Y-132129000D01*
X169270285Y-132986142D02*
X169127428Y-133057571D01*
X168770285Y-133057571D01*
X168627428Y-132986142D01*
X168556000Y-132843285D01*
X168556000Y-132700428D01*
X168627428Y-132557571D01*
X168770285Y-132486142D01*
X169127428Y-132486142D01*
X169270285Y-132414714D01*
X169984571Y-133057571D02*
X169984571Y-132057571D01*
X169984571Y-131557571D02*
X169913142Y-131629000D01*
X169984571Y-131700428D01*
X170056000Y-131629000D01*
X169984571Y-131557571D01*
X169984571Y-131700428D01*
X170913142Y-133057571D02*
X170770285Y-132986142D01*
X170698857Y-132843285D01*
X170698857Y-131557571D01*
X171341714Y-132057571D02*
X171627428Y-133057571D01*
X171913142Y-132343285D01*
X172198857Y-133057571D01*
X172484571Y-132057571D01*
X173698857Y-133057571D02*
X173698857Y-132271857D01*
X173627428Y-132129000D01*
X173484571Y-132057571D01*
X173198857Y-132057571D01*
X173056000Y-132129000D01*
X173698857Y-132986142D02*
X173556000Y-133057571D01*
X173198857Y-133057571D01*
X173056000Y-132986142D01*
X172984571Y-132843285D01*
X172984571Y-132700428D01*
X173056000Y-132557571D01*
X173198857Y-132486142D01*
X173556000Y-132486142D01*
X173698857Y-132414714D01*
X174270285Y-132057571D02*
X174627428Y-133057571D01*
X174984571Y-132057571D02*
X174627428Y-133057571D01*
X174484571Y-133414714D01*
X174413142Y-133486142D01*
X174270285Y-133557571D01*
X149627428Y-135436142D02*
X149841714Y-135507571D01*
X150198857Y-135507571D01*
X150341714Y-135436142D01*
X150413142Y-135364714D01*
X150484571Y-135221857D01*
X150484571Y-135079000D01*
X150413142Y-134936142D01*
X150341714Y-134864714D01*
X150198857Y-134793285D01*
X149913142Y-134721857D01*
X149770285Y-134650428D01*
X149698857Y-134579000D01*
X149627428Y-134436142D01*
X149627428Y-134293285D01*
X149698857Y-134150428D01*
X149770285Y-134079000D01*
X149913142Y-134007571D01*
X150270285Y-134007571D01*
X150484571Y-134079000D01*
X151127428Y-135507571D02*
X151127428Y-134507571D01*
X151127428Y-134007571D02*
X151056000Y-134079000D01*
X151127428Y-134150428D01*
X151198857Y-134079000D01*
X151127428Y-134007571D01*
X151127428Y-134150428D01*
X152484571Y-134507571D02*
X152484571Y-135721857D01*
X152413142Y-135864714D01*
X152341714Y-135936142D01*
X152198857Y-136007571D01*
X151984571Y-136007571D01*
X151841714Y-135936142D01*
X152484571Y-135436142D02*
X152341714Y-135507571D01*
X152056000Y-135507571D01*
X151913142Y-135436142D01*
X151841714Y-135364714D01*
X151770285Y-135221857D01*
X151770285Y-134793285D01*
X151841714Y-134650428D01*
X151913142Y-134579000D01*
X152056000Y-134507571D01*
X152341714Y-134507571D01*
X152484571Y-134579000D01*
X153198857Y-134507571D02*
X153198857Y-135507571D01*
X153198857Y-134650428D02*
X153270285Y-134579000D01*
X153413142Y-134507571D01*
X153627428Y-134507571D01*
X153770285Y-134579000D01*
X153841714Y-134721857D01*
X153841714Y-135507571D01*
X155198857Y-135507571D02*
X155198857Y-134721857D01*
X155127428Y-134579000D01*
X154984571Y-134507571D01*
X154698857Y-134507571D01*
X154556000Y-134579000D01*
X155198857Y-135436142D02*
X155056000Y-135507571D01*
X154698857Y-135507571D01*
X154556000Y-135436142D01*
X154484571Y-135293285D01*
X154484571Y-135150428D01*
X154556000Y-135007571D01*
X154698857Y-134936142D01*
X155056000Y-134936142D01*
X155198857Y-134864714D01*
X156127428Y-135507571D02*
X155984571Y-135436142D01*
X155913142Y-135293285D01*
X155913142Y-134007571D01*
X156698857Y-135507571D02*
X156698857Y-134007571D01*
X156698857Y-134579000D02*
X156841714Y-134507571D01*
X157127428Y-134507571D01*
X157270285Y-134579000D01*
X157341714Y-134650428D01*
X157413142Y-134793285D01*
X157413142Y-135221857D01*
X157341714Y-135364714D01*
X157270285Y-135436142D01*
X157127428Y-135507571D01*
X156841714Y-135507571D01*
X156698857Y-135436142D01*
X158270285Y-135507571D02*
X158127428Y-135436142D01*
X158056000Y-135364714D01*
X157984571Y-135221857D01*
X157984571Y-134793285D01*
X158056000Y-134650428D01*
X158127428Y-134579000D01*
X158270285Y-134507571D01*
X158484571Y-134507571D01*
X158627428Y-134579000D01*
X158698857Y-134650428D01*
X158770285Y-134793285D01*
X158770285Y-135221857D01*
X158698857Y-135364714D01*
X158627428Y-135436142D01*
X158484571Y-135507571D01*
X158270285Y-135507571D01*
X159270285Y-135507571D02*
X160056000Y-134507571D01*
X159270285Y-134507571D02*
X160056000Y-135507571D01*
X161770285Y-135507571D02*
X161770285Y-134007571D01*
X162270285Y-135079000D01*
X162770285Y-134007571D01*
X162770285Y-135507571D01*
X163698857Y-135507571D02*
X163556000Y-135436142D01*
X163484571Y-135364714D01*
X163413142Y-135221857D01*
X163413142Y-134793285D01*
X163484571Y-134650428D01*
X163556000Y-134579000D01*
X163698857Y-134507571D01*
X163913142Y-134507571D01*
X164056000Y-134579000D01*
X164127428Y-134650428D01*
X164198857Y-134793285D01*
X164198857Y-135221857D01*
X164127428Y-135364714D01*
X164056000Y-135436142D01*
X163913142Y-135507571D01*
X163698857Y-135507571D01*
X165484571Y-135507571D02*
X165484571Y-134007571D01*
X165484571Y-135436142D02*
X165341714Y-135507571D01*
X165056000Y-135507571D01*
X164913142Y-135436142D01*
X164841714Y-135364714D01*
X164770285Y-135221857D01*
X164770285Y-134793285D01*
X164841714Y-134650428D01*
X164913142Y-134579000D01*
X165056000Y-134507571D01*
X165341714Y-134507571D01*
X165484571Y-134579000D01*
X166841714Y-134507571D02*
X166841714Y-135507571D01*
X166198857Y-134507571D02*
X166198857Y-135293285D01*
X166270285Y-135436142D01*
X166413142Y-135507571D01*
X166627428Y-135507571D01*
X166770285Y-135436142D01*
X166841714Y-135364714D01*
X167770285Y-135507571D02*
X167627428Y-135436142D01*
X167556000Y-135293285D01*
X167556000Y-134007571D01*
X168913142Y-135436142D02*
X168770285Y-135507571D01*
X168484571Y-135507571D01*
X168341714Y-135436142D01*
X168270285Y-135293285D01*
X168270285Y-134721857D01*
X168341714Y-134579000D01*
X168484571Y-134507571D01*
X168770285Y-134507571D01*
X168913142Y-134579000D01*
X168984571Y-134721857D01*
X168984571Y-134864714D01*
X168270285Y-135007571D01*
X170556000Y-134007571D02*
X171056000Y-135507571D01*
X171556000Y-134007571D01*
X171984571Y-134150428D02*
X172056000Y-134079000D01*
X172198857Y-134007571D01*
X172556000Y-134007571D01*
X172698857Y-134079000D01*
X172770285Y-134150428D01*
X172841714Y-134293285D01*
X172841714Y-134436142D01*
X172770285Y-134650428D01*
X171913142Y-135507571D01*
X172841714Y-135507571D01*
X173484571Y-135364714D02*
X173556000Y-135436142D01*
X173484571Y-135507571D01*
X173413142Y-135436142D01*
X173484571Y-135364714D01*
X173484571Y-135507571D01*
X174127428Y-134150428D02*
X174198857Y-134079000D01*
X174341714Y-134007571D01*
X174698857Y-134007571D01*
X174841714Y-134079000D01*
X174913142Y-134150428D01*
X174984571Y-134293285D01*
X174984571Y-134436142D01*
X174913142Y-134650428D01*
X174056000Y-135507571D01*
X174984571Y-135507571D01*
D11*
X170303900Y-123566300D02*
X170303900Y-124074300D01*
X170303900Y-123566300D02*
X169795900Y-123566300D01*
X175991000Y-53253000D02*
X175991000Y-53761000D01*
X175991000Y-53253000D02*
X175483000Y-53253000D01*
X174975000Y-54269000D02*
X175991000Y-53253000D01*
X173959000Y-53253000D02*
X174467000Y-53253000D01*
X174467000Y-53761000D02*
X174467000Y-53253000D01*
X174467000Y-53253000D02*
X174467000Y-53761000D01*
X173451000Y-54269000D02*
X174467000Y-53253000D01*
X172943000Y-55285000D02*
X171419000Y-55285000D01*
X174467000Y-55285000D02*
X175991000Y-55285000D01*
X174467000Y-56301000D02*
X174467000Y-55285000D01*
X174467000Y-54269000D02*
X174467000Y-56301000D01*
X174467000Y-55285000D02*
X172943000Y-54269000D01*
X172943000Y-56301000D02*
X174467000Y-55285000D01*
X172943000Y-54269000D02*
X172943000Y-56301000D01*
D10*
X141731619Y-47347238D02*
X141588761Y-47299619D01*
X141350666Y-47299619D01*
X141255428Y-47347238D01*
X141207809Y-47394857D01*
X141160190Y-47490095D01*
X141160190Y-47585333D01*
X141207809Y-47680571D01*
X141255428Y-47728190D01*
X141350666Y-47775809D01*
X141541142Y-47823428D01*
X141636380Y-47871047D01*
X141684000Y-47918666D01*
X141731619Y-48013904D01*
X141731619Y-48109142D01*
X141684000Y-48204380D01*
X141636380Y-48252000D01*
X141541142Y-48299619D01*
X141303047Y-48299619D01*
X141160190Y-48252000D01*
X140826857Y-47966285D02*
X140636380Y-47299619D01*
X140445904Y-47775809D01*
X140255428Y-47299619D01*
X140064952Y-47966285D01*
X139684000Y-47299619D02*
X139684000Y-47966285D01*
X139684000Y-48299619D02*
X139731619Y-48252000D01*
X139684000Y-48204380D01*
X139636380Y-48252000D01*
X139684000Y-48299619D01*
X139684000Y-48204380D01*
X139350666Y-47966285D02*
X138969714Y-47966285D01*
X139207809Y-48299619D02*
X139207809Y-47442476D01*
X139160190Y-47347238D01*
X139064952Y-47299619D01*
X138969714Y-47299619D01*
X138207809Y-47347238D02*
X138303047Y-47299619D01*
X138493523Y-47299619D01*
X138588761Y-47347238D01*
X138636380Y-47394857D01*
X138684000Y-47490095D01*
X138684000Y-47775809D01*
X138636380Y-47871047D01*
X138588761Y-47918666D01*
X138493523Y-47966285D01*
X138303047Y-47966285D01*
X138207809Y-47918666D01*
X137779238Y-47299619D02*
X137779238Y-48299619D01*
X137350666Y-47299619D02*
X137350666Y-47823428D01*
X137398285Y-47918666D01*
X137493523Y-47966285D01*
X137636380Y-47966285D01*
X137731619Y-47918666D01*
X137779238Y-47871047D01*
X136493523Y-47347238D02*
X136588761Y-47299619D01*
X136779238Y-47299619D01*
X136874476Y-47347238D01*
X136922095Y-47442476D01*
X136922095Y-47823428D01*
X136874476Y-47918666D01*
X136779238Y-47966285D01*
X136588761Y-47966285D01*
X136493523Y-47918666D01*
X136445904Y-47823428D01*
X136445904Y-47728190D01*
X136922095Y-47632952D01*
X136064952Y-47347238D02*
X135969714Y-47299619D01*
X135779238Y-47299619D01*
X135684000Y-47347238D01*
X135636380Y-47442476D01*
X135636380Y-47490095D01*
X135684000Y-47585333D01*
X135779238Y-47632952D01*
X135922095Y-47632952D01*
X136017333Y-47680571D01*
X136064952Y-47775809D01*
X136064952Y-47823428D01*
X136017333Y-47918666D01*
X135922095Y-47966285D01*
X135779238Y-47966285D01*
X135684000Y-47918666D01*
D12*
X111411380Y-48148857D02*
X112935190Y-48148857D01*
X119982809Y-48148857D02*
X121506619Y-48148857D01*
X120744714Y-48910761D02*
X120744714Y-47386952D01*
D11*
%TO.C,C3*%
X108573101Y-70243700D02*
G75*
G03*
X108573101Y-70243700I-2120000J0D01*
G01*
D13*
G36*
X107735101Y-68465700D02*
G01*
X108243101Y-68973700D01*
X108497101Y-69735700D01*
X108573101Y-70243700D01*
X108497101Y-70751700D01*
X107989101Y-71767700D01*
X106973101Y-72275700D01*
X106719101Y-72275700D01*
X106719101Y-71005700D01*
X107989101Y-71005700D01*
X107989101Y-69481700D01*
X106719101Y-69481700D01*
X106719101Y-68211700D01*
X106973101Y-68211700D01*
X107735101Y-68465700D01*
G37*
X107735101Y-68465700D02*
X108243101Y-68973700D01*
X108497101Y-69735700D01*
X108573101Y-70243700D01*
X108497101Y-70751700D01*
X107989101Y-71767700D01*
X106973101Y-72275700D01*
X106719101Y-72275700D01*
X106719101Y-71005700D01*
X107989101Y-71005700D01*
X107989101Y-69481700D01*
X106719101Y-69481700D01*
X106719101Y-68211700D01*
X106973101Y-68211700D01*
X107735101Y-68465700D01*
D11*
X103417101Y-68973700D02*
X104433101Y-68973700D01*
X103925101Y-69481700D02*
X103925101Y-68465700D01*
%TO.C,J3*%
X133413500Y-51066700D02*
X143573500Y-51066700D01*
X133433500Y-52277366D02*
X133433500Y-54190699D01*
X143573500Y-48780700D02*
X143573500Y-53860700D01*
X133413500Y-48780700D02*
X143573500Y-48780700D01*
X133413500Y-56400700D02*
X133413500Y-48780700D01*
X143573500Y-56400700D02*
X133413500Y-56400700D01*
X143573500Y-53860700D02*
X143573500Y-56400700D01*
%TO.C,J1*%
X118910100Y-48628300D02*
X118910100Y-53708300D01*
X113830100Y-56248300D02*
X113830100Y-48628300D01*
X118910100Y-53708300D02*
X118910100Y-56248300D01*
X113830100Y-50914300D02*
X118910100Y-50914300D01*
X113830100Y-48628300D02*
X118910100Y-48628300D01*
X113830100Y-56248300D02*
X118910100Y-56248300D01*
%TO.C,L1*%
X104363900Y-66369200D02*
X104363900Y-57489200D01*
X119333900Y-66369200D02*
X119333900Y-57489200D01*
X110483900Y-57489200D02*
X104363900Y-57489200D01*
X119333900Y-57489200D02*
X113213900Y-57489200D01*
X110483900Y-66369200D02*
X104363900Y-66369200D01*
X119333900Y-66369200D02*
X113213900Y-66369200D01*
%TO.C,U1*%
X103759000Y-128270000D02*
X103759000Y-80010000D01*
X131699000Y-80010000D02*
X131699000Y-128270000D01*
X127889000Y-80010000D02*
X131699000Y-80010000D01*
X127889000Y-75184000D02*
X127889000Y-80010000D01*
X107569000Y-75184000D02*
X127889000Y-75184000D01*
X107569000Y-80010000D02*
X107569000Y-75184000D01*
X103759000Y-80010000D02*
X107569000Y-80010000D01*
X105729000Y-128264000D02*
X103759000Y-128270000D01*
X129729000Y-128264000D02*
X131699000Y-128270000D01*
X105729000Y-128264000D02*
X129729000Y-128264000D01*
X113729000Y-122264000D02*
X113729000Y-128264000D01*
X121729000Y-122264000D02*
X121729000Y-128264000D01*
X113729000Y-122264000D02*
X121729000Y-122264000D01*
X108839000Y-76510000D02*
X126619000Y-76510000D01*
X126619000Y-76510000D02*
X126619000Y-81590000D01*
X126619000Y-81590000D02*
X108839000Y-81590000D01*
X108839000Y-81590000D02*
X108839000Y-76510000D01*
X110109000Y-80828000D02*
X110109000Y-77272000D01*
X110109000Y-77272000D02*
X112649000Y-77272000D01*
X112649000Y-77272000D02*
X112649000Y-79304000D01*
X112649000Y-79304000D02*
X115189000Y-79304000D01*
X115189000Y-79304000D02*
X115189000Y-77272000D01*
X115189000Y-77272000D02*
X117729000Y-77272000D01*
X117729000Y-77272000D02*
X117729000Y-79304000D01*
X117729000Y-79304000D02*
X120269000Y-79304000D01*
X120269000Y-79304000D02*
X120269000Y-77272000D01*
X120269000Y-77272000D02*
X125349000Y-77272000D01*
X125349000Y-77272000D02*
X125349000Y-80828000D01*
X122809000Y-77272000D02*
X122809000Y-80828000D01*
X110229000Y-82240000D02*
X125229000Y-82240000D01*
X125229000Y-82240000D02*
X125229000Y-100240000D01*
X125229000Y-100240000D02*
X110229000Y-100240000D01*
X110229000Y-100240000D02*
X110229000Y-82240000D01*
D14*
X113049000Y-98100000D02*
G75*
G03*
X113049000Y-98100000I-400000J0D01*
G01*
D11*
X124079000Y-123754000D02*
X126619000Y-123754000D01*
X126619000Y-123754000D02*
X126619000Y-127564000D01*
X126619000Y-127564000D02*
X124079000Y-127564000D01*
X124079000Y-127564000D02*
X124079000Y-123754000D01*
X111379000Y-127564000D02*
X108839000Y-127564000D01*
X108839000Y-127564000D02*
X108839000Y-123754000D01*
X108839000Y-123754000D02*
X111379000Y-123754000D01*
X111379000Y-123754000D02*
X111379000Y-127564000D01*
D15*
X110409000Y-125659000D02*
G75*
G03*
X110409000Y-125659000I-300000J0D01*
G01*
X125649000Y-125659000D02*
G75*
G03*
X125649000Y-125659000I-300000J0D01*
G01*
D11*
%TO.C,J5*%
X178345400Y-57528000D02*
X187465400Y-57528000D01*
X187465400Y-57528000D02*
X187465400Y-128908000D01*
X187465400Y-128908000D02*
X178345400Y-128908000D01*
X178345400Y-128908000D02*
X178345400Y-57528000D01*
X178345400Y-91168000D02*
X179655400Y-91168000D01*
X179655400Y-91168000D02*
X179655400Y-58828000D01*
X179655400Y-58828000D02*
X186155400Y-58828000D01*
X186155400Y-58828000D02*
X186155400Y-127608000D01*
X186155400Y-127608000D02*
X179655400Y-127608000D01*
X179655400Y-127608000D02*
X179655400Y-95268000D01*
X179655400Y-95268000D02*
X179655400Y-95268000D01*
X179655400Y-95268000D02*
X178345400Y-95268000D01*
X177955400Y-62738000D02*
X176955400Y-62238000D01*
X176955400Y-62238000D02*
X176955400Y-63238000D01*
X176955400Y-63238000D02*
X177955400Y-62738000D01*
%TO.C,C2*%
X121820000Y-68873000D02*
X132060000Y-68873000D01*
X121820000Y-73113000D02*
X132060000Y-73113000D01*
X121820000Y-68873000D02*
X121820000Y-73113000D01*
X132060000Y-68873000D02*
X132060000Y-73113000D01*
%TO.C,J4*%
X154432000Y-128778000D02*
X144526000Y-128905000D01*
X144919000Y-57528000D02*
X154039000Y-57528000D01*
X154039000Y-57528000D02*
X154039000Y-128908000D01*
X154039000Y-128908000D02*
X144919000Y-128908000D01*
X144919000Y-128908000D02*
X144919000Y-57528000D01*
X144919000Y-91168000D02*
X146229000Y-91168000D01*
X146229000Y-91168000D02*
X146229000Y-58828000D01*
X146229000Y-58828000D02*
X152729000Y-58828000D01*
X152729000Y-58828000D02*
X152729000Y-127608000D01*
X152729000Y-127608000D02*
X146229000Y-127608000D01*
X146229000Y-127608000D02*
X146229000Y-95268000D01*
X146229000Y-95268000D02*
X146229000Y-95268000D01*
X146229000Y-95268000D02*
X144919000Y-95268000D01*
X144529000Y-62738000D02*
X143529000Y-62238000D01*
X143529000Y-62238000D02*
X143529000Y-63238000D01*
X143529000Y-63238000D02*
X144529000Y-62738000D01*
%TO.C,C1*%
X128883400Y-52022500D02*
G75*
G03*
X128883400Y-52022500I-2620000J0D01*
G01*
X127303400Y-52022500D02*
X128843400Y-52022500D01*
X123683400Y-52022500D02*
X125223400Y-52022500D01*
X127303400Y-51982500D02*
X128843400Y-51982500D01*
X123683400Y-51982500D02*
X125223400Y-51982500D01*
X123684400Y-51942500D02*
X125223400Y-51942500D01*
X127303400Y-51942500D02*
X128842400Y-51942500D01*
X123685400Y-51902500D02*
X125223400Y-51902500D01*
X127303400Y-51902500D02*
X128841400Y-51902500D01*
X123687400Y-51862500D02*
X125223400Y-51862500D01*
X127303400Y-51862500D02*
X128839400Y-51862500D01*
X123690400Y-51822500D02*
X125223400Y-51822500D01*
X127303400Y-51822500D02*
X128836400Y-51822500D01*
X123694400Y-51782500D02*
X125223400Y-51782500D01*
X127303400Y-51782500D02*
X128832400Y-51782500D01*
X123698400Y-51742500D02*
X125223400Y-51742500D01*
X127303400Y-51742500D02*
X128828400Y-51742500D01*
X123702400Y-51702500D02*
X125223400Y-51702500D01*
X127303400Y-51702500D02*
X128824400Y-51702500D01*
X123707400Y-51662500D02*
X125223400Y-51662500D01*
X127303400Y-51662500D02*
X128819400Y-51662500D01*
X123713400Y-51622500D02*
X125223400Y-51622500D01*
X127303400Y-51622500D02*
X128813400Y-51622500D01*
X123720400Y-51582500D02*
X125223400Y-51582500D01*
X127303400Y-51582500D02*
X128806400Y-51582500D01*
X123727400Y-51542500D02*
X125223400Y-51542500D01*
X127303400Y-51542500D02*
X128799400Y-51542500D01*
X123735400Y-51502500D02*
X125223400Y-51502500D01*
X127303400Y-51502500D02*
X128791400Y-51502500D01*
X123743400Y-51462500D02*
X125223400Y-51462500D01*
X127303400Y-51462500D02*
X128783400Y-51462500D01*
X123752400Y-51422500D02*
X125223400Y-51422500D01*
X127303400Y-51422500D02*
X128774400Y-51422500D01*
X123762400Y-51382500D02*
X125223400Y-51382500D01*
X127303400Y-51382500D02*
X128764400Y-51382500D01*
X123772400Y-51342500D02*
X125223400Y-51342500D01*
X127303400Y-51342500D02*
X128754400Y-51342500D01*
X123783400Y-51301500D02*
X125223400Y-51301500D01*
X127303400Y-51301500D02*
X128743400Y-51301500D01*
X123795400Y-51261500D02*
X125223400Y-51261500D01*
X127303400Y-51261500D02*
X128731400Y-51261500D01*
X123808400Y-51221500D02*
X125223400Y-51221500D01*
X127303400Y-51221500D02*
X128718400Y-51221500D01*
X123821400Y-51181500D02*
X125223400Y-51181500D01*
X127303400Y-51181500D02*
X128705400Y-51181500D01*
X123835400Y-51141500D02*
X125223400Y-51141500D01*
X127303400Y-51141500D02*
X128691400Y-51141500D01*
X123849400Y-51101500D02*
X125223400Y-51101500D01*
X127303400Y-51101500D02*
X128677400Y-51101500D01*
X123865400Y-51061500D02*
X125223400Y-51061500D01*
X127303400Y-51061500D02*
X128661400Y-51061500D01*
X123881400Y-51021500D02*
X125223400Y-51021500D01*
X127303400Y-51021500D02*
X128645400Y-51021500D01*
X123898400Y-50981500D02*
X125223400Y-50981500D01*
X127303400Y-50981500D02*
X128628400Y-50981500D01*
X123915400Y-50941500D02*
X125223400Y-50941500D01*
X127303400Y-50941500D02*
X128611400Y-50941500D01*
X123934400Y-50901500D02*
X125223400Y-50901500D01*
X127303400Y-50901500D02*
X128592400Y-50901500D01*
X123953400Y-50861500D02*
X125223400Y-50861500D01*
X127303400Y-50861500D02*
X128573400Y-50861500D01*
X123973400Y-50821500D02*
X125223400Y-50821500D01*
X127303400Y-50821500D02*
X128553400Y-50821500D01*
X123995400Y-50781500D02*
X125223400Y-50781500D01*
X127303400Y-50781500D02*
X128531400Y-50781500D01*
X124016400Y-50741500D02*
X125223400Y-50741500D01*
X127303400Y-50741500D02*
X128510400Y-50741500D01*
X124039400Y-50701500D02*
X125223400Y-50701500D01*
X127303400Y-50701500D02*
X128487400Y-50701500D01*
X124063400Y-50661500D02*
X125223400Y-50661500D01*
X127303400Y-50661500D02*
X128463400Y-50661500D01*
X124088400Y-50621500D02*
X125223400Y-50621500D01*
X127303400Y-50621500D02*
X128438400Y-50621500D01*
X124114400Y-50581500D02*
X125223400Y-50581500D01*
X127303400Y-50581500D02*
X128412400Y-50581500D01*
X124141400Y-50541500D02*
X125223400Y-50541500D01*
X127303400Y-50541500D02*
X128385400Y-50541500D01*
X124168400Y-50501500D02*
X125223400Y-50501500D01*
X127303400Y-50501500D02*
X128358400Y-50501500D01*
X124198400Y-50461500D02*
X125223400Y-50461500D01*
X127303400Y-50461500D02*
X128328400Y-50461500D01*
X124228400Y-50421500D02*
X125223400Y-50421500D01*
X127303400Y-50421500D02*
X128298400Y-50421500D01*
X124259400Y-50381500D02*
X125223400Y-50381500D01*
X127303400Y-50381500D02*
X128267400Y-50381500D01*
X124292400Y-50341500D02*
X125223400Y-50341500D01*
X127303400Y-50341500D02*
X128234400Y-50341500D01*
X124326400Y-50301500D02*
X125223400Y-50301500D01*
X127303400Y-50301500D02*
X128200400Y-50301500D01*
X124362400Y-50261500D02*
X125223400Y-50261500D01*
X127303400Y-50261500D02*
X128164400Y-50261500D01*
X124399400Y-50221500D02*
X125223400Y-50221500D01*
X127303400Y-50221500D02*
X128127400Y-50221500D01*
X124437400Y-50181500D02*
X125223400Y-50181500D01*
X127303400Y-50181500D02*
X128089400Y-50181500D01*
X124478400Y-50141500D02*
X125223400Y-50141500D01*
X127303400Y-50141500D02*
X128048400Y-50141500D01*
X124520400Y-50101500D02*
X125223400Y-50101500D01*
X127303400Y-50101500D02*
X128006400Y-50101500D01*
X124564400Y-50061500D02*
X125223400Y-50061500D01*
X127303400Y-50061500D02*
X127962400Y-50061500D01*
X124610400Y-50021500D02*
X125223400Y-50021500D01*
X127303400Y-50021500D02*
X127916400Y-50021500D01*
X124658400Y-49981500D02*
X127868400Y-49981500D01*
X124709400Y-49941500D02*
X127817400Y-49941500D01*
X124763400Y-49901500D02*
X127763400Y-49901500D01*
X124820400Y-49861500D02*
X127706400Y-49861500D01*
X124880400Y-49821500D02*
X127646400Y-49821500D01*
X124944400Y-49781500D02*
X127582400Y-49781500D01*
X125012400Y-49741500D02*
X127514400Y-49741500D01*
X125085400Y-49701500D02*
X127441400Y-49701500D01*
X125165400Y-49661500D02*
X127361400Y-49661500D01*
X125252400Y-49621500D02*
X127274400Y-49621500D01*
X125348400Y-49581500D02*
X127178400Y-49581500D01*
X125458400Y-49541500D02*
X127068400Y-49541500D01*
X125586400Y-49501500D02*
X126940400Y-49501500D01*
X125745400Y-49461500D02*
X126781400Y-49461500D01*
X125979400Y-49421500D02*
X126547400Y-49421500D01*
X124788400Y-54827275D02*
X124788400Y-54327275D01*
X124538400Y-54577275D02*
X125038400Y-54577275D01*
%TO.C,D2*%
X112723000Y-69018000D02*
X112723000Y-68888000D01*
X112723000Y-68888000D02*
X118163000Y-68888000D01*
X118163000Y-68888000D02*
X118163000Y-69018000D01*
X112723000Y-71698000D02*
X112723000Y-71828000D01*
X112723000Y-71828000D02*
X118163000Y-71828000D01*
X118163000Y-71828000D02*
X118163000Y-71698000D01*
X113623000Y-68888000D02*
X113623000Y-71828000D01*
X113743000Y-68888000D02*
X113743000Y-71828000D01*
X113503000Y-68888000D02*
X113503000Y-71828000D01*
%TO.C,J2*%
X137212600Y-127742900D02*
X137212600Y-134563900D01*
X132992600Y-127742900D02*
X132992600Y-134563900D01*
X137212600Y-127742900D02*
X136142600Y-127742900D01*
X134062600Y-127742900D02*
X132992600Y-127742900D01*
X137212600Y-134563900D02*
X136092600Y-134563900D01*
X134112600Y-134563900D02*
X132992600Y-134563900D01*
X137452600Y-127502900D02*
X137452600Y-128885900D01*
X137452600Y-127502900D02*
X136142600Y-127502900D01*
X135737600Y-129342900D02*
X134467600Y-129342900D01*
X134467600Y-129342900D02*
X134467600Y-132962900D01*
X134467600Y-132962900D02*
X135737600Y-132962900D01*
X135737600Y-132962900D02*
X135737600Y-129342900D01*
X135617600Y-129342900D02*
X135617600Y-130549567D01*
X135497600Y-129342900D02*
X135497600Y-130549567D01*
X135377600Y-129342900D02*
X135377600Y-130549567D01*
X135257600Y-129342900D02*
X135257600Y-130549567D01*
X135137600Y-129342900D02*
X135137600Y-130549567D01*
X135017600Y-129342900D02*
X135017600Y-130549567D01*
X134897600Y-129342900D02*
X134897600Y-130549567D01*
X134777600Y-129342900D02*
X134777600Y-130549567D01*
X134657600Y-129342900D02*
X134657600Y-130549567D01*
X134537600Y-129342900D02*
X134537600Y-130549567D01*
X135737600Y-130549567D02*
X134467600Y-130549567D01*
%TO.C,R1*%
X133331700Y-120063500D02*
X133331700Y-123903500D01*
X135171700Y-120063500D02*
X135171700Y-123903500D01*
%TO.C,R3*%
X138834100Y-124618000D02*
X142674100Y-124618000D01*
X138834100Y-122778000D02*
X142674100Y-122778000D01*
%TO.C,R6*%
X135413000Y-73040000D02*
X135413000Y-69200000D01*
X133573000Y-73040000D02*
X133573000Y-69200000D01*
%TO.C,R7*%
X135413000Y-60691000D02*
X135413000Y-64531000D01*
X133573000Y-60691000D02*
X133573000Y-64531000D01*
%TO.C,R2*%
X172348100Y-120238000D02*
X176188100Y-120238000D01*
X172348100Y-122078000D02*
X176188100Y-122078000D01*
%TO.C,R4*%
X172348100Y-112627500D02*
X176188100Y-112627500D01*
X172348100Y-114467500D02*
X176188100Y-114467500D01*
%TO.C,R5*%
X172248100Y-106867500D02*
X176088100Y-106867500D01*
X172248100Y-105027500D02*
X176088100Y-105027500D01*
%TO.C,R8*%
X172248100Y-99167500D02*
X176088100Y-99167500D01*
X172248100Y-97327500D02*
X176088100Y-97327500D01*
%TO.C,R9*%
X172248100Y-91598000D02*
X176088100Y-91598000D01*
X172248100Y-89758000D02*
X176088100Y-89758000D01*
%TO.C,R10*%
X172285900Y-82138000D02*
X176125900Y-82138000D01*
X172285900Y-83978000D02*
X176125900Y-83978000D01*
%TO.C,R11*%
X172260500Y-76358000D02*
X176100500Y-76358000D01*
X172260500Y-74518000D02*
X176100500Y-74518000D01*
%TO.C,R12*%
X172285900Y-66898000D02*
X176125900Y-66898000D01*
X172285900Y-68738000D02*
X176125900Y-68738000D01*
%TO.C,R37*%
X138745200Y-115170700D02*
X142585200Y-115170700D01*
X138745200Y-117010700D02*
X142585200Y-117010700D01*
%TO.C,R39*%
X138796000Y-109378000D02*
X142636000Y-109378000D01*
X138796000Y-107538000D02*
X142636000Y-107538000D01*
%TO.C,R41*%
X138796000Y-99918000D02*
X142636000Y-99918000D01*
X138796000Y-101758000D02*
X142636000Y-101758000D01*
%TO.C,R43*%
X138796000Y-92298000D02*
X142636000Y-92298000D01*
X138796000Y-94138000D02*
X142636000Y-94138000D01*
%TO.C,R45*%
X138796000Y-86518000D02*
X142636000Y-86518000D01*
X138796000Y-84678000D02*
X142636000Y-84678000D01*
%TO.C,R47*%
X138796000Y-78898000D02*
X142636000Y-78898000D01*
X138796000Y-77058000D02*
X142636000Y-77058000D01*
%TO.C,R49*%
X138745200Y-69438000D02*
X142585200Y-69438000D01*
X138745200Y-71278000D02*
X142585200Y-71278000D01*
%TO.C,R52*%
X138796000Y-61818000D02*
X142636000Y-61818000D01*
X138796000Y-63658000D02*
X142636000Y-63658000D01*
%TO.C,R38*%
X156749000Y-117998000D02*
X156749000Y-114158000D01*
X154909000Y-117998000D02*
X154909000Y-114158000D01*
%TO.C,R40*%
X156749000Y-110378000D02*
X156749000Y-106538000D01*
X154909000Y-110378000D02*
X154909000Y-106538000D01*
%TO.C,R42*%
X154909000Y-102758000D02*
X154909000Y-98918000D01*
X156749000Y-102758000D02*
X156749000Y-98918000D01*
%TO.C,R44*%
X154909000Y-95138000D02*
X154909000Y-91298000D01*
X156749000Y-95138000D02*
X156749000Y-91298000D01*
%TO.C,R46*%
X154896300Y-87518000D02*
X154896300Y-83678000D01*
X156736300Y-87518000D02*
X156736300Y-83678000D01*
%TO.C,R48*%
X156736300Y-79898000D02*
X156736300Y-76058000D01*
X154896300Y-79898000D02*
X154896300Y-76058000D01*
%TO.C,R50*%
X156698200Y-72239900D02*
X156698200Y-68399900D01*
X154858200Y-72239900D02*
X154858200Y-68399900D01*
%TO.C,R51*%
X154782000Y-64658000D02*
X154782000Y-60818000D01*
X156622000Y-64658000D02*
X156622000Y-60818000D01*
%TO.C,U2*%
X162639500Y-49431900D02*
X160989500Y-49431900D01*
X160989500Y-49431900D02*
X160989500Y-85111900D01*
X160989500Y-85111900D02*
X166289500Y-85111900D01*
X166289500Y-85111900D02*
X166289500Y-49431900D01*
X166289500Y-49431900D02*
X164639500Y-49431900D01*
X164639500Y-49431900D02*
G75*
G02*
X162639500Y-49431900I-1000000J0D01*
G01*
%TO.C,U4*%
X124403101Y-57298701D02*
X122753101Y-57298701D01*
X122753101Y-57298701D02*
X122753101Y-67578701D01*
X122753101Y-67578701D02*
X128053101Y-67578701D01*
X128053101Y-67578701D02*
X128053101Y-57298701D01*
X128053101Y-57298701D02*
X126403101Y-57298701D01*
X126403101Y-57298701D02*
G75*
G02*
X124403101Y-57298701I-1000000J0D01*
G01*
%TO.C,R13*%
X138796000Y-120263400D02*
X142636000Y-120263400D01*
X138796000Y-122103400D02*
X142636000Y-122103400D01*
%TO.C,R14*%
X138694400Y-112605300D02*
X142534400Y-112605300D01*
X138694400Y-114445300D02*
X142534400Y-114445300D01*
%TO.C,R15*%
X138796000Y-106838000D02*
X142636000Y-106838000D01*
X138796000Y-104998000D02*
X142636000Y-104998000D01*
%TO.C,R16*%
X138796000Y-99218000D02*
X142636000Y-99218000D01*
X138796000Y-97378000D02*
X142636000Y-97378000D01*
%TO.C,R17*%
X138796000Y-89758000D02*
X142636000Y-89758000D01*
X138796000Y-91598000D02*
X142636000Y-91598000D01*
%TO.C,R18*%
X138796000Y-82138000D02*
X142636000Y-82138000D01*
X138796000Y-83978000D02*
X142636000Y-83978000D01*
%TO.C,R19*%
X138796000Y-76358000D02*
X142636000Y-76358000D01*
X138796000Y-74518000D02*
X142636000Y-74518000D01*
%TO.C,R20*%
X138796000Y-68738000D02*
X142636000Y-68738000D01*
X138796000Y-66898000D02*
X142636000Y-66898000D01*
%TO.C,R21*%
X172324000Y-115158000D02*
X176164000Y-115158000D01*
X172324000Y-116998000D02*
X176164000Y-116998000D01*
%TO.C,R22*%
X188337500Y-117978300D02*
X188337500Y-114138300D01*
X190177500Y-117978300D02*
X190177500Y-114138300D01*
%TO.C,R23*%
X172197000Y-107538000D02*
X176037000Y-107538000D01*
X172197000Y-109378000D02*
X176037000Y-109378000D01*
%TO.C,R24*%
X188337500Y-110378300D02*
X188337500Y-106538300D01*
X190177500Y-110378300D02*
X190177500Y-106538300D01*
%TO.C,R25*%
X172048100Y-101667500D02*
X175888100Y-101667500D01*
X172048100Y-99827500D02*
X175888100Y-99827500D01*
%TO.C,R26*%
X190177500Y-102758000D02*
X190177500Y-98918000D01*
X188337500Y-102758000D02*
X188337500Y-98918000D01*
%TO.C,R27*%
X172148100Y-94138000D02*
X175988100Y-94138000D01*
X172148100Y-92298000D02*
X175988100Y-92298000D01*
%TO.C,R28*%
X190177500Y-95138000D02*
X190177500Y-91298000D01*
X188337500Y-95138000D02*
X188337500Y-91298000D01*
%TO.C,R29*%
X172260500Y-84678000D02*
X176100500Y-84678000D01*
X172260500Y-86518000D02*
X176100500Y-86518000D01*
%TO.C,R30*%
X188337500Y-87518000D02*
X188337500Y-83678000D01*
X190177500Y-87518000D02*
X190177500Y-83678000D01*
%TO.C,R31*%
X172285900Y-77058000D02*
X176125900Y-77058000D01*
X172285900Y-78898000D02*
X176125900Y-78898000D01*
%TO.C,R32*%
X188337500Y-79898000D02*
X188337500Y-76058000D01*
X190177500Y-79898000D02*
X190177500Y-76058000D01*
%TO.C,R33*%
X172260500Y-71278000D02*
X176100500Y-71278000D01*
X172260500Y-69438000D02*
X176100500Y-69438000D01*
%TO.C,R34*%
X190177500Y-72278000D02*
X190177500Y-68438000D01*
X188337500Y-72278000D02*
X188337500Y-68438000D01*
%TO.C,R35*%
X172260500Y-63658000D02*
X176100500Y-63658000D01*
X172260500Y-61818000D02*
X176100500Y-61818000D01*
%TO.C,R36*%
X190150000Y-64658000D02*
X190150000Y-60818000D01*
X188310000Y-64658000D02*
X188310000Y-60818000D01*
%TO.C,R53*%
X172324000Y-124618000D02*
X176164000Y-124618000D01*
X172324000Y-122778000D02*
X176164000Y-122778000D01*
%TO.C,U3*%
X166492700Y-93564400D02*
X164842700Y-93564400D01*
X166492700Y-129244400D02*
X166492700Y-93564400D01*
X161192700Y-129244400D02*
X166492700Y-129244400D01*
X161192700Y-93564400D02*
X161192700Y-129244400D01*
X162842700Y-93564400D02*
X161192700Y-93564400D01*
X164842700Y-93564400D02*
G75*
G02*
X162842700Y-93564400I-1000000J0D01*
G01*
%TO.C,C3*%
D10*
X106286434Y-67350842D02*
X106238815Y-67398461D01*
X106095958Y-67446080D01*
X106000720Y-67446080D01*
X105857862Y-67398461D01*
X105762624Y-67303223D01*
X105715005Y-67207985D01*
X105667386Y-67017509D01*
X105667386Y-66874652D01*
X105715005Y-66684176D01*
X105762624Y-66588938D01*
X105857862Y-66493700D01*
X106000720Y-66446080D01*
X106095958Y-66446080D01*
X106238815Y-66493700D01*
X106286434Y-66541319D01*
X106619767Y-66446080D02*
X107238815Y-66446080D01*
X106905481Y-66827033D01*
X107048339Y-66827033D01*
X107143577Y-66874652D01*
X107191196Y-66922271D01*
X107238815Y-67017509D01*
X107238815Y-67255604D01*
X107191196Y-67350842D01*
X107143577Y-67398461D01*
X107048339Y-67446080D01*
X106762624Y-67446080D01*
X106667386Y-67398461D01*
X106619767Y-67350842D01*
%TO.C,J3*%
X131849880Y-53686033D02*
X132564166Y-53686033D01*
X132707023Y-53733652D01*
X132802261Y-53828890D01*
X132849880Y-53971747D01*
X132849880Y-54066985D01*
X131849880Y-53305080D02*
X131849880Y-52686033D01*
X132230833Y-53019366D01*
X132230833Y-52876509D01*
X132278452Y-52781271D01*
X132326071Y-52733652D01*
X132421309Y-52686033D01*
X132659404Y-52686033D01*
X132754642Y-52733652D01*
X132802261Y-52781271D01*
X132849880Y-52876509D01*
X132849880Y-53162223D01*
X132802261Y-53257461D01*
X132754642Y-53305080D01*
%TO.C,J1*%
X112266480Y-53533633D02*
X112980766Y-53533633D01*
X113123623Y-53581252D01*
X113218861Y-53676490D01*
X113266480Y-53819347D01*
X113266480Y-53914585D01*
X113266480Y-52533633D02*
X113266480Y-53105061D01*
X113266480Y-52819347D02*
X112266480Y-52819347D01*
X112409338Y-52914585D01*
X112504576Y-53009823D01*
X112552195Y-53105061D01*
%TO.C,L1*%
X111682233Y-56713380D02*
X111206042Y-56713380D01*
X111206042Y-55713380D01*
X112539376Y-56713380D02*
X111967947Y-56713380D01*
X112253661Y-56713380D02*
X112253661Y-55713380D01*
X112158423Y-55856238D01*
X112063185Y-55951476D01*
X111967947Y-55999095D01*
%TO.C,U1*%
X116967095Y-91202380D02*
X116967095Y-92011904D01*
X117014714Y-92107142D01*
X117062333Y-92154761D01*
X117157571Y-92202380D01*
X117348047Y-92202380D01*
X117443285Y-92154761D01*
X117490904Y-92107142D01*
X117538523Y-92011904D01*
X117538523Y-91202380D01*
X118538523Y-92202380D02*
X117967095Y-92202380D01*
X118252809Y-92202380D02*
X118252809Y-91202380D01*
X118157571Y-91345238D01*
X118062333Y-91440476D01*
X117967095Y-91488095D01*
X107847095Y-122412571D02*
X108180428Y-122412571D01*
X108323285Y-122936380D02*
X107847095Y-122936380D01*
X107847095Y-121936380D01*
X108323285Y-121936380D01*
X108751857Y-122269714D02*
X108751857Y-122936380D01*
X108751857Y-122364952D02*
X108799476Y-122317333D01*
X108894714Y-122269714D01*
X109037571Y-122269714D01*
X109132809Y-122317333D01*
X109180428Y-122412571D01*
X109180428Y-122936380D01*
X110085190Y-122936380D02*
X110085190Y-122412571D01*
X110037571Y-122317333D01*
X109942333Y-122269714D01*
X109751857Y-122269714D01*
X109656619Y-122317333D01*
X110085190Y-122888761D02*
X109989952Y-122936380D01*
X109751857Y-122936380D01*
X109656619Y-122888761D01*
X109609000Y-122793523D01*
X109609000Y-122698285D01*
X109656619Y-122603047D01*
X109751857Y-122555428D01*
X109989952Y-122555428D01*
X110085190Y-122507809D01*
X110561380Y-122936380D02*
X110561380Y-121936380D01*
X110561380Y-122317333D02*
X110656619Y-122269714D01*
X110847095Y-122269714D01*
X110942333Y-122317333D01*
X110989952Y-122364952D01*
X111037571Y-122460190D01*
X111037571Y-122745904D01*
X110989952Y-122841142D01*
X110942333Y-122888761D01*
X110847095Y-122936380D01*
X110656619Y-122936380D01*
X110561380Y-122888761D01*
X111609000Y-122936380D02*
X111513761Y-122888761D01*
X111466142Y-122793523D01*
X111466142Y-121936380D01*
X112370904Y-122888761D02*
X112275666Y-122936380D01*
X112085190Y-122936380D01*
X111989952Y-122888761D01*
X111942333Y-122793523D01*
X111942333Y-122412571D01*
X111989952Y-122317333D01*
X112085190Y-122269714D01*
X112275666Y-122269714D01*
X112370904Y-122317333D01*
X112418523Y-122412571D01*
X112418523Y-122507809D01*
X111942333Y-122603047D01*
X124229952Y-122412571D02*
X124372809Y-122460190D01*
X124420428Y-122507809D01*
X124468047Y-122603047D01*
X124468047Y-122745904D01*
X124420428Y-122841142D01*
X124372809Y-122888761D01*
X124277571Y-122936380D01*
X123896619Y-122936380D01*
X123896619Y-121936380D01*
X124229952Y-121936380D01*
X124325190Y-121984000D01*
X124372809Y-122031619D01*
X124420428Y-122126857D01*
X124420428Y-122222095D01*
X124372809Y-122317333D01*
X124325190Y-122364952D01*
X124229952Y-122412571D01*
X123896619Y-122412571D01*
X125039476Y-122936380D02*
X124944238Y-122888761D01*
X124896619Y-122841142D01*
X124849000Y-122745904D01*
X124849000Y-122460190D01*
X124896619Y-122364952D01*
X124944238Y-122317333D01*
X125039476Y-122269714D01*
X125182333Y-122269714D01*
X125277571Y-122317333D01*
X125325190Y-122364952D01*
X125372809Y-122460190D01*
X125372809Y-122745904D01*
X125325190Y-122841142D01*
X125277571Y-122888761D01*
X125182333Y-122936380D01*
X125039476Y-122936380D01*
X125944238Y-122936380D02*
X125849000Y-122888761D01*
X125801380Y-122841142D01*
X125753761Y-122745904D01*
X125753761Y-122460190D01*
X125801380Y-122364952D01*
X125849000Y-122317333D01*
X125944238Y-122269714D01*
X126087095Y-122269714D01*
X126182333Y-122317333D01*
X126229952Y-122364952D01*
X126277571Y-122460190D01*
X126277571Y-122745904D01*
X126229952Y-122841142D01*
X126182333Y-122888761D01*
X126087095Y-122936380D01*
X125944238Y-122936380D01*
X126563285Y-122269714D02*
X126944238Y-122269714D01*
X126706142Y-121936380D02*
X126706142Y-122793523D01*
X126753761Y-122888761D01*
X126849000Y-122936380D01*
X126944238Y-122936380D01*
X116467095Y-125746380D02*
X116467095Y-126555904D01*
X116514714Y-126651142D01*
X116562333Y-126698761D01*
X116657571Y-126746380D01*
X116848047Y-126746380D01*
X116943285Y-126698761D01*
X116990904Y-126651142D01*
X117038523Y-126555904D01*
X117038523Y-125746380D01*
X117467095Y-126698761D02*
X117609952Y-126746380D01*
X117848047Y-126746380D01*
X117943285Y-126698761D01*
X117990904Y-126651142D01*
X118038523Y-126555904D01*
X118038523Y-126460666D01*
X117990904Y-126365428D01*
X117943285Y-126317809D01*
X117848047Y-126270190D01*
X117657571Y-126222571D01*
X117562333Y-126174952D01*
X117514714Y-126127333D01*
X117467095Y-126032095D01*
X117467095Y-125936857D01*
X117514714Y-125841619D01*
X117562333Y-125794000D01*
X117657571Y-125746380D01*
X117895666Y-125746380D01*
X118038523Y-125794000D01*
X118800428Y-126222571D02*
X118943285Y-126270190D01*
X118990904Y-126317809D01*
X119038523Y-126413047D01*
X119038523Y-126555904D01*
X118990904Y-126651142D01*
X118943285Y-126698761D01*
X118848047Y-126746380D01*
X118467095Y-126746380D01*
X118467095Y-125746380D01*
X118800428Y-125746380D01*
X118895666Y-125794000D01*
X118943285Y-125841619D01*
X118990904Y-125936857D01*
X118990904Y-126032095D01*
X118943285Y-126127333D01*
X118895666Y-126174952D01*
X118800428Y-126222571D01*
X118467095Y-126222571D01*
%TO.C,J5*%
X182673666Y-55840380D02*
X182673666Y-56554666D01*
X182626047Y-56697523D01*
X182530809Y-56792761D01*
X182387952Y-56840380D01*
X182292714Y-56840380D01*
X183626047Y-55840380D02*
X183149857Y-55840380D01*
X183102238Y-56316571D01*
X183149857Y-56268952D01*
X183245095Y-56221333D01*
X183483190Y-56221333D01*
X183578428Y-56268952D01*
X183626047Y-56316571D01*
X183673666Y-56411809D01*
X183673666Y-56649904D01*
X183626047Y-56745142D01*
X183578428Y-56792761D01*
X183483190Y-56840380D01*
X183245095Y-56840380D01*
X183149857Y-56792761D01*
X183102238Y-56745142D01*
%TO.C,C2*%
X126773333Y-68100142D02*
X126725714Y-68147761D01*
X126582857Y-68195380D01*
X126487619Y-68195380D01*
X126344761Y-68147761D01*
X126249523Y-68052523D01*
X126201904Y-67957285D01*
X126154285Y-67766809D01*
X126154285Y-67623952D01*
X126201904Y-67433476D01*
X126249523Y-67338238D01*
X126344761Y-67243000D01*
X126487619Y-67195380D01*
X126582857Y-67195380D01*
X126725714Y-67243000D01*
X126773333Y-67290619D01*
X127154285Y-67290619D02*
X127201904Y-67243000D01*
X127297142Y-67195380D01*
X127535238Y-67195380D01*
X127630476Y-67243000D01*
X127678095Y-67290619D01*
X127725714Y-67385857D01*
X127725714Y-67481095D01*
X127678095Y-67623952D01*
X127106666Y-68195380D01*
X127725714Y-68195380D01*
%TO.C,J4*%
X149145666Y-55840380D02*
X149145666Y-56554666D01*
X149098047Y-56697523D01*
X149002809Y-56792761D01*
X148859952Y-56840380D01*
X148764714Y-56840380D01*
X150050428Y-56173714D02*
X150050428Y-56840380D01*
X149812333Y-55792761D02*
X149574238Y-56507047D01*
X150193285Y-56507047D01*
%TO.C,C1*%
X122870542Y-52189166D02*
X122918161Y-52236785D01*
X122965780Y-52379642D01*
X122965780Y-52474880D01*
X122918161Y-52617738D01*
X122822923Y-52712976D01*
X122727685Y-52760595D01*
X122537209Y-52808214D01*
X122394352Y-52808214D01*
X122203876Y-52760595D01*
X122108638Y-52712976D01*
X122013400Y-52617738D01*
X121965780Y-52474880D01*
X121965780Y-52379642D01*
X122013400Y-52236785D01*
X122061019Y-52189166D01*
X122965780Y-51236785D02*
X122965780Y-51808214D01*
X122965780Y-51522500D02*
X121965780Y-51522500D01*
X122108638Y-51617738D01*
X122203876Y-51712976D01*
X122251495Y-51808214D01*
%TO.C,D2*%
X113717903Y-68340380D02*
X113717903Y-67340380D01*
X113955999Y-67340380D01*
X114098856Y-67388000D01*
X114194094Y-67483238D01*
X114241713Y-67578476D01*
X114289332Y-67768952D01*
X114289332Y-67911809D01*
X114241713Y-68102285D01*
X114194094Y-68197523D01*
X114098856Y-68292761D01*
X113955999Y-68340380D01*
X113717903Y-68340380D01*
X114670284Y-67435619D02*
X114717903Y-67388000D01*
X114813141Y-67340380D01*
X115051237Y-67340380D01*
X115146475Y-67388000D01*
X115194094Y-67435619D01*
X115241713Y-67530857D01*
X115241713Y-67626095D01*
X115194094Y-67768952D01*
X114622665Y-68340380D01*
X115241713Y-68340380D01*
X111371095Y-68710380D02*
X111371095Y-67710380D01*
X111942523Y-68710380D02*
X111513952Y-68138952D01*
X111942523Y-67710380D02*
X111371095Y-68281809D01*
%TO.C,J2*%
X131151380Y-131778333D02*
X131865666Y-131778333D01*
X132008523Y-131825952D01*
X132103761Y-131921190D01*
X132151380Y-132064047D01*
X132151380Y-132159285D01*
X131246619Y-131349761D02*
X131199000Y-131302142D01*
X131151380Y-131206904D01*
X131151380Y-130968809D01*
X131199000Y-130873571D01*
X131246619Y-130825952D01*
X131341857Y-130778333D01*
X131437095Y-130778333D01*
X131579952Y-130825952D01*
X132151380Y-131397380D01*
X132151380Y-130778333D01*
%TO.C,R1*%
X136624080Y-122150166D02*
X136147890Y-122483500D01*
X136624080Y-122721595D02*
X135624080Y-122721595D01*
X135624080Y-122340642D01*
X135671700Y-122245404D01*
X135719319Y-122197785D01*
X135814557Y-122150166D01*
X135957414Y-122150166D01*
X136052652Y-122197785D01*
X136100271Y-122245404D01*
X136147890Y-122340642D01*
X136147890Y-122721595D01*
X136624080Y-121197785D02*
X136624080Y-121769214D01*
X136624080Y-121483500D02*
X135624080Y-121483500D01*
X135766938Y-121578738D01*
X135862176Y-121673976D01*
X135909795Y-121769214D01*
%TO.C,R3*%
X140549333Y-126055380D02*
X140216000Y-125579190D01*
X139977904Y-126055380D02*
X139977904Y-125055380D01*
X140358857Y-125055380D01*
X140454095Y-125103000D01*
X140501714Y-125150619D01*
X140549333Y-125245857D01*
X140549333Y-125388714D01*
X140501714Y-125483952D01*
X140454095Y-125531571D01*
X140358857Y-125579190D01*
X139977904Y-125579190D01*
X140882666Y-125055380D02*
X141501714Y-125055380D01*
X141168380Y-125436333D01*
X141311238Y-125436333D01*
X141406476Y-125483952D01*
X141454095Y-125531571D01*
X141501714Y-125626809D01*
X141501714Y-125864904D01*
X141454095Y-125960142D01*
X141406476Y-126007761D01*
X141311238Y-126055380D01*
X141025523Y-126055380D01*
X140930285Y-126007761D01*
X140882666Y-125960142D01*
%TO.C,R6*%
X136723380Y-71413666D02*
X136247190Y-71747000D01*
X136723380Y-71985095D02*
X135723380Y-71985095D01*
X135723380Y-71604142D01*
X135771000Y-71508904D01*
X135818619Y-71461285D01*
X135913857Y-71413666D01*
X136056714Y-71413666D01*
X136151952Y-71461285D01*
X136199571Y-71508904D01*
X136247190Y-71604142D01*
X136247190Y-71985095D01*
X135723380Y-70556523D02*
X135723380Y-70747000D01*
X135771000Y-70842238D01*
X135818619Y-70889857D01*
X135961476Y-70985095D01*
X136151952Y-71032714D01*
X136532904Y-71032714D01*
X136628142Y-70985095D01*
X136675761Y-70937476D01*
X136723380Y-70842238D01*
X136723380Y-70651761D01*
X136675761Y-70556523D01*
X136628142Y-70508904D01*
X136532904Y-70461285D01*
X136294809Y-70461285D01*
X136199571Y-70508904D01*
X136151952Y-70556523D01*
X136104333Y-70651761D01*
X136104333Y-70842238D01*
X136151952Y-70937476D01*
X136199571Y-70985095D01*
X136294809Y-71032714D01*
%TO.C,R7*%
X136865380Y-62777666D02*
X136389190Y-63111000D01*
X136865380Y-63349095D02*
X135865380Y-63349095D01*
X135865380Y-62968142D01*
X135913000Y-62872904D01*
X135960619Y-62825285D01*
X136055857Y-62777666D01*
X136198714Y-62777666D01*
X136293952Y-62825285D01*
X136341571Y-62872904D01*
X136389190Y-62968142D01*
X136389190Y-63349095D01*
X135865380Y-62444333D02*
X135865380Y-61777666D01*
X136865380Y-62206238D01*
%TO.C,R2*%
X174101433Y-119690380D02*
X173768100Y-119214190D01*
X173530004Y-119690380D02*
X173530004Y-118690380D01*
X173910957Y-118690380D01*
X174006195Y-118738000D01*
X174053814Y-118785619D01*
X174101433Y-118880857D01*
X174101433Y-119023714D01*
X174053814Y-119118952D01*
X174006195Y-119166571D01*
X173910957Y-119214190D01*
X173530004Y-119214190D01*
X174482385Y-118785619D02*
X174530004Y-118738000D01*
X174625242Y-118690380D01*
X174863338Y-118690380D01*
X174958576Y-118738000D01*
X175006195Y-118785619D01*
X175053814Y-118880857D01*
X175053814Y-118976095D01*
X175006195Y-119118952D01*
X174434766Y-119690380D01*
X175053814Y-119690380D01*
%TO.C,R4*%
X174101433Y-112079880D02*
X173768100Y-111603690D01*
X173530004Y-112079880D02*
X173530004Y-111079880D01*
X173910957Y-111079880D01*
X174006195Y-111127500D01*
X174053814Y-111175119D01*
X174101433Y-111270357D01*
X174101433Y-111413214D01*
X174053814Y-111508452D01*
X174006195Y-111556071D01*
X173910957Y-111603690D01*
X173530004Y-111603690D01*
X174958576Y-111413214D02*
X174958576Y-112079880D01*
X174720480Y-111032261D02*
X174482385Y-111746547D01*
X175101433Y-111746547D01*
%TO.C,R5*%
X174001433Y-104479880D02*
X173668100Y-104003690D01*
X173430004Y-104479880D02*
X173430004Y-103479880D01*
X173810957Y-103479880D01*
X173906195Y-103527500D01*
X173953814Y-103575119D01*
X174001433Y-103670357D01*
X174001433Y-103813214D01*
X173953814Y-103908452D01*
X173906195Y-103956071D01*
X173810957Y-104003690D01*
X173430004Y-104003690D01*
X174906195Y-103479880D02*
X174430004Y-103479880D01*
X174382385Y-103956071D01*
X174430004Y-103908452D01*
X174525242Y-103860833D01*
X174763338Y-103860833D01*
X174858576Y-103908452D01*
X174906195Y-103956071D01*
X174953814Y-104051309D01*
X174953814Y-104289404D01*
X174906195Y-104384642D01*
X174858576Y-104432261D01*
X174763338Y-104479880D01*
X174525242Y-104479880D01*
X174430004Y-104432261D01*
X174382385Y-104384642D01*
%TO.C,R8*%
X174001433Y-96779880D02*
X173668100Y-96303690D01*
X173430004Y-96779880D02*
X173430004Y-95779880D01*
X173810957Y-95779880D01*
X173906195Y-95827500D01*
X173953814Y-95875119D01*
X174001433Y-95970357D01*
X174001433Y-96113214D01*
X173953814Y-96208452D01*
X173906195Y-96256071D01*
X173810957Y-96303690D01*
X173430004Y-96303690D01*
X174572861Y-96208452D02*
X174477623Y-96160833D01*
X174430004Y-96113214D01*
X174382385Y-96017976D01*
X174382385Y-95970357D01*
X174430004Y-95875119D01*
X174477623Y-95827500D01*
X174572861Y-95779880D01*
X174763338Y-95779880D01*
X174858576Y-95827500D01*
X174906195Y-95875119D01*
X174953814Y-95970357D01*
X174953814Y-96017976D01*
X174906195Y-96113214D01*
X174858576Y-96160833D01*
X174763338Y-96208452D01*
X174572861Y-96208452D01*
X174477623Y-96256071D01*
X174430004Y-96303690D01*
X174382385Y-96398928D01*
X174382385Y-96589404D01*
X174430004Y-96684642D01*
X174477623Y-96732261D01*
X174572861Y-96779880D01*
X174763338Y-96779880D01*
X174858576Y-96732261D01*
X174906195Y-96684642D01*
X174953814Y-96589404D01*
X174953814Y-96398928D01*
X174906195Y-96303690D01*
X174858576Y-96256071D01*
X174763338Y-96208452D01*
%TO.C,R9*%
X174001433Y-89210380D02*
X173668100Y-88734190D01*
X173430004Y-89210380D02*
X173430004Y-88210380D01*
X173810957Y-88210380D01*
X173906195Y-88258000D01*
X173953814Y-88305619D01*
X174001433Y-88400857D01*
X174001433Y-88543714D01*
X173953814Y-88638952D01*
X173906195Y-88686571D01*
X173810957Y-88734190D01*
X173430004Y-88734190D01*
X174477623Y-89210380D02*
X174668100Y-89210380D01*
X174763338Y-89162761D01*
X174810957Y-89115142D01*
X174906195Y-88972285D01*
X174953814Y-88781809D01*
X174953814Y-88400857D01*
X174906195Y-88305619D01*
X174858576Y-88258000D01*
X174763338Y-88210380D01*
X174572861Y-88210380D01*
X174477623Y-88258000D01*
X174430004Y-88305619D01*
X174382385Y-88400857D01*
X174382385Y-88638952D01*
X174430004Y-88734190D01*
X174477623Y-88781809D01*
X174572861Y-88829428D01*
X174763338Y-88829428D01*
X174858576Y-88781809D01*
X174906195Y-88734190D01*
X174953814Y-88638952D01*
%TO.C,R10*%
X173563042Y-81590380D02*
X173229709Y-81114190D01*
X172991614Y-81590380D02*
X172991614Y-80590380D01*
X173372566Y-80590380D01*
X173467804Y-80638000D01*
X173515423Y-80685619D01*
X173563042Y-80780857D01*
X173563042Y-80923714D01*
X173515423Y-81018952D01*
X173467804Y-81066571D01*
X173372566Y-81114190D01*
X172991614Y-81114190D01*
X174515423Y-81590380D02*
X173943995Y-81590380D01*
X174229709Y-81590380D02*
X174229709Y-80590380D01*
X174134471Y-80733238D01*
X174039233Y-80828476D01*
X173943995Y-80876095D01*
X175134471Y-80590380D02*
X175229709Y-80590380D01*
X175324947Y-80638000D01*
X175372566Y-80685619D01*
X175420185Y-80780857D01*
X175467804Y-80971333D01*
X175467804Y-81209428D01*
X175420185Y-81399904D01*
X175372566Y-81495142D01*
X175324947Y-81542761D01*
X175229709Y-81590380D01*
X175134471Y-81590380D01*
X175039233Y-81542761D01*
X174991614Y-81495142D01*
X174943995Y-81399904D01*
X174896376Y-81209428D01*
X174896376Y-80971333D01*
X174943995Y-80780857D01*
X174991614Y-80685619D01*
X175039233Y-80638000D01*
X175134471Y-80590380D01*
%TO.C,R11*%
X173537642Y-74366380D02*
X173204309Y-73890190D01*
X172966214Y-74366380D02*
X172966214Y-73366380D01*
X173347166Y-73366380D01*
X173442404Y-73414000D01*
X173490023Y-73461619D01*
X173537642Y-73556857D01*
X173537642Y-73699714D01*
X173490023Y-73794952D01*
X173442404Y-73842571D01*
X173347166Y-73890190D01*
X172966214Y-73890190D01*
X174490023Y-74366380D02*
X173918595Y-74366380D01*
X174204309Y-74366380D02*
X174204309Y-73366380D01*
X174109071Y-73509238D01*
X174013833Y-73604476D01*
X173918595Y-73652095D01*
X175442404Y-74366380D02*
X174870976Y-74366380D01*
X175156690Y-74366380D02*
X175156690Y-73366380D01*
X175061452Y-73509238D01*
X174966214Y-73604476D01*
X174870976Y-73652095D01*
%TO.C,R12*%
X173601142Y-66365380D02*
X173267809Y-65889190D01*
X173029714Y-66365380D02*
X173029714Y-65365380D01*
X173410666Y-65365380D01*
X173505904Y-65413000D01*
X173553523Y-65460619D01*
X173601142Y-65555857D01*
X173601142Y-65698714D01*
X173553523Y-65793952D01*
X173505904Y-65841571D01*
X173410666Y-65889190D01*
X173029714Y-65889190D01*
X174553523Y-66365380D02*
X173982095Y-66365380D01*
X174267809Y-66365380D02*
X174267809Y-65365380D01*
X174172571Y-65508238D01*
X174077333Y-65603476D01*
X173982095Y-65651095D01*
X174934476Y-65460619D02*
X174982095Y-65413000D01*
X175077333Y-65365380D01*
X175315428Y-65365380D01*
X175410666Y-65413000D01*
X175458285Y-65460619D01*
X175505904Y-65555857D01*
X175505904Y-65651095D01*
X175458285Y-65793952D01*
X174886857Y-66365380D01*
X175505904Y-66365380D01*
%TO.C,R37*%
X140022342Y-118308380D02*
X139689009Y-117832190D01*
X139450914Y-118308380D02*
X139450914Y-117308380D01*
X139831866Y-117308380D01*
X139927104Y-117356000D01*
X139974723Y-117403619D01*
X140022342Y-117498857D01*
X140022342Y-117641714D01*
X139974723Y-117736952D01*
X139927104Y-117784571D01*
X139831866Y-117832190D01*
X139450914Y-117832190D01*
X140355676Y-117308380D02*
X140974723Y-117308380D01*
X140641390Y-117689333D01*
X140784247Y-117689333D01*
X140879485Y-117736952D01*
X140927104Y-117784571D01*
X140974723Y-117879809D01*
X140974723Y-118117904D01*
X140927104Y-118213142D01*
X140879485Y-118260761D01*
X140784247Y-118308380D01*
X140498533Y-118308380D01*
X140403295Y-118260761D01*
X140355676Y-118213142D01*
X141308057Y-117308380D02*
X141974723Y-117308380D01*
X141546152Y-118308380D01*
%TO.C,R39*%
X139946142Y-110688380D02*
X139612809Y-110212190D01*
X139374714Y-110688380D02*
X139374714Y-109688380D01*
X139755666Y-109688380D01*
X139850904Y-109736000D01*
X139898523Y-109783619D01*
X139946142Y-109878857D01*
X139946142Y-110021714D01*
X139898523Y-110116952D01*
X139850904Y-110164571D01*
X139755666Y-110212190D01*
X139374714Y-110212190D01*
X140279476Y-109688380D02*
X140898523Y-109688380D01*
X140565190Y-110069333D01*
X140708047Y-110069333D01*
X140803285Y-110116952D01*
X140850904Y-110164571D01*
X140898523Y-110259809D01*
X140898523Y-110497904D01*
X140850904Y-110593142D01*
X140803285Y-110640761D01*
X140708047Y-110688380D01*
X140422333Y-110688380D01*
X140327095Y-110640761D01*
X140279476Y-110593142D01*
X141374714Y-110688380D02*
X141565190Y-110688380D01*
X141660428Y-110640761D01*
X141708047Y-110593142D01*
X141803285Y-110450285D01*
X141850904Y-110259809D01*
X141850904Y-109878857D01*
X141803285Y-109783619D01*
X141755666Y-109736000D01*
X141660428Y-109688380D01*
X141469952Y-109688380D01*
X141374714Y-109736000D01*
X141327095Y-109783619D01*
X141279476Y-109878857D01*
X141279476Y-110116952D01*
X141327095Y-110212190D01*
X141374714Y-110259809D01*
X141469952Y-110307428D01*
X141660428Y-110307428D01*
X141755666Y-110259809D01*
X141803285Y-110212190D01*
X141850904Y-110116952D01*
%TO.C,R41*%
X140073142Y-103195380D02*
X139739809Y-102719190D01*
X139501714Y-103195380D02*
X139501714Y-102195380D01*
X139882666Y-102195380D01*
X139977904Y-102243000D01*
X140025523Y-102290619D01*
X140073142Y-102385857D01*
X140073142Y-102528714D01*
X140025523Y-102623952D01*
X139977904Y-102671571D01*
X139882666Y-102719190D01*
X139501714Y-102719190D01*
X140930285Y-102528714D02*
X140930285Y-103195380D01*
X140692190Y-102147761D02*
X140454095Y-102862047D01*
X141073142Y-102862047D01*
X141977904Y-103195380D02*
X141406476Y-103195380D01*
X141692190Y-103195380D02*
X141692190Y-102195380D01*
X141596952Y-102338238D01*
X141501714Y-102433476D01*
X141406476Y-102481095D01*
%TO.C,R43*%
X139946142Y-95448380D02*
X139612809Y-94972190D01*
X139374714Y-95448380D02*
X139374714Y-94448380D01*
X139755666Y-94448380D01*
X139850904Y-94496000D01*
X139898523Y-94543619D01*
X139946142Y-94638857D01*
X139946142Y-94781714D01*
X139898523Y-94876952D01*
X139850904Y-94924571D01*
X139755666Y-94972190D01*
X139374714Y-94972190D01*
X140803285Y-94781714D02*
X140803285Y-95448380D01*
X140565190Y-94400761D02*
X140327095Y-95115047D01*
X140946142Y-95115047D01*
X141231857Y-94448380D02*
X141850904Y-94448380D01*
X141517571Y-94829333D01*
X141660428Y-94829333D01*
X141755666Y-94876952D01*
X141803285Y-94924571D01*
X141850904Y-95019809D01*
X141850904Y-95257904D01*
X141803285Y-95353142D01*
X141755666Y-95400761D01*
X141660428Y-95448380D01*
X141374714Y-95448380D01*
X141279476Y-95400761D01*
X141231857Y-95353142D01*
%TO.C,R45*%
X140073142Y-87955380D02*
X139739809Y-87479190D01*
X139501714Y-87955380D02*
X139501714Y-86955380D01*
X139882666Y-86955380D01*
X139977904Y-87003000D01*
X140025523Y-87050619D01*
X140073142Y-87145857D01*
X140073142Y-87288714D01*
X140025523Y-87383952D01*
X139977904Y-87431571D01*
X139882666Y-87479190D01*
X139501714Y-87479190D01*
X140930285Y-87288714D02*
X140930285Y-87955380D01*
X140692190Y-86907761D02*
X140454095Y-87622047D01*
X141073142Y-87622047D01*
X141930285Y-86955380D02*
X141454095Y-86955380D01*
X141406476Y-87431571D01*
X141454095Y-87383952D01*
X141549333Y-87336333D01*
X141787428Y-87336333D01*
X141882666Y-87383952D01*
X141930285Y-87431571D01*
X141977904Y-87526809D01*
X141977904Y-87764904D01*
X141930285Y-87860142D01*
X141882666Y-87907761D01*
X141787428Y-87955380D01*
X141549333Y-87955380D01*
X141454095Y-87907761D01*
X141406476Y-87860142D01*
%TO.C,R47*%
X140073142Y-80335380D02*
X139739809Y-79859190D01*
X139501714Y-80335380D02*
X139501714Y-79335380D01*
X139882666Y-79335380D01*
X139977904Y-79383000D01*
X140025523Y-79430619D01*
X140073142Y-79525857D01*
X140073142Y-79668714D01*
X140025523Y-79763952D01*
X139977904Y-79811571D01*
X139882666Y-79859190D01*
X139501714Y-79859190D01*
X140930285Y-79668714D02*
X140930285Y-80335380D01*
X140692190Y-79287761D02*
X140454095Y-80002047D01*
X141073142Y-80002047D01*
X141358857Y-79335380D02*
X142025523Y-79335380D01*
X141596952Y-80335380D01*
%TO.C,R49*%
X140200142Y-72715380D02*
X139866809Y-72239190D01*
X139628714Y-72715380D02*
X139628714Y-71715380D01*
X140009666Y-71715380D01*
X140104904Y-71763000D01*
X140152523Y-71810619D01*
X140200142Y-71905857D01*
X140200142Y-72048714D01*
X140152523Y-72143952D01*
X140104904Y-72191571D01*
X140009666Y-72239190D01*
X139628714Y-72239190D01*
X141057285Y-72048714D02*
X141057285Y-72715380D01*
X140819190Y-71667761D02*
X140581095Y-72382047D01*
X141200142Y-72382047D01*
X141628714Y-72715380D02*
X141819190Y-72715380D01*
X141914428Y-72667761D01*
X141962047Y-72620142D01*
X142057285Y-72477285D01*
X142104904Y-72286809D01*
X142104904Y-71905857D01*
X142057285Y-71810619D01*
X142009666Y-71763000D01*
X141914428Y-71715380D01*
X141723952Y-71715380D01*
X141628714Y-71763000D01*
X141581095Y-71810619D01*
X141533476Y-71905857D01*
X141533476Y-72143952D01*
X141581095Y-72239190D01*
X141628714Y-72286809D01*
X141723952Y-72334428D01*
X141914428Y-72334428D01*
X142009666Y-72286809D01*
X142057285Y-72239190D01*
X142104904Y-72143952D01*
%TO.C,R52*%
X140073142Y-64968380D02*
X139739809Y-64492190D01*
X139501714Y-64968380D02*
X139501714Y-63968380D01*
X139882666Y-63968380D01*
X139977904Y-64016000D01*
X140025523Y-64063619D01*
X140073142Y-64158857D01*
X140073142Y-64301714D01*
X140025523Y-64396952D01*
X139977904Y-64444571D01*
X139882666Y-64492190D01*
X139501714Y-64492190D01*
X140977904Y-63968380D02*
X140501714Y-63968380D01*
X140454095Y-64444571D01*
X140501714Y-64396952D01*
X140596952Y-64349333D01*
X140835047Y-64349333D01*
X140930285Y-64396952D01*
X140977904Y-64444571D01*
X141025523Y-64539809D01*
X141025523Y-64777904D01*
X140977904Y-64873142D01*
X140930285Y-64920761D01*
X140835047Y-64968380D01*
X140596952Y-64968380D01*
X140501714Y-64920761D01*
X140454095Y-64873142D01*
X141406476Y-64063619D02*
X141454095Y-64016000D01*
X141549333Y-63968380D01*
X141787428Y-63968380D01*
X141882666Y-64016000D01*
X141930285Y-64063619D01*
X141977904Y-64158857D01*
X141977904Y-64254095D01*
X141930285Y-64396952D01*
X141358857Y-64968380D01*
X141977904Y-64968380D01*
%TO.C,R38*%
X158059380Y-116720857D02*
X157583190Y-117054190D01*
X158059380Y-117292285D02*
X157059380Y-117292285D01*
X157059380Y-116911333D01*
X157107000Y-116816095D01*
X157154619Y-116768476D01*
X157249857Y-116720857D01*
X157392714Y-116720857D01*
X157487952Y-116768476D01*
X157535571Y-116816095D01*
X157583190Y-116911333D01*
X157583190Y-117292285D01*
X157059380Y-116387523D02*
X157059380Y-115768476D01*
X157440333Y-116101809D01*
X157440333Y-115958952D01*
X157487952Y-115863714D01*
X157535571Y-115816095D01*
X157630809Y-115768476D01*
X157868904Y-115768476D01*
X157964142Y-115816095D01*
X158011761Y-115863714D01*
X158059380Y-115958952D01*
X158059380Y-116244666D01*
X158011761Y-116339904D01*
X157964142Y-116387523D01*
X157487952Y-115197047D02*
X157440333Y-115292285D01*
X157392714Y-115339904D01*
X157297476Y-115387523D01*
X157249857Y-115387523D01*
X157154619Y-115339904D01*
X157107000Y-115292285D01*
X157059380Y-115197047D01*
X157059380Y-115006571D01*
X157107000Y-114911333D01*
X157154619Y-114863714D01*
X157249857Y-114816095D01*
X157297476Y-114816095D01*
X157392714Y-114863714D01*
X157440333Y-114911333D01*
X157487952Y-115006571D01*
X157487952Y-115197047D01*
X157535571Y-115292285D01*
X157583190Y-115339904D01*
X157678428Y-115387523D01*
X157868904Y-115387523D01*
X157964142Y-115339904D01*
X158011761Y-115292285D01*
X158059380Y-115197047D01*
X158059380Y-115006571D01*
X158011761Y-114911333D01*
X157964142Y-114863714D01*
X157868904Y-114816095D01*
X157678428Y-114816095D01*
X157583190Y-114863714D01*
X157535571Y-114911333D01*
X157487952Y-115006571D01*
%TO.C,R40*%
X158059380Y-109100857D02*
X157583190Y-109434190D01*
X158059380Y-109672285D02*
X157059380Y-109672285D01*
X157059380Y-109291333D01*
X157107000Y-109196095D01*
X157154619Y-109148476D01*
X157249857Y-109100857D01*
X157392714Y-109100857D01*
X157487952Y-109148476D01*
X157535571Y-109196095D01*
X157583190Y-109291333D01*
X157583190Y-109672285D01*
X157392714Y-108243714D02*
X158059380Y-108243714D01*
X157011761Y-108481809D02*
X157726047Y-108719904D01*
X157726047Y-108100857D01*
X157059380Y-107529428D02*
X157059380Y-107434190D01*
X157107000Y-107338952D01*
X157154619Y-107291333D01*
X157249857Y-107243714D01*
X157440333Y-107196095D01*
X157678428Y-107196095D01*
X157868904Y-107243714D01*
X157964142Y-107291333D01*
X158011761Y-107338952D01*
X158059380Y-107434190D01*
X158059380Y-107529428D01*
X158011761Y-107624666D01*
X157964142Y-107672285D01*
X157868904Y-107719904D01*
X157678428Y-107767523D01*
X157440333Y-107767523D01*
X157249857Y-107719904D01*
X157154619Y-107672285D01*
X157107000Y-107624666D01*
X157059380Y-107529428D01*
%TO.C,R42*%
X158059380Y-101734857D02*
X157583190Y-102068190D01*
X158059380Y-102306285D02*
X157059380Y-102306285D01*
X157059380Y-101925333D01*
X157107000Y-101830095D01*
X157154619Y-101782476D01*
X157249857Y-101734857D01*
X157392714Y-101734857D01*
X157487952Y-101782476D01*
X157535571Y-101830095D01*
X157583190Y-101925333D01*
X157583190Y-102306285D01*
X157392714Y-100877714D02*
X158059380Y-100877714D01*
X157011761Y-101115809D02*
X157726047Y-101353904D01*
X157726047Y-100734857D01*
X157154619Y-100401523D02*
X157107000Y-100353904D01*
X157059380Y-100258666D01*
X157059380Y-100020571D01*
X157107000Y-99925333D01*
X157154619Y-99877714D01*
X157249857Y-99830095D01*
X157345095Y-99830095D01*
X157487952Y-99877714D01*
X158059380Y-100449142D01*
X158059380Y-99830095D01*
%TO.C,R44*%
X158059380Y-93860857D02*
X157583190Y-94194190D01*
X158059380Y-94432285D02*
X157059380Y-94432285D01*
X157059380Y-94051333D01*
X157107000Y-93956095D01*
X157154619Y-93908476D01*
X157249857Y-93860857D01*
X157392714Y-93860857D01*
X157487952Y-93908476D01*
X157535571Y-93956095D01*
X157583190Y-94051333D01*
X157583190Y-94432285D01*
X157392714Y-93003714D02*
X158059380Y-93003714D01*
X157011761Y-93241809D02*
X157726047Y-93479904D01*
X157726047Y-92860857D01*
X157392714Y-92051333D02*
X158059380Y-92051333D01*
X157011761Y-92289428D02*
X157726047Y-92527523D01*
X157726047Y-91908476D01*
%TO.C,R46*%
X158046680Y-86240857D02*
X157570490Y-86574190D01*
X158046680Y-86812285D02*
X157046680Y-86812285D01*
X157046680Y-86431333D01*
X157094300Y-86336095D01*
X157141919Y-86288476D01*
X157237157Y-86240857D01*
X157380014Y-86240857D01*
X157475252Y-86288476D01*
X157522871Y-86336095D01*
X157570490Y-86431333D01*
X157570490Y-86812285D01*
X157380014Y-85383714D02*
X158046680Y-85383714D01*
X156999061Y-85621809D02*
X157713347Y-85859904D01*
X157713347Y-85240857D01*
X157046680Y-84431333D02*
X157046680Y-84621809D01*
X157094300Y-84717047D01*
X157141919Y-84764666D01*
X157284776Y-84859904D01*
X157475252Y-84907523D01*
X157856204Y-84907523D01*
X157951442Y-84859904D01*
X157999061Y-84812285D01*
X158046680Y-84717047D01*
X158046680Y-84526571D01*
X157999061Y-84431333D01*
X157951442Y-84383714D01*
X157856204Y-84336095D01*
X157618109Y-84336095D01*
X157522871Y-84383714D01*
X157475252Y-84431333D01*
X157427633Y-84526571D01*
X157427633Y-84717047D01*
X157475252Y-84812285D01*
X157522871Y-84859904D01*
X157618109Y-84907523D01*
%TO.C,R48*%
X158046680Y-78620857D02*
X157570490Y-78954190D01*
X158046680Y-79192285D02*
X157046680Y-79192285D01*
X157046680Y-78811333D01*
X157094300Y-78716095D01*
X157141919Y-78668476D01*
X157237157Y-78620857D01*
X157380014Y-78620857D01*
X157475252Y-78668476D01*
X157522871Y-78716095D01*
X157570490Y-78811333D01*
X157570490Y-79192285D01*
X157380014Y-77763714D02*
X158046680Y-77763714D01*
X156999061Y-78001809D02*
X157713347Y-78239904D01*
X157713347Y-77620857D01*
X157475252Y-77097047D02*
X157427633Y-77192285D01*
X157380014Y-77239904D01*
X157284776Y-77287523D01*
X157237157Y-77287523D01*
X157141919Y-77239904D01*
X157094300Y-77192285D01*
X157046680Y-77097047D01*
X157046680Y-76906571D01*
X157094300Y-76811333D01*
X157141919Y-76763714D01*
X157237157Y-76716095D01*
X157284776Y-76716095D01*
X157380014Y-76763714D01*
X157427633Y-76811333D01*
X157475252Y-76906571D01*
X157475252Y-77097047D01*
X157522871Y-77192285D01*
X157570490Y-77239904D01*
X157665728Y-77287523D01*
X157856204Y-77287523D01*
X157951442Y-77239904D01*
X157999061Y-77192285D01*
X158046680Y-77097047D01*
X158046680Y-76906571D01*
X157999061Y-76811333D01*
X157951442Y-76763714D01*
X157856204Y-76716095D01*
X157665728Y-76716095D01*
X157570490Y-76763714D01*
X157522871Y-76811333D01*
X157475252Y-76906571D01*
%TO.C,R50*%
X158059380Y-70962757D02*
X157583190Y-71296090D01*
X158059380Y-71534185D02*
X157059380Y-71534185D01*
X157059380Y-71153233D01*
X157107000Y-71057995D01*
X157154619Y-71010376D01*
X157249857Y-70962757D01*
X157392714Y-70962757D01*
X157487952Y-71010376D01*
X157535571Y-71057995D01*
X157583190Y-71153233D01*
X157583190Y-71534185D01*
X157059380Y-70057995D02*
X157059380Y-70534185D01*
X157535571Y-70581804D01*
X157487952Y-70534185D01*
X157440333Y-70438947D01*
X157440333Y-70200852D01*
X157487952Y-70105614D01*
X157535571Y-70057995D01*
X157630809Y-70010376D01*
X157868904Y-70010376D01*
X157964142Y-70057995D01*
X158011761Y-70105614D01*
X158059380Y-70200852D01*
X158059380Y-70438947D01*
X158011761Y-70534185D01*
X157964142Y-70581804D01*
X157059380Y-69391328D02*
X157059380Y-69296090D01*
X157107000Y-69200852D01*
X157154619Y-69153233D01*
X157249857Y-69105614D01*
X157440333Y-69057995D01*
X157678428Y-69057995D01*
X157868904Y-69105614D01*
X157964142Y-69153233D01*
X158011761Y-69200852D01*
X158059380Y-69296090D01*
X158059380Y-69391328D01*
X158011761Y-69486566D01*
X157964142Y-69534185D01*
X157868904Y-69581804D01*
X157678428Y-69629423D01*
X157440333Y-69629423D01*
X157249857Y-69581804D01*
X157154619Y-69534185D01*
X157107000Y-69486566D01*
X157059380Y-69391328D01*
%TO.C,R51*%
X158059380Y-63380857D02*
X157583190Y-63714190D01*
X158059380Y-63952285D02*
X157059380Y-63952285D01*
X157059380Y-63571333D01*
X157107000Y-63476095D01*
X157154619Y-63428476D01*
X157249857Y-63380857D01*
X157392714Y-63380857D01*
X157487952Y-63428476D01*
X157535571Y-63476095D01*
X157583190Y-63571333D01*
X157583190Y-63952285D01*
X157059380Y-62476095D02*
X157059380Y-62952285D01*
X157535571Y-62999904D01*
X157487952Y-62952285D01*
X157440333Y-62857047D01*
X157440333Y-62618952D01*
X157487952Y-62523714D01*
X157535571Y-62476095D01*
X157630809Y-62428476D01*
X157868904Y-62428476D01*
X157964142Y-62476095D01*
X158011761Y-62523714D01*
X158059380Y-62618952D01*
X158059380Y-62857047D01*
X158011761Y-62952285D01*
X157964142Y-62999904D01*
X158059380Y-61476095D02*
X158059380Y-62047523D01*
X158059380Y-61761809D02*
X157059380Y-61761809D01*
X157202238Y-61857047D01*
X157297476Y-61952285D01*
X157345095Y-62047523D01*
%TO.C,U2*%
X162877595Y-47884280D02*
X162877595Y-48693804D01*
X162925214Y-48789042D01*
X162972833Y-48836661D01*
X163068071Y-48884280D01*
X163258547Y-48884280D01*
X163353785Y-48836661D01*
X163401404Y-48789042D01*
X163449023Y-48693804D01*
X163449023Y-47884280D01*
X163877595Y-47979519D02*
X163925214Y-47931900D01*
X164020452Y-47884280D01*
X164258547Y-47884280D01*
X164353785Y-47931900D01*
X164401404Y-47979519D01*
X164449023Y-48074757D01*
X164449023Y-48169995D01*
X164401404Y-48312852D01*
X163829976Y-48884280D01*
X164449023Y-48884280D01*
%TO.C,U4*%
X124641196Y-55751081D02*
X124641196Y-56560605D01*
X124688815Y-56655843D01*
X124736434Y-56703462D01*
X124831672Y-56751081D01*
X125022148Y-56751081D01*
X125117386Y-56703462D01*
X125165005Y-56655843D01*
X125212624Y-56560605D01*
X125212624Y-55751081D01*
X126117386Y-56084415D02*
X126117386Y-56751081D01*
X125879291Y-55703462D02*
X125641196Y-56417748D01*
X126260243Y-56417748D01*
%TO.C,R13*%
X140073142Y-119715780D02*
X139739809Y-119239590D01*
X139501714Y-119715780D02*
X139501714Y-118715780D01*
X139882666Y-118715780D01*
X139977904Y-118763400D01*
X140025523Y-118811019D01*
X140073142Y-118906257D01*
X140073142Y-119049114D01*
X140025523Y-119144352D01*
X139977904Y-119191971D01*
X139882666Y-119239590D01*
X139501714Y-119239590D01*
X141025523Y-119715780D02*
X140454095Y-119715780D01*
X140739809Y-119715780D02*
X140739809Y-118715780D01*
X140644571Y-118858638D01*
X140549333Y-118953876D01*
X140454095Y-119001495D01*
X141358857Y-118715780D02*
X141977904Y-118715780D01*
X141644571Y-119096733D01*
X141787428Y-119096733D01*
X141882666Y-119144352D01*
X141930285Y-119191971D01*
X141977904Y-119287209D01*
X141977904Y-119525304D01*
X141930285Y-119620542D01*
X141882666Y-119668161D01*
X141787428Y-119715780D01*
X141501714Y-119715780D01*
X141406476Y-119668161D01*
X141358857Y-119620542D01*
%TO.C,R14*%
X139971542Y-112057680D02*
X139638209Y-111581490D01*
X139400114Y-112057680D02*
X139400114Y-111057680D01*
X139781066Y-111057680D01*
X139876304Y-111105300D01*
X139923923Y-111152919D01*
X139971542Y-111248157D01*
X139971542Y-111391014D01*
X139923923Y-111486252D01*
X139876304Y-111533871D01*
X139781066Y-111581490D01*
X139400114Y-111581490D01*
X140923923Y-112057680D02*
X140352495Y-112057680D01*
X140638209Y-112057680D02*
X140638209Y-111057680D01*
X140542971Y-111200538D01*
X140447733Y-111295776D01*
X140352495Y-111343395D01*
X141781066Y-111391014D02*
X141781066Y-112057680D01*
X141542971Y-111010061D02*
X141304876Y-111724347D01*
X141923923Y-111724347D01*
%TO.C,R15*%
X140073142Y-104450380D02*
X139739809Y-103974190D01*
X139501714Y-104450380D02*
X139501714Y-103450380D01*
X139882666Y-103450380D01*
X139977904Y-103498000D01*
X140025523Y-103545619D01*
X140073142Y-103640857D01*
X140073142Y-103783714D01*
X140025523Y-103878952D01*
X139977904Y-103926571D01*
X139882666Y-103974190D01*
X139501714Y-103974190D01*
X141025523Y-104450380D02*
X140454095Y-104450380D01*
X140739809Y-104450380D02*
X140739809Y-103450380D01*
X140644571Y-103593238D01*
X140549333Y-103688476D01*
X140454095Y-103736095D01*
X141930285Y-103450380D02*
X141454095Y-103450380D01*
X141406476Y-103926571D01*
X141454095Y-103878952D01*
X141549333Y-103831333D01*
X141787428Y-103831333D01*
X141882666Y-103878952D01*
X141930285Y-103926571D01*
X141977904Y-104021809D01*
X141977904Y-104259904D01*
X141930285Y-104355142D01*
X141882666Y-104402761D01*
X141787428Y-104450380D01*
X141549333Y-104450380D01*
X141454095Y-104402761D01*
X141406476Y-104355142D01*
%TO.C,R16*%
X140073142Y-96830380D02*
X139739809Y-96354190D01*
X139501714Y-96830380D02*
X139501714Y-95830380D01*
X139882666Y-95830380D01*
X139977904Y-95878000D01*
X140025523Y-95925619D01*
X140073142Y-96020857D01*
X140073142Y-96163714D01*
X140025523Y-96258952D01*
X139977904Y-96306571D01*
X139882666Y-96354190D01*
X139501714Y-96354190D01*
X141025523Y-96830380D02*
X140454095Y-96830380D01*
X140739809Y-96830380D02*
X140739809Y-95830380D01*
X140644571Y-95973238D01*
X140549333Y-96068476D01*
X140454095Y-96116095D01*
X141882666Y-95830380D02*
X141692190Y-95830380D01*
X141596952Y-95878000D01*
X141549333Y-95925619D01*
X141454095Y-96068476D01*
X141406476Y-96258952D01*
X141406476Y-96639904D01*
X141454095Y-96735142D01*
X141501714Y-96782761D01*
X141596952Y-96830380D01*
X141787428Y-96830380D01*
X141882666Y-96782761D01*
X141930285Y-96735142D01*
X141977904Y-96639904D01*
X141977904Y-96401809D01*
X141930285Y-96306571D01*
X141882666Y-96258952D01*
X141787428Y-96211333D01*
X141596952Y-96211333D01*
X141501714Y-96258952D01*
X141454095Y-96306571D01*
X141406476Y-96401809D01*
%TO.C,R17*%
X140073142Y-89210380D02*
X139739809Y-88734190D01*
X139501714Y-89210380D02*
X139501714Y-88210380D01*
X139882666Y-88210380D01*
X139977904Y-88258000D01*
X140025523Y-88305619D01*
X140073142Y-88400857D01*
X140073142Y-88543714D01*
X140025523Y-88638952D01*
X139977904Y-88686571D01*
X139882666Y-88734190D01*
X139501714Y-88734190D01*
X141025523Y-89210380D02*
X140454095Y-89210380D01*
X140739809Y-89210380D02*
X140739809Y-88210380D01*
X140644571Y-88353238D01*
X140549333Y-88448476D01*
X140454095Y-88496095D01*
X141358857Y-88210380D02*
X142025523Y-88210380D01*
X141596952Y-89210380D01*
%TO.C,R18*%
X140073142Y-81590380D02*
X139739809Y-81114190D01*
X139501714Y-81590380D02*
X139501714Y-80590380D01*
X139882666Y-80590380D01*
X139977904Y-80638000D01*
X140025523Y-80685619D01*
X140073142Y-80780857D01*
X140073142Y-80923714D01*
X140025523Y-81018952D01*
X139977904Y-81066571D01*
X139882666Y-81114190D01*
X139501714Y-81114190D01*
X141025523Y-81590380D02*
X140454095Y-81590380D01*
X140739809Y-81590380D02*
X140739809Y-80590380D01*
X140644571Y-80733238D01*
X140549333Y-80828476D01*
X140454095Y-80876095D01*
X141596952Y-81018952D02*
X141501714Y-80971333D01*
X141454095Y-80923714D01*
X141406476Y-80828476D01*
X141406476Y-80780857D01*
X141454095Y-80685619D01*
X141501714Y-80638000D01*
X141596952Y-80590380D01*
X141787428Y-80590380D01*
X141882666Y-80638000D01*
X141930285Y-80685619D01*
X141977904Y-80780857D01*
X141977904Y-80828476D01*
X141930285Y-80923714D01*
X141882666Y-80971333D01*
X141787428Y-81018952D01*
X141596952Y-81018952D01*
X141501714Y-81066571D01*
X141454095Y-81114190D01*
X141406476Y-81209428D01*
X141406476Y-81399904D01*
X141454095Y-81495142D01*
X141501714Y-81542761D01*
X141596952Y-81590380D01*
X141787428Y-81590380D01*
X141882666Y-81542761D01*
X141930285Y-81495142D01*
X141977904Y-81399904D01*
X141977904Y-81209428D01*
X141930285Y-81114190D01*
X141882666Y-81066571D01*
X141787428Y-81018952D01*
%TO.C,R19*%
X140200142Y-74112380D02*
X139866809Y-73636190D01*
X139628714Y-74112380D02*
X139628714Y-73112380D01*
X140009666Y-73112380D01*
X140104904Y-73160000D01*
X140152523Y-73207619D01*
X140200142Y-73302857D01*
X140200142Y-73445714D01*
X140152523Y-73540952D01*
X140104904Y-73588571D01*
X140009666Y-73636190D01*
X139628714Y-73636190D01*
X141152523Y-74112380D02*
X140581095Y-74112380D01*
X140866809Y-74112380D02*
X140866809Y-73112380D01*
X140771571Y-73255238D01*
X140676333Y-73350476D01*
X140581095Y-73398095D01*
X141628714Y-74112380D02*
X141819190Y-74112380D01*
X141914428Y-74064761D01*
X141962047Y-74017142D01*
X142057285Y-73874285D01*
X142104904Y-73683809D01*
X142104904Y-73302857D01*
X142057285Y-73207619D01*
X142009666Y-73160000D01*
X141914428Y-73112380D01*
X141723952Y-73112380D01*
X141628714Y-73160000D01*
X141581095Y-73207619D01*
X141533476Y-73302857D01*
X141533476Y-73540952D01*
X141581095Y-73636190D01*
X141628714Y-73683809D01*
X141723952Y-73731428D01*
X141914428Y-73731428D01*
X142009666Y-73683809D01*
X142057285Y-73636190D01*
X142104904Y-73540952D01*
%TO.C,R20*%
X140073142Y-66350380D02*
X139739809Y-65874190D01*
X139501714Y-66350380D02*
X139501714Y-65350380D01*
X139882666Y-65350380D01*
X139977904Y-65398000D01*
X140025523Y-65445619D01*
X140073142Y-65540857D01*
X140073142Y-65683714D01*
X140025523Y-65778952D01*
X139977904Y-65826571D01*
X139882666Y-65874190D01*
X139501714Y-65874190D01*
X140454095Y-65445619D02*
X140501714Y-65398000D01*
X140596952Y-65350380D01*
X140835047Y-65350380D01*
X140930285Y-65398000D01*
X140977904Y-65445619D01*
X141025523Y-65540857D01*
X141025523Y-65636095D01*
X140977904Y-65778952D01*
X140406476Y-66350380D01*
X141025523Y-66350380D01*
X141644571Y-65350380D02*
X141739809Y-65350380D01*
X141835047Y-65398000D01*
X141882666Y-65445619D01*
X141930285Y-65540857D01*
X141977904Y-65731333D01*
X141977904Y-65969428D01*
X141930285Y-66159904D01*
X141882666Y-66255142D01*
X141835047Y-66302761D01*
X141739809Y-66350380D01*
X141644571Y-66350380D01*
X141549333Y-66302761D01*
X141501714Y-66255142D01*
X141454095Y-66159904D01*
X141406476Y-65969428D01*
X141406476Y-65731333D01*
X141454095Y-65540857D01*
X141501714Y-65445619D01*
X141549333Y-65398000D01*
X141644571Y-65350380D01*
%TO.C,R21*%
X173728142Y-118308380D02*
X173394809Y-117832190D01*
X173156714Y-118308380D02*
X173156714Y-117308380D01*
X173537666Y-117308380D01*
X173632904Y-117356000D01*
X173680523Y-117403619D01*
X173728142Y-117498857D01*
X173728142Y-117641714D01*
X173680523Y-117736952D01*
X173632904Y-117784571D01*
X173537666Y-117832190D01*
X173156714Y-117832190D01*
X174109095Y-117403619D02*
X174156714Y-117356000D01*
X174251952Y-117308380D01*
X174490047Y-117308380D01*
X174585285Y-117356000D01*
X174632904Y-117403619D01*
X174680523Y-117498857D01*
X174680523Y-117594095D01*
X174632904Y-117736952D01*
X174061476Y-118308380D01*
X174680523Y-118308380D01*
X175632904Y-118308380D02*
X175061476Y-118308380D01*
X175347190Y-118308380D02*
X175347190Y-117308380D01*
X175251952Y-117451238D01*
X175156714Y-117546476D01*
X175061476Y-117594095D01*
%TO.C,R22*%
X191587380Y-116720857D02*
X191111190Y-117054190D01*
X191587380Y-117292285D02*
X190587380Y-117292285D01*
X190587380Y-116911333D01*
X190635000Y-116816095D01*
X190682619Y-116768476D01*
X190777857Y-116720857D01*
X190920714Y-116720857D01*
X191015952Y-116768476D01*
X191063571Y-116816095D01*
X191111190Y-116911333D01*
X191111190Y-117292285D01*
X190682619Y-116339904D02*
X190635000Y-116292285D01*
X190587380Y-116197047D01*
X190587380Y-115958952D01*
X190635000Y-115863714D01*
X190682619Y-115816095D01*
X190777857Y-115768476D01*
X190873095Y-115768476D01*
X191015952Y-115816095D01*
X191587380Y-116387523D01*
X191587380Y-115768476D01*
X190682619Y-115387523D02*
X190635000Y-115339904D01*
X190587380Y-115244666D01*
X190587380Y-115006571D01*
X190635000Y-114911333D01*
X190682619Y-114863714D01*
X190777857Y-114816095D01*
X190873095Y-114816095D01*
X191015952Y-114863714D01*
X191587380Y-115435142D01*
X191587380Y-114816095D01*
%TO.C,R23*%
X173601142Y-110815380D02*
X173267809Y-110339190D01*
X173029714Y-110815380D02*
X173029714Y-109815380D01*
X173410666Y-109815380D01*
X173505904Y-109863000D01*
X173553523Y-109910619D01*
X173601142Y-110005857D01*
X173601142Y-110148714D01*
X173553523Y-110243952D01*
X173505904Y-110291571D01*
X173410666Y-110339190D01*
X173029714Y-110339190D01*
X173982095Y-109910619D02*
X174029714Y-109863000D01*
X174124952Y-109815380D01*
X174363047Y-109815380D01*
X174458285Y-109863000D01*
X174505904Y-109910619D01*
X174553523Y-110005857D01*
X174553523Y-110101095D01*
X174505904Y-110243952D01*
X173934476Y-110815380D01*
X174553523Y-110815380D01*
X174886857Y-109815380D02*
X175505904Y-109815380D01*
X175172571Y-110196333D01*
X175315428Y-110196333D01*
X175410666Y-110243952D01*
X175458285Y-110291571D01*
X175505904Y-110386809D01*
X175505904Y-110624904D01*
X175458285Y-110720142D01*
X175410666Y-110767761D01*
X175315428Y-110815380D01*
X175029714Y-110815380D01*
X174934476Y-110767761D01*
X174886857Y-110720142D01*
%TO.C,R24*%
X191587380Y-108973857D02*
X191111190Y-109307190D01*
X191587380Y-109545285D02*
X190587380Y-109545285D01*
X190587380Y-109164333D01*
X190635000Y-109069095D01*
X190682619Y-109021476D01*
X190777857Y-108973857D01*
X190920714Y-108973857D01*
X191015952Y-109021476D01*
X191063571Y-109069095D01*
X191111190Y-109164333D01*
X191111190Y-109545285D01*
X190682619Y-108592904D02*
X190635000Y-108545285D01*
X190587380Y-108450047D01*
X190587380Y-108211952D01*
X190635000Y-108116714D01*
X190682619Y-108069095D01*
X190777857Y-108021476D01*
X190873095Y-108021476D01*
X191015952Y-108069095D01*
X191587380Y-108640523D01*
X191587380Y-108021476D01*
X190920714Y-107164333D02*
X191587380Y-107164333D01*
X190539761Y-107402428D02*
X191254047Y-107640523D01*
X191254047Y-107021476D01*
%TO.C,R25*%
X173347142Y-103068380D02*
X173013809Y-102592190D01*
X172775714Y-103068380D02*
X172775714Y-102068380D01*
X173156666Y-102068380D01*
X173251904Y-102116000D01*
X173299523Y-102163619D01*
X173347142Y-102258857D01*
X173347142Y-102401714D01*
X173299523Y-102496952D01*
X173251904Y-102544571D01*
X173156666Y-102592190D01*
X172775714Y-102592190D01*
X173728095Y-102163619D02*
X173775714Y-102116000D01*
X173870952Y-102068380D01*
X174109047Y-102068380D01*
X174204285Y-102116000D01*
X174251904Y-102163619D01*
X174299523Y-102258857D01*
X174299523Y-102354095D01*
X174251904Y-102496952D01*
X173680476Y-103068380D01*
X174299523Y-103068380D01*
X175204285Y-102068380D02*
X174728095Y-102068380D01*
X174680476Y-102544571D01*
X174728095Y-102496952D01*
X174823333Y-102449333D01*
X175061428Y-102449333D01*
X175156666Y-102496952D01*
X175204285Y-102544571D01*
X175251904Y-102639809D01*
X175251904Y-102877904D01*
X175204285Y-102973142D01*
X175156666Y-103020761D01*
X175061428Y-103068380D01*
X174823333Y-103068380D01*
X174728095Y-103020761D01*
X174680476Y-102973142D01*
%TO.C,R26*%
X191587380Y-101480857D02*
X191111190Y-101814190D01*
X191587380Y-102052285D02*
X190587380Y-102052285D01*
X190587380Y-101671333D01*
X190635000Y-101576095D01*
X190682619Y-101528476D01*
X190777857Y-101480857D01*
X190920714Y-101480857D01*
X191015952Y-101528476D01*
X191063571Y-101576095D01*
X191111190Y-101671333D01*
X191111190Y-102052285D01*
X190682619Y-101099904D02*
X190635000Y-101052285D01*
X190587380Y-100957047D01*
X190587380Y-100718952D01*
X190635000Y-100623714D01*
X190682619Y-100576095D01*
X190777857Y-100528476D01*
X190873095Y-100528476D01*
X191015952Y-100576095D01*
X191587380Y-101147523D01*
X191587380Y-100528476D01*
X190587380Y-99671333D02*
X190587380Y-99861809D01*
X190635000Y-99957047D01*
X190682619Y-100004666D01*
X190825476Y-100099904D01*
X191015952Y-100147523D01*
X191396904Y-100147523D01*
X191492142Y-100099904D01*
X191539761Y-100052285D01*
X191587380Y-99957047D01*
X191587380Y-99766571D01*
X191539761Y-99671333D01*
X191492142Y-99623714D01*
X191396904Y-99576095D01*
X191158809Y-99576095D01*
X191063571Y-99623714D01*
X191015952Y-99671333D01*
X190968333Y-99766571D01*
X190968333Y-99957047D01*
X191015952Y-100052285D01*
X191063571Y-100099904D01*
X191158809Y-100147523D01*
%TO.C,R27*%
X173474142Y-95448380D02*
X173140809Y-94972190D01*
X172902714Y-95448380D02*
X172902714Y-94448380D01*
X173283666Y-94448380D01*
X173378904Y-94496000D01*
X173426523Y-94543619D01*
X173474142Y-94638857D01*
X173474142Y-94781714D01*
X173426523Y-94876952D01*
X173378904Y-94924571D01*
X173283666Y-94972190D01*
X172902714Y-94972190D01*
X173855095Y-94543619D02*
X173902714Y-94496000D01*
X173997952Y-94448380D01*
X174236047Y-94448380D01*
X174331285Y-94496000D01*
X174378904Y-94543619D01*
X174426523Y-94638857D01*
X174426523Y-94734095D01*
X174378904Y-94876952D01*
X173807476Y-95448380D01*
X174426523Y-95448380D01*
X174759857Y-94448380D02*
X175426523Y-94448380D01*
X174997952Y-95448380D01*
%TO.C,R28*%
X191587380Y-94114857D02*
X191111190Y-94448190D01*
X191587380Y-94686285D02*
X190587380Y-94686285D01*
X190587380Y-94305333D01*
X190635000Y-94210095D01*
X190682619Y-94162476D01*
X190777857Y-94114857D01*
X190920714Y-94114857D01*
X191015952Y-94162476D01*
X191063571Y-94210095D01*
X191111190Y-94305333D01*
X191111190Y-94686285D01*
X190682619Y-93733904D02*
X190635000Y-93686285D01*
X190587380Y-93591047D01*
X190587380Y-93352952D01*
X190635000Y-93257714D01*
X190682619Y-93210095D01*
X190777857Y-93162476D01*
X190873095Y-93162476D01*
X191015952Y-93210095D01*
X191587380Y-93781523D01*
X191587380Y-93162476D01*
X191015952Y-92591047D02*
X190968333Y-92686285D01*
X190920714Y-92733904D01*
X190825476Y-92781523D01*
X190777857Y-92781523D01*
X190682619Y-92733904D01*
X190635000Y-92686285D01*
X190587380Y-92591047D01*
X190587380Y-92400571D01*
X190635000Y-92305333D01*
X190682619Y-92257714D01*
X190777857Y-92210095D01*
X190825476Y-92210095D01*
X190920714Y-92257714D01*
X190968333Y-92305333D01*
X191015952Y-92400571D01*
X191015952Y-92591047D01*
X191063571Y-92686285D01*
X191111190Y-92733904D01*
X191206428Y-92781523D01*
X191396904Y-92781523D01*
X191492142Y-92733904D01*
X191539761Y-92686285D01*
X191587380Y-92591047D01*
X191587380Y-92400571D01*
X191539761Y-92305333D01*
X191492142Y-92257714D01*
X191396904Y-92210095D01*
X191206428Y-92210095D01*
X191111190Y-92257714D01*
X191063571Y-92305333D01*
X191015952Y-92400571D01*
%TO.C,R29*%
X173537642Y-87828380D02*
X173204309Y-87352190D01*
X172966214Y-87828380D02*
X172966214Y-86828380D01*
X173347166Y-86828380D01*
X173442404Y-86876000D01*
X173490023Y-86923619D01*
X173537642Y-87018857D01*
X173537642Y-87161714D01*
X173490023Y-87256952D01*
X173442404Y-87304571D01*
X173347166Y-87352190D01*
X172966214Y-87352190D01*
X173918595Y-86923619D02*
X173966214Y-86876000D01*
X174061452Y-86828380D01*
X174299547Y-86828380D01*
X174394785Y-86876000D01*
X174442404Y-86923619D01*
X174490023Y-87018857D01*
X174490023Y-87114095D01*
X174442404Y-87256952D01*
X173870976Y-87828380D01*
X174490023Y-87828380D01*
X174966214Y-87828380D02*
X175156690Y-87828380D01*
X175251928Y-87780761D01*
X175299547Y-87733142D01*
X175394785Y-87590285D01*
X175442404Y-87399809D01*
X175442404Y-87018857D01*
X175394785Y-86923619D01*
X175347166Y-86876000D01*
X175251928Y-86828380D01*
X175061452Y-86828380D01*
X174966214Y-86876000D01*
X174918595Y-86923619D01*
X174870976Y-87018857D01*
X174870976Y-87256952D01*
X174918595Y-87352190D01*
X174966214Y-87399809D01*
X175061452Y-87447428D01*
X175251928Y-87447428D01*
X175347166Y-87399809D01*
X175394785Y-87352190D01*
X175442404Y-87256952D01*
%TO.C,R30*%
X191587380Y-86240857D02*
X191111190Y-86574190D01*
X191587380Y-86812285D02*
X190587380Y-86812285D01*
X190587380Y-86431333D01*
X190635000Y-86336095D01*
X190682619Y-86288476D01*
X190777857Y-86240857D01*
X190920714Y-86240857D01*
X191015952Y-86288476D01*
X191063571Y-86336095D01*
X191111190Y-86431333D01*
X191111190Y-86812285D01*
X190587380Y-85907523D02*
X190587380Y-85288476D01*
X190968333Y-85621809D01*
X190968333Y-85478952D01*
X191015952Y-85383714D01*
X191063571Y-85336095D01*
X191158809Y-85288476D01*
X191396904Y-85288476D01*
X191492142Y-85336095D01*
X191539761Y-85383714D01*
X191587380Y-85478952D01*
X191587380Y-85764666D01*
X191539761Y-85859904D01*
X191492142Y-85907523D01*
X190587380Y-84669428D02*
X190587380Y-84574190D01*
X190635000Y-84478952D01*
X190682619Y-84431333D01*
X190777857Y-84383714D01*
X190968333Y-84336095D01*
X191206428Y-84336095D01*
X191396904Y-84383714D01*
X191492142Y-84431333D01*
X191539761Y-84478952D01*
X191587380Y-84574190D01*
X191587380Y-84669428D01*
X191539761Y-84764666D01*
X191492142Y-84812285D01*
X191396904Y-84859904D01*
X191206428Y-84907523D01*
X190968333Y-84907523D01*
X190777857Y-84859904D01*
X190682619Y-84812285D01*
X190635000Y-84764666D01*
X190587380Y-84669428D01*
%TO.C,R31*%
X173563042Y-80208380D02*
X173229709Y-79732190D01*
X172991614Y-80208380D02*
X172991614Y-79208380D01*
X173372566Y-79208380D01*
X173467804Y-79256000D01*
X173515423Y-79303619D01*
X173563042Y-79398857D01*
X173563042Y-79541714D01*
X173515423Y-79636952D01*
X173467804Y-79684571D01*
X173372566Y-79732190D01*
X172991614Y-79732190D01*
X173896376Y-79208380D02*
X174515423Y-79208380D01*
X174182090Y-79589333D01*
X174324947Y-79589333D01*
X174420185Y-79636952D01*
X174467804Y-79684571D01*
X174515423Y-79779809D01*
X174515423Y-80017904D01*
X174467804Y-80113142D01*
X174420185Y-80160761D01*
X174324947Y-80208380D01*
X174039233Y-80208380D01*
X173943995Y-80160761D01*
X173896376Y-80113142D01*
X175467804Y-80208380D02*
X174896376Y-80208380D01*
X175182090Y-80208380D02*
X175182090Y-79208380D01*
X175086852Y-79351238D01*
X174991614Y-79446476D01*
X174896376Y-79494095D01*
%TO.C,R32*%
X191587380Y-78747857D02*
X191111190Y-79081190D01*
X191587380Y-79319285D02*
X190587380Y-79319285D01*
X190587380Y-78938333D01*
X190635000Y-78843095D01*
X190682619Y-78795476D01*
X190777857Y-78747857D01*
X190920714Y-78747857D01*
X191015952Y-78795476D01*
X191063571Y-78843095D01*
X191111190Y-78938333D01*
X191111190Y-79319285D01*
X190587380Y-78414523D02*
X190587380Y-77795476D01*
X190968333Y-78128809D01*
X190968333Y-77985952D01*
X191015952Y-77890714D01*
X191063571Y-77843095D01*
X191158809Y-77795476D01*
X191396904Y-77795476D01*
X191492142Y-77843095D01*
X191539761Y-77890714D01*
X191587380Y-77985952D01*
X191587380Y-78271666D01*
X191539761Y-78366904D01*
X191492142Y-78414523D01*
X190682619Y-77414523D02*
X190635000Y-77366904D01*
X190587380Y-77271666D01*
X190587380Y-77033571D01*
X190635000Y-76938333D01*
X190682619Y-76890714D01*
X190777857Y-76843095D01*
X190873095Y-76843095D01*
X191015952Y-76890714D01*
X191587380Y-77462142D01*
X191587380Y-76843095D01*
%TO.C,R33*%
X173347142Y-72715380D02*
X173013809Y-72239190D01*
X172775714Y-72715380D02*
X172775714Y-71715380D01*
X173156666Y-71715380D01*
X173251904Y-71763000D01*
X173299523Y-71810619D01*
X173347142Y-71905857D01*
X173347142Y-72048714D01*
X173299523Y-72143952D01*
X173251904Y-72191571D01*
X173156666Y-72239190D01*
X172775714Y-72239190D01*
X173680476Y-71715380D02*
X174299523Y-71715380D01*
X173966190Y-72096333D01*
X174109047Y-72096333D01*
X174204285Y-72143952D01*
X174251904Y-72191571D01*
X174299523Y-72286809D01*
X174299523Y-72524904D01*
X174251904Y-72620142D01*
X174204285Y-72667761D01*
X174109047Y-72715380D01*
X173823333Y-72715380D01*
X173728095Y-72667761D01*
X173680476Y-72620142D01*
X174632857Y-71715380D02*
X175251904Y-71715380D01*
X174918571Y-72096333D01*
X175061428Y-72096333D01*
X175156666Y-72143952D01*
X175204285Y-72191571D01*
X175251904Y-72286809D01*
X175251904Y-72524904D01*
X175204285Y-72620142D01*
X175156666Y-72667761D01*
X175061428Y-72715380D01*
X174775714Y-72715380D01*
X174680476Y-72667761D01*
X174632857Y-72620142D01*
%TO.C,R34*%
X191587380Y-71127857D02*
X191111190Y-71461190D01*
X191587380Y-71699285D02*
X190587380Y-71699285D01*
X190587380Y-71318333D01*
X190635000Y-71223095D01*
X190682619Y-71175476D01*
X190777857Y-71127857D01*
X190920714Y-71127857D01*
X191015952Y-71175476D01*
X191063571Y-71223095D01*
X191111190Y-71318333D01*
X191111190Y-71699285D01*
X190587380Y-70794523D02*
X190587380Y-70175476D01*
X190968333Y-70508809D01*
X190968333Y-70365952D01*
X191015952Y-70270714D01*
X191063571Y-70223095D01*
X191158809Y-70175476D01*
X191396904Y-70175476D01*
X191492142Y-70223095D01*
X191539761Y-70270714D01*
X191587380Y-70365952D01*
X191587380Y-70651666D01*
X191539761Y-70746904D01*
X191492142Y-70794523D01*
X190920714Y-69318333D02*
X191587380Y-69318333D01*
X190539761Y-69556428D02*
X191254047Y-69794523D01*
X191254047Y-69175476D01*
%TO.C,R35*%
X173537642Y-64968380D02*
X173204309Y-64492190D01*
X172966214Y-64968380D02*
X172966214Y-63968380D01*
X173347166Y-63968380D01*
X173442404Y-64016000D01*
X173490023Y-64063619D01*
X173537642Y-64158857D01*
X173537642Y-64301714D01*
X173490023Y-64396952D01*
X173442404Y-64444571D01*
X173347166Y-64492190D01*
X172966214Y-64492190D01*
X173870976Y-63968380D02*
X174490023Y-63968380D01*
X174156690Y-64349333D01*
X174299547Y-64349333D01*
X174394785Y-64396952D01*
X174442404Y-64444571D01*
X174490023Y-64539809D01*
X174490023Y-64777904D01*
X174442404Y-64873142D01*
X174394785Y-64920761D01*
X174299547Y-64968380D01*
X174013833Y-64968380D01*
X173918595Y-64920761D01*
X173870976Y-64873142D01*
X175394785Y-63968380D02*
X174918595Y-63968380D01*
X174870976Y-64444571D01*
X174918595Y-64396952D01*
X175013833Y-64349333D01*
X175251928Y-64349333D01*
X175347166Y-64396952D01*
X175394785Y-64444571D01*
X175442404Y-64539809D01*
X175442404Y-64777904D01*
X175394785Y-64873142D01*
X175347166Y-64920761D01*
X175251928Y-64968380D01*
X175013833Y-64968380D01*
X174918595Y-64920761D01*
X174870976Y-64873142D01*
%TO.C,R36*%
X191587380Y-63380857D02*
X191111190Y-63714190D01*
X191587380Y-63952285D02*
X190587380Y-63952285D01*
X190587380Y-63571333D01*
X190635000Y-63476095D01*
X190682619Y-63428476D01*
X190777857Y-63380857D01*
X190920714Y-63380857D01*
X191015952Y-63428476D01*
X191063571Y-63476095D01*
X191111190Y-63571333D01*
X191111190Y-63952285D01*
X190587380Y-63047523D02*
X190587380Y-62428476D01*
X190968333Y-62761809D01*
X190968333Y-62618952D01*
X191015952Y-62523714D01*
X191063571Y-62476095D01*
X191158809Y-62428476D01*
X191396904Y-62428476D01*
X191492142Y-62476095D01*
X191539761Y-62523714D01*
X191587380Y-62618952D01*
X191587380Y-62904666D01*
X191539761Y-62999904D01*
X191492142Y-63047523D01*
X190587380Y-61571333D02*
X190587380Y-61761809D01*
X190635000Y-61857047D01*
X190682619Y-61904666D01*
X190825476Y-61999904D01*
X191015952Y-62047523D01*
X191396904Y-62047523D01*
X191492142Y-61999904D01*
X191539761Y-61952285D01*
X191587380Y-61857047D01*
X191587380Y-61666571D01*
X191539761Y-61571333D01*
X191492142Y-61523714D01*
X191396904Y-61476095D01*
X191158809Y-61476095D01*
X191063571Y-61523714D01*
X191015952Y-61571333D01*
X190968333Y-61666571D01*
X190968333Y-61857047D01*
X191015952Y-61952285D01*
X191063571Y-61999904D01*
X191158809Y-62047523D01*
%TO.C,R53*%
X173601142Y-126055380D02*
X173267809Y-125579190D01*
X173029714Y-126055380D02*
X173029714Y-125055380D01*
X173410666Y-125055380D01*
X173505904Y-125103000D01*
X173553523Y-125150619D01*
X173601142Y-125245857D01*
X173601142Y-125388714D01*
X173553523Y-125483952D01*
X173505904Y-125531571D01*
X173410666Y-125579190D01*
X173029714Y-125579190D01*
X174505904Y-125055380D02*
X174029714Y-125055380D01*
X173982095Y-125531571D01*
X174029714Y-125483952D01*
X174124952Y-125436333D01*
X174363047Y-125436333D01*
X174458285Y-125483952D01*
X174505904Y-125531571D01*
X174553523Y-125626809D01*
X174553523Y-125864904D01*
X174505904Y-125960142D01*
X174458285Y-126007761D01*
X174363047Y-126055380D01*
X174124952Y-126055380D01*
X174029714Y-126007761D01*
X173982095Y-125960142D01*
X174886857Y-125055380D02*
X175505904Y-125055380D01*
X175172571Y-125436333D01*
X175315428Y-125436333D01*
X175410666Y-125483952D01*
X175458285Y-125531571D01*
X175505904Y-125626809D01*
X175505904Y-125864904D01*
X175458285Y-125960142D01*
X175410666Y-126007761D01*
X175315428Y-126055380D01*
X175029714Y-126055380D01*
X174934476Y-126007761D01*
X174886857Y-125960142D01*
%TO.C,U3*%
X163080795Y-92016780D02*
X163080795Y-92826304D01*
X163128414Y-92921542D01*
X163176033Y-92969161D01*
X163271271Y-93016780D01*
X163461747Y-93016780D01*
X163556985Y-92969161D01*
X163604604Y-92921542D01*
X163652223Y-92826304D01*
X163652223Y-92016780D01*
X164033176Y-92016780D02*
X164652223Y-92016780D01*
X164318890Y-92397733D01*
X164461747Y-92397733D01*
X164556985Y-92445352D01*
X164604604Y-92492971D01*
X164652223Y-92588209D01*
X164652223Y-92826304D01*
X164604604Y-92921542D01*
X164556985Y-92969161D01*
X164461747Y-93016780D01*
X164176033Y-93016780D01*
X164080795Y-92969161D01*
X164033176Y-92921542D01*
%TD*%
M02*
