M48
; DRILL file {KiCad (5.1.9-0-10_14)} date Friday, July 30, 2021 at 11:39:38 AM
; FORMAT={-:-/ absolute / metric / decimal}
; #@! TF.CreationDate,2021-07-30T11:39:38+01:00
; #@! TF.GenerationSoftware,Kicad,Pcbnew,(5.1.9-0-10_14)
; #@! TF.FileFunction,Plated,1,2,PTH
FMAT,2
METRIC
T1C0.400
T2C0.600
T3C0.700
T4C0.762
T5C0.800
T6C1.000
T7C1.100
T8C1.800
%
G90
G05
T1
X127.635Y-68.453
X152.781Y-105.664
X154.559Y-107.442
X155.829Y-62.992
X156.083Y-123.19
X157.734Y-70.104
X163.835Y-73.538
X164.084Y-120.777
X164.465Y-72.39
X164.592Y-74.676
X164.719Y-128.308
X164.846Y-70.866
X165.227Y-67.437
X165.317Y-75.692
X165.952Y-76.708
X169.757Y-112.7
X171.577Y-110.236
X173.355Y-85.344
X174.625Y-95.377
X175.006Y-86.995
T2
X105.703Y-70.244
X107.203Y-70.244
T3
X134.252Y-119.444
X134.252Y-124.523
X134.493Y-60.071
X134.493Y-65.151
X134.493Y-68.58
X134.493Y-73.66
X138.074Y-113.525
X138.125Y-70.358
X138.125Y-116.091
X138.176Y-62.738
X138.176Y-67.818
X138.176Y-75.438
X138.176Y-77.978
X138.176Y-83.058
X138.176Y-85.598
X138.176Y-90.678
X138.176Y-93.218
X138.176Y-98.298
X138.176Y-100.838
X138.176Y-105.918
X138.176Y-108.458
X138.176Y-121.183
X138.214Y-123.698
X143.154Y-113.525
X143.205Y-70.358
X143.205Y-116.091
X143.256Y-62.738
X143.256Y-67.818
X143.256Y-75.438
X143.256Y-77.978
X143.256Y-83.058
X143.256Y-85.598
X143.256Y-90.678
X143.256Y-93.218
X143.256Y-98.298
X143.256Y-100.838
X143.256Y-105.918
X143.256Y-108.458
X143.256Y-121.183
X143.294Y-123.698
X155.702Y-60.198
X155.702Y-65.278
X155.778Y-67.78
X155.778Y-72.86
X155.816Y-75.438
X155.816Y-80.518
X155.816Y-83.058
X155.816Y-88.138
X155.829Y-90.678
X155.829Y-95.758
X155.829Y-98.298
X155.829Y-103.378
X155.829Y-105.918
X155.829Y-110.998
X155.829Y-113.538
X155.829Y-118.618
X171.428Y-100.748
X171.528Y-93.218
X171.577Y-108.458
X171.628Y-90.678
X171.628Y-98.248
X171.628Y-105.947
X171.641Y-62.738
X171.641Y-70.358
X171.641Y-75.438
X171.641Y-85.598
X171.666Y-67.818
X171.666Y-77.978
X171.666Y-83.058
X171.704Y-116.078
X171.704Y-123.698
X171.728Y-113.547
X171.728Y-121.158
X176.508Y-100.748
X176.608Y-93.218
X176.657Y-108.458
X176.708Y-90.678
X176.708Y-98.248
X176.708Y-105.947
X176.72Y-62.738
X176.72Y-70.358
X176.72Y-75.438
X176.72Y-85.598
X176.746Y-67.818
X176.746Y-77.978
X176.746Y-83.058
X176.784Y-116.078
X176.784Y-123.698
X176.808Y-113.547
X176.808Y-121.158
X189.23Y-60.198
X189.23Y-65.278
X189.257Y-67.818
X189.257Y-72.898
X189.257Y-75.438
X189.257Y-80.518
X189.257Y-83.058
X189.257Y-88.138
X189.257Y-90.678
X189.257Y-95.758
X189.257Y-98.298
X189.257Y-103.378
X189.257Y-105.918
X189.257Y-110.998
X189.257Y-113.518
X189.257Y-118.598
T4
X105.029Y-81.28
X105.029Y-83.82
X105.029Y-86.36
X105.029Y-88.9
X105.029Y-91.44
X105.029Y-93.98
X105.029Y-96.52
X105.029Y-99.06
X105.029Y-101.6
X105.029Y-104.14
X105.029Y-106.68
X105.029Y-109.22
X105.029Y-111.76
X105.029Y-114.3
X105.029Y-116.84
X105.029Y-119.38
X105.029Y-122.047
X105.029Y-124.587
X105.029Y-127.0
X130.429Y-81.28
X130.429Y-83.82
X130.429Y-86.36
X130.429Y-88.9
X130.429Y-91.44
X130.429Y-93.98
X130.429Y-96.52
X130.429Y-99.06
X130.429Y-101.6
X130.429Y-104.14
X130.429Y-106.68
X130.429Y-109.22
X130.429Y-111.76
X130.429Y-114.3
X130.429Y-116.84
X130.429Y-119.38
X130.429Y-121.92
X130.429Y-124.46
X130.429Y-127.0
T5
X121.593Y-58.629
X121.593Y-61.169
X121.593Y-63.709
X121.593Y-66.249
X126.263Y-51.023
X126.263Y-53.023
X129.213Y-58.629
X129.213Y-61.169
X129.213Y-63.709
X129.213Y-66.249
X135.103Y-127.343
X135.103Y-134.963
X159.829Y-50.762
X159.829Y-53.302
X159.829Y-55.842
X159.829Y-58.382
X159.829Y-60.922
X159.829Y-63.462
X159.829Y-66.002
X159.829Y-68.542
X159.829Y-71.082
X159.829Y-73.622
X159.829Y-76.162
X159.829Y-78.702
X159.829Y-81.242
X159.829Y-83.782
X160.033Y-94.894
X160.033Y-97.434
X160.033Y-99.974
X160.033Y-102.514
X160.033Y-105.054
X160.033Y-107.594
X160.033Y-110.134
X160.033Y-112.674
X160.033Y-115.214
X160.033Y-117.754
X160.033Y-120.294
X160.033Y-122.834
X160.033Y-125.374
X160.033Y-127.914
X167.45Y-50.762
X167.45Y-53.302
X167.45Y-55.842
X167.45Y-58.382
X167.45Y-60.922
X167.45Y-63.462
X167.45Y-66.002
X167.45Y-68.542
X167.45Y-71.082
X167.45Y-73.622
X167.45Y-76.162
X167.45Y-78.702
X167.45Y-81.242
X167.45Y-83.782
X167.653Y-94.894
X167.653Y-97.434
X167.653Y-99.974
X167.653Y-102.514
X167.653Y-105.054
X167.653Y-107.594
X167.653Y-110.134
X167.653Y-112.674
X167.653Y-115.214
X167.653Y-117.754
X167.653Y-120.294
X167.653Y-122.834
X167.653Y-125.374
X167.653Y-127.914
T6
X123.19Y-70.993
X130.69Y-70.993
X148.209Y-62.738
X148.209Y-65.278
X148.209Y-67.818
X148.209Y-70.358
X148.209Y-72.898
X148.209Y-75.438
X148.209Y-77.978
X148.209Y-80.518
X148.209Y-83.058
X148.209Y-85.598
X148.209Y-88.138
X148.209Y-90.678
X148.209Y-93.218
X148.209Y-95.758
X148.209Y-98.298
X148.209Y-100.838
X148.209Y-103.378
X148.209Y-105.918
X148.209Y-108.458
X148.209Y-110.998
X148.209Y-113.538
X148.209Y-116.078
X148.209Y-118.618
X148.209Y-121.158
X148.209Y-123.698
X150.749Y-62.738
X150.749Y-65.278
X150.749Y-67.818
X150.749Y-70.358
X150.749Y-72.898
X150.749Y-75.438
X150.749Y-77.978
X150.749Y-80.518
X150.749Y-83.058
X150.749Y-85.598
X150.749Y-88.138
X150.749Y-90.678
X150.749Y-93.218
X150.749Y-95.758
X150.749Y-98.298
X150.749Y-100.838
X150.749Y-103.378
X150.749Y-105.918
X150.749Y-108.458
X150.749Y-110.998
X150.749Y-113.538
X150.749Y-116.078
X150.749Y-118.618
X150.749Y-121.158
X150.749Y-123.698
X181.635Y-62.738
X181.635Y-65.278
X181.635Y-67.818
X181.635Y-70.358
X181.635Y-72.898
X181.635Y-75.438
X181.635Y-77.978
X181.635Y-80.518
X181.635Y-83.058
X181.635Y-85.598
X181.635Y-88.138
X181.635Y-90.678
X181.635Y-93.218
X181.635Y-95.758
X181.635Y-98.298
X181.635Y-100.838
X181.635Y-103.378
X181.635Y-105.918
X181.635Y-108.458
X181.635Y-110.998
X181.635Y-113.538
X181.635Y-116.078
X181.635Y-118.618
X181.635Y-121.158
X181.635Y-123.698
X184.175Y-62.738
X184.175Y-65.278
X184.175Y-67.818
X184.175Y-70.358
X184.175Y-72.898
X184.175Y-75.438
X184.175Y-77.978
X184.175Y-80.518
X184.175Y-83.058
X184.175Y-85.598
X184.175Y-88.138
X184.175Y-90.678
X184.175Y-93.218
X184.175Y-95.758
X184.175Y-98.298
X184.175Y-100.838
X184.175Y-103.378
X184.175Y-105.918
X184.175Y-108.458
X184.175Y-110.998
X184.175Y-113.538
X184.175Y-116.078
X184.175Y-118.618
X184.175Y-121.158
X184.175Y-123.698
T7
X111.633Y-70.358
X115.1Y-52.438
X117.64Y-52.438
X119.253Y-70.358
X134.683Y-52.591
X137.224Y-52.591
X139.763Y-52.591
X142.303Y-52.591
T8
X111.849Y-59.139
X111.849Y-64.719
T0
M30
