%TF.GenerationSoftware,KiCad,Pcbnew,(5.1.9-0-10_14)*%
%TF.CreationDate,2021-07-30T11:39:19+01:00*%
%TF.ProjectId,SignalBox,5369676e-616c-4426-9f78-2e6b69636164,V2.1*%
%TF.SameCoordinates,Original*%
%TF.FileFunction,Legend,Bot*%
%TF.FilePolarity,Positive*%
%FSLAX46Y46*%
G04 Gerber Fmt 4.6, Leading zero omitted, Abs format (unit mm)*
G04 Created by KiCad (PCBNEW (5.1.9-0-10_14)) date 2021-07-30 11:39:19*
%MOMM*%
%LPD*%
G01*
G04 APERTURE LIST*
%ADD10C,0.150000*%
%ADD11C,0.200000*%
G04 APERTURE END LIST*
D10*
X153878452Y-83034190D02*
X153878452Y-83510380D01*
X154211785Y-82510380D02*
X153878452Y-83034190D01*
X153545119Y-82510380D01*
X153259404Y-82605619D02*
X153211785Y-82558000D01*
X153116547Y-82510380D01*
X152878452Y-82510380D01*
X152783214Y-82558000D01*
X152735595Y-82605619D01*
X152687976Y-82700857D01*
X152687976Y-82796095D01*
X152735595Y-82938952D01*
X153307023Y-83510380D01*
X152687976Y-83510380D01*
D11*
X119887571Y-48793142D02*
X119673285Y-48864571D01*
X119316142Y-48864571D01*
X119173285Y-48793142D01*
X119101857Y-48721714D01*
X119030428Y-48578857D01*
X119030428Y-48436000D01*
X119101857Y-48293142D01*
X119173285Y-48221714D01*
X119316142Y-48150285D01*
X119601857Y-48078857D01*
X119744714Y-48007428D01*
X119816142Y-47936000D01*
X119887571Y-47793142D01*
X119887571Y-47650285D01*
X119816142Y-47507428D01*
X119744714Y-47436000D01*
X119601857Y-47364571D01*
X119244714Y-47364571D01*
X119030428Y-47436000D01*
X117744714Y-47864571D02*
X117744714Y-48864571D01*
X118387571Y-47864571D02*
X118387571Y-48650285D01*
X118316142Y-48793142D01*
X118173285Y-48864571D01*
X117959000Y-48864571D01*
X117816142Y-48793142D01*
X117744714Y-48721714D01*
X117030428Y-47864571D02*
X117030428Y-49364571D01*
X117030428Y-47936000D02*
X116887571Y-47864571D01*
X116601857Y-47864571D01*
X116459000Y-47936000D01*
X116387571Y-48007428D01*
X116316142Y-48150285D01*
X116316142Y-48578857D01*
X116387571Y-48721714D01*
X116459000Y-48793142D01*
X116601857Y-48864571D01*
X116887571Y-48864571D01*
X117030428Y-48793142D01*
X115673285Y-47864571D02*
X115673285Y-49364571D01*
X115673285Y-47936000D02*
X115530428Y-47864571D01*
X115244714Y-47864571D01*
X115101857Y-47936000D01*
X115030428Y-48007428D01*
X114959000Y-48150285D01*
X114959000Y-48578857D01*
X115030428Y-48721714D01*
X115101857Y-48793142D01*
X115244714Y-48864571D01*
X115530428Y-48864571D01*
X115673285Y-48793142D01*
X114101857Y-48864571D02*
X114244714Y-48793142D01*
X114316142Y-48650285D01*
X114316142Y-47364571D01*
X113673285Y-47864571D02*
X113316142Y-48864571D01*
X112959000Y-47864571D02*
X113316142Y-48864571D01*
X113459000Y-49221714D01*
X113530428Y-49293142D01*
X113673285Y-49364571D01*
X121387571Y-50743142D02*
X120244714Y-50743142D01*
X120816142Y-51314571D02*
X120816142Y-50171714D01*
X112673285Y-50743142D02*
X111530428Y-50743142D01*
X120959000Y-54714571D02*
X121244714Y-54714571D01*
X121387571Y-54786000D01*
X121459000Y-54857428D01*
X121601857Y-55071714D01*
X121673285Y-55357428D01*
X121673285Y-55928857D01*
X121601857Y-56071714D01*
X121530428Y-56143142D01*
X121387571Y-56214571D01*
X121101857Y-56214571D01*
X120959000Y-56143142D01*
X120887571Y-56071714D01*
X120816142Y-55928857D01*
X120816142Y-55571714D01*
X120887571Y-55428857D01*
X120959000Y-55357428D01*
X121101857Y-55286000D01*
X121387571Y-55286000D01*
X121530428Y-55357428D01*
X121601857Y-55428857D01*
X121673285Y-55571714D01*
X120387571Y-54714571D02*
X119887571Y-56214571D01*
X119387571Y-54714571D01*
X117744714Y-55643142D02*
X116601857Y-55643142D01*
X114816142Y-54857428D02*
X114744714Y-54786000D01*
X114601857Y-54714571D01*
X114244714Y-54714571D01*
X114101857Y-54786000D01*
X114030428Y-54857428D01*
X113959000Y-55000285D01*
X113959000Y-55143142D01*
X114030428Y-55357428D01*
X114887571Y-56214571D01*
X113959000Y-56214571D01*
X113101857Y-55357428D02*
X113244714Y-55286000D01*
X113316142Y-55214571D01*
X113387571Y-55071714D01*
X113387571Y-55000285D01*
X113316142Y-54857428D01*
X113244714Y-54786000D01*
X113101857Y-54714571D01*
X112816142Y-54714571D01*
X112673285Y-54786000D01*
X112601857Y-54857428D01*
X112530428Y-55000285D01*
X112530428Y-55071714D01*
X112601857Y-55214571D01*
X112673285Y-55286000D01*
X112816142Y-55357428D01*
X113101857Y-55357428D01*
X113244714Y-55428857D01*
X113316142Y-55500285D01*
X113387571Y-55643142D01*
X113387571Y-55928857D01*
X113316142Y-56071714D01*
X113244714Y-56143142D01*
X113101857Y-56214571D01*
X112816142Y-56214571D01*
X112673285Y-56143142D01*
X112601857Y-56071714D01*
X112530428Y-55928857D01*
X112530428Y-55643142D01*
X112601857Y-55500285D01*
X112673285Y-55428857D01*
X112816142Y-55357428D01*
X112101857Y-54714571D02*
X111601857Y-56214571D01*
X111101857Y-54714571D01*
X117601857Y-58664571D02*
X117601857Y-57164571D01*
X117244714Y-57164571D01*
X117030428Y-57236000D01*
X116887571Y-57378857D01*
X116816142Y-57521714D01*
X116744714Y-57807428D01*
X116744714Y-58021714D01*
X116816142Y-58307428D01*
X116887571Y-58450285D01*
X117030428Y-58593142D01*
X117244714Y-58664571D01*
X117601857Y-58664571D01*
X115244714Y-58521714D02*
X115316142Y-58593142D01*
X115530428Y-58664571D01*
X115673285Y-58664571D01*
X115887571Y-58593142D01*
X116030428Y-58450285D01*
X116101857Y-58307428D01*
X116173285Y-58021714D01*
X116173285Y-57807428D01*
X116101857Y-57521714D01*
X116030428Y-57378857D01*
X115887571Y-57236000D01*
X115673285Y-57164571D01*
X115530428Y-57164571D01*
X115316142Y-57236000D01*
X115244714Y-57307428D01*
D10*
X141858619Y-48730761D02*
X141715761Y-48778380D01*
X141477666Y-48778380D01*
X141382428Y-48730761D01*
X141334809Y-48683142D01*
X141287190Y-48587904D01*
X141287190Y-48492666D01*
X141334809Y-48397428D01*
X141382428Y-48349809D01*
X141477666Y-48302190D01*
X141668142Y-48254571D01*
X141763380Y-48206952D01*
X141811000Y-48159333D01*
X141858619Y-48064095D01*
X141858619Y-47968857D01*
X141811000Y-47873619D01*
X141763380Y-47826000D01*
X141668142Y-47778380D01*
X141430047Y-47778380D01*
X141287190Y-47826000D01*
X140953857Y-48111714D02*
X140763380Y-48778380D01*
X140572904Y-48302190D01*
X140382428Y-48778380D01*
X140191952Y-48111714D01*
X139811000Y-48778380D02*
X139811000Y-48111714D01*
X139811000Y-47778380D02*
X139858619Y-47826000D01*
X139811000Y-47873619D01*
X139763380Y-47826000D01*
X139811000Y-47778380D01*
X139811000Y-47873619D01*
X139477666Y-48111714D02*
X139096714Y-48111714D01*
X139334809Y-47778380D02*
X139334809Y-48635523D01*
X139287190Y-48730761D01*
X139191952Y-48778380D01*
X139096714Y-48778380D01*
X138334809Y-48730761D02*
X138430047Y-48778380D01*
X138620523Y-48778380D01*
X138715761Y-48730761D01*
X138763380Y-48683142D01*
X138811000Y-48587904D01*
X138811000Y-48302190D01*
X138763380Y-48206952D01*
X138715761Y-48159333D01*
X138620523Y-48111714D01*
X138430047Y-48111714D01*
X138334809Y-48159333D01*
X137906238Y-48778380D02*
X137906238Y-47778380D01*
X137477666Y-48778380D02*
X137477666Y-48254571D01*
X137525285Y-48159333D01*
X137620523Y-48111714D01*
X137763380Y-48111714D01*
X137858619Y-48159333D01*
X137906238Y-48206952D01*
X136620523Y-48730761D02*
X136715761Y-48778380D01*
X136906238Y-48778380D01*
X137001476Y-48730761D01*
X137049095Y-48635523D01*
X137049095Y-48254571D01*
X137001476Y-48159333D01*
X136906238Y-48111714D01*
X136715761Y-48111714D01*
X136620523Y-48159333D01*
X136572904Y-48254571D01*
X136572904Y-48349809D01*
X137049095Y-48445047D01*
X136191952Y-48730761D02*
X136096714Y-48778380D01*
X135906238Y-48778380D01*
X135811000Y-48730761D01*
X135763380Y-48635523D01*
X135763380Y-48587904D01*
X135811000Y-48492666D01*
X135906238Y-48445047D01*
X136049095Y-48445047D01*
X136144333Y-48397428D01*
X136191952Y-48302190D01*
X136191952Y-48254571D01*
X136144333Y-48159333D01*
X136049095Y-48111714D01*
X135906238Y-48111714D01*
X135811000Y-48159333D01*
X142144333Y-55711714D02*
X142144333Y-54283142D01*
X139668142Y-55711714D02*
X139668142Y-54283142D01*
X137191952Y-55711714D02*
X137191952Y-54283142D01*
X134715761Y-55711714D02*
X134715761Y-54283142D01*
X142620523Y-56980761D02*
X142477666Y-57028380D01*
X142239571Y-57028380D01*
X142144333Y-56980761D01*
X142096714Y-56933142D01*
X142049095Y-56837904D01*
X142049095Y-56742666D01*
X142096714Y-56647428D01*
X142144333Y-56599809D01*
X142239571Y-56552190D01*
X142430047Y-56504571D01*
X142525285Y-56456952D01*
X142572904Y-56409333D01*
X142620523Y-56314095D01*
X142620523Y-56218857D01*
X142572904Y-56123619D01*
X142525285Y-56076000D01*
X142430047Y-56028380D01*
X142191952Y-56028380D01*
X142049095Y-56076000D01*
X141763380Y-56361714D02*
X141382428Y-56361714D01*
X141620523Y-56028380D02*
X141620523Y-56885523D01*
X141572904Y-56980761D01*
X141477666Y-57028380D01*
X141382428Y-57028380D01*
X140906238Y-57028380D02*
X141001476Y-56980761D01*
X141049095Y-56933142D01*
X141096714Y-56837904D01*
X141096714Y-56552190D01*
X141049095Y-56456952D01*
X141001476Y-56409333D01*
X140906238Y-56361714D01*
X140763380Y-56361714D01*
X140668142Y-56409333D01*
X140620523Y-56456952D01*
X140572904Y-56552190D01*
X140572904Y-56837904D01*
X140620523Y-56933142D01*
X140668142Y-56980761D01*
X140763380Y-57028380D01*
X140906238Y-57028380D01*
X140144333Y-56361714D02*
X140144333Y-57361714D01*
X140144333Y-56409333D02*
X140049095Y-56361714D01*
X139858619Y-56361714D01*
X139763380Y-56409333D01*
X139715761Y-56456952D01*
X139668142Y-56552190D01*
X139668142Y-56837904D01*
X139715761Y-56933142D01*
X139763380Y-56980761D01*
X139858619Y-57028380D01*
X140049095Y-57028380D01*
X140144333Y-56980761D01*
X137144333Y-56933142D02*
X137191952Y-56980761D01*
X137334809Y-57028380D01*
X137430047Y-57028380D01*
X137572904Y-56980761D01*
X137668142Y-56885523D01*
X137715761Y-56790285D01*
X137763380Y-56599809D01*
X137763380Y-56456952D01*
X137715761Y-56266476D01*
X137668142Y-56171238D01*
X137572904Y-56076000D01*
X137430047Y-56028380D01*
X137334809Y-56028380D01*
X137191952Y-56076000D01*
X137144333Y-56123619D01*
X136572904Y-57028380D02*
X136668142Y-56980761D01*
X136715761Y-56885523D01*
X136715761Y-56028380D01*
X135811000Y-56980761D02*
X135906238Y-57028380D01*
X136096714Y-57028380D01*
X136191952Y-56980761D01*
X136239571Y-56885523D01*
X136239571Y-56504571D01*
X136191952Y-56409333D01*
X136096714Y-56361714D01*
X135906238Y-56361714D01*
X135811000Y-56409333D01*
X135763380Y-56504571D01*
X135763380Y-56599809D01*
X136239571Y-56695047D01*
X134906238Y-57028380D02*
X134906238Y-56504571D01*
X134953857Y-56409333D01*
X135049095Y-56361714D01*
X135239571Y-56361714D01*
X135334809Y-56409333D01*
X134906238Y-56980761D02*
X135001476Y-57028380D01*
X135239571Y-57028380D01*
X135334809Y-56980761D01*
X135382428Y-56885523D01*
X135382428Y-56790285D01*
X135334809Y-56695047D01*
X135239571Y-56647428D01*
X135001476Y-56647428D01*
X134906238Y-56599809D01*
X134430047Y-57028380D02*
X134430047Y-56361714D01*
X134430047Y-56552190D02*
X134382428Y-56456952D01*
X134334809Y-56409333D01*
X134239571Y-56361714D01*
X134144333Y-56361714D01*
X187723833Y-83034190D02*
X187723833Y-83510380D01*
X188057166Y-82510380D02*
X187723833Y-83034190D01*
X187390500Y-82510380D01*
X186533357Y-83510380D02*
X187104785Y-83510380D01*
X186819071Y-83510380D02*
X186819071Y-82510380D01*
X186914309Y-82653238D01*
X187009547Y-82748476D01*
X187104785Y-82796095D01*
X185914309Y-82510380D02*
X185819071Y-82510380D01*
X185723833Y-82558000D01*
X185676214Y-82605619D01*
X185628595Y-82700857D01*
X185580976Y-82891333D01*
X185580976Y-83129428D01*
X185628595Y-83319904D01*
X185676214Y-83415142D01*
X185723833Y-83462761D01*
X185819071Y-83510380D01*
X185914309Y-83510380D01*
X186009547Y-83462761D01*
X186057166Y-83415142D01*
X186104785Y-83319904D01*
X186152404Y-83129428D01*
X186152404Y-82891333D01*
X186104785Y-82700857D01*
X186057166Y-82605619D01*
X186009547Y-82558000D01*
X185914309Y-82510380D01*
X187485738Y-80970380D02*
X187819071Y-80494190D01*
X188057166Y-80970380D02*
X188057166Y-79970380D01*
X187676214Y-79970380D01*
X187580976Y-80018000D01*
X187533357Y-80065619D01*
X187485738Y-80160857D01*
X187485738Y-80303714D01*
X187533357Y-80398952D01*
X187580976Y-80446571D01*
X187676214Y-80494190D01*
X188057166Y-80494190D01*
X186533357Y-80970380D02*
X187104785Y-80970380D01*
X186819071Y-80970380D02*
X186819071Y-79970380D01*
X186914309Y-80113238D01*
X187009547Y-80208476D01*
X187104785Y-80256095D01*
X185914309Y-79970380D02*
X185819071Y-79970380D01*
X185723833Y-80018000D01*
X185676214Y-80065619D01*
X185628595Y-80160857D01*
X185580976Y-80351333D01*
X185580976Y-80589428D01*
X185628595Y-80779904D01*
X185676214Y-80875142D01*
X185723833Y-80922761D01*
X185819071Y-80970380D01*
X185914309Y-80970380D01*
X186009547Y-80922761D01*
X186057166Y-80875142D01*
X186104785Y-80779904D01*
X186152404Y-80589428D01*
X186152404Y-80351333D01*
X186104785Y-80160857D01*
X186057166Y-80065619D01*
X186009547Y-80018000D01*
X185914309Y-79970380D01*
X187041357Y-73223380D02*
X187374690Y-72747190D01*
X187612785Y-73223380D02*
X187612785Y-72223380D01*
X187231833Y-72223380D01*
X187136595Y-72271000D01*
X187088976Y-72318619D01*
X187041357Y-72413857D01*
X187041357Y-72556714D01*
X187088976Y-72651952D01*
X187136595Y-72699571D01*
X187231833Y-72747190D01*
X187612785Y-72747190D01*
X186565166Y-73223380D02*
X186374690Y-73223380D01*
X186279452Y-73175761D01*
X186231833Y-73128142D01*
X186136595Y-72985285D01*
X186088976Y-72794809D01*
X186088976Y-72413857D01*
X186136595Y-72318619D01*
X186184214Y-72271000D01*
X186279452Y-72223380D01*
X186469928Y-72223380D01*
X186565166Y-72271000D01*
X186612785Y-72318619D01*
X186660404Y-72413857D01*
X186660404Y-72651952D01*
X186612785Y-72747190D01*
X186565166Y-72794809D01*
X186469928Y-72842428D01*
X186279452Y-72842428D01*
X186184214Y-72794809D01*
X186136595Y-72747190D01*
X186088976Y-72651952D01*
X187279452Y-75414190D02*
X187279452Y-75890380D01*
X187612785Y-74890380D02*
X187279452Y-75414190D01*
X186946119Y-74890380D01*
X186565166Y-75890380D02*
X186374690Y-75890380D01*
X186279452Y-75842761D01*
X186231833Y-75795142D01*
X186136595Y-75652285D01*
X186088976Y-75461809D01*
X186088976Y-75080857D01*
X186136595Y-74985619D01*
X186184214Y-74938000D01*
X186279452Y-74890380D01*
X186469928Y-74890380D01*
X186565166Y-74938000D01*
X186612785Y-74985619D01*
X186660404Y-75080857D01*
X186660404Y-75318952D01*
X186612785Y-75414190D01*
X186565166Y-75461809D01*
X186469928Y-75509428D01*
X186279452Y-75509428D01*
X186184214Y-75461809D01*
X186136595Y-75414190D01*
X186088976Y-75318952D01*
X187406357Y-77478000D02*
X187501595Y-77430380D01*
X187644452Y-77430380D01*
X187787309Y-77478000D01*
X187882547Y-77573238D01*
X187930166Y-77668476D01*
X187977785Y-77858952D01*
X187977785Y-78001809D01*
X187930166Y-78192285D01*
X187882547Y-78287523D01*
X187787309Y-78382761D01*
X187644452Y-78430380D01*
X187549214Y-78430380D01*
X187406357Y-78382761D01*
X187358738Y-78335142D01*
X187358738Y-78001809D01*
X187549214Y-78001809D01*
X186406357Y-78430380D02*
X186977785Y-78430380D01*
X186692071Y-78430380D02*
X186692071Y-77430380D01*
X186787309Y-77573238D01*
X186882547Y-77668476D01*
X186977785Y-77716095D01*
X185787309Y-77430380D02*
X185692071Y-77430380D01*
X185596833Y-77478000D01*
X185549214Y-77525619D01*
X185501595Y-77620857D01*
X185453976Y-77811333D01*
X185453976Y-78049428D01*
X185501595Y-78239904D01*
X185549214Y-78335142D01*
X185596833Y-78382761D01*
X185692071Y-78430380D01*
X185787309Y-78430380D01*
X185882547Y-78382761D01*
X185930166Y-78335142D01*
X185977785Y-78239904D01*
X186025404Y-78049428D01*
X186025404Y-77811333D01*
X185977785Y-77620857D01*
X185930166Y-77525619D01*
X185882547Y-77478000D01*
X185787309Y-77430380D01*
X187596833Y-98274190D02*
X187596833Y-98750380D01*
X187930166Y-97750380D02*
X187596833Y-98274190D01*
X187263500Y-97750380D01*
X186406357Y-98750380D02*
X186977785Y-98750380D01*
X186692071Y-98750380D02*
X186692071Y-97750380D01*
X186787309Y-97893238D01*
X186882547Y-97988476D01*
X186977785Y-98036095D01*
X186025404Y-97845619D02*
X185977785Y-97798000D01*
X185882547Y-97750380D01*
X185644452Y-97750380D01*
X185549214Y-97798000D01*
X185501595Y-97845619D01*
X185453976Y-97940857D01*
X185453976Y-98036095D01*
X185501595Y-98178952D01*
X186073023Y-98750380D01*
X185453976Y-98750380D01*
X187485738Y-96210380D02*
X187819071Y-95734190D01*
X188057166Y-96210380D02*
X188057166Y-95210380D01*
X187676214Y-95210380D01*
X187580976Y-95258000D01*
X187533357Y-95305619D01*
X187485738Y-95400857D01*
X187485738Y-95543714D01*
X187533357Y-95638952D01*
X187580976Y-95686571D01*
X187676214Y-95734190D01*
X188057166Y-95734190D01*
X186533357Y-96210380D02*
X187104785Y-96210380D01*
X186819071Y-96210380D02*
X186819071Y-95210380D01*
X186914309Y-95353238D01*
X187009547Y-95448476D01*
X187104785Y-95496095D01*
X186152404Y-95305619D02*
X186104785Y-95258000D01*
X186009547Y-95210380D01*
X185771452Y-95210380D01*
X185676214Y-95258000D01*
X185628595Y-95305619D01*
X185580976Y-95400857D01*
X185580976Y-95496095D01*
X185628595Y-95638952D01*
X186200023Y-96210380D01*
X185580976Y-96210380D01*
X187533357Y-92718000D02*
X187628595Y-92670380D01*
X187771452Y-92670380D01*
X187914309Y-92718000D01*
X188009547Y-92813238D01*
X188057166Y-92908476D01*
X188104785Y-93098952D01*
X188104785Y-93241809D01*
X188057166Y-93432285D01*
X188009547Y-93527523D01*
X187914309Y-93622761D01*
X187771452Y-93670380D01*
X187676214Y-93670380D01*
X187533357Y-93622761D01*
X187485738Y-93575142D01*
X187485738Y-93241809D01*
X187676214Y-93241809D01*
X186533357Y-93670380D02*
X187104785Y-93670380D01*
X186819071Y-93670380D02*
X186819071Y-92670380D01*
X186914309Y-92813238D01*
X187009547Y-92908476D01*
X187104785Y-92956095D01*
X186152404Y-92765619D02*
X186104785Y-92718000D01*
X186009547Y-92670380D01*
X185771452Y-92670380D01*
X185676214Y-92718000D01*
X185628595Y-92765619D01*
X185580976Y-92860857D01*
X185580976Y-92956095D01*
X185628595Y-93098952D01*
X186200023Y-93670380D01*
X185580976Y-93670380D01*
X187723833Y-105894190D02*
X187723833Y-106370380D01*
X188057166Y-105370380D02*
X187723833Y-105894190D01*
X187390500Y-105370380D01*
X186533357Y-106370380D02*
X187104785Y-106370380D01*
X186819071Y-106370380D02*
X186819071Y-105370380D01*
X186914309Y-105513238D01*
X187009547Y-105608476D01*
X187104785Y-105656095D01*
X186200023Y-105370380D02*
X185580976Y-105370380D01*
X185914309Y-105751333D01*
X185771452Y-105751333D01*
X185676214Y-105798952D01*
X185628595Y-105846571D01*
X185580976Y-105941809D01*
X185580976Y-106179904D01*
X185628595Y-106275142D01*
X185676214Y-106322761D01*
X185771452Y-106370380D01*
X186057166Y-106370380D01*
X186152404Y-106322761D01*
X186200023Y-106275142D01*
X187485738Y-103830380D02*
X187819071Y-103354190D01*
X188057166Y-103830380D02*
X188057166Y-102830380D01*
X187676214Y-102830380D01*
X187580976Y-102878000D01*
X187533357Y-102925619D01*
X187485738Y-103020857D01*
X187485738Y-103163714D01*
X187533357Y-103258952D01*
X187580976Y-103306571D01*
X187676214Y-103354190D01*
X188057166Y-103354190D01*
X186533357Y-103830380D02*
X187104785Y-103830380D01*
X186819071Y-103830380D02*
X186819071Y-102830380D01*
X186914309Y-102973238D01*
X187009547Y-103068476D01*
X187104785Y-103116095D01*
X186200023Y-102830380D02*
X185580976Y-102830380D01*
X185914309Y-103211333D01*
X185771452Y-103211333D01*
X185676214Y-103258952D01*
X185628595Y-103306571D01*
X185580976Y-103401809D01*
X185580976Y-103639904D01*
X185628595Y-103735142D01*
X185676214Y-103782761D01*
X185771452Y-103830380D01*
X186057166Y-103830380D01*
X186152404Y-103782761D01*
X186200023Y-103735142D01*
X187533357Y-100338000D02*
X187628595Y-100290380D01*
X187771452Y-100290380D01*
X187914309Y-100338000D01*
X188009547Y-100433238D01*
X188057166Y-100528476D01*
X188104785Y-100718952D01*
X188104785Y-100861809D01*
X188057166Y-101052285D01*
X188009547Y-101147523D01*
X187914309Y-101242761D01*
X187771452Y-101290380D01*
X187676214Y-101290380D01*
X187533357Y-101242761D01*
X187485738Y-101195142D01*
X187485738Y-100861809D01*
X187676214Y-100861809D01*
X186533357Y-101290380D02*
X187104785Y-101290380D01*
X186819071Y-101290380D02*
X186819071Y-100290380D01*
X186914309Y-100433238D01*
X187009547Y-100528476D01*
X187104785Y-100576095D01*
X186200023Y-100290380D02*
X185580976Y-100290380D01*
X185914309Y-100671333D01*
X185771452Y-100671333D01*
X185676214Y-100718952D01*
X185628595Y-100766571D01*
X185580976Y-100861809D01*
X185580976Y-101099904D01*
X185628595Y-101195142D01*
X185676214Y-101242761D01*
X185771452Y-101290380D01*
X186057166Y-101290380D01*
X186152404Y-101242761D01*
X186200023Y-101195142D01*
X189707976Y-123737666D02*
X189231785Y-123737666D01*
X189803214Y-124023380D02*
X189469880Y-123023380D01*
X189136547Y-124023380D01*
X188374642Y-123975761D02*
X188469880Y-124023380D01*
X188660357Y-124023380D01*
X188755595Y-123975761D01*
X188803214Y-123928142D01*
X188850833Y-123832904D01*
X188850833Y-123547190D01*
X188803214Y-123451952D01*
X188755595Y-123404333D01*
X188660357Y-123356714D01*
X188469880Y-123356714D01*
X188374642Y-123404333D01*
X188088928Y-123356714D02*
X187707976Y-123356714D01*
X187946071Y-123023380D02*
X187946071Y-123880523D01*
X187898452Y-123975761D01*
X187803214Y-124023380D01*
X187707976Y-124023380D01*
X187374642Y-124023380D02*
X187374642Y-123356714D01*
X187374642Y-123023380D02*
X187422261Y-123071000D01*
X187374642Y-123118619D01*
X187327023Y-123071000D01*
X187374642Y-123023380D01*
X187374642Y-123118619D01*
X186993690Y-123356714D02*
X186755595Y-124023380D01*
X186517500Y-123356714D01*
X185755595Y-123975761D02*
X185850833Y-124023380D01*
X186041309Y-124023380D01*
X186136547Y-123975761D01*
X186184166Y-123880523D01*
X186184166Y-123499571D01*
X186136547Y-123404333D01*
X186041309Y-123356714D01*
X185850833Y-123356714D01*
X185755595Y-123404333D01*
X185707976Y-123499571D01*
X185707976Y-123594809D01*
X186184166Y-123690047D01*
X187215976Y-69731000D02*
X187311214Y-69683380D01*
X187454071Y-69683380D01*
X187596928Y-69731000D01*
X187692166Y-69826238D01*
X187739785Y-69921476D01*
X187787404Y-70111952D01*
X187787404Y-70254809D01*
X187739785Y-70445285D01*
X187692166Y-70540523D01*
X187596928Y-70635761D01*
X187454071Y-70683380D01*
X187358833Y-70683380D01*
X187215976Y-70635761D01*
X187168357Y-70588142D01*
X187168357Y-70254809D01*
X187358833Y-70254809D01*
X186692166Y-70683380D02*
X186501690Y-70683380D01*
X186406452Y-70635761D01*
X186358833Y-70588142D01*
X186263595Y-70445285D01*
X186215976Y-70254809D01*
X186215976Y-69873857D01*
X186263595Y-69778619D01*
X186311214Y-69731000D01*
X186406452Y-69683380D01*
X186596928Y-69683380D01*
X186692166Y-69731000D01*
X186739785Y-69778619D01*
X186787404Y-69873857D01*
X186787404Y-70111952D01*
X186739785Y-70207190D01*
X186692166Y-70254809D01*
X186596928Y-70302428D01*
X186406452Y-70302428D01*
X186311214Y-70254809D01*
X186263595Y-70207190D01*
X186215976Y-70111952D01*
X187088976Y-62238000D02*
X187184214Y-62190380D01*
X187327071Y-62190380D01*
X187469928Y-62238000D01*
X187565166Y-62333238D01*
X187612785Y-62428476D01*
X187660404Y-62618952D01*
X187660404Y-62761809D01*
X187612785Y-62952285D01*
X187565166Y-63047523D01*
X187469928Y-63142761D01*
X187327071Y-63190380D01*
X187231833Y-63190380D01*
X187088976Y-63142761D01*
X187041357Y-63095142D01*
X187041357Y-62761809D01*
X187231833Y-62761809D01*
X186469928Y-62618952D02*
X186565166Y-62571333D01*
X186612785Y-62523714D01*
X186660404Y-62428476D01*
X186660404Y-62380857D01*
X186612785Y-62285619D01*
X186565166Y-62238000D01*
X186469928Y-62190380D01*
X186279452Y-62190380D01*
X186184214Y-62238000D01*
X186136595Y-62285619D01*
X186088976Y-62380857D01*
X186088976Y-62428476D01*
X186136595Y-62523714D01*
X186184214Y-62571333D01*
X186279452Y-62618952D01*
X186469928Y-62618952D01*
X186565166Y-62666571D01*
X186612785Y-62714190D01*
X186660404Y-62809428D01*
X186660404Y-62999904D01*
X186612785Y-63095142D01*
X186565166Y-63142761D01*
X186469928Y-63190380D01*
X186279452Y-63190380D01*
X186184214Y-63142761D01*
X186136595Y-63095142D01*
X186088976Y-62999904D01*
X186088976Y-62809428D01*
X186136595Y-62714190D01*
X186184214Y-62666571D01*
X186279452Y-62618952D01*
X187723833Y-113514190D02*
X187723833Y-113990380D01*
X188057166Y-112990380D02*
X187723833Y-113514190D01*
X187390500Y-112990380D01*
X186533357Y-113990380D02*
X187104785Y-113990380D01*
X186819071Y-113990380D02*
X186819071Y-112990380D01*
X186914309Y-113133238D01*
X187009547Y-113228476D01*
X187104785Y-113276095D01*
X185676214Y-113323714D02*
X185676214Y-113990380D01*
X185914309Y-112942761D02*
X186152404Y-113657047D01*
X185533357Y-113657047D01*
X187041357Y-65603380D02*
X187374690Y-65127190D01*
X187612785Y-65603380D02*
X187612785Y-64603380D01*
X187231833Y-64603380D01*
X187136595Y-64651000D01*
X187088976Y-64698619D01*
X187041357Y-64793857D01*
X187041357Y-64936714D01*
X187088976Y-65031952D01*
X187136595Y-65079571D01*
X187231833Y-65127190D01*
X187612785Y-65127190D01*
X186469928Y-65031952D02*
X186565166Y-64984333D01*
X186612785Y-64936714D01*
X186660404Y-64841476D01*
X186660404Y-64793857D01*
X186612785Y-64698619D01*
X186565166Y-64651000D01*
X186469928Y-64603380D01*
X186279452Y-64603380D01*
X186184214Y-64651000D01*
X186136595Y-64698619D01*
X186088976Y-64793857D01*
X186088976Y-64841476D01*
X186136595Y-64936714D01*
X186184214Y-64984333D01*
X186279452Y-65031952D01*
X186469928Y-65031952D01*
X186565166Y-65079571D01*
X186612785Y-65127190D01*
X186660404Y-65222428D01*
X186660404Y-65412904D01*
X186612785Y-65508142D01*
X186565166Y-65555761D01*
X186469928Y-65603380D01*
X186279452Y-65603380D01*
X186184214Y-65555761D01*
X186136595Y-65508142D01*
X186088976Y-65412904D01*
X186088976Y-65222428D01*
X186136595Y-65127190D01*
X186184214Y-65079571D01*
X186279452Y-65031952D01*
X187533357Y-115578000D02*
X187628595Y-115530380D01*
X187771452Y-115530380D01*
X187914309Y-115578000D01*
X188009547Y-115673238D01*
X188057166Y-115768476D01*
X188104785Y-115958952D01*
X188104785Y-116101809D01*
X188057166Y-116292285D01*
X188009547Y-116387523D01*
X187914309Y-116482761D01*
X187771452Y-116530380D01*
X187676214Y-116530380D01*
X187533357Y-116482761D01*
X187485738Y-116435142D01*
X187485738Y-116101809D01*
X187676214Y-116101809D01*
X186533357Y-116530380D02*
X187104785Y-116530380D01*
X186819071Y-116530380D02*
X186819071Y-115530380D01*
X186914309Y-115673238D01*
X187009547Y-115768476D01*
X187104785Y-115816095D01*
X185628595Y-115530380D02*
X186104785Y-115530380D01*
X186152404Y-116006571D01*
X186104785Y-115958952D01*
X186009547Y-115911333D01*
X185771452Y-115911333D01*
X185676214Y-115958952D01*
X185628595Y-116006571D01*
X185580976Y-116101809D01*
X185580976Y-116339904D01*
X185628595Y-116435142D01*
X185676214Y-116482761D01*
X185771452Y-116530380D01*
X186009547Y-116530380D01*
X186104785Y-116482761D01*
X186152404Y-116435142D01*
X187358738Y-88590380D02*
X187692071Y-88114190D01*
X187930166Y-88590380D02*
X187930166Y-87590380D01*
X187549214Y-87590380D01*
X187453976Y-87638000D01*
X187406357Y-87685619D01*
X187358738Y-87780857D01*
X187358738Y-87923714D01*
X187406357Y-88018952D01*
X187453976Y-88066571D01*
X187549214Y-88114190D01*
X187930166Y-88114190D01*
X186406357Y-88590380D02*
X186977785Y-88590380D01*
X186692071Y-88590380D02*
X186692071Y-87590380D01*
X186787309Y-87733238D01*
X186882547Y-87828476D01*
X186977785Y-87876095D01*
X185453976Y-88590380D02*
X186025404Y-88590380D01*
X185739690Y-88590380D02*
X185739690Y-87590380D01*
X185834928Y-87733238D01*
X185930166Y-87828476D01*
X186025404Y-87876095D01*
X187485738Y-111450380D02*
X187819071Y-110974190D01*
X188057166Y-111450380D02*
X188057166Y-110450380D01*
X187676214Y-110450380D01*
X187580976Y-110498000D01*
X187533357Y-110545619D01*
X187485738Y-110640857D01*
X187485738Y-110783714D01*
X187533357Y-110878952D01*
X187580976Y-110926571D01*
X187676214Y-110974190D01*
X188057166Y-110974190D01*
X186533357Y-111450380D02*
X187104785Y-111450380D01*
X186819071Y-111450380D02*
X186819071Y-110450380D01*
X186914309Y-110593238D01*
X187009547Y-110688476D01*
X187104785Y-110736095D01*
X185676214Y-110783714D02*
X185676214Y-111450380D01*
X185914309Y-110402761D02*
X186152404Y-111117047D01*
X185533357Y-111117047D01*
X187850833Y-121134190D02*
X187850833Y-121610380D01*
X188184166Y-120610380D02*
X187850833Y-121134190D01*
X187517500Y-120610380D01*
X186660357Y-121610380D02*
X187231785Y-121610380D01*
X186946071Y-121610380D02*
X186946071Y-120610380D01*
X187041309Y-120753238D01*
X187136547Y-120848476D01*
X187231785Y-120896095D01*
X185755595Y-120610380D02*
X186231785Y-120610380D01*
X186279404Y-121086571D01*
X186231785Y-121038952D01*
X186136547Y-120991333D01*
X185898452Y-120991333D01*
X185803214Y-121038952D01*
X185755595Y-121086571D01*
X185707976Y-121181809D01*
X185707976Y-121419904D01*
X185755595Y-121515142D01*
X185803214Y-121562761D01*
X185898452Y-121610380D01*
X186136547Y-121610380D01*
X186231785Y-121562761D01*
X186279404Y-121515142D01*
X187533357Y-85098000D02*
X187628595Y-85050380D01*
X187771452Y-85050380D01*
X187914309Y-85098000D01*
X188009547Y-85193238D01*
X188057166Y-85288476D01*
X188104785Y-85478952D01*
X188104785Y-85621809D01*
X188057166Y-85812285D01*
X188009547Y-85907523D01*
X187914309Y-86002761D01*
X187771452Y-86050380D01*
X187676214Y-86050380D01*
X187533357Y-86002761D01*
X187485738Y-85955142D01*
X187485738Y-85621809D01*
X187676214Y-85621809D01*
X186533357Y-86050380D02*
X187104785Y-86050380D01*
X186819071Y-86050380D02*
X186819071Y-85050380D01*
X186914309Y-85193238D01*
X187009547Y-85288476D01*
X187104785Y-85336095D01*
X185580976Y-86050380D02*
X186152404Y-86050380D01*
X185866690Y-86050380D02*
X185866690Y-85050380D01*
X185961928Y-85193238D01*
X186057166Y-85288476D01*
X186152404Y-85336095D01*
X187533357Y-107958000D02*
X187628595Y-107910380D01*
X187771452Y-107910380D01*
X187914309Y-107958000D01*
X188009547Y-108053238D01*
X188057166Y-108148476D01*
X188104785Y-108338952D01*
X188104785Y-108481809D01*
X188057166Y-108672285D01*
X188009547Y-108767523D01*
X187914309Y-108862761D01*
X187771452Y-108910380D01*
X187676214Y-108910380D01*
X187533357Y-108862761D01*
X187485738Y-108815142D01*
X187485738Y-108481809D01*
X187676214Y-108481809D01*
X186533357Y-108910380D02*
X187104785Y-108910380D01*
X186819071Y-108910380D02*
X186819071Y-107910380D01*
X186914309Y-108053238D01*
X187009547Y-108148476D01*
X187104785Y-108196095D01*
X185676214Y-108243714D02*
X185676214Y-108910380D01*
X185914309Y-107862761D02*
X186152404Y-108577047D01*
X185533357Y-108577047D01*
X187723833Y-90781190D02*
X187723833Y-91257380D01*
X188057166Y-90257380D02*
X187723833Y-90781190D01*
X187390500Y-90257380D01*
X186533357Y-91257380D02*
X187104785Y-91257380D01*
X186819071Y-91257380D02*
X186819071Y-90257380D01*
X186914309Y-90400238D01*
X187009547Y-90495476D01*
X187104785Y-90543095D01*
X185580976Y-91257380D02*
X186152404Y-91257380D01*
X185866690Y-91257380D02*
X185866690Y-90257380D01*
X185961928Y-90400238D01*
X186057166Y-90495476D01*
X186152404Y-90543095D01*
X187485738Y-119070380D02*
X187819071Y-118594190D01*
X188057166Y-119070380D02*
X188057166Y-118070380D01*
X187676214Y-118070380D01*
X187580976Y-118118000D01*
X187533357Y-118165619D01*
X187485738Y-118260857D01*
X187485738Y-118403714D01*
X187533357Y-118498952D01*
X187580976Y-118546571D01*
X187676214Y-118594190D01*
X188057166Y-118594190D01*
X186533357Y-119070380D02*
X187104785Y-119070380D01*
X186819071Y-119070380D02*
X186819071Y-118070380D01*
X186914309Y-118213238D01*
X187009547Y-118308476D01*
X187104785Y-118356095D01*
X185628595Y-118070380D02*
X186104785Y-118070380D01*
X186152404Y-118546571D01*
X186104785Y-118498952D01*
X186009547Y-118451333D01*
X185771452Y-118451333D01*
X185676214Y-118498952D01*
X185628595Y-118546571D01*
X185580976Y-118641809D01*
X185580976Y-118879904D01*
X185628595Y-118975142D01*
X185676214Y-119022761D01*
X185771452Y-119070380D01*
X186009547Y-119070380D01*
X186104785Y-119022761D01*
X186152404Y-118975142D01*
X187406452Y-67794190D02*
X187406452Y-68270380D01*
X187739785Y-67270380D02*
X187406452Y-67794190D01*
X187073119Y-67270380D01*
X186596928Y-67698952D02*
X186692166Y-67651333D01*
X186739785Y-67603714D01*
X186787404Y-67508476D01*
X186787404Y-67460857D01*
X186739785Y-67365619D01*
X186692166Y-67318000D01*
X186596928Y-67270380D01*
X186406452Y-67270380D01*
X186311214Y-67318000D01*
X186263595Y-67365619D01*
X186215976Y-67460857D01*
X186215976Y-67508476D01*
X186263595Y-67603714D01*
X186311214Y-67651333D01*
X186406452Y-67698952D01*
X186596928Y-67698952D01*
X186692166Y-67746571D01*
X186739785Y-67794190D01*
X186787404Y-67889428D01*
X186787404Y-68079904D01*
X186739785Y-68175142D01*
X186692166Y-68222761D01*
X186596928Y-68270380D01*
X186406452Y-68270380D01*
X186311214Y-68222761D01*
X186263595Y-68175142D01*
X186215976Y-68079904D01*
X186215976Y-67889428D01*
X186263595Y-67794190D01*
X186311214Y-67746571D01*
X186406452Y-67698952D01*
X155053023Y-123150380D02*
X154814928Y-124150380D01*
X154624452Y-123436095D01*
X154433976Y-124150380D01*
X154195880Y-123150380D01*
X153814928Y-124150380D02*
X153814928Y-123483714D01*
X153814928Y-123150380D02*
X153862547Y-123198000D01*
X153814928Y-123245619D01*
X153767309Y-123198000D01*
X153814928Y-123150380D01*
X153814928Y-123245619D01*
X153005404Y-123626571D02*
X153338738Y-123626571D01*
X153338738Y-124150380D02*
X153338738Y-123150380D01*
X152862547Y-123150380D01*
X152481595Y-124150380D02*
X152481595Y-123483714D01*
X152481595Y-123150380D02*
X152529214Y-123198000D01*
X152481595Y-123245619D01*
X152433976Y-123198000D01*
X152481595Y-123150380D01*
X152481595Y-123245619D01*
X153560976Y-115578000D02*
X153656214Y-115530380D01*
X153799071Y-115530380D01*
X153941928Y-115578000D01*
X154037166Y-115673238D01*
X154084785Y-115768476D01*
X154132404Y-115958952D01*
X154132404Y-116101809D01*
X154084785Y-116292285D01*
X154037166Y-116387523D01*
X153941928Y-116482761D01*
X153799071Y-116530380D01*
X153703833Y-116530380D01*
X153560976Y-116482761D01*
X153513357Y-116435142D01*
X153513357Y-116101809D01*
X153703833Y-116101809D01*
X153180023Y-115530380D02*
X152513357Y-115530380D01*
X152941928Y-116530380D01*
X153513357Y-119070380D02*
X153846690Y-118594190D01*
X154084785Y-119070380D02*
X154084785Y-118070380D01*
X153703833Y-118070380D01*
X153608595Y-118118000D01*
X153560976Y-118165619D01*
X153513357Y-118260857D01*
X153513357Y-118403714D01*
X153560976Y-118498952D01*
X153608595Y-118546571D01*
X153703833Y-118594190D01*
X154084785Y-118594190D01*
X153180023Y-118070380D02*
X152513357Y-118070380D01*
X152941928Y-119070380D01*
X153878452Y-121515190D02*
X153878452Y-121991380D01*
X154211785Y-120991380D02*
X153878452Y-121515190D01*
X153545119Y-120991380D01*
X153307023Y-120991380D02*
X152640357Y-120991380D01*
X153068928Y-121991380D01*
X153560976Y-107958000D02*
X153656214Y-107910380D01*
X153799071Y-107910380D01*
X153941928Y-107958000D01*
X154037166Y-108053238D01*
X154084785Y-108148476D01*
X154132404Y-108338952D01*
X154132404Y-108481809D01*
X154084785Y-108672285D01*
X154037166Y-108767523D01*
X153941928Y-108862761D01*
X153799071Y-108910380D01*
X153703833Y-108910380D01*
X153560976Y-108862761D01*
X153513357Y-108815142D01*
X153513357Y-108481809D01*
X153703833Y-108481809D01*
X152656214Y-107910380D02*
X152846690Y-107910380D01*
X152941928Y-107958000D01*
X152989547Y-108005619D01*
X153084785Y-108148476D01*
X153132404Y-108338952D01*
X153132404Y-108719904D01*
X153084785Y-108815142D01*
X153037166Y-108862761D01*
X152941928Y-108910380D01*
X152751452Y-108910380D01*
X152656214Y-108862761D01*
X152608595Y-108815142D01*
X152560976Y-108719904D01*
X152560976Y-108481809D01*
X152608595Y-108386571D01*
X152656214Y-108338952D01*
X152751452Y-108291333D01*
X152941928Y-108291333D01*
X153037166Y-108338952D01*
X153084785Y-108386571D01*
X153132404Y-108481809D01*
X153513357Y-111450380D02*
X153846690Y-110974190D01*
X154084785Y-111450380D02*
X154084785Y-110450380D01*
X153703833Y-110450380D01*
X153608595Y-110498000D01*
X153560976Y-110545619D01*
X153513357Y-110640857D01*
X153513357Y-110783714D01*
X153560976Y-110878952D01*
X153608595Y-110926571D01*
X153703833Y-110974190D01*
X154084785Y-110974190D01*
X152656214Y-110450380D02*
X152846690Y-110450380D01*
X152941928Y-110498000D01*
X152989547Y-110545619D01*
X153084785Y-110688476D01*
X153132404Y-110878952D01*
X153132404Y-111259904D01*
X153084785Y-111355142D01*
X153037166Y-111402761D01*
X152941928Y-111450380D01*
X152751452Y-111450380D01*
X152656214Y-111402761D01*
X152608595Y-111355142D01*
X152560976Y-111259904D01*
X152560976Y-111021809D01*
X152608595Y-110926571D01*
X152656214Y-110878952D01*
X152751452Y-110831333D01*
X152941928Y-110831333D01*
X153037166Y-110878952D01*
X153084785Y-110926571D01*
X153132404Y-111021809D01*
X153878452Y-113514190D02*
X153878452Y-113990380D01*
X154211785Y-112990380D02*
X153878452Y-113514190D01*
X153545119Y-112990380D01*
X152783214Y-112990380D02*
X152973690Y-112990380D01*
X153068928Y-113038000D01*
X153116547Y-113085619D01*
X153211785Y-113228476D01*
X153259404Y-113418952D01*
X153259404Y-113799904D01*
X153211785Y-113895142D01*
X153164166Y-113942761D01*
X153068928Y-113990380D01*
X152878452Y-113990380D01*
X152783214Y-113942761D01*
X152735595Y-113895142D01*
X152687976Y-113799904D01*
X152687976Y-113561809D01*
X152735595Y-113466571D01*
X152783214Y-113418952D01*
X152878452Y-113371333D01*
X153068928Y-113371333D01*
X153164166Y-113418952D01*
X153211785Y-113466571D01*
X153259404Y-113561809D01*
X153687976Y-100465000D02*
X153783214Y-100417380D01*
X153926071Y-100417380D01*
X154068928Y-100465000D01*
X154164166Y-100560238D01*
X154211785Y-100655476D01*
X154259404Y-100845952D01*
X154259404Y-100988809D01*
X154211785Y-101179285D01*
X154164166Y-101274523D01*
X154068928Y-101369761D01*
X153926071Y-101417380D01*
X153830833Y-101417380D01*
X153687976Y-101369761D01*
X153640357Y-101322142D01*
X153640357Y-100988809D01*
X153830833Y-100988809D01*
X152735595Y-100417380D02*
X153211785Y-100417380D01*
X153259404Y-100893571D01*
X153211785Y-100845952D01*
X153116547Y-100798333D01*
X152878452Y-100798333D01*
X152783214Y-100845952D01*
X152735595Y-100893571D01*
X152687976Y-100988809D01*
X152687976Y-101226904D01*
X152735595Y-101322142D01*
X152783214Y-101369761D01*
X152878452Y-101417380D01*
X153116547Y-101417380D01*
X153211785Y-101369761D01*
X153259404Y-101322142D01*
X153640357Y-103957380D02*
X153973690Y-103481190D01*
X154211785Y-103957380D02*
X154211785Y-102957380D01*
X153830833Y-102957380D01*
X153735595Y-103005000D01*
X153687976Y-103052619D01*
X153640357Y-103147857D01*
X153640357Y-103290714D01*
X153687976Y-103385952D01*
X153735595Y-103433571D01*
X153830833Y-103481190D01*
X154211785Y-103481190D01*
X152735595Y-102957380D02*
X153211785Y-102957380D01*
X153259404Y-103433571D01*
X153211785Y-103385952D01*
X153116547Y-103338333D01*
X152878452Y-103338333D01*
X152783214Y-103385952D01*
X152735595Y-103433571D01*
X152687976Y-103528809D01*
X152687976Y-103766904D01*
X152735595Y-103862142D01*
X152783214Y-103909761D01*
X152878452Y-103957380D01*
X153116547Y-103957380D01*
X153211785Y-103909761D01*
X153259404Y-103862142D01*
X153878452Y-106021190D02*
X153878452Y-106497380D01*
X154211785Y-105497380D02*
X153878452Y-106021190D01*
X153545119Y-105497380D01*
X152735595Y-105497380D02*
X153211785Y-105497380D01*
X153259404Y-105973571D01*
X153211785Y-105925952D01*
X153116547Y-105878333D01*
X152878452Y-105878333D01*
X152783214Y-105925952D01*
X152735595Y-105973571D01*
X152687976Y-106068809D01*
X152687976Y-106306904D01*
X152735595Y-106402142D01*
X152783214Y-106449761D01*
X152878452Y-106497380D01*
X153116547Y-106497380D01*
X153211785Y-106449761D01*
X153259404Y-106402142D01*
X153687976Y-92718000D02*
X153783214Y-92670380D01*
X153926071Y-92670380D01*
X154068928Y-92718000D01*
X154164166Y-92813238D01*
X154211785Y-92908476D01*
X154259404Y-93098952D01*
X154259404Y-93241809D01*
X154211785Y-93432285D01*
X154164166Y-93527523D01*
X154068928Y-93622761D01*
X153926071Y-93670380D01*
X153830833Y-93670380D01*
X153687976Y-93622761D01*
X153640357Y-93575142D01*
X153640357Y-93241809D01*
X153830833Y-93241809D01*
X152783214Y-93003714D02*
X152783214Y-93670380D01*
X153021309Y-92622761D02*
X153259404Y-93337047D01*
X152640357Y-93337047D01*
X153513357Y-96083380D02*
X153846690Y-95607190D01*
X154084785Y-96083380D02*
X154084785Y-95083380D01*
X153703833Y-95083380D01*
X153608595Y-95131000D01*
X153560976Y-95178619D01*
X153513357Y-95273857D01*
X153513357Y-95416714D01*
X153560976Y-95511952D01*
X153608595Y-95559571D01*
X153703833Y-95607190D01*
X154084785Y-95607190D01*
X152656214Y-95416714D02*
X152656214Y-96083380D01*
X152894309Y-95035761D02*
X153132404Y-95750047D01*
X152513357Y-95750047D01*
X153878452Y-98274190D02*
X153878452Y-98750380D01*
X154211785Y-97750380D02*
X153878452Y-98274190D01*
X153545119Y-97750380D01*
X152783214Y-98083714D02*
X152783214Y-98750380D01*
X153021309Y-97702761D02*
X153259404Y-98417047D01*
X152640357Y-98417047D01*
X153687976Y-85225000D02*
X153783214Y-85177380D01*
X153926071Y-85177380D01*
X154068928Y-85225000D01*
X154164166Y-85320238D01*
X154211785Y-85415476D01*
X154259404Y-85605952D01*
X154259404Y-85748809D01*
X154211785Y-85939285D01*
X154164166Y-86034523D01*
X154068928Y-86129761D01*
X153926071Y-86177380D01*
X153830833Y-86177380D01*
X153687976Y-86129761D01*
X153640357Y-86082142D01*
X153640357Y-85748809D01*
X153830833Y-85748809D01*
X153307023Y-85177380D02*
X152687976Y-85177380D01*
X153021309Y-85558333D01*
X152878452Y-85558333D01*
X152783214Y-85605952D01*
X152735595Y-85653571D01*
X152687976Y-85748809D01*
X152687976Y-85986904D01*
X152735595Y-86082142D01*
X152783214Y-86129761D01*
X152878452Y-86177380D01*
X153164166Y-86177380D01*
X153259404Y-86129761D01*
X153307023Y-86082142D01*
X153640357Y-88717380D02*
X153973690Y-88241190D01*
X154211785Y-88717380D02*
X154211785Y-87717380D01*
X153830833Y-87717380D01*
X153735595Y-87765000D01*
X153687976Y-87812619D01*
X153640357Y-87907857D01*
X153640357Y-88050714D01*
X153687976Y-88145952D01*
X153735595Y-88193571D01*
X153830833Y-88241190D01*
X154211785Y-88241190D01*
X153307023Y-87717380D02*
X152687976Y-87717380D01*
X153021309Y-88098333D01*
X152878452Y-88098333D01*
X152783214Y-88145952D01*
X152735595Y-88193571D01*
X152687976Y-88288809D01*
X152687976Y-88526904D01*
X152735595Y-88622142D01*
X152783214Y-88669761D01*
X152878452Y-88717380D01*
X153164166Y-88717380D01*
X153259404Y-88669761D01*
X153307023Y-88622142D01*
X153878452Y-90781190D02*
X153878452Y-91257380D01*
X154211785Y-90257380D02*
X153878452Y-90781190D01*
X153545119Y-90257380D01*
X153307023Y-90257380D02*
X152687976Y-90257380D01*
X153021309Y-90638333D01*
X152878452Y-90638333D01*
X152783214Y-90685952D01*
X152735595Y-90733571D01*
X152687976Y-90828809D01*
X152687976Y-91066904D01*
X152735595Y-91162142D01*
X152783214Y-91209761D01*
X152878452Y-91257380D01*
X153164166Y-91257380D01*
X153259404Y-91209761D01*
X153307023Y-91162142D01*
X153687976Y-77478000D02*
X153783214Y-77430380D01*
X153926071Y-77430380D01*
X154068928Y-77478000D01*
X154164166Y-77573238D01*
X154211785Y-77668476D01*
X154259404Y-77858952D01*
X154259404Y-78001809D01*
X154211785Y-78192285D01*
X154164166Y-78287523D01*
X154068928Y-78382761D01*
X153926071Y-78430380D01*
X153830833Y-78430380D01*
X153687976Y-78382761D01*
X153640357Y-78335142D01*
X153640357Y-78001809D01*
X153830833Y-78001809D01*
X153259404Y-77525619D02*
X153211785Y-77478000D01*
X153116547Y-77430380D01*
X152878452Y-77430380D01*
X152783214Y-77478000D01*
X152735595Y-77525619D01*
X152687976Y-77620857D01*
X152687976Y-77716095D01*
X152735595Y-77858952D01*
X153307023Y-78430380D01*
X152687976Y-78430380D01*
X153640357Y-80970380D02*
X153973690Y-80494190D01*
X154211785Y-80970380D02*
X154211785Y-79970380D01*
X153830833Y-79970380D01*
X153735595Y-80018000D01*
X153687976Y-80065619D01*
X153640357Y-80160857D01*
X153640357Y-80303714D01*
X153687976Y-80398952D01*
X153735595Y-80446571D01*
X153830833Y-80494190D01*
X154211785Y-80494190D01*
X153259404Y-80065619D02*
X153211785Y-80018000D01*
X153116547Y-79970380D01*
X152878452Y-79970380D01*
X152783214Y-80018000D01*
X152735595Y-80065619D01*
X152687976Y-80160857D01*
X152687976Y-80256095D01*
X152735595Y-80398952D01*
X153307023Y-80970380D01*
X152687976Y-80970380D01*
X153560976Y-69858000D02*
X153656214Y-69810380D01*
X153799071Y-69810380D01*
X153941928Y-69858000D01*
X154037166Y-69953238D01*
X154084785Y-70048476D01*
X154132404Y-70238952D01*
X154132404Y-70381809D01*
X154084785Y-70572285D01*
X154037166Y-70667523D01*
X153941928Y-70762761D01*
X153799071Y-70810380D01*
X153703833Y-70810380D01*
X153560976Y-70762761D01*
X153513357Y-70715142D01*
X153513357Y-70381809D01*
X153703833Y-70381809D01*
X152560976Y-70810380D02*
X153132404Y-70810380D01*
X152846690Y-70810380D02*
X152846690Y-69810380D01*
X152941928Y-69953238D01*
X153037166Y-70048476D01*
X153132404Y-70096095D01*
X153513357Y-73350380D02*
X153846690Y-72874190D01*
X154084785Y-73350380D02*
X154084785Y-72350380D01*
X153703833Y-72350380D01*
X153608595Y-72398000D01*
X153560976Y-72445619D01*
X153513357Y-72540857D01*
X153513357Y-72683714D01*
X153560976Y-72778952D01*
X153608595Y-72826571D01*
X153703833Y-72874190D01*
X154084785Y-72874190D01*
X152560976Y-73350380D02*
X153132404Y-73350380D01*
X152846690Y-73350380D02*
X152846690Y-72350380D01*
X152941928Y-72493238D01*
X153037166Y-72588476D01*
X153132404Y-72636095D01*
X153751452Y-75414190D02*
X153751452Y-75890380D01*
X154084785Y-74890380D02*
X153751452Y-75414190D01*
X153418119Y-74890380D01*
X152560976Y-75890380D02*
X153132404Y-75890380D01*
X152846690Y-75890380D02*
X152846690Y-74890380D01*
X152941928Y-75033238D01*
X153037166Y-75128476D01*
X153132404Y-75176095D01*
X153878452Y-67794190D02*
X153878452Y-68270380D01*
X154211785Y-67270380D02*
X153878452Y-67794190D01*
X153545119Y-67270380D01*
X153021309Y-67270380D02*
X152926071Y-67270380D01*
X152830833Y-67318000D01*
X152783214Y-67365619D01*
X152735595Y-67460857D01*
X152687976Y-67651333D01*
X152687976Y-67889428D01*
X152735595Y-68079904D01*
X152783214Y-68175142D01*
X152830833Y-68222761D01*
X152926071Y-68270380D01*
X153021309Y-68270380D01*
X153116547Y-68222761D01*
X153164166Y-68175142D01*
X153211785Y-68079904D01*
X153259404Y-67889428D01*
X153259404Y-67651333D01*
X153211785Y-67460857D01*
X153164166Y-67365619D01*
X153116547Y-67318000D01*
X153021309Y-67270380D01*
X153640357Y-65857380D02*
X153973690Y-65381190D01*
X154211785Y-65857380D02*
X154211785Y-64857380D01*
X153830833Y-64857380D01*
X153735595Y-64905000D01*
X153687976Y-64952619D01*
X153640357Y-65047857D01*
X153640357Y-65190714D01*
X153687976Y-65285952D01*
X153735595Y-65333571D01*
X153830833Y-65381190D01*
X154211785Y-65381190D01*
X153021309Y-64857380D02*
X152926071Y-64857380D01*
X152830833Y-64905000D01*
X152783214Y-64952619D01*
X152735595Y-65047857D01*
X152687976Y-65238333D01*
X152687976Y-65476428D01*
X152735595Y-65666904D01*
X152783214Y-65762142D01*
X152830833Y-65809761D01*
X152926071Y-65857380D01*
X153021309Y-65857380D01*
X153116547Y-65809761D01*
X153164166Y-65762142D01*
X153211785Y-65666904D01*
X153259404Y-65476428D01*
X153259404Y-65238333D01*
X153211785Y-65047857D01*
X153164166Y-64952619D01*
X153116547Y-64905000D01*
X153021309Y-64857380D01*
X153687976Y-62365000D02*
X153783214Y-62317380D01*
X153926071Y-62317380D01*
X154068928Y-62365000D01*
X154164166Y-62460238D01*
X154211785Y-62555476D01*
X154259404Y-62745952D01*
X154259404Y-62888809D01*
X154211785Y-63079285D01*
X154164166Y-63174523D01*
X154068928Y-63269761D01*
X153926071Y-63317380D01*
X153830833Y-63317380D01*
X153687976Y-63269761D01*
X153640357Y-63222142D01*
X153640357Y-62888809D01*
X153830833Y-62888809D01*
X153021309Y-62317380D02*
X152926071Y-62317380D01*
X152830833Y-62365000D01*
X152783214Y-62412619D01*
X152735595Y-62507857D01*
X152687976Y-62698333D01*
X152687976Y-62936428D01*
X152735595Y-63126904D01*
X152783214Y-63222142D01*
X152830833Y-63269761D01*
X152926071Y-63317380D01*
X153021309Y-63317380D01*
X153116547Y-63269761D01*
X153164166Y-63222142D01*
X153211785Y-63126904D01*
X153259404Y-62936428D01*
X153259404Y-62698333D01*
X153211785Y-62507857D01*
X153164166Y-62412619D01*
X153116547Y-62365000D01*
X153021309Y-62317380D01*
D11*
X175111571Y-131430571D02*
X174754428Y-132930571D01*
X174468714Y-131859142D01*
X174183000Y-132930571D01*
X173825857Y-131430571D01*
X172683000Y-132859142D02*
X172825857Y-132930571D01*
X173111571Y-132930571D01*
X173254428Y-132859142D01*
X173325857Y-132716285D01*
X173325857Y-132144857D01*
X173254428Y-132002000D01*
X173111571Y-131930571D01*
X172825857Y-131930571D01*
X172683000Y-132002000D01*
X172611571Y-132144857D01*
X172611571Y-132287714D01*
X173325857Y-132430571D01*
X172040142Y-132859142D02*
X171897285Y-132930571D01*
X171611571Y-132930571D01*
X171468714Y-132859142D01*
X171397285Y-132716285D01*
X171397285Y-132644857D01*
X171468714Y-132502000D01*
X171611571Y-132430571D01*
X171825857Y-132430571D01*
X171968714Y-132359142D01*
X172040142Y-132216285D01*
X172040142Y-132144857D01*
X171968714Y-132002000D01*
X171825857Y-131930571D01*
X171611571Y-131930571D01*
X171468714Y-132002000D01*
X170968714Y-131930571D02*
X170397285Y-131930571D01*
X170754428Y-131430571D02*
X170754428Y-132716285D01*
X170683000Y-132859142D01*
X170540142Y-132930571D01*
X170397285Y-132930571D01*
X168754428Y-132930571D02*
X168754428Y-131430571D01*
X168754428Y-132144857D02*
X167897285Y-132144857D01*
X167897285Y-132930571D02*
X167897285Y-131430571D01*
X166540142Y-131930571D02*
X166540142Y-132930571D01*
X167183000Y-131930571D02*
X167183000Y-132716285D01*
X167111571Y-132859142D01*
X166968714Y-132930571D01*
X166754428Y-132930571D01*
X166611571Y-132859142D01*
X166540142Y-132787714D01*
X165825857Y-131930571D02*
X165825857Y-132930571D01*
X165825857Y-132073428D02*
X165754428Y-132002000D01*
X165611571Y-131930571D01*
X165397285Y-131930571D01*
X165254428Y-132002000D01*
X165183000Y-132144857D01*
X165183000Y-132930571D01*
X164683000Y-131930571D02*
X164111571Y-131930571D01*
X164468714Y-131430571D02*
X164468714Y-132716285D01*
X164397285Y-132859142D01*
X164254428Y-132930571D01*
X164111571Y-132930571D01*
X163683000Y-132859142D02*
X163540142Y-132930571D01*
X163254428Y-132930571D01*
X163111571Y-132859142D01*
X163040142Y-132716285D01*
X163040142Y-132644857D01*
X163111571Y-132502000D01*
X163254428Y-132430571D01*
X163468714Y-132430571D01*
X163611571Y-132359142D01*
X163683000Y-132216285D01*
X163683000Y-132144857D01*
X163611571Y-132002000D01*
X163468714Y-131930571D01*
X163254428Y-131930571D01*
X163111571Y-132002000D01*
X162397285Y-131930571D02*
X162397285Y-133430571D01*
X162397285Y-132002000D02*
X162254428Y-131930571D01*
X161968714Y-131930571D01*
X161825857Y-132002000D01*
X161754428Y-132073428D01*
X161683000Y-132216285D01*
X161683000Y-132644857D01*
X161754428Y-132787714D01*
X161825857Y-132859142D01*
X161968714Y-132930571D01*
X162254428Y-132930571D01*
X162397285Y-132859142D01*
X161040142Y-132930571D02*
X161040142Y-131930571D01*
X161040142Y-131430571D02*
X161111571Y-131502000D01*
X161040142Y-131573428D01*
X160968714Y-131502000D01*
X161040142Y-131430571D01*
X161040142Y-131573428D01*
X160111571Y-132930571D02*
X160254428Y-132859142D01*
X160325857Y-132716285D01*
X160325857Y-131430571D01*
X159325857Y-132930571D02*
X159468714Y-132859142D01*
X159540142Y-132716285D01*
X159540142Y-131430571D01*
X156754428Y-132930571D02*
X157254428Y-132216285D01*
X157611571Y-132930571D02*
X157611571Y-131430571D01*
X157040142Y-131430571D01*
X156897285Y-131502000D01*
X156825857Y-131573428D01*
X156754428Y-131716285D01*
X156754428Y-131930571D01*
X156825857Y-132073428D01*
X156897285Y-132144857D01*
X157040142Y-132216285D01*
X157611571Y-132216285D01*
X155468714Y-132930571D02*
X155468714Y-132144857D01*
X155540142Y-132002000D01*
X155683000Y-131930571D01*
X155968714Y-131930571D01*
X156111571Y-132002000D01*
X155468714Y-132859142D02*
X155611571Y-132930571D01*
X155968714Y-132930571D01*
X156111571Y-132859142D01*
X156183000Y-132716285D01*
X156183000Y-132573428D01*
X156111571Y-132430571D01*
X155968714Y-132359142D01*
X155611571Y-132359142D01*
X155468714Y-132287714D01*
X154754428Y-132930571D02*
X154754428Y-131930571D01*
X154754428Y-131430571D02*
X154825857Y-131502000D01*
X154754428Y-131573428D01*
X154683000Y-131502000D01*
X154754428Y-131430571D01*
X154754428Y-131573428D01*
X153825857Y-132930571D02*
X153968714Y-132859142D01*
X154040142Y-132716285D01*
X154040142Y-131430571D01*
X153397285Y-131930571D02*
X153111571Y-132930571D01*
X152825857Y-132216285D01*
X152540142Y-132930571D01*
X152254428Y-131930571D01*
X151040142Y-132930571D02*
X151040142Y-132144857D01*
X151111571Y-132002000D01*
X151254428Y-131930571D01*
X151540142Y-131930571D01*
X151683000Y-132002000D01*
X151040142Y-132859142D02*
X151183000Y-132930571D01*
X151540142Y-132930571D01*
X151683000Y-132859142D01*
X151754428Y-132716285D01*
X151754428Y-132573428D01*
X151683000Y-132430571D01*
X151540142Y-132359142D01*
X151183000Y-132359142D01*
X151040142Y-132287714D01*
X150468714Y-131930571D02*
X150111571Y-132930571D01*
X149754428Y-131930571D02*
X150111571Y-132930571D01*
X150254428Y-133287714D01*
X150325857Y-133359142D01*
X150468714Y-133430571D01*
X175111571Y-135309142D02*
X174897285Y-135380571D01*
X174540142Y-135380571D01*
X174397285Y-135309142D01*
X174325857Y-135237714D01*
X174254428Y-135094857D01*
X174254428Y-134952000D01*
X174325857Y-134809142D01*
X174397285Y-134737714D01*
X174540142Y-134666285D01*
X174825857Y-134594857D01*
X174968714Y-134523428D01*
X175040142Y-134452000D01*
X175111571Y-134309142D01*
X175111571Y-134166285D01*
X175040142Y-134023428D01*
X174968714Y-133952000D01*
X174825857Y-133880571D01*
X174468714Y-133880571D01*
X174254428Y-133952000D01*
X173611571Y-135380571D02*
X173611571Y-134380571D01*
X173611571Y-133880571D02*
X173683000Y-133952000D01*
X173611571Y-134023428D01*
X173540142Y-133952000D01*
X173611571Y-133880571D01*
X173611571Y-134023428D01*
X172254428Y-134380571D02*
X172254428Y-135594857D01*
X172325857Y-135737714D01*
X172397285Y-135809142D01*
X172540142Y-135880571D01*
X172754428Y-135880571D01*
X172897285Y-135809142D01*
X172254428Y-135309142D02*
X172397285Y-135380571D01*
X172683000Y-135380571D01*
X172825857Y-135309142D01*
X172897285Y-135237714D01*
X172968714Y-135094857D01*
X172968714Y-134666285D01*
X172897285Y-134523428D01*
X172825857Y-134452000D01*
X172683000Y-134380571D01*
X172397285Y-134380571D01*
X172254428Y-134452000D01*
X171540142Y-134380571D02*
X171540142Y-135380571D01*
X171540142Y-134523428D02*
X171468714Y-134452000D01*
X171325857Y-134380571D01*
X171111571Y-134380571D01*
X170968714Y-134452000D01*
X170897285Y-134594857D01*
X170897285Y-135380571D01*
X169540142Y-135380571D02*
X169540142Y-134594857D01*
X169611571Y-134452000D01*
X169754428Y-134380571D01*
X170040142Y-134380571D01*
X170183000Y-134452000D01*
X169540142Y-135309142D02*
X169683000Y-135380571D01*
X170040142Y-135380571D01*
X170183000Y-135309142D01*
X170254428Y-135166285D01*
X170254428Y-135023428D01*
X170183000Y-134880571D01*
X170040142Y-134809142D01*
X169683000Y-134809142D01*
X169540142Y-134737714D01*
X168611571Y-135380571D02*
X168754428Y-135309142D01*
X168825857Y-135166285D01*
X168825857Y-133880571D01*
X168040142Y-135380571D02*
X168040142Y-133880571D01*
X168040142Y-134452000D02*
X167897285Y-134380571D01*
X167611571Y-134380571D01*
X167468714Y-134452000D01*
X167397285Y-134523428D01*
X167325857Y-134666285D01*
X167325857Y-135094857D01*
X167397285Y-135237714D01*
X167468714Y-135309142D01*
X167611571Y-135380571D01*
X167897285Y-135380571D01*
X168040142Y-135309142D01*
X166468714Y-135380571D02*
X166611571Y-135309142D01*
X166683000Y-135237714D01*
X166754428Y-135094857D01*
X166754428Y-134666285D01*
X166683000Y-134523428D01*
X166611571Y-134452000D01*
X166468714Y-134380571D01*
X166254428Y-134380571D01*
X166111571Y-134452000D01*
X166040142Y-134523428D01*
X165968714Y-134666285D01*
X165968714Y-135094857D01*
X166040142Y-135237714D01*
X166111571Y-135309142D01*
X166254428Y-135380571D01*
X166468714Y-135380571D01*
X165468714Y-135380571D02*
X164683000Y-134380571D01*
X165468714Y-134380571D02*
X164683000Y-135380571D01*
X162968714Y-135380571D02*
X162968714Y-133880571D01*
X162468714Y-134952000D01*
X161968714Y-133880571D01*
X161968714Y-135380571D01*
X161040142Y-135380571D02*
X161183000Y-135309142D01*
X161254428Y-135237714D01*
X161325857Y-135094857D01*
X161325857Y-134666285D01*
X161254428Y-134523428D01*
X161183000Y-134452000D01*
X161040142Y-134380571D01*
X160825857Y-134380571D01*
X160683000Y-134452000D01*
X160611571Y-134523428D01*
X160540142Y-134666285D01*
X160540142Y-135094857D01*
X160611571Y-135237714D01*
X160683000Y-135309142D01*
X160825857Y-135380571D01*
X161040142Y-135380571D01*
X159254428Y-135380571D02*
X159254428Y-133880571D01*
X159254428Y-135309142D02*
X159397285Y-135380571D01*
X159683000Y-135380571D01*
X159825857Y-135309142D01*
X159897285Y-135237714D01*
X159968714Y-135094857D01*
X159968714Y-134666285D01*
X159897285Y-134523428D01*
X159825857Y-134452000D01*
X159683000Y-134380571D01*
X159397285Y-134380571D01*
X159254428Y-134452000D01*
X157897285Y-134380571D02*
X157897285Y-135380571D01*
X158540142Y-134380571D02*
X158540142Y-135166285D01*
X158468714Y-135309142D01*
X158325857Y-135380571D01*
X158111571Y-135380571D01*
X157968714Y-135309142D01*
X157897285Y-135237714D01*
X156968714Y-135380571D02*
X157111571Y-135309142D01*
X157183000Y-135166285D01*
X157183000Y-133880571D01*
X155825857Y-135309142D02*
X155968714Y-135380571D01*
X156254428Y-135380571D01*
X156397285Y-135309142D01*
X156468714Y-135166285D01*
X156468714Y-134594857D01*
X156397285Y-134452000D01*
X156254428Y-134380571D01*
X155968714Y-134380571D01*
X155825857Y-134452000D01*
X155754428Y-134594857D01*
X155754428Y-134737714D01*
X156468714Y-134880571D01*
X154183000Y-133880571D02*
X153683000Y-135380571D01*
X153183000Y-133880571D01*
X152754428Y-134023428D02*
X152683000Y-133952000D01*
X152540142Y-133880571D01*
X152183000Y-133880571D01*
X152040142Y-133952000D01*
X151968714Y-134023428D01*
X151897285Y-134166285D01*
X151897285Y-134309142D01*
X151968714Y-134523428D01*
X152825857Y-135380571D01*
X151897285Y-135380571D01*
X151254428Y-135237714D02*
X151183000Y-135309142D01*
X151254428Y-135380571D01*
X151325857Y-135309142D01*
X151254428Y-135237714D01*
X151254428Y-135380571D01*
X150611571Y-134023428D02*
X150540142Y-133952000D01*
X150397285Y-133880571D01*
X150040142Y-133880571D01*
X149897285Y-133952000D01*
X149825857Y-134023428D01*
X149754428Y-134166285D01*
X149754428Y-134309142D01*
X149825857Y-134523428D01*
X150683000Y-135380571D01*
X149754428Y-135380571D01*
M02*
