%TF.GenerationSoftware,KiCad,Pcbnew,(5.1.9-0-10_14)*%
%TF.CreationDate,2021-07-30T11:39:19+01:00*%
%TF.ProjectId,SignalBox,5369676e-616c-4426-9f78-2e6b69636164,V2.1*%
%TF.SameCoordinates,Original*%
%TF.FileFunction,Soldermask,Top*%
%TF.FilePolarity,Negative*%
%FSLAX46Y46*%
G04 Gerber Fmt 4.6, Leading zero omitted, Abs format (unit mm)*
G04 Created by KiCad (PCBNEW (5.1.9-0-10_14)) date 2021-07-30 11:39:19*
%MOMM*%
%LPD*%
G01*
G04 APERTURE LIST*
%ADD10C,1.200000*%
%ADD11R,1.200000X1.200000*%
%ADD12C,1.100000*%
%ADD13O,1.500000X2.200000*%
%ADD14C,3.600000*%
%ADD15C,1.524000*%
%ADD16R,1.524000X1.524000*%
%ADD17C,1.700000*%
%ADD18C,3.200000*%
%ADD19C,2.000000*%
%ADD20R,1.600000X1.600000*%
%ADD21C,1.600000*%
%ADD22R,2.200000X2.200000*%
%ADD23O,2.200000X2.200000*%
%ADD24O,1.600000X1.600000*%
%ADD25O,1.400000X1.400000*%
%ADD26C,1.400000*%
G04 APERTURE END LIST*
D10*
%TO.C,C3*%
X107203101Y-70243700D03*
D11*
X105703101Y-70243700D03*
%TD*%
D12*
%TO.C,J3*%
X134683500Y-50050700D03*
D13*
X134683500Y-52590700D03*
D12*
X137223500Y-50050700D03*
D13*
X137223500Y-52590700D03*
D12*
X139763500Y-50050700D03*
D13*
X139763500Y-52590700D03*
D12*
X142303500Y-50050700D03*
D13*
X142303500Y-52590700D03*
%TD*%
D12*
%TO.C,J1*%
X115100100Y-49898300D03*
D13*
X115100100Y-52438300D03*
D12*
X117640100Y-49898300D03*
D13*
X117640100Y-52438300D03*
%TD*%
D14*
%TO.C,L1*%
X111848900Y-59139200D03*
X111848900Y-64719200D03*
%TD*%
D15*
%TO.C,U1*%
X130429000Y-81280000D03*
X130429000Y-83820000D03*
X130429000Y-86360000D03*
X130429000Y-88900000D03*
X130429000Y-91440000D03*
X130429000Y-93980000D03*
X130429000Y-96520000D03*
X130429000Y-99060000D03*
X130429000Y-101600000D03*
X130429000Y-104140000D03*
X130429000Y-106680000D03*
X130429000Y-109220000D03*
X130429000Y-111760000D03*
X130429000Y-114300000D03*
X130429000Y-116840000D03*
X130429000Y-119380000D03*
X130429000Y-121920000D03*
X130429000Y-124460000D03*
X130429000Y-127000000D03*
X105029000Y-127000000D03*
X105029000Y-124587000D03*
X105029000Y-122047000D03*
X105029000Y-119380000D03*
X105029000Y-116840000D03*
X105029000Y-114300000D03*
X105029000Y-111760000D03*
X105029000Y-109220000D03*
X105029000Y-106680000D03*
X105029000Y-104140000D03*
X105029000Y-101600000D03*
X105029000Y-99060000D03*
X105029000Y-96520000D03*
X105029000Y-93980000D03*
X105029000Y-91440000D03*
X105029000Y-88900000D03*
X105029000Y-86360000D03*
X105029000Y-83820000D03*
D16*
X105029000Y-81280000D03*
%TD*%
%TO.C,J5*%
G36*
G01*
X180785400Y-63338000D02*
X180785400Y-62138000D01*
G75*
G02*
X181035400Y-61888000I250000J0D01*
G01*
X182235400Y-61888000D01*
G75*
G02*
X182485400Y-62138000I0J-250000D01*
G01*
X182485400Y-63338000D01*
G75*
G02*
X182235400Y-63588000I-250000J0D01*
G01*
X181035400Y-63588000D01*
G75*
G02*
X180785400Y-63338000I0J250000D01*
G01*
G37*
D17*
X181635400Y-65278000D03*
X181635400Y-67818000D03*
X181635400Y-70358000D03*
X181635400Y-72898000D03*
X181635400Y-75438000D03*
X181635400Y-77978000D03*
X181635400Y-80518000D03*
X181635400Y-83058000D03*
X181635400Y-85598000D03*
X181635400Y-88138000D03*
X181635400Y-90678000D03*
X181635400Y-93218000D03*
X181635400Y-95758000D03*
X181635400Y-98298000D03*
X181635400Y-100838000D03*
X181635400Y-103378000D03*
X181635400Y-105918000D03*
X181635400Y-108458000D03*
X181635400Y-110998000D03*
X181635400Y-113538000D03*
X181635400Y-116078000D03*
X181635400Y-118618000D03*
X181635400Y-121158000D03*
X181635400Y-123698000D03*
X184175400Y-62738000D03*
X184175400Y-65278000D03*
X184175400Y-67818000D03*
X184175400Y-70358000D03*
X184175400Y-72898000D03*
X184175400Y-75438000D03*
X184175400Y-77978000D03*
X184175400Y-80518000D03*
X184175400Y-83058000D03*
X184175400Y-85598000D03*
X184175400Y-88138000D03*
X184175400Y-90678000D03*
X184175400Y-93218000D03*
X184175400Y-95758000D03*
X184175400Y-98298000D03*
X184175400Y-100838000D03*
X184175400Y-103378000D03*
X184175400Y-105918000D03*
X184175400Y-108458000D03*
X184175400Y-110998000D03*
X184175400Y-113538000D03*
X184175400Y-116078000D03*
X184175400Y-118618000D03*
X184175400Y-121158000D03*
X184175400Y-123698000D03*
%TD*%
D18*
%TO.C,REF\u002A\u002A*%
X107500000Y-132000000D03*
%TD*%
%TO.C,REF\u002A\u002A*%
X187500000Y-132000000D03*
%TD*%
%TO.C,REF\u002A\u002A*%
X147500000Y-52000000D03*
%TD*%
%TO.C,REF\u002A\u002A*%
X187500000Y-52000000D03*
%TD*%
%TO.C,REF\u002A\u002A*%
X107500000Y-52000000D03*
%TD*%
D19*
%TO.C,C2*%
X130690000Y-70993000D03*
X123190000Y-70993000D03*
%TD*%
D17*
%TO.C,J4*%
X150749000Y-123698000D03*
X150749000Y-121158000D03*
X150749000Y-118618000D03*
X150749000Y-116078000D03*
X150749000Y-113538000D03*
X150749000Y-110998000D03*
X150749000Y-108458000D03*
X150749000Y-105918000D03*
X150749000Y-103378000D03*
X150749000Y-100838000D03*
X150749000Y-98298000D03*
X150749000Y-95758000D03*
X150749000Y-93218000D03*
X150749000Y-90678000D03*
X150749000Y-88138000D03*
X150749000Y-85598000D03*
X150749000Y-83058000D03*
X150749000Y-80518000D03*
X150749000Y-77978000D03*
X150749000Y-75438000D03*
X150749000Y-72898000D03*
X150749000Y-70358000D03*
X150749000Y-67818000D03*
X150749000Y-65278000D03*
X150749000Y-62738000D03*
X148209000Y-123698000D03*
X148209000Y-121158000D03*
X148209000Y-118618000D03*
X148209000Y-116078000D03*
X148209000Y-113538000D03*
X148209000Y-110998000D03*
X148209000Y-108458000D03*
X148209000Y-105918000D03*
X148209000Y-103378000D03*
X148209000Y-100838000D03*
X148209000Y-98298000D03*
X148209000Y-95758000D03*
X148209000Y-93218000D03*
X148209000Y-90678000D03*
X148209000Y-88138000D03*
X148209000Y-85598000D03*
X148209000Y-83058000D03*
X148209000Y-80518000D03*
X148209000Y-77978000D03*
X148209000Y-75438000D03*
X148209000Y-72898000D03*
X148209000Y-70358000D03*
X148209000Y-67818000D03*
X148209000Y-65278000D03*
G36*
G01*
X147359000Y-63338000D02*
X147359000Y-62138000D01*
G75*
G02*
X147609000Y-61888000I250000J0D01*
G01*
X148809000Y-61888000D01*
G75*
G02*
X149059000Y-62138000I0J-250000D01*
G01*
X149059000Y-63338000D01*
G75*
G02*
X148809000Y-63588000I-250000J0D01*
G01*
X147609000Y-63588000D01*
G75*
G02*
X147359000Y-63338000I0J250000D01*
G01*
G37*
%TD*%
D20*
%TO.C,C1*%
X126263400Y-53022500D03*
D21*
X126263400Y-51022500D03*
%TD*%
D22*
%TO.C,D2*%
X111633000Y-70358000D03*
D23*
X119253000Y-70358000D03*
%TD*%
D20*
%TO.C,J2*%
X135102600Y-127342900D03*
D24*
X135102600Y-134962900D03*
%TD*%
D25*
%TO.C,R1*%
X134251700Y-124523500D03*
D26*
X134251700Y-119443500D03*
%TD*%
D25*
%TO.C,R3*%
X143294100Y-123698000D03*
D26*
X138214100Y-123698000D03*
%TD*%
D25*
%TO.C,R6*%
X134493000Y-68580000D03*
D26*
X134493000Y-73660000D03*
%TD*%
%TO.C,R7*%
X134493000Y-60071000D03*
D25*
X134493000Y-65151000D03*
%TD*%
D26*
%TO.C,R2*%
X171728100Y-121158000D03*
D25*
X176808100Y-121158000D03*
%TD*%
D26*
%TO.C,R4*%
X171728100Y-113547500D03*
D25*
X176808100Y-113547500D03*
%TD*%
%TO.C,R5*%
X176708100Y-105947500D03*
D26*
X171628100Y-105947500D03*
%TD*%
D25*
%TO.C,R8*%
X176708100Y-98247500D03*
D26*
X171628100Y-98247500D03*
%TD*%
D25*
%TO.C,R9*%
X176708100Y-90678000D03*
D26*
X171628100Y-90678000D03*
%TD*%
%TO.C,R10*%
X171665900Y-83058000D03*
D25*
X176745900Y-83058000D03*
%TD*%
%TO.C,R11*%
X176720500Y-75438000D03*
D26*
X171640500Y-75438000D03*
%TD*%
%TO.C,R12*%
X171665900Y-67818000D03*
D25*
X176745900Y-67818000D03*
%TD*%
D26*
%TO.C,R37*%
X138125200Y-116090700D03*
D25*
X143205200Y-116090700D03*
%TD*%
%TO.C,R39*%
X143256000Y-108458000D03*
D26*
X138176000Y-108458000D03*
%TD*%
%TO.C,R41*%
X138176000Y-100838000D03*
D25*
X143256000Y-100838000D03*
%TD*%
D26*
%TO.C,R43*%
X138176000Y-93218000D03*
D25*
X143256000Y-93218000D03*
%TD*%
%TO.C,R45*%
X143256000Y-85598000D03*
D26*
X138176000Y-85598000D03*
%TD*%
D25*
%TO.C,R47*%
X143256000Y-77978000D03*
D26*
X138176000Y-77978000D03*
%TD*%
%TO.C,R49*%
X138125200Y-70358000D03*
D25*
X143205200Y-70358000D03*
%TD*%
D26*
%TO.C,R52*%
X138176000Y-62738000D03*
D25*
X143256000Y-62738000D03*
%TD*%
%TO.C,R38*%
X155829000Y-113538000D03*
D26*
X155829000Y-118618000D03*
%TD*%
D25*
%TO.C,R40*%
X155829000Y-105918000D03*
D26*
X155829000Y-110998000D03*
%TD*%
%TO.C,R42*%
X155829000Y-103378000D03*
D25*
X155829000Y-98298000D03*
%TD*%
D26*
%TO.C,R44*%
X155829000Y-95758000D03*
D25*
X155829000Y-90678000D03*
%TD*%
D26*
%TO.C,R46*%
X155816300Y-88138000D03*
D25*
X155816300Y-83058000D03*
%TD*%
%TO.C,R48*%
X155816300Y-75438000D03*
D26*
X155816300Y-80518000D03*
%TD*%
D25*
%TO.C,R50*%
X155778200Y-67779900D03*
D26*
X155778200Y-72859900D03*
%TD*%
%TO.C,R51*%
X155702000Y-65278000D03*
D25*
X155702000Y-60198000D03*
%TD*%
D20*
%TO.C,U2*%
X159829500Y-50761900D03*
D24*
X167449500Y-83781900D03*
X159829500Y-53301900D03*
X167449500Y-81241900D03*
X159829500Y-55841900D03*
X167449500Y-78701900D03*
X159829500Y-58381900D03*
X167449500Y-76161900D03*
X159829500Y-60921900D03*
X167449500Y-73621900D03*
X159829500Y-63461900D03*
X167449500Y-71081900D03*
X159829500Y-66001900D03*
X167449500Y-68541900D03*
X159829500Y-68541900D03*
X167449500Y-66001900D03*
X159829500Y-71081900D03*
X167449500Y-63461900D03*
X159829500Y-73621900D03*
X167449500Y-60921900D03*
X159829500Y-76161900D03*
X167449500Y-58381900D03*
X159829500Y-78701900D03*
X167449500Y-55841900D03*
X159829500Y-81241900D03*
X167449500Y-53301900D03*
X159829500Y-83781900D03*
X167449500Y-50761900D03*
%TD*%
D20*
%TO.C,U4*%
X121593101Y-58628701D03*
D24*
X129213101Y-66248701D03*
X121593101Y-61168701D03*
X129213101Y-63708701D03*
X121593101Y-63708701D03*
X129213101Y-61168701D03*
X121593101Y-66248701D03*
X129213101Y-58628701D03*
%TD*%
D25*
%TO.C,R13*%
X143256000Y-121183400D03*
D26*
X138176000Y-121183400D03*
%TD*%
D25*
%TO.C,R14*%
X143154400Y-113525300D03*
D26*
X138074400Y-113525300D03*
%TD*%
%TO.C,R15*%
X138176000Y-105918000D03*
D25*
X143256000Y-105918000D03*
%TD*%
D26*
%TO.C,R16*%
X138176000Y-98298000D03*
D25*
X143256000Y-98298000D03*
%TD*%
%TO.C,R17*%
X143256000Y-90678000D03*
D26*
X138176000Y-90678000D03*
%TD*%
D25*
%TO.C,R18*%
X143256000Y-83058000D03*
D26*
X138176000Y-83058000D03*
%TD*%
%TO.C,R19*%
X138176000Y-75438000D03*
D25*
X143256000Y-75438000D03*
%TD*%
D26*
%TO.C,R20*%
X138176000Y-67818000D03*
D25*
X143256000Y-67818000D03*
%TD*%
%TO.C,R21*%
X176784000Y-116078000D03*
D26*
X171704000Y-116078000D03*
%TD*%
D25*
%TO.C,R22*%
X189257500Y-113518300D03*
D26*
X189257500Y-118598300D03*
%TD*%
D25*
%TO.C,R23*%
X176657000Y-108458000D03*
D26*
X171577000Y-108458000D03*
%TD*%
D25*
%TO.C,R24*%
X189257500Y-105918300D03*
D26*
X189257500Y-110998300D03*
%TD*%
%TO.C,R25*%
X171428100Y-100747500D03*
D25*
X176508100Y-100747500D03*
%TD*%
D26*
%TO.C,R26*%
X189257500Y-103378000D03*
D25*
X189257500Y-98298000D03*
%TD*%
D26*
%TO.C,R27*%
X171528100Y-93218000D03*
D25*
X176608100Y-93218000D03*
%TD*%
D26*
%TO.C,R28*%
X189257500Y-95758000D03*
D25*
X189257500Y-90678000D03*
%TD*%
%TO.C,R29*%
X176720500Y-85598000D03*
D26*
X171640500Y-85598000D03*
%TD*%
D25*
%TO.C,R30*%
X189257500Y-83058000D03*
D26*
X189257500Y-88138000D03*
%TD*%
D25*
%TO.C,R31*%
X176745900Y-77978000D03*
D26*
X171665900Y-77978000D03*
%TD*%
D25*
%TO.C,R32*%
X189257500Y-75438000D03*
D26*
X189257500Y-80518000D03*
%TD*%
%TO.C,R33*%
X171640500Y-70358000D03*
D25*
X176720500Y-70358000D03*
%TD*%
D26*
%TO.C,R34*%
X189257500Y-72898000D03*
D25*
X189257500Y-67818000D03*
%TD*%
D26*
%TO.C,R35*%
X171640500Y-62738000D03*
D25*
X176720500Y-62738000D03*
%TD*%
D26*
%TO.C,R36*%
X189230000Y-65278000D03*
D25*
X189230000Y-60198000D03*
%TD*%
D26*
%TO.C,R53*%
X171704000Y-123698000D03*
D25*
X176784000Y-123698000D03*
%TD*%
D20*
%TO.C,U3*%
X160032700Y-94894400D03*
D24*
X167652700Y-127914400D03*
X160032700Y-97434400D03*
X167652700Y-125374400D03*
X160032700Y-99974400D03*
X167652700Y-122834400D03*
X160032700Y-102514400D03*
X167652700Y-120294400D03*
X160032700Y-105054400D03*
X167652700Y-117754400D03*
X160032700Y-107594400D03*
X167652700Y-115214400D03*
X160032700Y-110134400D03*
X167652700Y-112674400D03*
X160032700Y-112674400D03*
X167652700Y-110134400D03*
X160032700Y-115214400D03*
X167652700Y-107594400D03*
X160032700Y-117754400D03*
X167652700Y-105054400D03*
X160032700Y-120294400D03*
X167652700Y-102514400D03*
X160032700Y-122834400D03*
X167652700Y-99974400D03*
X160032700Y-125374400D03*
X167652700Y-97434400D03*
X160032700Y-127914400D03*
X167652700Y-94894400D03*
%TD*%
M02*
