%TF.GenerationSoftware,KiCad,Pcbnew,(5.1.9-0-10_14)*%
%TF.CreationDate,2021-09-01T12:04:37+01:00*%
%TF.ProjectId,SensorLights,53656e73-6f72-44c6-9967-6874732e6b69,1.1*%
%TF.SameCoordinates,Original*%
%TF.FileFunction,Legend,Bot*%
%TF.FilePolarity,Positive*%
%FSLAX46Y46*%
G04 Gerber Fmt 4.6, Leading zero omitted, Abs format (unit mm)*
G04 Created by KiCad (PCBNEW (5.1.9-0-10_14)) date 2021-09-01 12:04:37*
%MOMM*%
%LPD*%
G01*
G04 APERTURE LIST*
%ADD10C,0.120000*%
%ADD11C,0.150000*%
G04 APERTURE END LIST*
D10*
X179451000Y-52197000D02*
X181356000Y-52197000D01*
X180467000Y-50292000D02*
X180467000Y-48641000D01*
X166243000Y-50292000D02*
X166243000Y-48768000D01*
X165354000Y-49530000D02*
X167005000Y-49530000D01*
X119126000Y-50419000D02*
X120142000Y-50419000D01*
X119634000Y-51181000D02*
X119634000Y-49657000D01*
X135001000Y-51689000D02*
X135001000Y-50419000D01*
X134239000Y-51054000D02*
X135636000Y-51054000D01*
D11*
X152271142Y-120803142D02*
X152199714Y-120588857D01*
X152128285Y-120517428D01*
X151985428Y-120446000D01*
X151771142Y-120446000D01*
X151628285Y-120517428D01*
X151556857Y-120588857D01*
X151485428Y-120731714D01*
X151485428Y-121303142D01*
X152985428Y-121303142D01*
X152985428Y-120803142D01*
X152914000Y-120660285D01*
X152842571Y-120588857D01*
X152699714Y-120517428D01*
X152556857Y-120517428D01*
X152414000Y-120588857D01*
X152342571Y-120660285D01*
X152271142Y-120803142D01*
X152271142Y-121303142D01*
X151485428Y-119588857D02*
X151556857Y-119731714D01*
X151628285Y-119803142D01*
X151771142Y-119874571D01*
X152199714Y-119874571D01*
X152342571Y-119803142D01*
X152414000Y-119731714D01*
X152485428Y-119588857D01*
X152485428Y-119374571D01*
X152414000Y-119231714D01*
X152342571Y-119160285D01*
X152199714Y-119088857D01*
X151771142Y-119088857D01*
X151628285Y-119160285D01*
X151556857Y-119231714D01*
X151485428Y-119374571D01*
X151485428Y-119588857D01*
X151485428Y-117803142D02*
X152271142Y-117803142D01*
X152414000Y-117874571D01*
X152485428Y-118017428D01*
X152485428Y-118303142D01*
X152414000Y-118446000D01*
X151556857Y-117803142D02*
X151485428Y-117946000D01*
X151485428Y-118303142D01*
X151556857Y-118446000D01*
X151699714Y-118517428D01*
X151842571Y-118517428D01*
X151985428Y-118446000D01*
X152056857Y-118303142D01*
X152056857Y-117946000D01*
X152128285Y-117803142D01*
X151485428Y-117088857D02*
X152485428Y-117088857D01*
X152199714Y-117088857D02*
X152342571Y-117017428D01*
X152414000Y-116946000D01*
X152485428Y-116803142D01*
X152485428Y-116660285D01*
X151485428Y-115517428D02*
X152985428Y-115517428D01*
X151556857Y-115517428D02*
X151485428Y-115660285D01*
X151485428Y-115946000D01*
X151556857Y-116088857D01*
X151628285Y-116160285D01*
X151771142Y-116231714D01*
X152199714Y-116231714D01*
X152342571Y-116160285D01*
X152414000Y-116088857D01*
X152485428Y-115946000D01*
X152485428Y-115660285D01*
X152414000Y-115517428D01*
X151556857Y-113731714D02*
X151485428Y-113517428D01*
X151485428Y-113160285D01*
X151556857Y-113017428D01*
X151628285Y-112946000D01*
X151771142Y-112874571D01*
X151914000Y-112874571D01*
X152056857Y-112946000D01*
X152128285Y-113017428D01*
X152199714Y-113160285D01*
X152271142Y-113446000D01*
X152342571Y-113588857D01*
X152414000Y-113660285D01*
X152556857Y-113731714D01*
X152699714Y-113731714D01*
X152842571Y-113660285D01*
X152914000Y-113588857D01*
X152985428Y-113446000D01*
X152985428Y-113088857D01*
X152914000Y-112874571D01*
X152485428Y-111588857D02*
X151485428Y-111588857D01*
X152485428Y-112231714D02*
X151699714Y-112231714D01*
X151556857Y-112160285D01*
X151485428Y-112017428D01*
X151485428Y-111803142D01*
X151556857Y-111660285D01*
X151628285Y-111588857D01*
X152485428Y-110874571D02*
X150985428Y-110874571D01*
X152414000Y-110874571D02*
X152485428Y-110731714D01*
X152485428Y-110446000D01*
X152414000Y-110303142D01*
X152342571Y-110231714D01*
X152199714Y-110160285D01*
X151771142Y-110160285D01*
X151628285Y-110231714D01*
X151556857Y-110303142D01*
X151485428Y-110446000D01*
X151485428Y-110731714D01*
X151556857Y-110874571D01*
X152485428Y-109517428D02*
X150985428Y-109517428D01*
X152414000Y-109517428D02*
X152485428Y-109374571D01*
X152485428Y-109088857D01*
X152414000Y-108946000D01*
X152342571Y-108874571D01*
X152199714Y-108803142D01*
X151771142Y-108803142D01*
X151628285Y-108874571D01*
X151556857Y-108946000D01*
X151485428Y-109088857D01*
X151485428Y-109374571D01*
X151556857Y-109517428D01*
X151485428Y-107946000D02*
X151556857Y-108088857D01*
X151699714Y-108160285D01*
X152985428Y-108160285D01*
X152485428Y-107517428D02*
X151485428Y-107160285D01*
X152485428Y-106803142D02*
X151485428Y-107160285D01*
X151128285Y-107303142D01*
X151056857Y-107374571D01*
X150985428Y-107517428D01*
X152985428Y-104446000D02*
X152985428Y-104731714D01*
X152914000Y-104874571D01*
X152842571Y-104946000D01*
X152628285Y-105088857D01*
X152342571Y-105160285D01*
X151771142Y-105160285D01*
X151628285Y-105088857D01*
X151556857Y-105017428D01*
X151485428Y-104874571D01*
X151485428Y-104588857D01*
X151556857Y-104446000D01*
X151628285Y-104374571D01*
X151771142Y-104303142D01*
X152128285Y-104303142D01*
X152271142Y-104374571D01*
X152342571Y-104446000D01*
X152414000Y-104588857D01*
X152414000Y-104874571D01*
X152342571Y-105017428D01*
X152271142Y-105088857D01*
X152128285Y-105160285D01*
X152985428Y-103874571D02*
X151485428Y-103374571D01*
X152985428Y-102874571D01*
X152056857Y-102374571D02*
X152056857Y-101231714D01*
X152842571Y-100588857D02*
X152914000Y-100517428D01*
X152985428Y-100374571D01*
X152985428Y-100017428D01*
X152914000Y-99874571D01*
X152842571Y-99803142D01*
X152699714Y-99731714D01*
X152556857Y-99731714D01*
X152342571Y-99803142D01*
X151485428Y-100660285D01*
X151485428Y-99731714D01*
X152485428Y-98446000D02*
X151485428Y-98446000D01*
X153056857Y-98803142D02*
X151985428Y-99160285D01*
X151985428Y-98231714D01*
X152985428Y-97874571D02*
X151485428Y-97374571D01*
X152985428Y-96874571D01*
X151485428Y-96374571D02*
X152985428Y-96374571D01*
X152985428Y-96017428D01*
X152914000Y-95803142D01*
X152771142Y-95660285D01*
X152628285Y-95588857D01*
X152342571Y-95517428D01*
X152128285Y-95517428D01*
X151842571Y-95588857D01*
X151699714Y-95660285D01*
X151556857Y-95803142D01*
X151485428Y-96017428D01*
X151485428Y-96374571D01*
X151628285Y-94017428D02*
X151556857Y-94088857D01*
X151485428Y-94303142D01*
X151485428Y-94446000D01*
X151556857Y-94660285D01*
X151699714Y-94803142D01*
X151842571Y-94874571D01*
X152128285Y-94946000D01*
X152342571Y-94946000D01*
X152628285Y-94874571D01*
X152771142Y-94803142D01*
X152914000Y-94660285D01*
X152985428Y-94446000D01*
X152985428Y-94303142D01*
X152914000Y-94088857D01*
X152842571Y-94017428D01*
X149156857Y-121624571D02*
X149085428Y-121410285D01*
X149085428Y-121053142D01*
X149156857Y-120910285D01*
X149228285Y-120838857D01*
X149371142Y-120767428D01*
X149514000Y-120767428D01*
X149656857Y-120838857D01*
X149728285Y-120910285D01*
X149799714Y-121053142D01*
X149871142Y-121338857D01*
X149942571Y-121481714D01*
X150014000Y-121553142D01*
X150156857Y-121624571D01*
X150299714Y-121624571D01*
X150442571Y-121553142D01*
X150514000Y-121481714D01*
X150585428Y-121338857D01*
X150585428Y-120981714D01*
X150514000Y-120767428D01*
X149085428Y-120124571D02*
X150085428Y-120124571D01*
X150585428Y-120124571D02*
X150514000Y-120196000D01*
X150442571Y-120124571D01*
X150514000Y-120053142D01*
X150585428Y-120124571D01*
X150442571Y-120124571D01*
X150085428Y-118767428D02*
X148871142Y-118767428D01*
X148728285Y-118838857D01*
X148656857Y-118910285D01*
X148585428Y-119053142D01*
X148585428Y-119267428D01*
X148656857Y-119410285D01*
X149156857Y-118767428D02*
X149085428Y-118910285D01*
X149085428Y-119196000D01*
X149156857Y-119338857D01*
X149228285Y-119410285D01*
X149371142Y-119481714D01*
X149799714Y-119481714D01*
X149942571Y-119410285D01*
X150014000Y-119338857D01*
X150085428Y-119196000D01*
X150085428Y-118910285D01*
X150014000Y-118767428D01*
X150085428Y-118053142D02*
X149085428Y-118053142D01*
X149942571Y-118053142D02*
X150014000Y-117981714D01*
X150085428Y-117838857D01*
X150085428Y-117624571D01*
X150014000Y-117481714D01*
X149871142Y-117410285D01*
X149085428Y-117410285D01*
X149085428Y-116053142D02*
X149871142Y-116053142D01*
X150014000Y-116124571D01*
X150085428Y-116267428D01*
X150085428Y-116553142D01*
X150014000Y-116696000D01*
X149156857Y-116053142D02*
X149085428Y-116196000D01*
X149085428Y-116553142D01*
X149156857Y-116696000D01*
X149299714Y-116767428D01*
X149442571Y-116767428D01*
X149585428Y-116696000D01*
X149656857Y-116553142D01*
X149656857Y-116196000D01*
X149728285Y-116053142D01*
X149085428Y-115124571D02*
X149156857Y-115267428D01*
X149299714Y-115338857D01*
X150585428Y-115338857D01*
X149156857Y-113481714D02*
X149085428Y-113267428D01*
X149085428Y-112910285D01*
X149156857Y-112767428D01*
X149228285Y-112696000D01*
X149371142Y-112624571D01*
X149514000Y-112624571D01*
X149656857Y-112696000D01*
X149728285Y-112767428D01*
X149799714Y-112910285D01*
X149871142Y-113196000D01*
X149942571Y-113338857D01*
X150014000Y-113410285D01*
X150156857Y-113481714D01*
X150299714Y-113481714D01*
X150442571Y-113410285D01*
X150514000Y-113338857D01*
X150585428Y-113196000D01*
X150585428Y-112838857D01*
X150514000Y-112624571D01*
X150085428Y-111338857D02*
X149085428Y-111338857D01*
X150085428Y-111981714D02*
X149299714Y-111981714D01*
X149156857Y-111910285D01*
X149085428Y-111767428D01*
X149085428Y-111553142D01*
X149156857Y-111410285D01*
X149228285Y-111338857D01*
X150085428Y-110624571D02*
X148585428Y-110624571D01*
X150014000Y-110624571D02*
X150085428Y-110481714D01*
X150085428Y-110196000D01*
X150014000Y-110053142D01*
X149942571Y-109981714D01*
X149799714Y-109910285D01*
X149371142Y-109910285D01*
X149228285Y-109981714D01*
X149156857Y-110053142D01*
X149085428Y-110196000D01*
X149085428Y-110481714D01*
X149156857Y-110624571D01*
X150085428Y-109267428D02*
X148585428Y-109267428D01*
X150014000Y-109267428D02*
X150085428Y-109124571D01*
X150085428Y-108838857D01*
X150014000Y-108696000D01*
X149942571Y-108624571D01*
X149799714Y-108553142D01*
X149371142Y-108553142D01*
X149228285Y-108624571D01*
X149156857Y-108696000D01*
X149085428Y-108838857D01*
X149085428Y-109124571D01*
X149156857Y-109267428D01*
X149085428Y-107696000D02*
X149156857Y-107838857D01*
X149299714Y-107910285D01*
X150585428Y-107910285D01*
X150085428Y-107267428D02*
X149085428Y-106910285D01*
X150085428Y-106553142D02*
X149085428Y-106910285D01*
X148728285Y-107053142D01*
X148656857Y-107124571D01*
X148585428Y-107267428D01*
X150585428Y-104196000D02*
X150585428Y-104481714D01*
X150514000Y-104624571D01*
X150442571Y-104696000D01*
X150228285Y-104838857D01*
X149942571Y-104910285D01*
X149371142Y-104910285D01*
X149228285Y-104838857D01*
X149156857Y-104767428D01*
X149085428Y-104624571D01*
X149085428Y-104338857D01*
X149156857Y-104196000D01*
X149228285Y-104124571D01*
X149371142Y-104053142D01*
X149728285Y-104053142D01*
X149871142Y-104124571D01*
X149942571Y-104196000D01*
X150014000Y-104338857D01*
X150014000Y-104624571D01*
X149942571Y-104767428D01*
X149871142Y-104838857D01*
X149728285Y-104910285D01*
X150585428Y-103624571D02*
X149085428Y-103124571D01*
X150585428Y-102624571D01*
X149656857Y-102124571D02*
X149656857Y-100981714D01*
X150585428Y-99624571D02*
X150585428Y-99910285D01*
X150514000Y-100053142D01*
X150442571Y-100124571D01*
X150228285Y-100267428D01*
X149942571Y-100338857D01*
X149371142Y-100338857D01*
X149228285Y-100267428D01*
X149156857Y-100196000D01*
X149085428Y-100053142D01*
X149085428Y-99767428D01*
X149156857Y-99624571D01*
X149228285Y-99553142D01*
X149371142Y-99481714D01*
X149728285Y-99481714D01*
X149871142Y-99553142D01*
X149942571Y-99624571D01*
X150014000Y-99767428D01*
X150014000Y-100053142D01*
X149942571Y-100196000D01*
X149871142Y-100267428D01*
X149728285Y-100338857D01*
X150585428Y-98553142D02*
X150585428Y-98410285D01*
X150514000Y-98267428D01*
X150442571Y-98196000D01*
X150299714Y-98124571D01*
X150014000Y-98053142D01*
X149656857Y-98053142D01*
X149371142Y-98124571D01*
X149228285Y-98196000D01*
X149156857Y-98267428D01*
X149085428Y-98410285D01*
X149085428Y-98553142D01*
X149156857Y-98696000D01*
X149228285Y-98767428D01*
X149371142Y-98838857D01*
X149656857Y-98910285D01*
X150014000Y-98910285D01*
X150299714Y-98838857D01*
X150442571Y-98767428D01*
X150514000Y-98696000D01*
X150585428Y-98553142D01*
X150585428Y-97624571D02*
X149085428Y-97124571D01*
X150585428Y-96624571D01*
X149085428Y-96124571D02*
X150585428Y-96124571D01*
X150585428Y-95767428D01*
X150514000Y-95553142D01*
X150371142Y-95410285D01*
X150228285Y-95338857D01*
X149942571Y-95267428D01*
X149728285Y-95267428D01*
X149442571Y-95338857D01*
X149299714Y-95410285D01*
X149156857Y-95553142D01*
X149085428Y-95767428D01*
X149085428Y-96124571D01*
X149228285Y-93767428D02*
X149156857Y-93838857D01*
X149085428Y-94053142D01*
X149085428Y-94196000D01*
X149156857Y-94410285D01*
X149299714Y-94553142D01*
X149442571Y-94624571D01*
X149728285Y-94696000D01*
X149942571Y-94696000D01*
X150228285Y-94624571D01*
X150371142Y-94553142D01*
X150514000Y-94410285D01*
X150585428Y-94196000D01*
X150585428Y-94053142D01*
X150514000Y-93838857D01*
X150442571Y-93767428D01*
X146756857Y-122410285D02*
X146685428Y-122196000D01*
X146685428Y-121838857D01*
X146756857Y-121696000D01*
X146828285Y-121624571D01*
X146971142Y-121553142D01*
X147114000Y-121553142D01*
X147256857Y-121624571D01*
X147328285Y-121696000D01*
X147399714Y-121838857D01*
X147471142Y-122124571D01*
X147542571Y-122267428D01*
X147614000Y-122338857D01*
X147756857Y-122410285D01*
X147899714Y-122410285D01*
X148042571Y-122338857D01*
X148114000Y-122267428D01*
X148185428Y-122124571D01*
X148185428Y-121767428D01*
X148114000Y-121553142D01*
X146685428Y-120910285D02*
X148185428Y-120910285D01*
X146685428Y-120267428D02*
X147471142Y-120267428D01*
X147614000Y-120338857D01*
X147685428Y-120481714D01*
X147685428Y-120696000D01*
X147614000Y-120838857D01*
X147542571Y-120910285D01*
X146685428Y-119338857D02*
X146756857Y-119481714D01*
X146828285Y-119553142D01*
X146971142Y-119624571D01*
X147399714Y-119624571D01*
X147542571Y-119553142D01*
X147614000Y-119481714D01*
X147685428Y-119338857D01*
X147685428Y-119124571D01*
X147614000Y-118981714D01*
X147542571Y-118910285D01*
X147399714Y-118838857D01*
X146971142Y-118838857D01*
X146828285Y-118910285D01*
X146756857Y-118981714D01*
X146685428Y-119124571D01*
X146685428Y-119338857D01*
X146685428Y-118196000D02*
X147685428Y-118196000D01*
X147399714Y-118196000D02*
X147542571Y-118124571D01*
X147614000Y-118053142D01*
X147685428Y-117910285D01*
X147685428Y-117767428D01*
X147685428Y-117481714D02*
X147685428Y-116910285D01*
X148185428Y-117267428D02*
X146899714Y-117267428D01*
X146756857Y-117196000D01*
X146685428Y-117053142D01*
X146685428Y-116910285D01*
X148185428Y-114838857D02*
X147114000Y-114838857D01*
X146899714Y-114910285D01*
X146756857Y-115053142D01*
X146685428Y-115267428D01*
X146685428Y-115410285D01*
X146685428Y-114124571D02*
X148185428Y-114124571D01*
X148185428Y-113553142D01*
X148114000Y-113410285D01*
X148042571Y-113338857D01*
X147899714Y-113267428D01*
X147685428Y-113267428D01*
X147542571Y-113338857D01*
X147471142Y-113410285D01*
X147399714Y-113553142D01*
X147399714Y-114124571D01*
X146685428Y-111838857D02*
X146685428Y-112696000D01*
X146685428Y-112267428D02*
X148185428Y-112267428D01*
X147971142Y-112410285D01*
X147828285Y-112553142D01*
X147756857Y-112696000D01*
X147685428Y-110267428D02*
X147685428Y-109696000D01*
X148185428Y-110053142D02*
X146899714Y-110053142D01*
X146756857Y-109981714D01*
X146685428Y-109838857D01*
X146685428Y-109696000D01*
X146685428Y-108981714D02*
X146756857Y-109124571D01*
X146828285Y-109196000D01*
X146971142Y-109267428D01*
X147399714Y-109267428D01*
X147542571Y-109196000D01*
X147614000Y-109124571D01*
X147685428Y-108981714D01*
X147685428Y-108767428D01*
X147614000Y-108624571D01*
X147542571Y-108553142D01*
X147399714Y-108481714D01*
X146971142Y-108481714D01*
X146828285Y-108553142D01*
X146756857Y-108624571D01*
X146685428Y-108767428D01*
X146685428Y-108981714D01*
X147685428Y-106053142D02*
X146685428Y-106053142D01*
X147685428Y-106696000D02*
X146899714Y-106696000D01*
X146756857Y-106624571D01*
X146685428Y-106481714D01*
X146685428Y-106267428D01*
X146756857Y-106124571D01*
X146828285Y-106053142D01*
X146756857Y-105410285D02*
X146685428Y-105267428D01*
X146685428Y-104981714D01*
X146756857Y-104838857D01*
X146899714Y-104767428D01*
X146971142Y-104767428D01*
X147114000Y-104838857D01*
X147185428Y-104981714D01*
X147185428Y-105196000D01*
X147256857Y-105338857D01*
X147399714Y-105410285D01*
X147471142Y-105410285D01*
X147614000Y-105338857D01*
X147685428Y-105196000D01*
X147685428Y-104981714D01*
X147614000Y-104838857D01*
X146756857Y-103553142D02*
X146685428Y-103696000D01*
X146685428Y-103981714D01*
X146756857Y-104124571D01*
X146899714Y-104196000D01*
X147471142Y-104196000D01*
X147614000Y-104124571D01*
X147685428Y-103981714D01*
X147685428Y-103696000D01*
X147614000Y-103553142D01*
X147471142Y-103481714D01*
X147328285Y-103481714D01*
X147185428Y-104196000D01*
X146756857Y-101053142D02*
X146685428Y-101196000D01*
X146685428Y-101481714D01*
X146756857Y-101624571D01*
X146828285Y-101696000D01*
X146971142Y-101767428D01*
X147399714Y-101767428D01*
X147542571Y-101696000D01*
X147614000Y-101624571D01*
X147685428Y-101481714D01*
X147685428Y-101196000D01*
X147614000Y-101053142D01*
X146685428Y-100196000D02*
X146756857Y-100338857D01*
X146828285Y-100410285D01*
X146971142Y-100481714D01*
X147399714Y-100481714D01*
X147542571Y-100410285D01*
X147614000Y-100338857D01*
X147685428Y-100196000D01*
X147685428Y-99981714D01*
X147614000Y-99838857D01*
X147542571Y-99767428D01*
X147399714Y-99696000D01*
X146971142Y-99696000D01*
X146828285Y-99767428D01*
X146756857Y-99838857D01*
X146685428Y-99981714D01*
X146685428Y-100196000D01*
X146685428Y-99053142D02*
X147685428Y-99053142D01*
X147542571Y-99053142D02*
X147614000Y-98981714D01*
X147685428Y-98838857D01*
X147685428Y-98624571D01*
X147614000Y-98481714D01*
X147471142Y-98410285D01*
X146685428Y-98410285D01*
X147471142Y-98410285D02*
X147614000Y-98338857D01*
X147685428Y-98196000D01*
X147685428Y-97981714D01*
X147614000Y-97838857D01*
X147471142Y-97767428D01*
X146685428Y-97767428D01*
X146685428Y-97053142D02*
X147685428Y-97053142D01*
X147542571Y-97053142D02*
X147614000Y-96981714D01*
X147685428Y-96838857D01*
X147685428Y-96624571D01*
X147614000Y-96481714D01*
X147471142Y-96410285D01*
X146685428Y-96410285D01*
X147471142Y-96410285D02*
X147614000Y-96338857D01*
X147685428Y-96196000D01*
X147685428Y-95981714D01*
X147614000Y-95838857D01*
X147471142Y-95767428D01*
X146685428Y-95767428D01*
X146685428Y-94838857D02*
X146756857Y-94981714D01*
X146828285Y-95053142D01*
X146971142Y-95124571D01*
X147399714Y-95124571D01*
X147542571Y-95053142D01*
X147614000Y-94981714D01*
X147685428Y-94838857D01*
X147685428Y-94624571D01*
X147614000Y-94481714D01*
X147542571Y-94410285D01*
X147399714Y-94338857D01*
X146971142Y-94338857D01*
X146828285Y-94410285D01*
X146756857Y-94481714D01*
X146685428Y-94624571D01*
X146685428Y-94838857D01*
X147685428Y-93696000D02*
X146685428Y-93696000D01*
X147542571Y-93696000D02*
X147614000Y-93624571D01*
X147685428Y-93481714D01*
X147685428Y-93267428D01*
X147614000Y-93124571D01*
X147471142Y-93053142D01*
X146685428Y-93053142D01*
X144356857Y-116017428D02*
X144285428Y-115874571D01*
X144285428Y-115588857D01*
X144356857Y-115446000D01*
X144499714Y-115374571D01*
X144571142Y-115374571D01*
X144714000Y-115446000D01*
X144785428Y-115588857D01*
X144785428Y-115803142D01*
X144856857Y-115946000D01*
X144999714Y-116017428D01*
X145071142Y-116017428D01*
X145214000Y-115946000D01*
X145285428Y-115803142D01*
X145285428Y-115588857D01*
X145214000Y-115446000D01*
X145285428Y-114088857D02*
X144285428Y-114088857D01*
X145285428Y-114731714D02*
X144499714Y-114731714D01*
X144356857Y-114660285D01*
X144285428Y-114517428D01*
X144285428Y-114303142D01*
X144356857Y-114160285D01*
X144428285Y-114088857D01*
X145285428Y-113374571D02*
X143785428Y-113374571D01*
X145214000Y-113374571D02*
X145285428Y-113231714D01*
X145285428Y-112946000D01*
X145214000Y-112803142D01*
X145142571Y-112731714D01*
X144999714Y-112660285D01*
X144571142Y-112660285D01*
X144428285Y-112731714D01*
X144356857Y-112803142D01*
X144285428Y-112946000D01*
X144285428Y-113231714D01*
X144356857Y-113374571D01*
X145285428Y-112017428D02*
X143785428Y-112017428D01*
X145214000Y-112017428D02*
X145285428Y-111874571D01*
X145285428Y-111588857D01*
X145214000Y-111446000D01*
X145142571Y-111374571D01*
X144999714Y-111303142D01*
X144571142Y-111303142D01*
X144428285Y-111374571D01*
X144356857Y-111446000D01*
X144285428Y-111588857D01*
X144285428Y-111874571D01*
X144356857Y-112017428D01*
X144285428Y-110446000D02*
X144356857Y-110588857D01*
X144499714Y-110660285D01*
X145785428Y-110660285D01*
X145285428Y-110017428D02*
X144285428Y-109660285D01*
X145285428Y-109303142D02*
X144285428Y-109660285D01*
X143928285Y-109803142D01*
X143856857Y-109874571D01*
X143785428Y-110017428D01*
X145285428Y-107803142D02*
X145285428Y-107231714D01*
X144285428Y-107588857D02*
X145571142Y-107588857D01*
X145714000Y-107517428D01*
X145785428Y-107374571D01*
X145785428Y-107231714D01*
X144285428Y-106731714D02*
X145285428Y-106731714D01*
X144999714Y-106731714D02*
X145142571Y-106660285D01*
X145214000Y-106588857D01*
X145285428Y-106446000D01*
X145285428Y-106303142D01*
X144285428Y-105588857D02*
X144356857Y-105731714D01*
X144428285Y-105803142D01*
X144571142Y-105874571D01*
X144999714Y-105874571D01*
X145142571Y-105803142D01*
X145214000Y-105731714D01*
X145285428Y-105588857D01*
X145285428Y-105374571D01*
X145214000Y-105231714D01*
X145142571Y-105160285D01*
X144999714Y-105088857D01*
X144571142Y-105088857D01*
X144428285Y-105160285D01*
X144356857Y-105231714D01*
X144285428Y-105374571D01*
X144285428Y-105588857D01*
X144285428Y-104446000D02*
X145285428Y-104446000D01*
X145142571Y-104446000D02*
X145214000Y-104374571D01*
X145285428Y-104231714D01*
X145285428Y-104017428D01*
X145214000Y-103874571D01*
X145071142Y-103803142D01*
X144285428Y-103803142D01*
X145071142Y-103803142D02*
X145214000Y-103731714D01*
X145285428Y-103588857D01*
X145285428Y-103374571D01*
X145214000Y-103231714D01*
X145071142Y-103160285D01*
X144285428Y-103160285D01*
X145785428Y-100874571D02*
X144714000Y-100874571D01*
X144499714Y-100946000D01*
X144356857Y-101088857D01*
X144285428Y-101303142D01*
X144285428Y-101446000D01*
X144285428Y-99374571D02*
X144285428Y-100231714D01*
X144285428Y-99803142D02*
X145785428Y-99803142D01*
X145571142Y-99946000D01*
X145428285Y-100088857D01*
X145356857Y-100231714D01*
X142671142Y-124160285D02*
X142671142Y-124660285D01*
X141885428Y-124660285D02*
X143385428Y-124660285D01*
X143385428Y-123946000D01*
X141885428Y-123160285D02*
X141956857Y-123303142D01*
X142028285Y-123374571D01*
X142171142Y-123446000D01*
X142599714Y-123446000D01*
X142742571Y-123374571D01*
X142814000Y-123303142D01*
X142885428Y-123160285D01*
X142885428Y-122946000D01*
X142814000Y-122803142D01*
X142742571Y-122731714D01*
X142599714Y-122660285D01*
X142171142Y-122660285D01*
X142028285Y-122731714D01*
X141956857Y-122803142D01*
X141885428Y-122946000D01*
X141885428Y-123160285D01*
X141885428Y-122017428D02*
X142885428Y-122017428D01*
X142599714Y-122017428D02*
X142742571Y-121946000D01*
X142814000Y-121874571D01*
X142885428Y-121731714D01*
X142885428Y-121588857D01*
X141885428Y-119731714D02*
X141956857Y-119874571D01*
X142099714Y-119946000D01*
X143385428Y-119946000D01*
X141885428Y-118946000D02*
X141956857Y-119088857D01*
X142028285Y-119160285D01*
X142171142Y-119231714D01*
X142599714Y-119231714D01*
X142742571Y-119160285D01*
X142814000Y-119088857D01*
X142885428Y-118946000D01*
X142885428Y-118731714D01*
X142814000Y-118588857D01*
X142742571Y-118517428D01*
X142599714Y-118446000D01*
X142171142Y-118446000D01*
X142028285Y-118517428D01*
X141956857Y-118588857D01*
X141885428Y-118731714D01*
X141885428Y-118946000D01*
X141885428Y-117160285D02*
X142671142Y-117160285D01*
X142814000Y-117231714D01*
X142885428Y-117374571D01*
X142885428Y-117660285D01*
X142814000Y-117803142D01*
X141956857Y-117160285D02*
X141885428Y-117303142D01*
X141885428Y-117660285D01*
X141956857Y-117803142D01*
X142099714Y-117874571D01*
X142242571Y-117874571D01*
X142385428Y-117803142D01*
X142456857Y-117660285D01*
X142456857Y-117303142D01*
X142528285Y-117160285D01*
X141885428Y-115803142D02*
X143385428Y-115803142D01*
X141956857Y-115803142D02*
X141885428Y-115946000D01*
X141885428Y-116231714D01*
X141956857Y-116374571D01*
X142028285Y-116446000D01*
X142171142Y-116517428D01*
X142599714Y-116517428D01*
X142742571Y-116446000D01*
X142814000Y-116374571D01*
X142885428Y-116231714D01*
X142885428Y-115946000D01*
X142814000Y-115803142D01*
X141956857Y-115160285D02*
X141885428Y-115017428D01*
X141885428Y-114731714D01*
X141956857Y-114588857D01*
X142099714Y-114517428D01*
X142171142Y-114517428D01*
X142314000Y-114588857D01*
X142385428Y-114731714D01*
X142385428Y-114946000D01*
X142456857Y-115088857D01*
X142599714Y-115160285D01*
X142671142Y-115160285D01*
X142814000Y-115088857D01*
X142885428Y-114946000D01*
X142885428Y-114731714D01*
X142814000Y-114588857D01*
X142885428Y-112731714D02*
X142456857Y-111588857D01*
X142028285Y-112731714D01*
X141885428Y-110088857D02*
X141885428Y-110946000D01*
X141885428Y-110517428D02*
X143385428Y-110517428D01*
X143171142Y-110660285D01*
X143028285Y-110803142D01*
X142956857Y-110946000D01*
X143385428Y-109160285D02*
X143385428Y-109017428D01*
X143314000Y-108874571D01*
X143242571Y-108803142D01*
X143099714Y-108731714D01*
X142814000Y-108660285D01*
X142456857Y-108660285D01*
X142171142Y-108731714D01*
X142028285Y-108803142D01*
X141956857Y-108874571D01*
X141885428Y-109017428D01*
X141885428Y-109160285D01*
X141956857Y-109303142D01*
X142028285Y-109374571D01*
X142171142Y-109446000D01*
X142456857Y-109517428D01*
X142814000Y-109517428D01*
X143099714Y-109446000D01*
X143242571Y-109374571D01*
X143314000Y-109303142D01*
X143385428Y-109160285D01*
X142314000Y-108088857D02*
X142314000Y-107374571D01*
X141885428Y-108231714D02*
X143385428Y-107731714D01*
X141885428Y-107231714D01*
X142885428Y-104946000D02*
X141885428Y-104946000D01*
X142885428Y-105588857D02*
X142099714Y-105588857D01*
X141956857Y-105517428D01*
X141885428Y-105374571D01*
X141885428Y-105160285D01*
X141956857Y-105017428D01*
X142028285Y-104946000D01*
X141956857Y-104303142D02*
X141885428Y-104160285D01*
X141885428Y-103874571D01*
X141956857Y-103731714D01*
X142099714Y-103660285D01*
X142171142Y-103660285D01*
X142314000Y-103731714D01*
X142385428Y-103874571D01*
X142385428Y-104088857D01*
X142456857Y-104231714D01*
X142599714Y-104303142D01*
X142671142Y-104303142D01*
X142814000Y-104231714D01*
X142885428Y-104088857D01*
X142885428Y-103874571D01*
X142814000Y-103731714D01*
X141956857Y-102446000D02*
X141885428Y-102588857D01*
X141885428Y-102874571D01*
X141956857Y-103017428D01*
X142099714Y-103088857D01*
X142671142Y-103088857D01*
X142814000Y-103017428D01*
X142885428Y-102874571D01*
X142885428Y-102588857D01*
X142814000Y-102446000D01*
X142671142Y-102374571D01*
X142528285Y-102374571D01*
X142385428Y-103088857D01*
X141885428Y-100588857D02*
X143385428Y-100588857D01*
X141885428Y-99946000D02*
X142671142Y-99946000D01*
X142814000Y-100017428D01*
X142885428Y-100160285D01*
X142885428Y-100374571D01*
X142814000Y-100517428D01*
X142742571Y-100588857D01*
X141956857Y-98660285D02*
X141885428Y-98803142D01*
X141885428Y-99088857D01*
X141956857Y-99231714D01*
X142099714Y-99303142D01*
X142671142Y-99303142D01*
X142814000Y-99231714D01*
X142885428Y-99088857D01*
X142885428Y-98803142D01*
X142814000Y-98660285D01*
X142671142Y-98588857D01*
X142528285Y-98588857D01*
X142385428Y-99303142D01*
X141885428Y-97303142D02*
X142671142Y-97303142D01*
X142814000Y-97374571D01*
X142885428Y-97517428D01*
X142885428Y-97803142D01*
X142814000Y-97946000D01*
X141956857Y-97303142D02*
X141885428Y-97446000D01*
X141885428Y-97803142D01*
X141956857Y-97946000D01*
X142099714Y-98017428D01*
X142242571Y-98017428D01*
X142385428Y-97946000D01*
X142456857Y-97803142D01*
X142456857Y-97446000D01*
X142528285Y-97303142D01*
X142885428Y-96803142D02*
X142885428Y-96231714D01*
X143385428Y-96588857D02*
X142099714Y-96588857D01*
X141956857Y-96517428D01*
X141885428Y-96374571D01*
X141885428Y-96231714D01*
X141956857Y-95803142D02*
X141885428Y-95660285D01*
X141885428Y-95374571D01*
X141956857Y-95231714D01*
X142099714Y-95160285D01*
X142171142Y-95160285D01*
X142314000Y-95231714D01*
X142385428Y-95374571D01*
X142385428Y-95588857D01*
X142456857Y-95731714D01*
X142599714Y-95803142D01*
X142671142Y-95803142D01*
X142814000Y-95731714D01*
X142885428Y-95588857D01*
X142885428Y-95374571D01*
X142814000Y-95231714D01*
X141885428Y-94517428D02*
X142885428Y-94517428D01*
X143385428Y-94517428D02*
X143314000Y-94588857D01*
X143242571Y-94517428D01*
X143314000Y-94446000D01*
X143385428Y-94517428D01*
X143242571Y-94517428D01*
X142885428Y-93803142D02*
X141885428Y-93803142D01*
X142742571Y-93803142D02*
X142814000Y-93731714D01*
X142885428Y-93588857D01*
X142885428Y-93374571D01*
X142814000Y-93231714D01*
X142671142Y-93160285D01*
X141885428Y-93160285D01*
X141885428Y-92446000D02*
X143385428Y-92446000D01*
X142456857Y-92303142D02*
X141885428Y-91874571D01*
X142885428Y-91874571D02*
X142314000Y-92446000D01*
X141956857Y-91303142D02*
X141885428Y-91160285D01*
X141885428Y-90874571D01*
X141956857Y-90731714D01*
X142099714Y-90660285D01*
X142171142Y-90660285D01*
X142314000Y-90731714D01*
X142385428Y-90874571D01*
X142385428Y-91088857D01*
X142456857Y-91231714D01*
X142599714Y-91303142D01*
X142671142Y-91303142D01*
X142814000Y-91231714D01*
X142885428Y-91088857D01*
X142885428Y-90874571D01*
X142814000Y-90731714D01*
X139485428Y-114124571D02*
X139556857Y-114267428D01*
X139628285Y-114338857D01*
X139771142Y-114410285D01*
X140199714Y-114410285D01*
X140342571Y-114338857D01*
X140414000Y-114267428D01*
X140485428Y-114124571D01*
X140485428Y-113910285D01*
X140414000Y-113767428D01*
X140342571Y-113696000D01*
X140199714Y-113624571D01*
X139771142Y-113624571D01*
X139628285Y-113696000D01*
X139556857Y-113767428D01*
X139485428Y-113910285D01*
X139485428Y-114124571D01*
X140485428Y-112981714D02*
X139485428Y-112981714D01*
X140342571Y-112981714D02*
X140414000Y-112910285D01*
X140485428Y-112767428D01*
X140485428Y-112553142D01*
X140414000Y-112410285D01*
X140271142Y-112338857D01*
X139485428Y-112338857D01*
X139342571Y-109481714D02*
X139414000Y-109624571D01*
X139556857Y-109767428D01*
X139771142Y-109981714D01*
X139842571Y-110124571D01*
X139842571Y-110267428D01*
X139485428Y-110196000D02*
X139556857Y-110338857D01*
X139699714Y-110481714D01*
X139985428Y-110553142D01*
X140485428Y-110553142D01*
X140771142Y-110481714D01*
X140914000Y-110338857D01*
X140985428Y-110196000D01*
X140985428Y-109910285D01*
X140914000Y-109767428D01*
X140771142Y-109624571D01*
X140485428Y-109553142D01*
X139985428Y-109553142D01*
X139699714Y-109624571D01*
X139556857Y-109767428D01*
X139485428Y-109910285D01*
X139485428Y-110196000D01*
X139485428Y-108124571D02*
X139485428Y-108981714D01*
X139485428Y-108553142D02*
X140985428Y-108553142D01*
X140771142Y-108696000D01*
X140628285Y-108838857D01*
X140556857Y-108981714D01*
X139485428Y-105124571D02*
X139485428Y-105196000D01*
X139556857Y-105338857D01*
X139771142Y-105553142D01*
X140199714Y-105910285D01*
X140414000Y-106053142D01*
X140628285Y-106124571D01*
X140771142Y-106124571D01*
X140914000Y-106053142D01*
X140985428Y-105910285D01*
X140985428Y-105838857D01*
X140914000Y-105696000D01*
X140771142Y-105624571D01*
X140699714Y-105624571D01*
X140556857Y-105696000D01*
X140485428Y-105767428D01*
X140199714Y-106196000D01*
X140128285Y-106267428D01*
X139985428Y-106338857D01*
X139771142Y-106338857D01*
X139628285Y-106267428D01*
X139556857Y-106196000D01*
X139485428Y-106053142D01*
X139485428Y-105838857D01*
X139556857Y-105696000D01*
X139628285Y-105624571D01*
X139914000Y-105410285D01*
X140128285Y-105338857D01*
X140271142Y-105338857D01*
X139342571Y-102338857D02*
X139414000Y-102481714D01*
X139556857Y-102624571D01*
X139771142Y-102838857D01*
X139842571Y-102981714D01*
X139842571Y-103124571D01*
X139485428Y-103053142D02*
X139556857Y-103196000D01*
X139699714Y-103338857D01*
X139985428Y-103410285D01*
X140485428Y-103410285D01*
X140771142Y-103338857D01*
X140914000Y-103196000D01*
X140985428Y-103053142D01*
X140985428Y-102767428D01*
X140914000Y-102624571D01*
X140771142Y-102481714D01*
X140485428Y-102410285D01*
X139985428Y-102410285D01*
X139699714Y-102481714D01*
X139556857Y-102624571D01*
X139485428Y-102767428D01*
X139485428Y-103053142D01*
X140842571Y-101838857D02*
X140914000Y-101767428D01*
X140985428Y-101624571D01*
X140985428Y-101267428D01*
X140914000Y-101124571D01*
X140842571Y-101053142D01*
X140699714Y-100981714D01*
X140556857Y-100981714D01*
X140342571Y-101053142D01*
X139485428Y-101910285D01*
X139485428Y-100981714D01*
X137085428Y-119660285D02*
X138585428Y-119660285D01*
X138585428Y-119303142D01*
X138514000Y-119088857D01*
X138371142Y-118946000D01*
X138228285Y-118874571D01*
X137942571Y-118803142D01*
X137728285Y-118803142D01*
X137442571Y-118874571D01*
X137299714Y-118946000D01*
X137156857Y-119088857D01*
X137085428Y-119303142D01*
X137085428Y-119660285D01*
X138085428Y-117517428D02*
X137085428Y-117517428D01*
X138656857Y-117874571D02*
X137585428Y-118231714D01*
X137585428Y-117303142D01*
X137085428Y-115588857D02*
X138085428Y-115588857D01*
X137942571Y-115588857D02*
X138014000Y-115517428D01*
X138085428Y-115374571D01*
X138085428Y-115160285D01*
X138014000Y-115017428D01*
X137871142Y-114946000D01*
X137085428Y-114946000D01*
X137871142Y-114946000D02*
X138014000Y-114874571D01*
X138085428Y-114731714D01*
X138085428Y-114517428D01*
X138014000Y-114374571D01*
X137871142Y-114303142D01*
X137085428Y-114303142D01*
X138085428Y-112946000D02*
X137085428Y-112946000D01*
X138085428Y-113588857D02*
X137299714Y-113588857D01*
X137156857Y-113517428D01*
X137085428Y-113374571D01*
X137085428Y-113160285D01*
X137156857Y-113017428D01*
X137228285Y-112946000D01*
X137156857Y-112303142D02*
X137085428Y-112160285D01*
X137085428Y-111874571D01*
X137156857Y-111731714D01*
X137299714Y-111660285D01*
X137371142Y-111660285D01*
X137514000Y-111731714D01*
X137585428Y-111874571D01*
X137585428Y-112088857D01*
X137656857Y-112231714D01*
X137799714Y-112303142D01*
X137871142Y-112303142D01*
X138014000Y-112231714D01*
X138085428Y-112088857D01*
X138085428Y-111874571D01*
X138014000Y-111731714D01*
X138085428Y-111231714D02*
X138085428Y-110660285D01*
X138585428Y-111017428D02*
X137299714Y-111017428D01*
X137156857Y-110946000D01*
X137085428Y-110803142D01*
X137085428Y-110660285D01*
X137085428Y-109017428D02*
X138585428Y-109017428D01*
X138014000Y-109017428D02*
X138085428Y-108874571D01*
X138085428Y-108588857D01*
X138014000Y-108446000D01*
X137942571Y-108374571D01*
X137799714Y-108303142D01*
X137371142Y-108303142D01*
X137228285Y-108374571D01*
X137156857Y-108446000D01*
X137085428Y-108588857D01*
X137085428Y-108874571D01*
X137156857Y-109017428D01*
X137156857Y-107088857D02*
X137085428Y-107231714D01*
X137085428Y-107517428D01*
X137156857Y-107660285D01*
X137299714Y-107731714D01*
X137871142Y-107731714D01*
X138014000Y-107660285D01*
X138085428Y-107517428D01*
X138085428Y-107231714D01*
X138014000Y-107088857D01*
X137871142Y-107017428D01*
X137728285Y-107017428D01*
X137585428Y-107731714D01*
X138085428Y-105446000D02*
X138085428Y-104874571D01*
X137085428Y-105231714D02*
X138371142Y-105231714D01*
X138514000Y-105160285D01*
X138585428Y-105017428D01*
X138585428Y-104874571D01*
X137085428Y-104374571D02*
X138085428Y-104374571D01*
X138585428Y-104374571D02*
X138514000Y-104446000D01*
X138442571Y-104374571D01*
X138514000Y-104303142D01*
X138585428Y-104374571D01*
X138442571Y-104374571D01*
X138085428Y-103874571D02*
X138085428Y-103303142D01*
X138585428Y-103660285D02*
X137299714Y-103660285D01*
X137156857Y-103588857D01*
X137085428Y-103446000D01*
X137085428Y-103303142D01*
X138085428Y-103017428D02*
X138085428Y-102446000D01*
X138585428Y-102803142D02*
X137299714Y-102803142D01*
X137156857Y-102731714D01*
X137085428Y-102588857D01*
X137085428Y-102446000D01*
X137156857Y-101374571D02*
X137085428Y-101517428D01*
X137085428Y-101803142D01*
X137156857Y-101946000D01*
X137299714Y-102017428D01*
X137871142Y-102017428D01*
X138014000Y-101946000D01*
X138085428Y-101803142D01*
X138085428Y-101517428D01*
X138014000Y-101374571D01*
X137871142Y-101303142D01*
X137728285Y-101303142D01*
X137585428Y-102017428D01*
X137085428Y-100017428D02*
X138585428Y-100017428D01*
X137156857Y-100017428D02*
X137085428Y-100160285D01*
X137085428Y-100446000D01*
X137156857Y-100588857D01*
X137228285Y-100660285D01*
X137371142Y-100731714D01*
X137799714Y-100731714D01*
X137942571Y-100660285D01*
X138014000Y-100588857D01*
X138085428Y-100446000D01*
X138085428Y-100160285D01*
X138014000Y-100017428D01*
X138085428Y-98374571D02*
X138085428Y-97803142D01*
X137085428Y-98160285D02*
X138371142Y-98160285D01*
X138514000Y-98088857D01*
X138585428Y-97946000D01*
X138585428Y-97803142D01*
X137085428Y-97088857D02*
X137156857Y-97231714D01*
X137228285Y-97303142D01*
X137371142Y-97374571D01*
X137799714Y-97374571D01*
X137942571Y-97303142D01*
X138014000Y-97231714D01*
X138085428Y-97088857D01*
X138085428Y-96874571D01*
X138014000Y-96731714D01*
X137942571Y-96660285D01*
X137799714Y-96588857D01*
X137371142Y-96588857D01*
X137228285Y-96660285D01*
X137156857Y-96731714D01*
X137085428Y-96874571D01*
X137085428Y-97088857D01*
X137085428Y-95946000D02*
X138085428Y-95946000D01*
X137799714Y-95946000D02*
X137942571Y-95874571D01*
X138014000Y-95803142D01*
X138085428Y-95660285D01*
X138085428Y-95517428D01*
X134685428Y-121410285D02*
X135685428Y-121410285D01*
X136185428Y-121410285D02*
X136114000Y-121481714D01*
X136042571Y-121410285D01*
X136114000Y-121338857D01*
X136185428Y-121410285D01*
X136042571Y-121410285D01*
X135685428Y-120696000D02*
X134685428Y-120696000D01*
X135542571Y-120696000D02*
X135614000Y-120624571D01*
X135685428Y-120481714D01*
X135685428Y-120267428D01*
X135614000Y-120124571D01*
X135471142Y-120053142D01*
X134685428Y-120053142D01*
X134685428Y-118696000D02*
X136185428Y-118696000D01*
X134756857Y-118696000D02*
X134685428Y-118838857D01*
X134685428Y-119124571D01*
X134756857Y-119267428D01*
X134828285Y-119338857D01*
X134971142Y-119410285D01*
X135399714Y-119410285D01*
X135542571Y-119338857D01*
X135614000Y-119267428D01*
X135685428Y-119124571D01*
X135685428Y-118838857D01*
X135614000Y-118696000D01*
X135685428Y-117338857D02*
X134685428Y-117338857D01*
X135685428Y-117981714D02*
X134899714Y-117981714D01*
X134756857Y-117910285D01*
X134685428Y-117767428D01*
X134685428Y-117553142D01*
X134756857Y-117410285D01*
X134828285Y-117338857D01*
X134756857Y-115981714D02*
X134685428Y-116124571D01*
X134685428Y-116410285D01*
X134756857Y-116553142D01*
X134828285Y-116624571D01*
X134971142Y-116696000D01*
X135399714Y-116696000D01*
X135542571Y-116624571D01*
X135614000Y-116553142D01*
X135685428Y-116410285D01*
X135685428Y-116124571D01*
X135614000Y-115981714D01*
X135685428Y-115553142D02*
X135685428Y-114981714D01*
X136185428Y-115338857D02*
X134899714Y-115338857D01*
X134756857Y-115267428D01*
X134685428Y-115124571D01*
X134685428Y-114981714D01*
X134685428Y-114481714D02*
X135685428Y-114481714D01*
X136185428Y-114481714D02*
X136114000Y-114553142D01*
X136042571Y-114481714D01*
X136114000Y-114410285D01*
X136185428Y-114481714D01*
X136042571Y-114481714D01*
X135685428Y-113910285D02*
X134685428Y-113553142D01*
X135685428Y-113196000D01*
X134756857Y-112053142D02*
X134685428Y-112196000D01*
X134685428Y-112481714D01*
X134756857Y-112624571D01*
X134899714Y-112696000D01*
X135471142Y-112696000D01*
X135614000Y-112624571D01*
X135685428Y-112481714D01*
X135685428Y-112196000D01*
X135614000Y-112053142D01*
X135471142Y-111981714D01*
X135328285Y-111981714D01*
X135185428Y-112696000D01*
X134685428Y-109981714D02*
X134756857Y-110124571D01*
X134899714Y-110196000D01*
X136185428Y-110196000D01*
X134685428Y-109196000D02*
X134756857Y-109338857D01*
X134828285Y-109410285D01*
X134971142Y-109481714D01*
X135399714Y-109481714D01*
X135542571Y-109410285D01*
X135614000Y-109338857D01*
X135685428Y-109196000D01*
X135685428Y-108981714D01*
X135614000Y-108838857D01*
X135542571Y-108767428D01*
X135399714Y-108696000D01*
X134971142Y-108696000D01*
X134828285Y-108767428D01*
X134756857Y-108838857D01*
X134685428Y-108981714D01*
X134685428Y-109196000D01*
X134685428Y-107410285D02*
X135471142Y-107410285D01*
X135614000Y-107481714D01*
X135685428Y-107624571D01*
X135685428Y-107910285D01*
X135614000Y-108053142D01*
X134756857Y-107410285D02*
X134685428Y-107553142D01*
X134685428Y-107910285D01*
X134756857Y-108053142D01*
X134899714Y-108124571D01*
X135042571Y-108124571D01*
X135185428Y-108053142D01*
X135256857Y-107910285D01*
X135256857Y-107553142D01*
X135328285Y-107410285D01*
X134685428Y-106053142D02*
X136185428Y-106053142D01*
X134756857Y-106053142D02*
X134685428Y-106196000D01*
X134685428Y-106481714D01*
X134756857Y-106624571D01*
X134828285Y-106696000D01*
X134971142Y-106767428D01*
X135399714Y-106767428D01*
X135542571Y-106696000D01*
X135614000Y-106624571D01*
X135685428Y-106481714D01*
X135685428Y-106196000D01*
X135614000Y-106053142D01*
X134756857Y-105410285D02*
X134685428Y-105267428D01*
X134685428Y-104981714D01*
X134756857Y-104838857D01*
X134899714Y-104767428D01*
X134971142Y-104767428D01*
X135114000Y-104838857D01*
X135185428Y-104981714D01*
X135185428Y-105196000D01*
X135256857Y-105338857D01*
X135399714Y-105410285D01*
X135471142Y-105410285D01*
X135614000Y-105338857D01*
X135685428Y-105196000D01*
X135685428Y-104981714D01*
X135614000Y-104838857D01*
X134114000Y-102553142D02*
X134185428Y-102624571D01*
X134399714Y-102767428D01*
X134542571Y-102838857D01*
X134756857Y-102910285D01*
X135114000Y-102981714D01*
X135399714Y-102981714D01*
X135756857Y-102910285D01*
X135971142Y-102838857D01*
X136114000Y-102767428D01*
X136328285Y-102624571D01*
X136399714Y-102553142D01*
X134685428Y-101981714D02*
X135685428Y-101981714D01*
X135542571Y-101981714D02*
X135614000Y-101910285D01*
X135685428Y-101767428D01*
X135685428Y-101553142D01*
X135614000Y-101410285D01*
X135471142Y-101338857D01*
X134685428Y-101338857D01*
X135471142Y-101338857D02*
X135614000Y-101267428D01*
X135685428Y-101124571D01*
X135685428Y-100910285D01*
X135614000Y-100767428D01*
X135471142Y-100696000D01*
X134685428Y-100696000D01*
X134685428Y-99767428D02*
X134756857Y-99910285D01*
X134828285Y-99981714D01*
X134971142Y-100053142D01*
X135399714Y-100053142D01*
X135542571Y-99981714D01*
X135614000Y-99910285D01*
X135685428Y-99767428D01*
X135685428Y-99553142D01*
X135614000Y-99410285D01*
X135542571Y-99338857D01*
X135399714Y-99267428D01*
X134971142Y-99267428D01*
X134828285Y-99338857D01*
X134756857Y-99410285D01*
X134685428Y-99553142D01*
X134685428Y-99767428D01*
X135685428Y-98838857D02*
X135685428Y-98267428D01*
X136185428Y-98624571D02*
X134899714Y-98624571D01*
X134756857Y-98553142D01*
X134685428Y-98410285D01*
X134685428Y-98267428D01*
X134685428Y-97553142D02*
X134756857Y-97696000D01*
X134828285Y-97767428D01*
X134971142Y-97838857D01*
X135399714Y-97838857D01*
X135542571Y-97767428D01*
X135614000Y-97696000D01*
X135685428Y-97553142D01*
X135685428Y-97338857D01*
X135614000Y-97196000D01*
X135542571Y-97124571D01*
X135399714Y-97053142D01*
X134971142Y-97053142D01*
X134828285Y-97124571D01*
X134756857Y-97196000D01*
X134685428Y-97338857D01*
X134685428Y-97553142D01*
X134685428Y-96410285D02*
X135685428Y-96410285D01*
X135399714Y-96410285D02*
X135542571Y-96338857D01*
X135614000Y-96267428D01*
X135685428Y-96124571D01*
X135685428Y-95981714D01*
X134756857Y-95553142D02*
X134685428Y-95410285D01*
X134685428Y-95124571D01*
X134756857Y-94981714D01*
X134899714Y-94910285D01*
X134971142Y-94910285D01*
X135114000Y-94981714D01*
X135185428Y-95124571D01*
X135185428Y-95338857D01*
X135256857Y-95481714D01*
X135399714Y-95553142D01*
X135471142Y-95553142D01*
X135614000Y-95481714D01*
X135685428Y-95338857D01*
X135685428Y-95124571D01*
X135614000Y-94981714D01*
X134114000Y-94410285D02*
X134185428Y-94338857D01*
X134399714Y-94196000D01*
X134542571Y-94124571D01*
X134756857Y-94053142D01*
X135114000Y-93981714D01*
X135399714Y-93981714D01*
X135756857Y-94053142D01*
X135971142Y-94124571D01*
X136114000Y-94196000D01*
X136328285Y-94338857D01*
X136399714Y-94410285D01*
X114193142Y-57568142D02*
X114407428Y-57496714D01*
X114478857Y-57425285D01*
X114550285Y-57282428D01*
X114550285Y-57068142D01*
X114478857Y-56925285D01*
X114407428Y-56853857D01*
X114264571Y-56782428D01*
X113693142Y-56782428D01*
X113693142Y-58282428D01*
X114193142Y-58282428D01*
X114336000Y-58211000D01*
X114407428Y-58139571D01*
X114478857Y-57996714D01*
X114478857Y-57853857D01*
X114407428Y-57711000D01*
X114336000Y-57639571D01*
X114193142Y-57568142D01*
X113693142Y-57568142D01*
X115407428Y-56782428D02*
X115264571Y-56853857D01*
X115193142Y-56925285D01*
X115121714Y-57068142D01*
X115121714Y-57496714D01*
X115193142Y-57639571D01*
X115264571Y-57711000D01*
X115407428Y-57782428D01*
X115621714Y-57782428D01*
X115764571Y-57711000D01*
X115836000Y-57639571D01*
X115907428Y-57496714D01*
X115907428Y-57068142D01*
X115836000Y-56925285D01*
X115764571Y-56853857D01*
X115621714Y-56782428D01*
X115407428Y-56782428D01*
X117193142Y-56782428D02*
X117193142Y-57568142D01*
X117121714Y-57711000D01*
X116978857Y-57782428D01*
X116693142Y-57782428D01*
X116550285Y-57711000D01*
X117193142Y-56853857D02*
X117050285Y-56782428D01*
X116693142Y-56782428D01*
X116550285Y-56853857D01*
X116478857Y-56996714D01*
X116478857Y-57139571D01*
X116550285Y-57282428D01*
X116693142Y-57353857D01*
X117050285Y-57353857D01*
X117193142Y-57425285D01*
X117907428Y-56782428D02*
X117907428Y-57782428D01*
X117907428Y-57496714D02*
X117978857Y-57639571D01*
X118050285Y-57711000D01*
X118193142Y-57782428D01*
X118336000Y-57782428D01*
X119478857Y-56782428D02*
X119478857Y-58282428D01*
X119478857Y-56853857D02*
X119336000Y-56782428D01*
X119050285Y-56782428D01*
X118907428Y-56853857D01*
X118836000Y-56925285D01*
X118764571Y-57068142D01*
X118764571Y-57496714D01*
X118836000Y-57639571D01*
X118907428Y-57711000D01*
X119050285Y-57782428D01*
X119336000Y-57782428D01*
X119478857Y-57711000D01*
X113157428Y-54453857D02*
X113371714Y-54382428D01*
X113728857Y-54382428D01*
X113871714Y-54453857D01*
X113943142Y-54525285D01*
X114014571Y-54668142D01*
X114014571Y-54811000D01*
X113943142Y-54953857D01*
X113871714Y-55025285D01*
X113728857Y-55096714D01*
X113443142Y-55168142D01*
X113300285Y-55239571D01*
X113228857Y-55311000D01*
X113157428Y-55453857D01*
X113157428Y-55596714D01*
X113228857Y-55739571D01*
X113300285Y-55811000D01*
X113443142Y-55882428D01*
X113800285Y-55882428D01*
X114014571Y-55811000D01*
X115300285Y-55382428D02*
X115300285Y-54382428D01*
X114657428Y-55382428D02*
X114657428Y-54596714D01*
X114728857Y-54453857D01*
X114871714Y-54382428D01*
X115086000Y-54382428D01*
X115228857Y-54453857D01*
X115300285Y-54525285D01*
X116014571Y-55382428D02*
X116014571Y-53882428D01*
X116014571Y-55311000D02*
X116157428Y-55382428D01*
X116443142Y-55382428D01*
X116586000Y-55311000D01*
X116657428Y-55239571D01*
X116728857Y-55096714D01*
X116728857Y-54668142D01*
X116657428Y-54525285D01*
X116586000Y-54453857D01*
X116443142Y-54382428D01*
X116157428Y-54382428D01*
X116014571Y-54453857D01*
X117371714Y-55382428D02*
X117371714Y-53882428D01*
X117371714Y-55311000D02*
X117514571Y-55382428D01*
X117800285Y-55382428D01*
X117943142Y-55311000D01*
X118014571Y-55239571D01*
X118086000Y-55096714D01*
X118086000Y-54668142D01*
X118014571Y-54525285D01*
X117943142Y-54453857D01*
X117800285Y-54382428D01*
X117514571Y-54382428D01*
X117371714Y-54453857D01*
X118943142Y-54382428D02*
X118800285Y-54453857D01*
X118728857Y-54596714D01*
X118728857Y-55882428D01*
X119371714Y-55382428D02*
X119728857Y-54382428D01*
X120086000Y-55382428D02*
X119728857Y-54382428D01*
X119586000Y-54025285D01*
X119514571Y-53953857D01*
X119371714Y-53882428D01*
X124801714Y-56218857D02*
X125016000Y-56147428D01*
X125373142Y-56147428D01*
X125516000Y-56218857D01*
X125587428Y-56290285D01*
X125658857Y-56433142D01*
X125658857Y-56576000D01*
X125587428Y-56718857D01*
X125516000Y-56790285D01*
X125373142Y-56861714D01*
X125087428Y-56933142D01*
X124944571Y-57004571D01*
X124873142Y-57076000D01*
X124801714Y-57218857D01*
X124801714Y-57361714D01*
X124873142Y-57504571D01*
X124944571Y-57576000D01*
X125087428Y-57647428D01*
X125444571Y-57647428D01*
X125658857Y-57576000D01*
X126301714Y-56147428D02*
X126301714Y-57147428D01*
X126301714Y-57647428D02*
X126230285Y-57576000D01*
X126301714Y-57504571D01*
X126373142Y-57576000D01*
X126301714Y-57647428D01*
X126301714Y-57504571D01*
X127658857Y-57147428D02*
X127658857Y-55933142D01*
X127587428Y-55790285D01*
X127516000Y-55718857D01*
X127373142Y-55647428D01*
X127158857Y-55647428D01*
X127016000Y-55718857D01*
X127658857Y-56218857D02*
X127516000Y-56147428D01*
X127230285Y-56147428D01*
X127087428Y-56218857D01*
X127016000Y-56290285D01*
X126944571Y-56433142D01*
X126944571Y-56861714D01*
X127016000Y-57004571D01*
X127087428Y-57076000D01*
X127230285Y-57147428D01*
X127516000Y-57147428D01*
X127658857Y-57076000D01*
X128373142Y-57147428D02*
X128373142Y-56147428D01*
X128373142Y-57004571D02*
X128444571Y-57076000D01*
X128587428Y-57147428D01*
X128801714Y-57147428D01*
X128944571Y-57076000D01*
X129016000Y-56933142D01*
X129016000Y-56147428D01*
X130373142Y-56147428D02*
X130373142Y-56933142D01*
X130301714Y-57076000D01*
X130158857Y-57147428D01*
X129873142Y-57147428D01*
X129730285Y-57076000D01*
X130373142Y-56218857D02*
X130230285Y-56147428D01*
X129873142Y-56147428D01*
X129730285Y-56218857D01*
X129658857Y-56361714D01*
X129658857Y-56504571D01*
X129730285Y-56647428D01*
X129873142Y-56718857D01*
X130230285Y-56718857D01*
X130373142Y-56790285D01*
X131301714Y-56147428D02*
X131158857Y-56218857D01*
X131087428Y-56361714D01*
X131087428Y-57647428D01*
X124587428Y-53818857D02*
X124801714Y-53747428D01*
X125158857Y-53747428D01*
X125301714Y-53818857D01*
X125373142Y-53890285D01*
X125444571Y-54033142D01*
X125444571Y-54176000D01*
X125373142Y-54318857D01*
X125301714Y-54390285D01*
X125158857Y-54461714D01*
X124873142Y-54533142D01*
X124730285Y-54604571D01*
X124658857Y-54676000D01*
X124587428Y-54818857D01*
X124587428Y-54961714D01*
X124658857Y-55104571D01*
X124730285Y-55176000D01*
X124873142Y-55247428D01*
X125230285Y-55247428D01*
X125444571Y-55176000D01*
X126730285Y-54747428D02*
X126730285Y-53747428D01*
X126087428Y-54747428D02*
X126087428Y-53961714D01*
X126158857Y-53818857D01*
X126301714Y-53747428D01*
X126516000Y-53747428D01*
X126658857Y-53818857D01*
X126730285Y-53890285D01*
X127444571Y-54747428D02*
X127444571Y-53247428D01*
X127444571Y-54676000D02*
X127587428Y-54747428D01*
X127873142Y-54747428D01*
X128016000Y-54676000D01*
X128087428Y-54604571D01*
X128158857Y-54461714D01*
X128158857Y-54033142D01*
X128087428Y-53890285D01*
X128016000Y-53818857D01*
X127873142Y-53747428D01*
X127587428Y-53747428D01*
X127444571Y-53818857D01*
X128801714Y-54747428D02*
X128801714Y-53247428D01*
X128801714Y-54676000D02*
X128944571Y-54747428D01*
X129230285Y-54747428D01*
X129373142Y-54676000D01*
X129444571Y-54604571D01*
X129516000Y-54461714D01*
X129516000Y-54033142D01*
X129444571Y-53890285D01*
X129373142Y-53818857D01*
X129230285Y-53747428D01*
X128944571Y-53747428D01*
X128801714Y-53818857D01*
X130373142Y-53747428D02*
X130230285Y-53818857D01*
X130158857Y-53961714D01*
X130158857Y-55247428D01*
X130801714Y-54747428D02*
X131158857Y-53747428D01*
X131516000Y-54747428D02*
X131158857Y-53747428D01*
X131016000Y-53390285D01*
X130944571Y-53318857D01*
X130801714Y-53247428D01*
X136850714Y-57742857D02*
X137065000Y-57671428D01*
X137422142Y-57671428D01*
X137565000Y-57742857D01*
X137636428Y-57814285D01*
X137707857Y-57957142D01*
X137707857Y-58100000D01*
X137636428Y-58242857D01*
X137565000Y-58314285D01*
X137422142Y-58385714D01*
X137136428Y-58457142D01*
X136993571Y-58528571D01*
X136922142Y-58600000D01*
X136850714Y-58742857D01*
X136850714Y-58885714D01*
X136922142Y-59028571D01*
X136993571Y-59100000D01*
X137136428Y-59171428D01*
X137493571Y-59171428D01*
X137707857Y-59100000D01*
X138136428Y-58671428D02*
X138707857Y-58671428D01*
X138350714Y-59171428D02*
X138350714Y-57885714D01*
X138422142Y-57742857D01*
X138565000Y-57671428D01*
X138707857Y-57671428D01*
X139422142Y-57671428D02*
X139279285Y-57742857D01*
X139207857Y-57814285D01*
X139136428Y-57957142D01*
X139136428Y-58385714D01*
X139207857Y-58528571D01*
X139279285Y-58600000D01*
X139422142Y-58671428D01*
X139636428Y-58671428D01*
X139779285Y-58600000D01*
X139850714Y-58528571D01*
X139922142Y-58385714D01*
X139922142Y-57957142D01*
X139850714Y-57814285D01*
X139779285Y-57742857D01*
X139636428Y-57671428D01*
X139422142Y-57671428D01*
X140565000Y-58671428D02*
X140565000Y-57171428D01*
X140565000Y-58600000D02*
X140707857Y-58671428D01*
X140993571Y-58671428D01*
X141136428Y-58600000D01*
X141207857Y-58528571D01*
X141279285Y-58385714D01*
X141279285Y-57957142D01*
X141207857Y-57814285D01*
X141136428Y-57742857D01*
X140993571Y-57671428D01*
X140707857Y-57671428D01*
X140565000Y-57742857D01*
X136279285Y-56057142D02*
X136493571Y-55985714D01*
X136565000Y-55914285D01*
X136636428Y-55771428D01*
X136636428Y-55557142D01*
X136565000Y-55414285D01*
X136493571Y-55342857D01*
X136350714Y-55271428D01*
X135779285Y-55271428D01*
X135779285Y-56771428D01*
X136279285Y-56771428D01*
X136422142Y-56700000D01*
X136493571Y-56628571D01*
X136565000Y-56485714D01*
X136565000Y-56342857D01*
X136493571Y-56200000D01*
X136422142Y-56128571D01*
X136279285Y-56057142D01*
X135779285Y-56057142D01*
X137922142Y-56271428D02*
X137922142Y-55271428D01*
X137279285Y-56271428D02*
X137279285Y-55485714D01*
X137350714Y-55342857D01*
X137493571Y-55271428D01*
X137707857Y-55271428D01*
X137850714Y-55342857D01*
X137922142Y-55414285D01*
X138422142Y-56271428D02*
X138993571Y-56271428D01*
X138636428Y-56771428D02*
X138636428Y-55485714D01*
X138707857Y-55342857D01*
X138850714Y-55271428D01*
X138993571Y-55271428D01*
X139279285Y-56271428D02*
X139850714Y-56271428D01*
X139493571Y-56771428D02*
X139493571Y-55485714D01*
X139565000Y-55342857D01*
X139707857Y-55271428D01*
X139850714Y-55271428D01*
X140565000Y-55271428D02*
X140422142Y-55342857D01*
X140350714Y-55414285D01*
X140279285Y-55557142D01*
X140279285Y-55985714D01*
X140350714Y-56128571D01*
X140422142Y-56200000D01*
X140565000Y-56271428D01*
X140779285Y-56271428D01*
X140922142Y-56200000D01*
X140993571Y-56128571D01*
X141065000Y-55985714D01*
X141065000Y-55557142D01*
X140993571Y-55414285D01*
X140922142Y-55342857D01*
X140779285Y-55271428D01*
X140565000Y-55271428D01*
X141707857Y-56271428D02*
X141707857Y-55271428D01*
X141707857Y-56128571D02*
X141779285Y-56200000D01*
X141922142Y-56271428D01*
X142136428Y-56271428D01*
X142279285Y-56200000D01*
X142350714Y-56057142D01*
X142350714Y-55271428D01*
X159797857Y-57925428D02*
X159297857Y-58639714D01*
X158940714Y-57925428D02*
X158940714Y-59425428D01*
X159512142Y-59425428D01*
X159655000Y-59354000D01*
X159726428Y-59282571D01*
X159797857Y-59139714D01*
X159797857Y-58925428D01*
X159726428Y-58782571D01*
X159655000Y-58711142D01*
X159512142Y-58639714D01*
X158940714Y-58639714D01*
X161012142Y-57996857D02*
X160869285Y-57925428D01*
X160583571Y-57925428D01*
X160440714Y-57996857D01*
X160369285Y-58139714D01*
X160369285Y-58711142D01*
X160440714Y-58854000D01*
X160583571Y-58925428D01*
X160869285Y-58925428D01*
X161012142Y-58854000D01*
X161083571Y-58711142D01*
X161083571Y-58568285D01*
X160369285Y-58425428D01*
X162369285Y-57925428D02*
X162369285Y-59425428D01*
X162369285Y-57996857D02*
X162226428Y-57925428D01*
X161940714Y-57925428D01*
X161797857Y-57996857D01*
X161726428Y-58068285D01*
X161655000Y-58211142D01*
X161655000Y-58639714D01*
X161726428Y-58782571D01*
X161797857Y-58854000D01*
X161940714Y-58925428D01*
X162226428Y-58925428D01*
X162369285Y-58854000D01*
X157440714Y-55596857D02*
X157655000Y-55525428D01*
X158012142Y-55525428D01*
X158155000Y-55596857D01*
X158226428Y-55668285D01*
X158297857Y-55811142D01*
X158297857Y-55954000D01*
X158226428Y-56096857D01*
X158155000Y-56168285D01*
X158012142Y-56239714D01*
X157726428Y-56311142D01*
X157583571Y-56382571D01*
X157512142Y-56454000D01*
X157440714Y-56596857D01*
X157440714Y-56739714D01*
X157512142Y-56882571D01*
X157583571Y-56954000D01*
X157726428Y-57025428D01*
X158083571Y-57025428D01*
X158297857Y-56954000D01*
X158940714Y-55525428D02*
X158940714Y-56525428D01*
X158940714Y-57025428D02*
X158869285Y-56954000D01*
X158940714Y-56882571D01*
X159012142Y-56954000D01*
X158940714Y-57025428D01*
X158940714Y-56882571D01*
X160297857Y-56525428D02*
X160297857Y-55311142D01*
X160226428Y-55168285D01*
X160155000Y-55096857D01*
X160012142Y-55025428D01*
X159797857Y-55025428D01*
X159655000Y-55096857D01*
X160297857Y-55596857D02*
X160155000Y-55525428D01*
X159869285Y-55525428D01*
X159726428Y-55596857D01*
X159655000Y-55668285D01*
X159583571Y-55811142D01*
X159583571Y-56239714D01*
X159655000Y-56382571D01*
X159726428Y-56454000D01*
X159869285Y-56525428D01*
X160155000Y-56525428D01*
X160297857Y-56454000D01*
X161012142Y-56525428D02*
X161012142Y-55525428D01*
X161012142Y-56382571D02*
X161083571Y-56454000D01*
X161226428Y-56525428D01*
X161440714Y-56525428D01*
X161583571Y-56454000D01*
X161655000Y-56311142D01*
X161655000Y-55525428D01*
X163012142Y-55525428D02*
X163012142Y-56311142D01*
X162940714Y-56454000D01*
X162797857Y-56525428D01*
X162512142Y-56525428D01*
X162369285Y-56454000D01*
X163012142Y-55596857D02*
X162869285Y-55525428D01*
X162512142Y-55525428D01*
X162369285Y-55596857D01*
X162297857Y-55739714D01*
X162297857Y-55882571D01*
X162369285Y-56025428D01*
X162512142Y-56096857D01*
X162869285Y-56096857D01*
X163012142Y-56168285D01*
X163940714Y-55525428D02*
X163797857Y-55596857D01*
X163726428Y-55739714D01*
X163726428Y-57025428D01*
X173097285Y-59354000D02*
X172954428Y-59425428D01*
X172740142Y-59425428D01*
X172525857Y-59354000D01*
X172383000Y-59211142D01*
X172311571Y-59068285D01*
X172240142Y-58782571D01*
X172240142Y-58568285D01*
X172311571Y-58282571D01*
X172383000Y-58139714D01*
X172525857Y-57996857D01*
X172740142Y-57925428D01*
X172883000Y-57925428D01*
X173097285Y-57996857D01*
X173168714Y-58068285D01*
X173168714Y-58568285D01*
X172883000Y-58568285D01*
X173811571Y-57925428D02*
X173811571Y-58925428D01*
X173811571Y-58639714D02*
X173883000Y-58782571D01*
X173954428Y-58854000D01*
X174097285Y-58925428D01*
X174240142Y-58925428D01*
X175311571Y-57996857D02*
X175168714Y-57925428D01*
X174883000Y-57925428D01*
X174740142Y-57996857D01*
X174668714Y-58139714D01*
X174668714Y-58711142D01*
X174740142Y-58854000D01*
X174883000Y-58925428D01*
X175168714Y-58925428D01*
X175311571Y-58854000D01*
X175383000Y-58711142D01*
X175383000Y-58568285D01*
X174668714Y-58425428D01*
X176597285Y-57996857D02*
X176454428Y-57925428D01*
X176168714Y-57925428D01*
X176025857Y-57996857D01*
X175954428Y-58139714D01*
X175954428Y-58711142D01*
X176025857Y-58854000D01*
X176168714Y-58925428D01*
X176454428Y-58925428D01*
X176597285Y-58854000D01*
X176668714Y-58711142D01*
X176668714Y-58568285D01*
X175954428Y-58425428D01*
X177311571Y-58925428D02*
X177311571Y-57925428D01*
X177311571Y-58782571D02*
X177383000Y-58854000D01*
X177525857Y-58925428D01*
X177740142Y-58925428D01*
X177883000Y-58854000D01*
X177954428Y-58711142D01*
X177954428Y-57925428D01*
X171918714Y-55596857D02*
X172133000Y-55525428D01*
X172490142Y-55525428D01*
X172633000Y-55596857D01*
X172704428Y-55668285D01*
X172775857Y-55811142D01*
X172775857Y-55954000D01*
X172704428Y-56096857D01*
X172633000Y-56168285D01*
X172490142Y-56239714D01*
X172204428Y-56311142D01*
X172061571Y-56382571D01*
X171990142Y-56454000D01*
X171918714Y-56596857D01*
X171918714Y-56739714D01*
X171990142Y-56882571D01*
X172061571Y-56954000D01*
X172204428Y-57025428D01*
X172561571Y-57025428D01*
X172775857Y-56954000D01*
X173418714Y-55525428D02*
X173418714Y-56525428D01*
X173418714Y-57025428D02*
X173347285Y-56954000D01*
X173418714Y-56882571D01*
X173490142Y-56954000D01*
X173418714Y-57025428D01*
X173418714Y-56882571D01*
X174775857Y-56525428D02*
X174775857Y-55311142D01*
X174704428Y-55168285D01*
X174633000Y-55096857D01*
X174490142Y-55025428D01*
X174275857Y-55025428D01*
X174133000Y-55096857D01*
X174775857Y-55596857D02*
X174633000Y-55525428D01*
X174347285Y-55525428D01*
X174204428Y-55596857D01*
X174133000Y-55668285D01*
X174061571Y-55811142D01*
X174061571Y-56239714D01*
X174133000Y-56382571D01*
X174204428Y-56454000D01*
X174347285Y-56525428D01*
X174633000Y-56525428D01*
X174775857Y-56454000D01*
X175490142Y-56525428D02*
X175490142Y-55525428D01*
X175490142Y-56382571D02*
X175561571Y-56454000D01*
X175704428Y-56525428D01*
X175918714Y-56525428D01*
X176061571Y-56454000D01*
X176133000Y-56311142D01*
X176133000Y-55525428D01*
X177490142Y-55525428D02*
X177490142Y-56311142D01*
X177418714Y-56454000D01*
X177275857Y-56525428D01*
X176990142Y-56525428D01*
X176847285Y-56454000D01*
X177490142Y-55596857D02*
X177347285Y-55525428D01*
X176990142Y-55525428D01*
X176847285Y-55596857D01*
X176775857Y-55739714D01*
X176775857Y-55882571D01*
X176847285Y-56025428D01*
X176990142Y-56096857D01*
X177347285Y-56096857D01*
X177490142Y-56168285D01*
X178418714Y-55525428D02*
X178275857Y-55596857D01*
X178204428Y-55739714D01*
X178204428Y-57025428D01*
X178759380Y-132358380D02*
X178521285Y-133358380D01*
X178330809Y-132644095D01*
X178140333Y-133358380D01*
X177902238Y-132358380D01*
X177140333Y-133310761D02*
X177235571Y-133358380D01*
X177426047Y-133358380D01*
X177521285Y-133310761D01*
X177568904Y-133215523D01*
X177568904Y-132834571D01*
X177521285Y-132739333D01*
X177426047Y-132691714D01*
X177235571Y-132691714D01*
X177140333Y-132739333D01*
X177092714Y-132834571D01*
X177092714Y-132929809D01*
X177568904Y-133025047D01*
X176711761Y-133310761D02*
X176616523Y-133358380D01*
X176426047Y-133358380D01*
X176330809Y-133310761D01*
X176283190Y-133215523D01*
X176283190Y-133167904D01*
X176330809Y-133072666D01*
X176426047Y-133025047D01*
X176568904Y-133025047D01*
X176664142Y-132977428D01*
X176711761Y-132882190D01*
X176711761Y-132834571D01*
X176664142Y-132739333D01*
X176568904Y-132691714D01*
X176426047Y-132691714D01*
X176330809Y-132739333D01*
X175997476Y-132691714D02*
X175616523Y-132691714D01*
X175854619Y-132358380D02*
X175854619Y-133215523D01*
X175807000Y-133310761D01*
X175711761Y-133358380D01*
X175616523Y-133358380D01*
X174521285Y-133358380D02*
X174521285Y-132358380D01*
X174521285Y-132834571D02*
X173949857Y-132834571D01*
X173949857Y-133358380D02*
X173949857Y-132358380D01*
X173045095Y-132691714D02*
X173045095Y-133358380D01*
X173473666Y-132691714D02*
X173473666Y-133215523D01*
X173426047Y-133310761D01*
X173330809Y-133358380D01*
X173187952Y-133358380D01*
X173092714Y-133310761D01*
X173045095Y-133263142D01*
X172568904Y-132691714D02*
X172568904Y-133358380D01*
X172568904Y-132786952D02*
X172521285Y-132739333D01*
X172426047Y-132691714D01*
X172283190Y-132691714D01*
X172187952Y-132739333D01*
X172140333Y-132834571D01*
X172140333Y-133358380D01*
X171807000Y-132691714D02*
X171426047Y-132691714D01*
X171664142Y-132358380D02*
X171664142Y-133215523D01*
X171616523Y-133310761D01*
X171521285Y-133358380D01*
X171426047Y-133358380D01*
X171140333Y-133310761D02*
X171045095Y-133358380D01*
X170854619Y-133358380D01*
X170759380Y-133310761D01*
X170711761Y-133215523D01*
X170711761Y-133167904D01*
X170759380Y-133072666D01*
X170854619Y-133025047D01*
X170997476Y-133025047D01*
X171092714Y-132977428D01*
X171140333Y-132882190D01*
X171140333Y-132834571D01*
X171092714Y-132739333D01*
X170997476Y-132691714D01*
X170854619Y-132691714D01*
X170759380Y-132739333D01*
X170283190Y-132691714D02*
X170283190Y-133691714D01*
X170283190Y-132739333D02*
X170187952Y-132691714D01*
X169997476Y-132691714D01*
X169902238Y-132739333D01*
X169854619Y-132786952D01*
X169807000Y-132882190D01*
X169807000Y-133167904D01*
X169854619Y-133263142D01*
X169902238Y-133310761D01*
X169997476Y-133358380D01*
X170187952Y-133358380D01*
X170283190Y-133310761D01*
X169378428Y-133358380D02*
X169378428Y-132691714D01*
X169378428Y-132358380D02*
X169426047Y-132406000D01*
X169378428Y-132453619D01*
X169330809Y-132406000D01*
X169378428Y-132358380D01*
X169378428Y-132453619D01*
X168759380Y-133358380D02*
X168854619Y-133310761D01*
X168902238Y-133215523D01*
X168902238Y-132358380D01*
X168235571Y-133358380D02*
X168330809Y-133310761D01*
X168378428Y-133215523D01*
X168378428Y-132358380D01*
X166521285Y-133358380D02*
X166854619Y-132882190D01*
X167092714Y-133358380D02*
X167092714Y-132358380D01*
X166711761Y-132358380D01*
X166616523Y-132406000D01*
X166568904Y-132453619D01*
X166521285Y-132548857D01*
X166521285Y-132691714D01*
X166568904Y-132786952D01*
X166616523Y-132834571D01*
X166711761Y-132882190D01*
X167092714Y-132882190D01*
X165664142Y-133358380D02*
X165664142Y-132834571D01*
X165711761Y-132739333D01*
X165807000Y-132691714D01*
X165997476Y-132691714D01*
X166092714Y-132739333D01*
X165664142Y-133310761D02*
X165759380Y-133358380D01*
X165997476Y-133358380D01*
X166092714Y-133310761D01*
X166140333Y-133215523D01*
X166140333Y-133120285D01*
X166092714Y-133025047D01*
X165997476Y-132977428D01*
X165759380Y-132977428D01*
X165664142Y-132929809D01*
X165187952Y-133358380D02*
X165187952Y-132691714D01*
X165187952Y-132358380D02*
X165235571Y-132406000D01*
X165187952Y-132453619D01*
X165140333Y-132406000D01*
X165187952Y-132358380D01*
X165187952Y-132453619D01*
X164568904Y-133358380D02*
X164664142Y-133310761D01*
X164711761Y-133215523D01*
X164711761Y-132358380D01*
X164283190Y-132691714D02*
X164092714Y-133358380D01*
X163902238Y-132882190D01*
X163711761Y-133358380D01*
X163521285Y-132691714D01*
X162711761Y-133358380D02*
X162711761Y-132834571D01*
X162759380Y-132739333D01*
X162854619Y-132691714D01*
X163045095Y-132691714D01*
X163140333Y-132739333D01*
X162711761Y-133310761D02*
X162807000Y-133358380D01*
X163045095Y-133358380D01*
X163140333Y-133310761D01*
X163187952Y-133215523D01*
X163187952Y-133120285D01*
X163140333Y-133025047D01*
X163045095Y-132977428D01*
X162807000Y-132977428D01*
X162711761Y-132929809D01*
X162330809Y-132691714D02*
X162092714Y-133358380D01*
X161854619Y-132691714D02*
X162092714Y-133358380D01*
X162187952Y-133596476D01*
X162235571Y-133644095D01*
X162330809Y-133691714D01*
X181259380Y-134960761D02*
X181116523Y-135008380D01*
X180878428Y-135008380D01*
X180783190Y-134960761D01*
X180735571Y-134913142D01*
X180687952Y-134817904D01*
X180687952Y-134722666D01*
X180735571Y-134627428D01*
X180783190Y-134579809D01*
X180878428Y-134532190D01*
X181068904Y-134484571D01*
X181164142Y-134436952D01*
X181211761Y-134389333D01*
X181259380Y-134294095D01*
X181259380Y-134198857D01*
X181211761Y-134103619D01*
X181164142Y-134056000D01*
X181068904Y-134008380D01*
X180830809Y-134008380D01*
X180687952Y-134056000D01*
X179878428Y-134960761D02*
X179973666Y-135008380D01*
X180164142Y-135008380D01*
X180259380Y-134960761D01*
X180307000Y-134865523D01*
X180307000Y-134484571D01*
X180259380Y-134389333D01*
X180164142Y-134341714D01*
X179973666Y-134341714D01*
X179878428Y-134389333D01*
X179830809Y-134484571D01*
X179830809Y-134579809D01*
X180307000Y-134675047D01*
X179402238Y-134341714D02*
X179402238Y-135008380D01*
X179402238Y-134436952D02*
X179354619Y-134389333D01*
X179259380Y-134341714D01*
X179116523Y-134341714D01*
X179021285Y-134389333D01*
X178973666Y-134484571D01*
X178973666Y-135008380D01*
X178545095Y-134960761D02*
X178449857Y-135008380D01*
X178259380Y-135008380D01*
X178164142Y-134960761D01*
X178116523Y-134865523D01*
X178116523Y-134817904D01*
X178164142Y-134722666D01*
X178259380Y-134675047D01*
X178402238Y-134675047D01*
X178497476Y-134627428D01*
X178545095Y-134532190D01*
X178545095Y-134484571D01*
X178497476Y-134389333D01*
X178402238Y-134341714D01*
X178259380Y-134341714D01*
X178164142Y-134389333D01*
X177545095Y-135008380D02*
X177640333Y-134960761D01*
X177687952Y-134913142D01*
X177735571Y-134817904D01*
X177735571Y-134532190D01*
X177687952Y-134436952D01*
X177640333Y-134389333D01*
X177545095Y-134341714D01*
X177402238Y-134341714D01*
X177307000Y-134389333D01*
X177259380Y-134436952D01*
X177211761Y-134532190D01*
X177211761Y-134817904D01*
X177259380Y-134913142D01*
X177307000Y-134960761D01*
X177402238Y-135008380D01*
X177545095Y-135008380D01*
X176783190Y-135008380D02*
X176783190Y-134341714D01*
X176783190Y-134532190D02*
X176735571Y-134436952D01*
X176687952Y-134389333D01*
X176592714Y-134341714D01*
X176497476Y-134341714D01*
X174592714Y-135008380D02*
X174640333Y-135008380D01*
X174735571Y-134960761D01*
X174878428Y-134817904D01*
X175116523Y-134532190D01*
X175211761Y-134389333D01*
X175259380Y-134246476D01*
X175259380Y-134151238D01*
X175211761Y-134056000D01*
X175116523Y-134008380D01*
X175068904Y-134008380D01*
X174973666Y-134056000D01*
X174926047Y-134151238D01*
X174926047Y-134198857D01*
X174973666Y-134294095D01*
X175021285Y-134341714D01*
X175307000Y-134532190D01*
X175354619Y-134579809D01*
X175402238Y-134675047D01*
X175402238Y-134817904D01*
X175354619Y-134913142D01*
X175307000Y-134960761D01*
X175211761Y-135008380D01*
X175068904Y-135008380D01*
X174973666Y-134960761D01*
X174926047Y-134913142D01*
X174783190Y-134722666D01*
X174735571Y-134579809D01*
X174735571Y-134484571D01*
X172926047Y-135008380D02*
X173402238Y-135008380D01*
X173402238Y-134008380D01*
X172592714Y-135008380D02*
X172592714Y-134341714D01*
X172592714Y-134008380D02*
X172640333Y-134056000D01*
X172592714Y-134103619D01*
X172545095Y-134056000D01*
X172592714Y-134008380D01*
X172592714Y-134103619D01*
X171687952Y-134341714D02*
X171687952Y-135151238D01*
X171735571Y-135246476D01*
X171783190Y-135294095D01*
X171878428Y-135341714D01*
X172021285Y-135341714D01*
X172116523Y-135294095D01*
X171687952Y-134960761D02*
X171783190Y-135008380D01*
X171973666Y-135008380D01*
X172068904Y-134960761D01*
X172116523Y-134913142D01*
X172164142Y-134817904D01*
X172164142Y-134532190D01*
X172116523Y-134436952D01*
X172068904Y-134389333D01*
X171973666Y-134341714D01*
X171783190Y-134341714D01*
X171687952Y-134389333D01*
X171211761Y-135008380D02*
X171211761Y-134008380D01*
X170783190Y-135008380D02*
X170783190Y-134484571D01*
X170830809Y-134389333D01*
X170926047Y-134341714D01*
X171068904Y-134341714D01*
X171164142Y-134389333D01*
X171211761Y-134436952D01*
X170449857Y-134341714D02*
X170068904Y-134341714D01*
X170307000Y-134008380D02*
X170307000Y-134865523D01*
X170259380Y-134960761D01*
X170164142Y-135008380D01*
X170068904Y-135008380D01*
X169783190Y-134960761D02*
X169687952Y-135008380D01*
X169497476Y-135008380D01*
X169402238Y-134960761D01*
X169354619Y-134865523D01*
X169354619Y-134817904D01*
X169402238Y-134722666D01*
X169497476Y-134675047D01*
X169640333Y-134675047D01*
X169735571Y-134627428D01*
X169783190Y-134532190D01*
X169783190Y-134484571D01*
X169735571Y-134389333D01*
X169640333Y-134341714D01*
X169497476Y-134341714D01*
X169402238Y-134389333D01*
X168164142Y-135008380D02*
X168164142Y-134008380D01*
X167830809Y-134722666D01*
X167497476Y-134008380D01*
X167497476Y-135008380D01*
X166878428Y-135008380D02*
X166973666Y-134960761D01*
X167021285Y-134913142D01*
X167068904Y-134817904D01*
X167068904Y-134532190D01*
X167021285Y-134436952D01*
X166973666Y-134389333D01*
X166878428Y-134341714D01*
X166735571Y-134341714D01*
X166640333Y-134389333D01*
X166592714Y-134436952D01*
X166545095Y-134532190D01*
X166545095Y-134817904D01*
X166592714Y-134913142D01*
X166640333Y-134960761D01*
X166735571Y-135008380D01*
X166878428Y-135008380D01*
X165687952Y-135008380D02*
X165687952Y-134008380D01*
X165687952Y-134960761D02*
X165783190Y-135008380D01*
X165973666Y-135008380D01*
X166068904Y-134960761D01*
X166116523Y-134913142D01*
X166164142Y-134817904D01*
X166164142Y-134532190D01*
X166116523Y-134436952D01*
X166068904Y-134389333D01*
X165973666Y-134341714D01*
X165783190Y-134341714D01*
X165687952Y-134389333D01*
X164783190Y-134341714D02*
X164783190Y-135008380D01*
X165211761Y-134341714D02*
X165211761Y-134865523D01*
X165164142Y-134960761D01*
X165068904Y-135008380D01*
X164926047Y-135008380D01*
X164830809Y-134960761D01*
X164783190Y-134913142D01*
X164164142Y-135008380D02*
X164259380Y-134960761D01*
X164307000Y-134865523D01*
X164307000Y-134008380D01*
X163402238Y-134960761D02*
X163497476Y-135008380D01*
X163687952Y-135008380D01*
X163783190Y-134960761D01*
X163830809Y-134865523D01*
X163830809Y-134484571D01*
X163783190Y-134389333D01*
X163687952Y-134341714D01*
X163497476Y-134341714D01*
X163402238Y-134389333D01*
X163354619Y-134484571D01*
X163354619Y-134579809D01*
X163830809Y-134675047D01*
X162307000Y-134008380D02*
X161973666Y-135008380D01*
X161640333Y-134008380D01*
X160783190Y-135008380D02*
X161354619Y-135008380D01*
X161068904Y-135008380D02*
X161068904Y-134008380D01*
X161164142Y-134151238D01*
X161259380Y-134246476D01*
X161354619Y-134294095D01*
X160354619Y-134913142D02*
X160307000Y-134960761D01*
X160354619Y-135008380D01*
X160402238Y-134960761D01*
X160354619Y-134913142D01*
X160354619Y-135008380D01*
X159354619Y-135008380D02*
X159926047Y-135008380D01*
X159640333Y-135008380D02*
X159640333Y-134008380D01*
X159735571Y-134151238D01*
X159830809Y-134246476D01*
X159926047Y-134294095D01*
M02*
