%TF.GenerationSoftware,KiCad,Pcbnew,(5.1.9-0-10_14)*%
%TF.CreationDate,2021-08-02T15:26:46+01:00*%
%TF.ProjectId,SensorLights,53656e73-6f72-44c6-9967-6874732e6b69,1.1*%
%TF.SameCoordinates,Original*%
%TF.FileFunction,Soldermask,Bot*%
%TF.FilePolarity,Negative*%
%FSLAX46Y46*%
G04 Gerber Fmt 4.6, Leading zero omitted, Abs format (unit mm)*
G04 Created by KiCad (PCBNEW (5.1.9-0-10_14)) date 2021-08-02 15:26:46*
%MOMM*%
%LPD*%
G01*
G04 APERTURE LIST*
%ADD10C,1.524000*%
%ADD11C,1.200000*%
%ADD12R,1.200000X1.200000*%
%ADD13C,1.100000*%
%ADD14O,1.500000X2.200000*%
%ADD15O,1.600000X1.600000*%
%ADD16R,1.600000X1.600000*%
%ADD17O,2.000000X3.000000*%
%ADD18R,1.524000X1.524000*%
%ADD19O,2.400000X1.600000*%
%ADD20R,2.400000X1.600000*%
%ADD21C,3.200000*%
%ADD22C,1.600000*%
%ADD23C,2.000000*%
%ADD24R,1.800000X1.800000*%
%ADD25C,1.800000*%
%ADD26O,1.905000X2.000000*%
%ADD27R,1.905000X2.000000*%
%ADD28R,2.200000X2.200000*%
%ADD29O,2.200000X2.200000*%
%ADD30O,1.700000X1.700000*%
%ADD31R,1.700000X1.700000*%
%ADD32C,3.600000*%
%ADD33C,1.400000*%
%ADD34O,1.400000X1.400000*%
G04 APERTURE END LIST*
D10*
%TO.C,RV2*%
X179172000Y-106807000D03*
X181712000Y-104267000D03*
X179172000Y-101727000D03*
%TD*%
%TO.C,RV1*%
X173482000Y-106807000D03*
X176022000Y-104267000D03*
X173482000Y-101727000D03*
%TD*%
D11*
%TO.C,C1*%
X148185000Y-67564000D03*
D12*
X146685000Y-67564000D03*
%TD*%
D11*
%TO.C,C4*%
X133387001Y-72829001D03*
D12*
X131887001Y-72829001D03*
%TD*%
D13*
%TO.C,J5*%
X137668000Y-49530000D03*
D14*
X137668000Y-52070000D03*
D13*
X140208000Y-49530000D03*
D14*
X140208000Y-52070000D03*
%TD*%
D13*
%TO.C,J2*%
X115316000Y-49530000D03*
D14*
X115316000Y-52070000D03*
D13*
X117856000Y-49530000D03*
D14*
X117856000Y-52070000D03*
%TD*%
D15*
%TO.C,U3*%
X132334000Y-59055000D03*
X124714000Y-66675000D03*
X132334000Y-61595000D03*
X124714000Y-64135000D03*
X132334000Y-64135000D03*
X124714000Y-61595000D03*
X132334000Y-66675000D03*
D16*
X124714000Y-59055000D03*
%TD*%
D17*
%TO.C,J4*%
X157861000Y-52197000D03*
X162941000Y-52197000D03*
%TD*%
%TO.C,J3*%
X172085000Y-52324000D03*
X177165000Y-52324000D03*
%TD*%
%TO.C,J1*%
X127508000Y-52070000D03*
X132588000Y-52070000D03*
%TD*%
D10*
%TO.C,U2*%
X156337000Y-85598000D03*
X156337000Y-88138000D03*
X156337000Y-90678000D03*
X156337000Y-93218000D03*
X156337000Y-95758000D03*
X156337000Y-98298000D03*
X156337000Y-100838000D03*
X156337000Y-103378000D03*
X156337000Y-105918000D03*
X156337000Y-108458000D03*
X156337000Y-110998000D03*
X156337000Y-113538000D03*
X156337000Y-116078000D03*
X156337000Y-118618000D03*
X156337000Y-121158000D03*
X156337000Y-123698000D03*
X156337000Y-126238000D03*
X156337000Y-128778000D03*
X156337000Y-131318000D03*
X130937000Y-131318000D03*
X130937000Y-128905000D03*
X130937000Y-126365000D03*
X130937000Y-123698000D03*
X130937000Y-121158000D03*
X130937000Y-118618000D03*
X130937000Y-116078000D03*
X130937000Y-113538000D03*
X130937000Y-110998000D03*
X130937000Y-108458000D03*
X130937000Y-105918000D03*
X130937000Y-103378000D03*
X130937000Y-100838000D03*
X130937000Y-98298000D03*
X130937000Y-95758000D03*
X130937000Y-93218000D03*
X130937000Y-90678000D03*
X130937000Y-88138000D03*
D18*
X130937000Y-85598000D03*
%TD*%
D19*
%TO.C,SW1*%
X124079000Y-95758000D03*
X116459000Y-103378000D03*
X124079000Y-98298000D03*
X116459000Y-100838000D03*
X124079000Y-100838000D03*
X116459000Y-98298000D03*
X124079000Y-103378000D03*
D20*
X116459000Y-95758000D03*
%TD*%
D21*
%TO.C,REF\u002A\u002A*%
X107500000Y-132000000D03*
%TD*%
%TO.C,REF\u002A\u002A*%
X187500000Y-132000000D03*
%TD*%
%TO.C,REF\u002A\u002A*%
X187500000Y-52000000D03*
%TD*%
%TO.C,REF\u002A\u002A*%
X147500000Y-52000000D03*
%TD*%
%TO.C,REF\u002A\u002A*%
X107500000Y-52000000D03*
%TD*%
D10*
%TO.C,U1*%
X107442000Y-105410000D03*
X107442000Y-97790000D03*
X107442000Y-100330000D03*
X107442000Y-102870000D03*
%TD*%
D16*
%TO.C,C2*%
X137843776Y-67548001D03*
D22*
X139843776Y-67548001D03*
%TD*%
D23*
%TO.C,C3*%
X108967001Y-71809001D03*
X116467001Y-71809001D03*
%TD*%
D24*
%TO.C,D1*%
X165481000Y-120269000D03*
D25*
X168021000Y-120269000D03*
%TD*%
%TO.C,D2*%
X177546000Y-120269000D03*
D24*
X175006000Y-120269000D03*
%TD*%
%TO.C,D3*%
X184150000Y-120269000D03*
D25*
X186690000Y-120269000D03*
%TD*%
D26*
%TO.C,D4*%
X169926000Y-65024000D03*
X167386000Y-65024000D03*
D27*
X164846000Y-65024000D03*
%TD*%
D28*
%TO.C,D5*%
X120367001Y-72179001D03*
D29*
X127987001Y-72179001D03*
%TD*%
D30*
%TO.C,JP1*%
X122047000Y-53086000D03*
D31*
X122047000Y-50546000D03*
%TD*%
%TO.C,JP2*%
X123571000Y-110998000D03*
D30*
X123571000Y-113538000D03*
%TD*%
%TO.C,JP3*%
X117475000Y-113538000D03*
D31*
X117475000Y-110998000D03*
%TD*%
%TO.C,JP4*%
X117348000Y-119888000D03*
D30*
X117348000Y-122428000D03*
%TD*%
D32*
%TO.C,L1*%
X115087001Y-60879001D03*
X115087001Y-66459001D03*
%TD*%
D27*
%TO.C,Q1*%
X172593000Y-75438000D03*
D26*
X175133000Y-75438000D03*
X177673000Y-75438000D03*
%TD*%
D27*
%TO.C,Q2*%
X157734000Y-75565000D03*
D26*
X160274000Y-75565000D03*
X162814000Y-75565000D03*
%TD*%
D33*
%TO.C,R1*%
X124206000Y-85725000D03*
D34*
X124206000Y-90805000D03*
%TD*%
%TO.C,R2*%
X120142000Y-77089000D03*
D33*
X120142000Y-82169000D03*
%TD*%
%TO.C,R3*%
X120142000Y-90805000D03*
D34*
X120142000Y-85725000D03*
%TD*%
%TO.C,R4*%
X116205000Y-85725000D03*
D33*
X116205000Y-90805000D03*
%TD*%
D34*
%TO.C,R5*%
X169545000Y-112776000D03*
D33*
X164465000Y-112776000D03*
%TD*%
D34*
%TO.C,R6*%
X177546000Y-86868000D03*
D33*
X177546000Y-81788000D03*
%TD*%
D34*
%TO.C,R7*%
X178689000Y-112776000D03*
D33*
X173609000Y-112776000D03*
%TD*%
%TO.C,R8*%
X182753000Y-112776000D03*
D34*
X187833000Y-112776000D03*
%TD*%
D33*
%TO.C,R9*%
X162941000Y-81915000D03*
D34*
X162941000Y-86995000D03*
%TD*%
D33*
%TO.C,R10*%
X162687000Y-101092000D03*
D34*
X162687000Y-106172000D03*
%TD*%
D33*
%TO.C,R11*%
X120142000Y-131318000D03*
D34*
X120142000Y-126238000D03*
%TD*%
%TO.C,R12*%
X123825000Y-126238000D03*
D33*
X123825000Y-131318000D03*
%TD*%
%TO.C,R13*%
X116078000Y-131318000D03*
D34*
X116078000Y-126238000D03*
%TD*%
M02*
