M48
; DRILL file {KiCad (5.1.9-0-10_14)} date Wednesday, September 01, 2021 at 12:01:22 PM
; FORMAT={-:-/ absolute / metric / decimal}
; #@! TF.CreationDate,2021-09-01T12:01:22+01:00
; #@! TF.GenerationSoftware,Kicad,Pcbnew,(5.1.9-0-10_14)
; #@! TF.FileFunction,Plated,1,2,PTH
FMAT,2
METRIC
T1C0.400
T2C0.600
T3C0.700
T4C0.762
T5C0.800
T6C0.900
T7C1.000
T8C1.100
T9C1.800
%
G90
G05
T1
X118.072Y-66.459
X123.444Y-68.707
T2
X131.887Y-72.829
X133.387Y-72.829
X146.685Y-67.564
X148.185Y-67.564
T3
X116.078Y-126.238
X116.078Y-131.318
X116.205Y-85.725
X116.205Y-90.805
X120.142Y-77.089
X120.142Y-82.169
X120.142Y-85.725
X120.142Y-90.805
X120.142Y-126.238
X120.142Y-131.318
X123.825Y-126.238
X123.825Y-131.318
X124.206Y-85.725
X124.206Y-90.805
X162.687Y-101.092
X162.687Y-106.172
X162.941Y-81.915
X162.941Y-86.995
X164.465Y-112.776
X169.545Y-112.776
X173.609Y-112.776
X177.546Y-81.788
X177.546Y-86.868
X178.689Y-112.776
X182.753Y-112.776
X187.833Y-112.776
T4
X107.442Y-97.79
X107.442Y-100.33
X107.442Y-102.87
X107.442Y-105.41
X130.937Y-85.598
X130.937Y-88.138
X130.937Y-90.678
X130.937Y-93.218
X130.937Y-95.758
X130.937Y-98.298
X130.937Y-100.838
X130.937Y-103.378
X130.937Y-105.918
X130.937Y-108.458
X130.937Y-110.998
X130.937Y-113.538
X130.937Y-116.078
X130.937Y-118.618
X130.937Y-121.158
X130.937Y-123.698
X130.937Y-126.365
X130.937Y-128.905
X130.937Y-131.318
X156.337Y-85.598
X156.337Y-88.138
X156.337Y-90.678
X156.337Y-93.218
X156.337Y-95.758
X156.337Y-98.298
X156.337Y-100.838
X156.337Y-103.378
X156.337Y-105.918
X156.337Y-108.458
X156.337Y-110.998
X156.337Y-113.538
X156.337Y-116.078
X156.337Y-118.618
X156.337Y-121.158
X156.337Y-123.698
X156.337Y-126.238
X156.337Y-128.778
X156.337Y-131.318
X173.482Y-101.727
X173.482Y-106.807
X176.022Y-104.267
X179.172Y-101.727
X179.172Y-106.807
X181.712Y-104.267
T5
X116.459Y-95.758
X116.459Y-98.298
X116.459Y-100.838
X116.459Y-103.378
X124.079Y-95.758
X124.079Y-98.298
X124.079Y-100.838
X124.079Y-103.378
X124.714Y-59.055
X124.714Y-61.595
X124.714Y-64.135
X124.714Y-66.675
X132.334Y-59.055
X132.334Y-61.595
X132.334Y-64.135
X132.334Y-66.675
X137.844Y-67.548
X139.844Y-67.548
T6
X165.481Y-120.269
X168.021Y-120.269
X175.006Y-120.269
X177.546Y-120.269
X184.15Y-120.269
X186.69Y-120.269
T7
X108.967Y-71.809
X116.467Y-71.809
X117.348Y-119.888
X117.348Y-122.428
X117.475Y-110.998
X117.475Y-113.538
X122.047Y-50.546
X122.047Y-53.086
X123.571Y-110.998
X123.571Y-113.538
T8
X115.316Y-52.07
X117.856Y-52.07
X120.367Y-72.179
X127.508Y-52.07
X127.987Y-72.179
X132.588Y-52.07
X137.668Y-52.07
X140.208Y-52.07
X157.734Y-75.565
X157.861Y-52.197
X160.274Y-75.565
X162.814Y-75.565
X162.941Y-52.197
X164.846Y-65.024
X167.386Y-65.024
X169.926Y-65.024
X172.085Y-52.324
X172.593Y-75.438
X175.133Y-75.438
X177.165Y-52.324
X177.673Y-75.438
T9
X115.087Y-60.879
X115.087Y-66.459
T0
M30
