%TF.GenerationSoftware,KiCad,Pcbnew,(5.1.9-0-10_14)*%
%TF.CreationDate,2021-08-02T15:26:46+01:00*%
%TF.ProjectId,SensorLights,53656e73-6f72-44c6-9967-6874732e6b69,1.1*%
%TF.SameCoordinates,Original*%
%TF.FileFunction,Legend,Top*%
%TF.FilePolarity,Positive*%
%FSLAX46Y46*%
G04 Gerber Fmt 4.6, Leading zero omitted, Abs format (unit mm)*
G04 Created by KiCad (PCBNEW (5.1.9-0-10_14)) date 2021-08-02 15:26:46*
%MOMM*%
%LPD*%
G01*
G04 APERTURE LIST*
%ADD10C,0.120000*%
%ADD11C,0.200000*%
%ADD12C,0.150000*%
%ADD13C,0.100000*%
%ADD14C,0.800000*%
%ADD15C,1.000000*%
G04 APERTURE END LIST*
D10*
X118872000Y-48641000D02*
X120650000Y-48641000D01*
X119761000Y-47752000D02*
X119761000Y-49403000D01*
X131826000Y-56896000D02*
X133604000Y-56896000D01*
X132715000Y-56007000D02*
X132715000Y-57658000D01*
X116967000Y-56896000D02*
X118745000Y-56896000D01*
X117856000Y-56007000D02*
X117856000Y-57658000D01*
X134620000Y-51181000D02*
X136398000Y-51181000D01*
X135509000Y-50292000D02*
X135509000Y-51943000D01*
X179578000Y-52197000D02*
X181356000Y-52197000D01*
X180467000Y-51308000D02*
X180467000Y-52959000D01*
X166243000Y-51181000D02*
X166243000Y-52832000D01*
X165354000Y-52070000D02*
X167132000Y-52070000D01*
D11*
X170079285Y-96918142D02*
X170250714Y-96989571D01*
X170536428Y-96989571D01*
X170650714Y-96918142D01*
X170707857Y-96846714D01*
X170765000Y-96703857D01*
X170765000Y-96561000D01*
X170707857Y-96418142D01*
X170650714Y-96346714D01*
X170536428Y-96275285D01*
X170307857Y-96203857D01*
X170193571Y-96132428D01*
X170136428Y-96061000D01*
X170079285Y-95918142D01*
X170079285Y-95775285D01*
X170136428Y-95632428D01*
X170193571Y-95561000D01*
X170307857Y-95489571D01*
X170593571Y-95489571D01*
X170765000Y-95561000D01*
X171736428Y-96918142D02*
X171622142Y-96989571D01*
X171393571Y-96989571D01*
X171279285Y-96918142D01*
X171222142Y-96775285D01*
X171222142Y-96203857D01*
X171279285Y-96061000D01*
X171393571Y-95989571D01*
X171622142Y-95989571D01*
X171736428Y-96061000D01*
X171793571Y-96203857D01*
X171793571Y-96346714D01*
X171222142Y-96489571D01*
X172307857Y-95989571D02*
X172307857Y-96989571D01*
X172307857Y-96132428D02*
X172365000Y-96061000D01*
X172479285Y-95989571D01*
X172650714Y-95989571D01*
X172765000Y-96061000D01*
X172822142Y-96203857D01*
X172822142Y-96989571D01*
X173336428Y-96918142D02*
X173450714Y-96989571D01*
X173679285Y-96989571D01*
X173793571Y-96918142D01*
X173850714Y-96775285D01*
X173850714Y-96703857D01*
X173793571Y-96561000D01*
X173679285Y-96489571D01*
X173507857Y-96489571D01*
X173393571Y-96418142D01*
X173336428Y-96275285D01*
X173336428Y-96203857D01*
X173393571Y-96061000D01*
X173507857Y-95989571D01*
X173679285Y-95989571D01*
X173793571Y-96061000D01*
X174536428Y-96989571D02*
X174422142Y-96918142D01*
X174365000Y-96846714D01*
X174307857Y-96703857D01*
X174307857Y-96275285D01*
X174365000Y-96132428D01*
X174422142Y-96061000D01*
X174536428Y-95989571D01*
X174707857Y-95989571D01*
X174822142Y-96061000D01*
X174879285Y-96132428D01*
X174936428Y-96275285D01*
X174936428Y-96703857D01*
X174879285Y-96846714D01*
X174822142Y-96918142D01*
X174707857Y-96989571D01*
X174536428Y-96989571D01*
X175450714Y-96989571D02*
X175450714Y-95989571D01*
X175450714Y-96275285D02*
X175507857Y-96132428D01*
X175565000Y-96061000D01*
X175679285Y-95989571D01*
X175793571Y-95989571D01*
X177107857Y-96989571D02*
X177107857Y-95489571D01*
X177393571Y-95489571D01*
X177565000Y-95561000D01*
X177679285Y-95703857D01*
X177736428Y-95846714D01*
X177793571Y-96132428D01*
X177793571Y-96346714D01*
X177736428Y-96632428D01*
X177679285Y-96775285D01*
X177565000Y-96918142D01*
X177393571Y-96989571D01*
X177107857Y-96989571D01*
X178307857Y-96989571D02*
X178307857Y-95989571D01*
X178307857Y-95489571D02*
X178250714Y-95561000D01*
X178307857Y-95632428D01*
X178365000Y-95561000D01*
X178307857Y-95489571D01*
X178307857Y-95632428D01*
X178822142Y-96918142D02*
X178936428Y-96989571D01*
X179165000Y-96989571D01*
X179279285Y-96918142D01*
X179336428Y-96775285D01*
X179336428Y-96703857D01*
X179279285Y-96561000D01*
X179165000Y-96489571D01*
X178993571Y-96489571D01*
X178879285Y-96418142D01*
X178822142Y-96275285D01*
X178822142Y-96203857D01*
X178879285Y-96061000D01*
X178993571Y-95989571D01*
X179165000Y-95989571D01*
X179279285Y-96061000D01*
X179679285Y-95989571D02*
X180136428Y-95989571D01*
X179850714Y-95489571D02*
X179850714Y-96775285D01*
X179907857Y-96918142D01*
X180022142Y-96989571D01*
X180136428Y-96989571D01*
X181050714Y-96989571D02*
X181050714Y-96203857D01*
X180993571Y-96061000D01*
X180879285Y-95989571D01*
X180650714Y-95989571D01*
X180536428Y-96061000D01*
X181050714Y-96918142D02*
X180936428Y-96989571D01*
X180650714Y-96989571D01*
X180536428Y-96918142D01*
X180479285Y-96775285D01*
X180479285Y-96632428D01*
X180536428Y-96489571D01*
X180650714Y-96418142D01*
X180936428Y-96418142D01*
X181050714Y-96346714D01*
X181622142Y-95989571D02*
X181622142Y-96989571D01*
X181622142Y-96132428D02*
X181679285Y-96061000D01*
X181793571Y-95989571D01*
X181965000Y-95989571D01*
X182079285Y-96061000D01*
X182136428Y-96203857D01*
X182136428Y-96989571D01*
X183222142Y-96918142D02*
X183107857Y-96989571D01*
X182879285Y-96989571D01*
X182765000Y-96918142D01*
X182707857Y-96846714D01*
X182650714Y-96703857D01*
X182650714Y-96275285D01*
X182707857Y-96132428D01*
X182765000Y-96061000D01*
X182879285Y-95989571D01*
X183107857Y-95989571D01*
X183222142Y-96061000D01*
X184193571Y-96918142D02*
X184079285Y-96989571D01*
X183850714Y-96989571D01*
X183736428Y-96918142D01*
X183679285Y-96775285D01*
X183679285Y-96203857D01*
X183736428Y-96061000D01*
X183850714Y-95989571D01*
X184079285Y-95989571D01*
X184193571Y-96061000D01*
X184250714Y-96203857D01*
X184250714Y-96346714D01*
X183679285Y-96489571D01*
X172107857Y-99368142D02*
X172279285Y-99439571D01*
X172565000Y-99439571D01*
X172679285Y-99368142D01*
X172736428Y-99296714D01*
X172793571Y-99153857D01*
X172793571Y-99011000D01*
X172736428Y-98868142D01*
X172679285Y-98796714D01*
X172565000Y-98725285D01*
X172336428Y-98653857D01*
X172222142Y-98582428D01*
X172165000Y-98511000D01*
X172107857Y-98368142D01*
X172107857Y-98225285D01*
X172165000Y-98082428D01*
X172222142Y-98011000D01*
X172336428Y-97939571D01*
X172622142Y-97939571D01*
X172793571Y-98011000D01*
X173136428Y-98439571D02*
X173593571Y-98439571D01*
X173307857Y-97939571D02*
X173307857Y-99225285D01*
X173365000Y-99368142D01*
X173479285Y-99439571D01*
X173593571Y-99439571D01*
X174507857Y-99439571D02*
X174507857Y-98653857D01*
X174450714Y-98511000D01*
X174336428Y-98439571D01*
X174107857Y-98439571D01*
X173993571Y-98511000D01*
X174507857Y-99368142D02*
X174393571Y-99439571D01*
X174107857Y-99439571D01*
X173993571Y-99368142D01*
X173936428Y-99225285D01*
X173936428Y-99082428D01*
X173993571Y-98939571D01*
X174107857Y-98868142D01*
X174393571Y-98868142D01*
X174507857Y-98796714D01*
X175079285Y-99439571D02*
X175079285Y-98439571D01*
X175079285Y-98725285D02*
X175136428Y-98582428D01*
X175193571Y-98511000D01*
X175307857Y-98439571D01*
X175422142Y-98439571D01*
X175650714Y-98439571D02*
X176107857Y-98439571D01*
X175822142Y-97939571D02*
X175822142Y-99225285D01*
X175879285Y-99368142D01*
X175993571Y-99439571D01*
X176107857Y-99439571D01*
X178279285Y-99368142D02*
X178450714Y-99439571D01*
X178736428Y-99439571D01*
X178850714Y-99368142D01*
X178907857Y-99296714D01*
X178965000Y-99153857D01*
X178965000Y-99011000D01*
X178907857Y-98868142D01*
X178850714Y-98796714D01*
X178736428Y-98725285D01*
X178507857Y-98653857D01*
X178393571Y-98582428D01*
X178336428Y-98511000D01*
X178279285Y-98368142D01*
X178279285Y-98225285D01*
X178336428Y-98082428D01*
X178393571Y-98011000D01*
X178507857Y-97939571D01*
X178793571Y-97939571D01*
X178965000Y-98011000D01*
X179479285Y-98439571D02*
X179479285Y-99939571D01*
X179479285Y-98511000D02*
X179593571Y-98439571D01*
X179822142Y-98439571D01*
X179936428Y-98511000D01*
X179993571Y-98582428D01*
X180050714Y-98725285D01*
X180050714Y-99153857D01*
X179993571Y-99296714D01*
X179936428Y-99368142D01*
X179822142Y-99439571D01*
X179593571Y-99439571D01*
X179479285Y-99368142D01*
X181079285Y-99439571D02*
X181079285Y-98653857D01*
X181022142Y-98511000D01*
X180907857Y-98439571D01*
X180679285Y-98439571D01*
X180565000Y-98511000D01*
X181079285Y-99368142D02*
X180965000Y-99439571D01*
X180679285Y-99439571D01*
X180565000Y-99368142D01*
X180507857Y-99225285D01*
X180507857Y-99082428D01*
X180565000Y-98939571D01*
X180679285Y-98868142D01*
X180965000Y-98868142D01*
X181079285Y-98796714D01*
X181650714Y-98439571D02*
X181650714Y-99439571D01*
X181650714Y-98582428D02*
X181707857Y-98511000D01*
X181822142Y-98439571D01*
X181993571Y-98439571D01*
X182107857Y-98511000D01*
X182165000Y-98653857D01*
X182165000Y-99439571D01*
D12*
X126539666Y-102957380D02*
X127158714Y-102957380D01*
X126825380Y-103338333D01*
X126968238Y-103338333D01*
X127063476Y-103385952D01*
X127111095Y-103433571D01*
X127158714Y-103528809D01*
X127158714Y-103766904D01*
X127111095Y-103862142D01*
X127063476Y-103909761D01*
X126968238Y-103957380D01*
X126682523Y-103957380D01*
X126587285Y-103909761D01*
X126539666Y-103862142D01*
X126714285Y-100258619D02*
X126761904Y-100211000D01*
X126857142Y-100163380D01*
X127095238Y-100163380D01*
X127190476Y-100211000D01*
X127238095Y-100258619D01*
X127285714Y-100353857D01*
X127285714Y-100449095D01*
X127238095Y-100591952D01*
X126666666Y-101163380D01*
X127285714Y-101163380D01*
X127158714Y-98623380D02*
X126587285Y-98623380D01*
X126873000Y-98623380D02*
X126873000Y-97623380D01*
X126777761Y-97766238D01*
X126682523Y-97861476D01*
X126587285Y-97909095D01*
X126952380Y-95083380D02*
X127047619Y-95083380D01*
X127142857Y-95131000D01*
X127190476Y-95178619D01*
X127238095Y-95273857D01*
X127285714Y-95464333D01*
X127285714Y-95702428D01*
X127238095Y-95892904D01*
X127190476Y-95988142D01*
X127142857Y-96035761D01*
X127047619Y-96083380D01*
X126952380Y-96083380D01*
X126857142Y-96035761D01*
X126809523Y-95988142D01*
X126761904Y-95892904D01*
X126714285Y-95702428D01*
X126714285Y-95464333D01*
X126761904Y-95273857D01*
X126809523Y-95178619D01*
X126857142Y-95131000D01*
X126952380Y-95083380D01*
X111086380Y-122060690D02*
X111800666Y-122060690D01*
X111943523Y-122108309D01*
X112038761Y-122203547D01*
X112086380Y-122346404D01*
X112086380Y-122441642D01*
X112086380Y-121584500D02*
X111086380Y-121584500D01*
X111086380Y-121203547D01*
X111134000Y-121108309D01*
X111181619Y-121060690D01*
X111276857Y-121013071D01*
X111419714Y-121013071D01*
X111514952Y-121060690D01*
X111562571Y-121108309D01*
X111610190Y-121203547D01*
X111610190Y-121584500D01*
X111181619Y-120632119D02*
X111134000Y-120584500D01*
X111086380Y-120489261D01*
X111086380Y-120251166D01*
X111134000Y-120155928D01*
X111181619Y-120108309D01*
X111276857Y-120060690D01*
X111372095Y-120060690D01*
X111514952Y-120108309D01*
X112086380Y-120679738D01*
X112086380Y-120060690D01*
X112086380Y-118394023D02*
X112086380Y-118870214D01*
X111086380Y-118870214D01*
X112086380Y-117917833D02*
X112038761Y-118013071D01*
X111991142Y-118060690D01*
X111895904Y-118108309D01*
X111610190Y-118108309D01*
X111514952Y-118060690D01*
X111467333Y-118013071D01*
X111419714Y-117917833D01*
X111419714Y-117774976D01*
X111467333Y-117679738D01*
X111514952Y-117632119D01*
X111610190Y-117584500D01*
X111895904Y-117584500D01*
X111991142Y-117632119D01*
X112038761Y-117679738D01*
X112086380Y-117774976D01*
X112086380Y-117917833D01*
X112038761Y-116727357D02*
X112086380Y-116822595D01*
X112086380Y-117013071D01*
X112038761Y-117108309D01*
X111991142Y-117155928D01*
X111895904Y-117203547D01*
X111610190Y-117203547D01*
X111514952Y-117155928D01*
X111467333Y-117108309D01*
X111419714Y-117013071D01*
X111419714Y-116822595D01*
X111467333Y-116727357D01*
X112086380Y-115870214D02*
X111562571Y-115870214D01*
X111467333Y-115917833D01*
X111419714Y-116013071D01*
X111419714Y-116203547D01*
X111467333Y-116298785D01*
X112038761Y-115870214D02*
X112086380Y-115965452D01*
X112086380Y-116203547D01*
X112038761Y-116298785D01*
X111943523Y-116346404D01*
X111848285Y-116346404D01*
X111753047Y-116298785D01*
X111705428Y-116203547D01*
X111705428Y-115965452D01*
X111657809Y-115870214D01*
X112086380Y-115251166D02*
X112038761Y-115346404D01*
X111943523Y-115394023D01*
X111086380Y-115394023D01*
X112038761Y-114155928D02*
X112086380Y-114013071D01*
X112086380Y-113774976D01*
X112038761Y-113679738D01*
X111991142Y-113632119D01*
X111895904Y-113584500D01*
X111800666Y-113584500D01*
X111705428Y-113632119D01*
X111657809Y-113679738D01*
X111610190Y-113774976D01*
X111562571Y-113965452D01*
X111514952Y-114060690D01*
X111467333Y-114108309D01*
X111372095Y-114155928D01*
X111276857Y-114155928D01*
X111181619Y-114108309D01*
X111134000Y-114060690D01*
X111086380Y-113965452D01*
X111086380Y-113727357D01*
X111134000Y-113584500D01*
X111419714Y-113298785D02*
X111419714Y-112917833D01*
X111086380Y-113155928D02*
X111943523Y-113155928D01*
X112038761Y-113108309D01*
X112086380Y-113013071D01*
X112086380Y-112917833D01*
X112086380Y-112441642D02*
X112038761Y-112536880D01*
X111991142Y-112584500D01*
X111895904Y-112632119D01*
X111610190Y-112632119D01*
X111514952Y-112584500D01*
X111467333Y-112536880D01*
X111419714Y-112441642D01*
X111419714Y-112298785D01*
X111467333Y-112203547D01*
X111514952Y-112155928D01*
X111610190Y-112108309D01*
X111895904Y-112108309D01*
X111991142Y-112155928D01*
X112038761Y-112203547D01*
X112086380Y-112298785D01*
X112086380Y-112441642D01*
X111419714Y-111679738D02*
X112419714Y-111679738D01*
X111467333Y-111679738D02*
X111419714Y-111584500D01*
X111419714Y-111394023D01*
X111467333Y-111298785D01*
X111514952Y-111251166D01*
X111610190Y-111203547D01*
X111895904Y-111203547D01*
X111991142Y-111251166D01*
X112038761Y-111298785D01*
X112086380Y-111394023D01*
X112086380Y-111584500D01*
X112038761Y-111679738D01*
X112736380Y-122060690D02*
X113450666Y-122060690D01*
X113593523Y-122108309D01*
X113688761Y-122203547D01*
X113736380Y-122346404D01*
X113736380Y-122441642D01*
X113736380Y-121584500D02*
X112736380Y-121584500D01*
X112736380Y-121203547D01*
X112784000Y-121108309D01*
X112831619Y-121060690D01*
X112926857Y-121013071D01*
X113069714Y-121013071D01*
X113164952Y-121060690D01*
X113212571Y-121108309D01*
X113260190Y-121203547D01*
X113260190Y-121584500D01*
X112736380Y-120679738D02*
X112736380Y-120060690D01*
X113117333Y-120394023D01*
X113117333Y-120251166D01*
X113164952Y-120155928D01*
X113212571Y-120108309D01*
X113307809Y-120060690D01*
X113545904Y-120060690D01*
X113641142Y-120108309D01*
X113688761Y-120155928D01*
X113736380Y-120251166D01*
X113736380Y-120536880D01*
X113688761Y-120632119D01*
X113641142Y-120679738D01*
X113736380Y-118394023D02*
X113736380Y-118870214D01*
X112736380Y-118870214D01*
X113736380Y-117917833D02*
X113688761Y-118013071D01*
X113641142Y-118060690D01*
X113545904Y-118108309D01*
X113260190Y-118108309D01*
X113164952Y-118060690D01*
X113117333Y-118013071D01*
X113069714Y-117917833D01*
X113069714Y-117774976D01*
X113117333Y-117679738D01*
X113164952Y-117632119D01*
X113260190Y-117584500D01*
X113545904Y-117584500D01*
X113641142Y-117632119D01*
X113688761Y-117679738D01*
X113736380Y-117774976D01*
X113736380Y-117917833D01*
X113688761Y-116727357D02*
X113736380Y-116822595D01*
X113736380Y-117013071D01*
X113688761Y-117108309D01*
X113641142Y-117155928D01*
X113545904Y-117203547D01*
X113260190Y-117203547D01*
X113164952Y-117155928D01*
X113117333Y-117108309D01*
X113069714Y-117013071D01*
X113069714Y-116822595D01*
X113117333Y-116727357D01*
X113736380Y-115870214D02*
X113212571Y-115870214D01*
X113117333Y-115917833D01*
X113069714Y-116013071D01*
X113069714Y-116203547D01*
X113117333Y-116298785D01*
X113688761Y-115870214D02*
X113736380Y-115965452D01*
X113736380Y-116203547D01*
X113688761Y-116298785D01*
X113593523Y-116346404D01*
X113498285Y-116346404D01*
X113403047Y-116298785D01*
X113355428Y-116203547D01*
X113355428Y-115965452D01*
X113307809Y-115870214D01*
X113736380Y-115251166D02*
X113688761Y-115346404D01*
X113593523Y-115394023D01*
X112736380Y-115394023D01*
X113688761Y-114155928D02*
X113736380Y-114013071D01*
X113736380Y-113774976D01*
X113688761Y-113679738D01*
X113641142Y-113632119D01*
X113545904Y-113584500D01*
X113450666Y-113584500D01*
X113355428Y-113632119D01*
X113307809Y-113679738D01*
X113260190Y-113774976D01*
X113212571Y-113965452D01*
X113164952Y-114060690D01*
X113117333Y-114108309D01*
X113022095Y-114155928D01*
X112926857Y-114155928D01*
X112831619Y-114108309D01*
X112784000Y-114060690D01*
X112736380Y-113965452D01*
X112736380Y-113727357D01*
X112784000Y-113584500D01*
X113688761Y-112774976D02*
X113736380Y-112870214D01*
X113736380Y-113060690D01*
X113688761Y-113155928D01*
X113593523Y-113203547D01*
X113212571Y-113203547D01*
X113117333Y-113155928D01*
X113069714Y-113060690D01*
X113069714Y-112870214D01*
X113117333Y-112774976D01*
X113212571Y-112727357D01*
X113307809Y-112727357D01*
X113403047Y-113203547D01*
X113069714Y-112298785D02*
X113736380Y-112298785D01*
X113164952Y-112298785D02*
X113117333Y-112251166D01*
X113069714Y-112155928D01*
X113069714Y-112013071D01*
X113117333Y-111917833D01*
X113212571Y-111870214D01*
X113736380Y-111870214D01*
X113688761Y-111441642D02*
X113736380Y-111346404D01*
X113736380Y-111155928D01*
X113688761Y-111060690D01*
X113593523Y-111013071D01*
X113545904Y-111013071D01*
X113450666Y-111060690D01*
X113403047Y-111155928D01*
X113403047Y-111298785D01*
X113355428Y-111394023D01*
X113260190Y-111441642D01*
X113212571Y-111441642D01*
X113117333Y-111394023D01*
X113069714Y-111298785D01*
X113069714Y-111155928D01*
X113117333Y-111060690D01*
X113688761Y-110203547D02*
X113736380Y-110298785D01*
X113736380Y-110489261D01*
X113688761Y-110584500D01*
X113593523Y-110632119D01*
X113212571Y-110632119D01*
X113117333Y-110584500D01*
X113069714Y-110489261D01*
X113069714Y-110298785D01*
X113117333Y-110203547D01*
X113212571Y-110155928D01*
X113307809Y-110155928D01*
X113403047Y-110632119D01*
X114386380Y-122060690D02*
X115100666Y-122060690D01*
X115243523Y-122108309D01*
X115338761Y-122203547D01*
X115386380Y-122346404D01*
X115386380Y-122441642D01*
X115386380Y-121584500D02*
X114386380Y-121584500D01*
X114386380Y-121203547D01*
X114434000Y-121108309D01*
X114481619Y-121060690D01*
X114576857Y-121013071D01*
X114719714Y-121013071D01*
X114814952Y-121060690D01*
X114862571Y-121108309D01*
X114910190Y-121203547D01*
X114910190Y-121584500D01*
X114719714Y-120155928D02*
X115386380Y-120155928D01*
X114338761Y-120394023D02*
X115053047Y-120632119D01*
X115053047Y-120013071D01*
X115386380Y-118394023D02*
X115386380Y-118870214D01*
X114386380Y-118870214D01*
X115386380Y-117917833D02*
X115338761Y-118013071D01*
X115291142Y-118060690D01*
X115195904Y-118108309D01*
X114910190Y-118108309D01*
X114814952Y-118060690D01*
X114767333Y-118013071D01*
X114719714Y-117917833D01*
X114719714Y-117774976D01*
X114767333Y-117679738D01*
X114814952Y-117632119D01*
X114910190Y-117584500D01*
X115195904Y-117584500D01*
X115291142Y-117632119D01*
X115338761Y-117679738D01*
X115386380Y-117774976D01*
X115386380Y-117917833D01*
X115338761Y-116727357D02*
X115386380Y-116822595D01*
X115386380Y-117013071D01*
X115338761Y-117108309D01*
X115291142Y-117155928D01*
X115195904Y-117203547D01*
X114910190Y-117203547D01*
X114814952Y-117155928D01*
X114767333Y-117108309D01*
X114719714Y-117013071D01*
X114719714Y-116822595D01*
X114767333Y-116727357D01*
X115386380Y-115870214D02*
X114862571Y-115870214D01*
X114767333Y-115917833D01*
X114719714Y-116013071D01*
X114719714Y-116203547D01*
X114767333Y-116298785D01*
X115338761Y-115870214D02*
X115386380Y-115965452D01*
X115386380Y-116203547D01*
X115338761Y-116298785D01*
X115243523Y-116346404D01*
X115148285Y-116346404D01*
X115053047Y-116298785D01*
X115005428Y-116203547D01*
X115005428Y-115965452D01*
X114957809Y-115870214D01*
X115386380Y-115251166D02*
X115338761Y-115346404D01*
X115243523Y-115394023D01*
X114386380Y-115394023D01*
X114386380Y-114203547D02*
X115386380Y-113965452D01*
X114672095Y-113774976D01*
X115386380Y-113584500D01*
X114386380Y-113346404D01*
X115386380Y-112965452D02*
X114719714Y-112965452D01*
X114386380Y-112965452D02*
X114434000Y-113013071D01*
X114481619Y-112965452D01*
X114434000Y-112917833D01*
X114386380Y-112965452D01*
X114481619Y-112965452D01*
X114862571Y-112155928D02*
X114862571Y-112489261D01*
X115386380Y-112489261D02*
X114386380Y-112489261D01*
X114386380Y-112013071D01*
X115386380Y-111632119D02*
X114719714Y-111632119D01*
X114386380Y-111632119D02*
X114434000Y-111679738D01*
X114481619Y-111632119D01*
X114434000Y-111584500D01*
X114386380Y-111632119D01*
X114481619Y-111632119D01*
X118118238Y-105053380D02*
X118308714Y-105053380D01*
X118403952Y-105101000D01*
X118499190Y-105196238D01*
X118546809Y-105386714D01*
X118546809Y-105720047D01*
X118499190Y-105910523D01*
X118403952Y-106005761D01*
X118308714Y-106053380D01*
X118118238Y-106053380D01*
X118023000Y-106005761D01*
X117927761Y-105910523D01*
X117880142Y-105720047D01*
X117880142Y-105386714D01*
X117927761Y-105196238D01*
X118023000Y-105101000D01*
X118118238Y-105053380D01*
X118975380Y-105386714D02*
X118975380Y-106053380D01*
X118975380Y-105481952D02*
X119023000Y-105434333D01*
X119118238Y-105386714D01*
X119261095Y-105386714D01*
X119356333Y-105434333D01*
X119403952Y-105529571D01*
X119403952Y-106053380D01*
X120642047Y-105529571D02*
X121403952Y-105529571D01*
X121403952Y-105815285D02*
X120642047Y-105815285D01*
X122832523Y-105053380D02*
X122927761Y-105053380D01*
X123023000Y-105101000D01*
X123070619Y-105148619D01*
X123118238Y-105243857D01*
X123165857Y-105434333D01*
X123165857Y-105672428D01*
X123118238Y-105862904D01*
X123070619Y-105958142D01*
X123023000Y-106005761D01*
X122927761Y-106053380D01*
X122832523Y-106053380D01*
X122737285Y-106005761D01*
X122689666Y-105958142D01*
X122642047Y-105862904D01*
X122594428Y-105672428D01*
X122594428Y-105434333D01*
X122642047Y-105243857D01*
X122689666Y-105148619D01*
X122737285Y-105101000D01*
X122832523Y-105053380D01*
X117999190Y-106703380D02*
X118189666Y-106703380D01*
X118284904Y-106751000D01*
X118380142Y-106846238D01*
X118427761Y-107036714D01*
X118427761Y-107370047D01*
X118380142Y-107560523D01*
X118284904Y-107655761D01*
X118189666Y-107703380D01*
X117999190Y-107703380D01*
X117903952Y-107655761D01*
X117808714Y-107560523D01*
X117761095Y-107370047D01*
X117761095Y-107036714D01*
X117808714Y-106846238D01*
X117903952Y-106751000D01*
X117999190Y-106703380D01*
X118713476Y-107036714D02*
X119094428Y-107036714D01*
X118856333Y-107703380D02*
X118856333Y-106846238D01*
X118903952Y-106751000D01*
X118999190Y-106703380D01*
X119094428Y-106703380D01*
X119284904Y-107036714D02*
X119665857Y-107036714D01*
X119427761Y-107703380D02*
X119427761Y-106846238D01*
X119475380Y-106751000D01*
X119570619Y-106703380D01*
X119665857Y-106703380D01*
X120761095Y-107179571D02*
X121523000Y-107179571D01*
X121523000Y-107465285D02*
X120761095Y-107465285D01*
X123284904Y-107703380D02*
X122713476Y-107703380D01*
X122999190Y-107703380D02*
X122999190Y-106703380D01*
X122903952Y-106846238D01*
X122808714Y-106941476D01*
X122713476Y-106989095D01*
X113323666Y-102258476D02*
X113323666Y-101782285D01*
X113609380Y-102353714D02*
X112609380Y-102020380D01*
X113609380Y-101687047D01*
X113609380Y-100925142D02*
X112609380Y-100925142D01*
X113561761Y-100925142D02*
X113609380Y-101020380D01*
X113609380Y-101210857D01*
X113561761Y-101306095D01*
X113514142Y-101353714D01*
X113418904Y-101401333D01*
X113133190Y-101401333D01*
X113037952Y-101353714D01*
X112990333Y-101306095D01*
X112942714Y-101210857D01*
X112942714Y-101020380D01*
X112990333Y-100925142D01*
X113609380Y-100020380D02*
X112609380Y-100020380D01*
X113561761Y-100020380D02*
X113609380Y-100115619D01*
X113609380Y-100306095D01*
X113561761Y-100401333D01*
X113514142Y-100448952D01*
X113418904Y-100496571D01*
X113133190Y-100496571D01*
X113037952Y-100448952D01*
X112990333Y-100401333D01*
X112942714Y-100306095D01*
X112942714Y-100115619D01*
X112990333Y-100020380D01*
X113609380Y-99544190D02*
X112942714Y-99544190D01*
X113133190Y-99544190D02*
X113037952Y-99496571D01*
X112990333Y-99448952D01*
X112942714Y-99353714D01*
X112942714Y-99258476D01*
X113561761Y-98544190D02*
X113609380Y-98639428D01*
X113609380Y-98829904D01*
X113561761Y-98925142D01*
X113466523Y-98972761D01*
X113085571Y-98972761D01*
X112990333Y-98925142D01*
X112942714Y-98829904D01*
X112942714Y-98639428D01*
X112990333Y-98544190D01*
X113085571Y-98496571D01*
X113180809Y-98496571D01*
X113276047Y-98972761D01*
X113561761Y-98115619D02*
X113609380Y-98020380D01*
X113609380Y-97829904D01*
X113561761Y-97734666D01*
X113466523Y-97687047D01*
X113418904Y-97687047D01*
X113323666Y-97734666D01*
X113276047Y-97829904D01*
X113276047Y-97972761D01*
X113228428Y-98068000D01*
X113133190Y-98115619D01*
X113085571Y-98115619D01*
X112990333Y-98068000D01*
X112942714Y-97972761D01*
X112942714Y-97829904D01*
X112990333Y-97734666D01*
X113561761Y-97306095D02*
X113609380Y-97210857D01*
X113609380Y-97020380D01*
X113561761Y-96925142D01*
X113466523Y-96877523D01*
X113418904Y-96877523D01*
X113323666Y-96925142D01*
X113276047Y-97020380D01*
X113276047Y-97163238D01*
X113228428Y-97258476D01*
X113133190Y-97306095D01*
X113085571Y-97306095D01*
X112990333Y-97258476D01*
X112942714Y-97163238D01*
X112942714Y-97020380D01*
X112990333Y-96925142D01*
X183086666Y-125182761D02*
X183229523Y-125230380D01*
X183467619Y-125230380D01*
X183562857Y-125182761D01*
X183610476Y-125135142D01*
X183658095Y-125039904D01*
X183658095Y-124944666D01*
X183610476Y-124849428D01*
X183562857Y-124801809D01*
X183467619Y-124754190D01*
X183277142Y-124706571D01*
X183181904Y-124658952D01*
X183134285Y-124611333D01*
X183086666Y-124516095D01*
X183086666Y-124420857D01*
X183134285Y-124325619D01*
X183181904Y-124278000D01*
X183277142Y-124230380D01*
X183515238Y-124230380D01*
X183658095Y-124278000D01*
X184467619Y-125182761D02*
X184372380Y-125230380D01*
X184181904Y-125230380D01*
X184086666Y-125182761D01*
X184039047Y-125087523D01*
X184039047Y-124706571D01*
X184086666Y-124611333D01*
X184181904Y-124563714D01*
X184372380Y-124563714D01*
X184467619Y-124611333D01*
X184515238Y-124706571D01*
X184515238Y-124801809D01*
X184039047Y-124897047D01*
X184943809Y-124563714D02*
X184943809Y-125230380D01*
X184943809Y-124658952D02*
X184991428Y-124611333D01*
X185086666Y-124563714D01*
X185229523Y-124563714D01*
X185324761Y-124611333D01*
X185372380Y-124706571D01*
X185372380Y-125230380D01*
X185800952Y-125182761D02*
X185896190Y-125230380D01*
X186086666Y-125230380D01*
X186181904Y-125182761D01*
X186229523Y-125087523D01*
X186229523Y-125039904D01*
X186181904Y-124944666D01*
X186086666Y-124897047D01*
X185943809Y-124897047D01*
X185848571Y-124849428D01*
X185800952Y-124754190D01*
X185800952Y-124706571D01*
X185848571Y-124611333D01*
X185943809Y-124563714D01*
X186086666Y-124563714D01*
X186181904Y-124611333D01*
X186800952Y-125230380D02*
X186705714Y-125182761D01*
X186658095Y-125135142D01*
X186610476Y-125039904D01*
X186610476Y-124754190D01*
X186658095Y-124658952D01*
X186705714Y-124611333D01*
X186800952Y-124563714D01*
X186943809Y-124563714D01*
X187039047Y-124611333D01*
X187086666Y-124658952D01*
X187134285Y-124754190D01*
X187134285Y-125039904D01*
X187086666Y-125135142D01*
X187039047Y-125182761D01*
X186943809Y-125230380D01*
X186800952Y-125230380D01*
X187562857Y-125230380D02*
X187562857Y-124563714D01*
X187562857Y-124754190D02*
X187610476Y-124658952D01*
X187658095Y-124611333D01*
X187753333Y-124563714D01*
X187848571Y-124563714D01*
X183420000Y-126594666D02*
X183896190Y-126594666D01*
X183324761Y-126880380D02*
X183658095Y-125880380D01*
X183991428Y-126880380D01*
X184753333Y-126832761D02*
X184658095Y-126880380D01*
X184467619Y-126880380D01*
X184372380Y-126832761D01*
X184324761Y-126785142D01*
X184277142Y-126689904D01*
X184277142Y-126404190D01*
X184324761Y-126308952D01*
X184372380Y-126261333D01*
X184467619Y-126213714D01*
X184658095Y-126213714D01*
X184753333Y-126261333D01*
X185039047Y-126213714D02*
X185420000Y-126213714D01*
X185181904Y-125880380D02*
X185181904Y-126737523D01*
X185229523Y-126832761D01*
X185324761Y-126880380D01*
X185420000Y-126880380D01*
X185753333Y-126880380D02*
X185753333Y-126213714D01*
X185753333Y-125880380D02*
X185705714Y-125928000D01*
X185753333Y-125975619D01*
X185800952Y-125928000D01*
X185753333Y-125880380D01*
X185753333Y-125975619D01*
X186134285Y-126213714D02*
X186372380Y-126880380D01*
X186610476Y-126213714D01*
X187372380Y-126832761D02*
X187277142Y-126880380D01*
X187086666Y-126880380D01*
X186991428Y-126832761D01*
X186943809Y-126737523D01*
X186943809Y-126356571D01*
X186991428Y-126261333D01*
X187086666Y-126213714D01*
X187277142Y-126213714D01*
X187372380Y-126261333D01*
X187420000Y-126356571D01*
X187420000Y-126451809D01*
X186943809Y-126547047D01*
X172696619Y-125309761D02*
X172839476Y-125357380D01*
X173077571Y-125357380D01*
X173172809Y-125309761D01*
X173220428Y-125262142D01*
X173268047Y-125166904D01*
X173268047Y-125071666D01*
X173220428Y-124976428D01*
X173172809Y-124928809D01*
X173077571Y-124881190D01*
X172887095Y-124833571D01*
X172791857Y-124785952D01*
X172744238Y-124738333D01*
X172696619Y-124643095D01*
X172696619Y-124547857D01*
X172744238Y-124452619D01*
X172791857Y-124405000D01*
X172887095Y-124357380D01*
X173125190Y-124357380D01*
X173268047Y-124405000D01*
X173696619Y-125357380D02*
X173696619Y-124690714D01*
X173696619Y-124357380D02*
X173649000Y-124405000D01*
X173696619Y-124452619D01*
X173744238Y-124405000D01*
X173696619Y-124357380D01*
X173696619Y-124452619D01*
X174601380Y-124690714D02*
X174601380Y-125500238D01*
X174553761Y-125595476D01*
X174506142Y-125643095D01*
X174410904Y-125690714D01*
X174268047Y-125690714D01*
X174172809Y-125643095D01*
X174601380Y-125309761D02*
X174506142Y-125357380D01*
X174315666Y-125357380D01*
X174220428Y-125309761D01*
X174172809Y-125262142D01*
X174125190Y-125166904D01*
X174125190Y-124881190D01*
X174172809Y-124785952D01*
X174220428Y-124738333D01*
X174315666Y-124690714D01*
X174506142Y-124690714D01*
X174601380Y-124738333D01*
X175077571Y-124690714D02*
X175077571Y-125357380D01*
X175077571Y-124785952D02*
X175125190Y-124738333D01*
X175220428Y-124690714D01*
X175363285Y-124690714D01*
X175458523Y-124738333D01*
X175506142Y-124833571D01*
X175506142Y-125357380D01*
X176410904Y-125357380D02*
X176410904Y-124833571D01*
X176363285Y-124738333D01*
X176268047Y-124690714D01*
X176077571Y-124690714D01*
X175982333Y-124738333D01*
X176410904Y-125309761D02*
X176315666Y-125357380D01*
X176077571Y-125357380D01*
X175982333Y-125309761D01*
X175934714Y-125214523D01*
X175934714Y-125119285D01*
X175982333Y-125024047D01*
X176077571Y-124976428D01*
X176315666Y-124976428D01*
X176410904Y-124928809D01*
X177029952Y-125357380D02*
X176934714Y-125309761D01*
X176887095Y-125214523D01*
X176887095Y-124357380D01*
X177410904Y-125357380D02*
X177410904Y-124357380D01*
X177410904Y-124738333D02*
X177506142Y-124690714D01*
X177696619Y-124690714D01*
X177791857Y-124738333D01*
X177839476Y-124785952D01*
X177887095Y-124881190D01*
X177887095Y-125166904D01*
X177839476Y-125262142D01*
X177791857Y-125309761D01*
X177696619Y-125357380D01*
X177506142Y-125357380D01*
X177410904Y-125309761D01*
X178458523Y-125357380D02*
X178363285Y-125309761D01*
X178315666Y-125262142D01*
X178268047Y-125166904D01*
X178268047Y-124881190D01*
X178315666Y-124785952D01*
X178363285Y-124738333D01*
X178458523Y-124690714D01*
X178601380Y-124690714D01*
X178696619Y-124738333D01*
X178744238Y-124785952D01*
X178791857Y-124881190D01*
X178791857Y-125166904D01*
X178744238Y-125262142D01*
X178696619Y-125309761D01*
X178601380Y-125357380D01*
X178458523Y-125357380D01*
X179125190Y-125357380D02*
X179649000Y-124690714D01*
X179125190Y-124690714D02*
X179649000Y-125357380D01*
X173149000Y-127007380D02*
X173149000Y-126007380D01*
X173387095Y-126007380D01*
X173529952Y-126055000D01*
X173625190Y-126150238D01*
X173672809Y-126245476D01*
X173720428Y-126435952D01*
X173720428Y-126578809D01*
X173672809Y-126769285D01*
X173625190Y-126864523D01*
X173529952Y-126959761D01*
X173387095Y-127007380D01*
X173149000Y-127007380D01*
X174529952Y-126959761D02*
X174434714Y-127007380D01*
X174244238Y-127007380D01*
X174149000Y-126959761D01*
X174101380Y-126864523D01*
X174101380Y-126483571D01*
X174149000Y-126388333D01*
X174244238Y-126340714D01*
X174434714Y-126340714D01*
X174529952Y-126388333D01*
X174577571Y-126483571D01*
X174577571Y-126578809D01*
X174101380Y-126674047D01*
X174863285Y-126340714D02*
X175244238Y-126340714D01*
X175006142Y-126007380D02*
X175006142Y-126864523D01*
X175053761Y-126959761D01*
X175149000Y-127007380D01*
X175244238Y-127007380D01*
X175958523Y-126959761D02*
X175863285Y-127007380D01*
X175672809Y-127007380D01*
X175577571Y-126959761D01*
X175529952Y-126864523D01*
X175529952Y-126483571D01*
X175577571Y-126388333D01*
X175672809Y-126340714D01*
X175863285Y-126340714D01*
X175958523Y-126388333D01*
X176006142Y-126483571D01*
X176006142Y-126578809D01*
X175529952Y-126674047D01*
X176863285Y-126959761D02*
X176768047Y-127007380D01*
X176577571Y-127007380D01*
X176482333Y-126959761D01*
X176434714Y-126912142D01*
X176387095Y-126816904D01*
X176387095Y-126531190D01*
X176434714Y-126435952D01*
X176482333Y-126388333D01*
X176577571Y-126340714D01*
X176768047Y-126340714D01*
X176863285Y-126388333D01*
X177149000Y-126340714D02*
X177529952Y-126340714D01*
X177291857Y-126007380D02*
X177291857Y-126864523D01*
X177339476Y-126959761D01*
X177434714Y-127007380D01*
X177529952Y-127007380D01*
X178244238Y-126959761D02*
X178149000Y-127007380D01*
X177958523Y-127007380D01*
X177863285Y-126959761D01*
X177815666Y-126864523D01*
X177815666Y-126483571D01*
X177863285Y-126388333D01*
X177958523Y-126340714D01*
X178149000Y-126340714D01*
X178244238Y-126388333D01*
X178291857Y-126483571D01*
X178291857Y-126578809D01*
X177815666Y-126674047D01*
X179149000Y-127007380D02*
X179149000Y-126007380D01*
X179149000Y-126959761D02*
X179053761Y-127007380D01*
X178863285Y-127007380D01*
X178768047Y-126959761D01*
X178720428Y-126912142D01*
X178672809Y-126816904D01*
X178672809Y-126531190D01*
X178720428Y-126435952D01*
X178768047Y-126388333D01*
X178863285Y-126340714D01*
X179053761Y-126340714D01*
X179149000Y-126388333D01*
X165290666Y-124357380D02*
X165528761Y-125357380D01*
X165719238Y-124643095D01*
X165909714Y-125357380D01*
X166147809Y-124357380D01*
X166528761Y-125357380D02*
X166528761Y-124690714D01*
X166528761Y-124357380D02*
X166481142Y-124405000D01*
X166528761Y-124452619D01*
X166576380Y-124405000D01*
X166528761Y-124357380D01*
X166528761Y-124452619D01*
X167338285Y-124833571D02*
X167004952Y-124833571D01*
X167004952Y-125357380D02*
X167004952Y-124357380D01*
X167481142Y-124357380D01*
X167862095Y-125357380D02*
X167862095Y-124690714D01*
X167862095Y-124357380D02*
X167814476Y-124405000D01*
X167862095Y-124452619D01*
X167909714Y-124405000D01*
X167862095Y-124357380D01*
X167862095Y-124452619D01*
X163552571Y-126912142D02*
X163504952Y-126959761D01*
X163362095Y-127007380D01*
X163266857Y-127007380D01*
X163124000Y-126959761D01*
X163028761Y-126864523D01*
X162981142Y-126769285D01*
X162933523Y-126578809D01*
X162933523Y-126435952D01*
X162981142Y-126245476D01*
X163028761Y-126150238D01*
X163124000Y-126055000D01*
X163266857Y-126007380D01*
X163362095Y-126007380D01*
X163504952Y-126055000D01*
X163552571Y-126102619D01*
X164124000Y-127007380D02*
X164028761Y-126959761D01*
X163981142Y-126912142D01*
X163933523Y-126816904D01*
X163933523Y-126531190D01*
X163981142Y-126435952D01*
X164028761Y-126388333D01*
X164124000Y-126340714D01*
X164266857Y-126340714D01*
X164362095Y-126388333D01*
X164409714Y-126435952D01*
X164457333Y-126531190D01*
X164457333Y-126816904D01*
X164409714Y-126912142D01*
X164362095Y-126959761D01*
X164266857Y-127007380D01*
X164124000Y-127007380D01*
X164885904Y-126340714D02*
X164885904Y-127007380D01*
X164885904Y-126435952D02*
X164933523Y-126388333D01*
X165028761Y-126340714D01*
X165171619Y-126340714D01*
X165266857Y-126388333D01*
X165314476Y-126483571D01*
X165314476Y-127007380D01*
X165790666Y-126340714D02*
X165790666Y-127007380D01*
X165790666Y-126435952D02*
X165838285Y-126388333D01*
X165933523Y-126340714D01*
X166076380Y-126340714D01*
X166171619Y-126388333D01*
X166219238Y-126483571D01*
X166219238Y-127007380D01*
X167076380Y-126959761D02*
X166981142Y-127007380D01*
X166790666Y-127007380D01*
X166695428Y-126959761D01*
X166647809Y-126864523D01*
X166647809Y-126483571D01*
X166695428Y-126388333D01*
X166790666Y-126340714D01*
X166981142Y-126340714D01*
X167076380Y-126388333D01*
X167124000Y-126483571D01*
X167124000Y-126578809D01*
X166647809Y-126674047D01*
X167981142Y-126959761D02*
X167885904Y-127007380D01*
X167695428Y-127007380D01*
X167600190Y-126959761D01*
X167552571Y-126912142D01*
X167504952Y-126816904D01*
X167504952Y-126531190D01*
X167552571Y-126435952D01*
X167600190Y-126388333D01*
X167695428Y-126340714D01*
X167885904Y-126340714D01*
X167981142Y-126388333D01*
X168266857Y-126340714D02*
X168647809Y-126340714D01*
X168409714Y-126007380D02*
X168409714Y-126864523D01*
X168457333Y-126959761D01*
X168552571Y-127007380D01*
X168647809Y-127007380D01*
X169362095Y-126959761D02*
X169266857Y-127007380D01*
X169076380Y-127007380D01*
X168981142Y-126959761D01*
X168933523Y-126864523D01*
X168933523Y-126483571D01*
X168981142Y-126388333D01*
X169076380Y-126340714D01*
X169266857Y-126340714D01*
X169362095Y-126388333D01*
X169409714Y-126483571D01*
X169409714Y-126578809D01*
X168933523Y-126674047D01*
X170266857Y-127007380D02*
X170266857Y-126007380D01*
X170266857Y-126959761D02*
X170171619Y-127007380D01*
X169981142Y-127007380D01*
X169885904Y-126959761D01*
X169838285Y-126912142D01*
X169790666Y-126816904D01*
X169790666Y-126531190D01*
X169838285Y-126435952D01*
X169885904Y-126388333D01*
X169981142Y-126340714D01*
X170171619Y-126340714D01*
X170266857Y-126388333D01*
X159829571Y-58047380D02*
X159496238Y-57571190D01*
X159258142Y-58047380D02*
X159258142Y-57047380D01*
X159639095Y-57047380D01*
X159734333Y-57095000D01*
X159781952Y-57142619D01*
X159829571Y-57237857D01*
X159829571Y-57380714D01*
X159781952Y-57475952D01*
X159734333Y-57523571D01*
X159639095Y-57571190D01*
X159258142Y-57571190D01*
X160639095Y-57999761D02*
X160543857Y-58047380D01*
X160353380Y-58047380D01*
X160258142Y-57999761D01*
X160210523Y-57904523D01*
X160210523Y-57523571D01*
X160258142Y-57428333D01*
X160353380Y-57380714D01*
X160543857Y-57380714D01*
X160639095Y-57428333D01*
X160686714Y-57523571D01*
X160686714Y-57618809D01*
X160210523Y-57714047D01*
X161543857Y-58047380D02*
X161543857Y-57047380D01*
X161543857Y-57999761D02*
X161448619Y-58047380D01*
X161258142Y-58047380D01*
X161162904Y-57999761D01*
X161115285Y-57952142D01*
X161067666Y-57856904D01*
X161067666Y-57571190D01*
X161115285Y-57475952D01*
X161162904Y-57428333D01*
X161258142Y-57380714D01*
X161448619Y-57380714D01*
X161543857Y-57428333D01*
X158258142Y-59649761D02*
X158401000Y-59697380D01*
X158639095Y-59697380D01*
X158734333Y-59649761D01*
X158781952Y-59602142D01*
X158829571Y-59506904D01*
X158829571Y-59411666D01*
X158781952Y-59316428D01*
X158734333Y-59268809D01*
X158639095Y-59221190D01*
X158448619Y-59173571D01*
X158353380Y-59125952D01*
X158305761Y-59078333D01*
X158258142Y-58983095D01*
X158258142Y-58887857D01*
X158305761Y-58792619D01*
X158353380Y-58745000D01*
X158448619Y-58697380D01*
X158686714Y-58697380D01*
X158829571Y-58745000D01*
X159258142Y-59697380D02*
X159258142Y-59030714D01*
X159258142Y-58697380D02*
X159210523Y-58745000D01*
X159258142Y-58792619D01*
X159305761Y-58745000D01*
X159258142Y-58697380D01*
X159258142Y-58792619D01*
X160162904Y-59030714D02*
X160162904Y-59840238D01*
X160115285Y-59935476D01*
X160067666Y-59983095D01*
X159972428Y-60030714D01*
X159829571Y-60030714D01*
X159734333Y-59983095D01*
X160162904Y-59649761D02*
X160067666Y-59697380D01*
X159877190Y-59697380D01*
X159781952Y-59649761D01*
X159734333Y-59602142D01*
X159686714Y-59506904D01*
X159686714Y-59221190D01*
X159734333Y-59125952D01*
X159781952Y-59078333D01*
X159877190Y-59030714D01*
X160067666Y-59030714D01*
X160162904Y-59078333D01*
X160639095Y-59030714D02*
X160639095Y-59697380D01*
X160639095Y-59125952D02*
X160686714Y-59078333D01*
X160781952Y-59030714D01*
X160924809Y-59030714D01*
X161020047Y-59078333D01*
X161067666Y-59173571D01*
X161067666Y-59697380D01*
X161972428Y-59697380D02*
X161972428Y-59173571D01*
X161924809Y-59078333D01*
X161829571Y-59030714D01*
X161639095Y-59030714D01*
X161543857Y-59078333D01*
X161972428Y-59649761D02*
X161877190Y-59697380D01*
X161639095Y-59697380D01*
X161543857Y-59649761D01*
X161496238Y-59554523D01*
X161496238Y-59459285D01*
X161543857Y-59364047D01*
X161639095Y-59316428D01*
X161877190Y-59316428D01*
X161972428Y-59268809D01*
X162591476Y-59697380D02*
X162496238Y-59649761D01*
X162448619Y-59554523D01*
X162448619Y-58697380D01*
X173648857Y-57095000D02*
X173553619Y-57047380D01*
X173410761Y-57047380D01*
X173267904Y-57095000D01*
X173172666Y-57190238D01*
X173125047Y-57285476D01*
X173077428Y-57475952D01*
X173077428Y-57618809D01*
X173125047Y-57809285D01*
X173172666Y-57904523D01*
X173267904Y-57999761D01*
X173410761Y-58047380D01*
X173506000Y-58047380D01*
X173648857Y-57999761D01*
X173696476Y-57952142D01*
X173696476Y-57618809D01*
X173506000Y-57618809D01*
X174125047Y-58047380D02*
X174125047Y-57380714D01*
X174125047Y-57571190D02*
X174172666Y-57475952D01*
X174220285Y-57428333D01*
X174315523Y-57380714D01*
X174410761Y-57380714D01*
X175125047Y-57999761D02*
X175029809Y-58047380D01*
X174839333Y-58047380D01*
X174744095Y-57999761D01*
X174696476Y-57904523D01*
X174696476Y-57523571D01*
X174744095Y-57428333D01*
X174839333Y-57380714D01*
X175029809Y-57380714D01*
X175125047Y-57428333D01*
X175172666Y-57523571D01*
X175172666Y-57618809D01*
X174696476Y-57714047D01*
X175982190Y-57999761D02*
X175886952Y-58047380D01*
X175696476Y-58047380D01*
X175601238Y-57999761D01*
X175553619Y-57904523D01*
X175553619Y-57523571D01*
X175601238Y-57428333D01*
X175696476Y-57380714D01*
X175886952Y-57380714D01*
X175982190Y-57428333D01*
X176029809Y-57523571D01*
X176029809Y-57618809D01*
X175553619Y-57714047D01*
X176458380Y-57380714D02*
X176458380Y-58047380D01*
X176458380Y-57475952D02*
X176506000Y-57428333D01*
X176601238Y-57380714D01*
X176744095Y-57380714D01*
X176839333Y-57428333D01*
X176886952Y-57523571D01*
X176886952Y-58047380D01*
X172863142Y-59649761D02*
X173006000Y-59697380D01*
X173244095Y-59697380D01*
X173339333Y-59649761D01*
X173386952Y-59602142D01*
X173434571Y-59506904D01*
X173434571Y-59411666D01*
X173386952Y-59316428D01*
X173339333Y-59268809D01*
X173244095Y-59221190D01*
X173053619Y-59173571D01*
X172958380Y-59125952D01*
X172910761Y-59078333D01*
X172863142Y-58983095D01*
X172863142Y-58887857D01*
X172910761Y-58792619D01*
X172958380Y-58745000D01*
X173053619Y-58697380D01*
X173291714Y-58697380D01*
X173434571Y-58745000D01*
X173863142Y-59697380D02*
X173863142Y-59030714D01*
X173863142Y-58697380D02*
X173815523Y-58745000D01*
X173863142Y-58792619D01*
X173910761Y-58745000D01*
X173863142Y-58697380D01*
X173863142Y-58792619D01*
X174767904Y-59030714D02*
X174767904Y-59840238D01*
X174720285Y-59935476D01*
X174672666Y-59983095D01*
X174577428Y-60030714D01*
X174434571Y-60030714D01*
X174339333Y-59983095D01*
X174767904Y-59649761D02*
X174672666Y-59697380D01*
X174482190Y-59697380D01*
X174386952Y-59649761D01*
X174339333Y-59602142D01*
X174291714Y-59506904D01*
X174291714Y-59221190D01*
X174339333Y-59125952D01*
X174386952Y-59078333D01*
X174482190Y-59030714D01*
X174672666Y-59030714D01*
X174767904Y-59078333D01*
X175244095Y-59030714D02*
X175244095Y-59697380D01*
X175244095Y-59125952D02*
X175291714Y-59078333D01*
X175386952Y-59030714D01*
X175529809Y-59030714D01*
X175625047Y-59078333D01*
X175672666Y-59173571D01*
X175672666Y-59697380D01*
X176577428Y-59697380D02*
X176577428Y-59173571D01*
X176529809Y-59078333D01*
X176434571Y-59030714D01*
X176244095Y-59030714D01*
X176148857Y-59078333D01*
X176577428Y-59649761D02*
X176482190Y-59697380D01*
X176244095Y-59697380D01*
X176148857Y-59649761D01*
X176101238Y-59554523D01*
X176101238Y-59459285D01*
X176148857Y-59364047D01*
X176244095Y-59316428D01*
X176482190Y-59316428D01*
X176577428Y-59268809D01*
X177196476Y-59697380D02*
X177101238Y-59649761D01*
X177053619Y-59554523D01*
X177053619Y-58697380D01*
X137461809Y-57491761D02*
X137604666Y-57539380D01*
X137842761Y-57539380D01*
X137938000Y-57491761D01*
X137985619Y-57444142D01*
X138033238Y-57348904D01*
X138033238Y-57253666D01*
X137985619Y-57158428D01*
X137938000Y-57110809D01*
X137842761Y-57063190D01*
X137652285Y-57015571D01*
X137557047Y-56967952D01*
X137509428Y-56920333D01*
X137461809Y-56825095D01*
X137461809Y-56729857D01*
X137509428Y-56634619D01*
X137557047Y-56587000D01*
X137652285Y-56539380D01*
X137890380Y-56539380D01*
X138033238Y-56587000D01*
X138318952Y-56872714D02*
X138699904Y-56872714D01*
X138461809Y-56539380D02*
X138461809Y-57396523D01*
X138509428Y-57491761D01*
X138604666Y-57539380D01*
X138699904Y-57539380D01*
X139176095Y-57539380D02*
X139080857Y-57491761D01*
X139033238Y-57444142D01*
X138985619Y-57348904D01*
X138985619Y-57063190D01*
X139033238Y-56967952D01*
X139080857Y-56920333D01*
X139176095Y-56872714D01*
X139318952Y-56872714D01*
X139414190Y-56920333D01*
X139461809Y-56967952D01*
X139509428Y-57063190D01*
X139509428Y-57348904D01*
X139461809Y-57444142D01*
X139414190Y-57491761D01*
X139318952Y-57539380D01*
X139176095Y-57539380D01*
X139938000Y-56872714D02*
X139938000Y-57872714D01*
X139938000Y-56920333D02*
X140033238Y-56872714D01*
X140223714Y-56872714D01*
X140318952Y-56920333D01*
X140366571Y-56967952D01*
X140414190Y-57063190D01*
X140414190Y-57348904D01*
X140366571Y-57444142D01*
X140318952Y-57491761D01*
X140223714Y-57539380D01*
X140033238Y-57539380D01*
X139938000Y-57491761D01*
X137080857Y-58665571D02*
X137223714Y-58713190D01*
X137271333Y-58760809D01*
X137318952Y-58856047D01*
X137318952Y-58998904D01*
X137271333Y-59094142D01*
X137223714Y-59141761D01*
X137128476Y-59189380D01*
X136747523Y-59189380D01*
X136747523Y-58189380D01*
X137080857Y-58189380D01*
X137176095Y-58237000D01*
X137223714Y-58284619D01*
X137271333Y-58379857D01*
X137271333Y-58475095D01*
X137223714Y-58570333D01*
X137176095Y-58617952D01*
X137080857Y-58665571D01*
X136747523Y-58665571D01*
X138176095Y-58522714D02*
X138176095Y-59189380D01*
X137747523Y-58522714D02*
X137747523Y-59046523D01*
X137795142Y-59141761D01*
X137890380Y-59189380D01*
X138033238Y-59189380D01*
X138128476Y-59141761D01*
X138176095Y-59094142D01*
X138509428Y-58522714D02*
X138890380Y-58522714D01*
X138652285Y-58189380D02*
X138652285Y-59046523D01*
X138699904Y-59141761D01*
X138795142Y-59189380D01*
X138890380Y-59189380D01*
X139080857Y-58522714D02*
X139461809Y-58522714D01*
X139223714Y-58189380D02*
X139223714Y-59046523D01*
X139271333Y-59141761D01*
X139366571Y-59189380D01*
X139461809Y-59189380D01*
X139938000Y-59189380D02*
X139842761Y-59141761D01*
X139795142Y-59094142D01*
X139747523Y-58998904D01*
X139747523Y-58713190D01*
X139795142Y-58617952D01*
X139842761Y-58570333D01*
X139938000Y-58522714D01*
X140080857Y-58522714D01*
X140176095Y-58570333D01*
X140223714Y-58617952D01*
X140271333Y-58713190D01*
X140271333Y-58998904D01*
X140223714Y-59094142D01*
X140176095Y-59141761D01*
X140080857Y-59189380D01*
X139938000Y-59189380D01*
X140699904Y-58522714D02*
X140699904Y-59189380D01*
X140699904Y-58617952D02*
X140747523Y-58570333D01*
X140842761Y-58522714D01*
X140985619Y-58522714D01*
X141080857Y-58570333D01*
X141128476Y-58665571D01*
X141128476Y-59189380D01*
X133390952Y-134120380D02*
X133390952Y-133120380D01*
X133629047Y-133120380D01*
X133771904Y-133168000D01*
X133867142Y-133263238D01*
X133914761Y-133358476D01*
X133962380Y-133548952D01*
X133962380Y-133691809D01*
X133914761Y-133882285D01*
X133867142Y-133977523D01*
X133771904Y-134072761D01*
X133629047Y-134120380D01*
X133390952Y-134120380D01*
X134390952Y-134120380D02*
X134390952Y-133453714D01*
X134390952Y-133120380D02*
X134343333Y-133168000D01*
X134390952Y-133215619D01*
X134438571Y-133168000D01*
X134390952Y-133120380D01*
X134390952Y-133215619D01*
X134819523Y-134072761D02*
X134914761Y-134120380D01*
X135105238Y-134120380D01*
X135200476Y-134072761D01*
X135248095Y-133977523D01*
X135248095Y-133929904D01*
X135200476Y-133834666D01*
X135105238Y-133787047D01*
X134962380Y-133787047D01*
X134867142Y-133739428D01*
X134819523Y-133644190D01*
X134819523Y-133596571D01*
X134867142Y-133501333D01*
X134962380Y-133453714D01*
X135105238Y-133453714D01*
X135200476Y-133501333D01*
X136105238Y-134072761D02*
X136010000Y-134120380D01*
X135819523Y-134120380D01*
X135724285Y-134072761D01*
X135676666Y-134025142D01*
X135629047Y-133929904D01*
X135629047Y-133644190D01*
X135676666Y-133548952D01*
X135724285Y-133501333D01*
X135819523Y-133453714D01*
X136010000Y-133453714D01*
X136105238Y-133501333D01*
X136676666Y-134120380D02*
X136581428Y-134072761D01*
X136533809Y-134025142D01*
X136486190Y-133929904D01*
X136486190Y-133644190D01*
X136533809Y-133548952D01*
X136581428Y-133501333D01*
X136676666Y-133453714D01*
X136819523Y-133453714D01*
X136914761Y-133501333D01*
X136962380Y-133548952D01*
X137010000Y-133644190D01*
X137010000Y-133929904D01*
X136962380Y-134025142D01*
X136914761Y-134072761D01*
X136819523Y-134120380D01*
X136676666Y-134120380D01*
X137438571Y-133453714D02*
X137438571Y-134120380D01*
X137438571Y-133548952D02*
X137486190Y-133501333D01*
X137581428Y-133453714D01*
X137724285Y-133453714D01*
X137819523Y-133501333D01*
X137867142Y-133596571D01*
X137867142Y-134120380D01*
X138343333Y-133453714D02*
X138343333Y-134120380D01*
X138343333Y-133548952D02*
X138390952Y-133501333D01*
X138486190Y-133453714D01*
X138629047Y-133453714D01*
X138724285Y-133501333D01*
X138771904Y-133596571D01*
X138771904Y-134120380D01*
X139629047Y-134072761D02*
X139533809Y-134120380D01*
X139343333Y-134120380D01*
X139248095Y-134072761D01*
X139200476Y-133977523D01*
X139200476Y-133596571D01*
X139248095Y-133501333D01*
X139343333Y-133453714D01*
X139533809Y-133453714D01*
X139629047Y-133501333D01*
X139676666Y-133596571D01*
X139676666Y-133691809D01*
X139200476Y-133787047D01*
X140533809Y-134072761D02*
X140438571Y-134120380D01*
X140248095Y-134120380D01*
X140152857Y-134072761D01*
X140105238Y-134025142D01*
X140057619Y-133929904D01*
X140057619Y-133644190D01*
X140105238Y-133548952D01*
X140152857Y-133501333D01*
X140248095Y-133453714D01*
X140438571Y-133453714D01*
X140533809Y-133501333D01*
X140819523Y-133453714D02*
X141200476Y-133453714D01*
X140962380Y-133120380D02*
X140962380Y-133977523D01*
X141010000Y-134072761D01*
X141105238Y-134120380D01*
X141200476Y-134120380D01*
X142295714Y-133596571D02*
X142629047Y-133596571D01*
X142771904Y-134120380D02*
X142295714Y-134120380D01*
X142295714Y-133120380D01*
X142771904Y-133120380D01*
X143105238Y-134120380D02*
X143629047Y-133453714D01*
X143105238Y-133453714D02*
X143629047Y-134120380D01*
X143867142Y-133453714D02*
X144248095Y-133453714D01*
X144010000Y-133120380D02*
X144010000Y-133977523D01*
X144057619Y-134072761D01*
X144152857Y-134120380D01*
X144248095Y-134120380D01*
X144962380Y-134072761D02*
X144867142Y-134120380D01*
X144676666Y-134120380D01*
X144581428Y-134072761D01*
X144533809Y-133977523D01*
X144533809Y-133596571D01*
X144581428Y-133501333D01*
X144676666Y-133453714D01*
X144867142Y-133453714D01*
X144962380Y-133501333D01*
X145010000Y-133596571D01*
X145010000Y-133691809D01*
X144533809Y-133787047D01*
X145438571Y-134120380D02*
X145438571Y-133453714D01*
X145438571Y-133644190D02*
X145486190Y-133548952D01*
X145533809Y-133501333D01*
X145629047Y-133453714D01*
X145724285Y-133453714D01*
X146057619Y-133453714D02*
X146057619Y-134120380D01*
X146057619Y-133548952D02*
X146105238Y-133501333D01*
X146200476Y-133453714D01*
X146343333Y-133453714D01*
X146438571Y-133501333D01*
X146486190Y-133596571D01*
X146486190Y-134120380D01*
X147390952Y-134120380D02*
X147390952Y-133596571D01*
X147343333Y-133501333D01*
X147248095Y-133453714D01*
X147057619Y-133453714D01*
X146962380Y-133501333D01*
X147390952Y-134072761D02*
X147295714Y-134120380D01*
X147057619Y-134120380D01*
X146962380Y-134072761D01*
X146914761Y-133977523D01*
X146914761Y-133882285D01*
X146962380Y-133787047D01*
X147057619Y-133739428D01*
X147295714Y-133739428D01*
X147390952Y-133691809D01*
X148010000Y-134120380D02*
X147914761Y-134072761D01*
X147867142Y-133977523D01*
X147867142Y-133120380D01*
X149105238Y-134072761D02*
X149248095Y-134120380D01*
X149486190Y-134120380D01*
X149581428Y-134072761D01*
X149629047Y-134025142D01*
X149676666Y-133929904D01*
X149676666Y-133834666D01*
X149629047Y-133739428D01*
X149581428Y-133691809D01*
X149486190Y-133644190D01*
X149295714Y-133596571D01*
X149200476Y-133548952D01*
X149152857Y-133501333D01*
X149105238Y-133406095D01*
X149105238Y-133310857D01*
X149152857Y-133215619D01*
X149200476Y-133168000D01*
X149295714Y-133120380D01*
X149533809Y-133120380D01*
X149676666Y-133168000D01*
X150533809Y-133453714D02*
X150533809Y-134120380D01*
X150105238Y-133453714D02*
X150105238Y-133977523D01*
X150152857Y-134072761D01*
X150248095Y-134120380D01*
X150390952Y-134120380D01*
X150486190Y-134072761D01*
X150533809Y-134025142D01*
X151010000Y-133453714D02*
X151010000Y-134453714D01*
X151010000Y-133501333D02*
X151105238Y-133453714D01*
X151295714Y-133453714D01*
X151390952Y-133501333D01*
X151438571Y-133548952D01*
X151486190Y-133644190D01*
X151486190Y-133929904D01*
X151438571Y-134025142D01*
X151390952Y-134072761D01*
X151295714Y-134120380D01*
X151105238Y-134120380D01*
X151010000Y-134072761D01*
X151914761Y-133453714D02*
X151914761Y-134453714D01*
X151914761Y-133501333D02*
X152010000Y-133453714D01*
X152200476Y-133453714D01*
X152295714Y-133501333D01*
X152343333Y-133548952D01*
X152390952Y-133644190D01*
X152390952Y-133929904D01*
X152343333Y-134025142D01*
X152295714Y-134072761D01*
X152200476Y-134120380D01*
X152010000Y-134120380D01*
X151914761Y-134072761D01*
X152962380Y-134120380D02*
X152867142Y-134072761D01*
X152819523Y-133977523D01*
X152819523Y-133120380D01*
X153248095Y-133453714D02*
X153486190Y-134120380D01*
X153724285Y-133453714D02*
X153486190Y-134120380D01*
X153390952Y-134358476D01*
X153343333Y-134406095D01*
X153248095Y-134453714D01*
X137129047Y-135770380D02*
X137129047Y-134770380D01*
X137129047Y-135151333D02*
X137224285Y-135103714D01*
X137414761Y-135103714D01*
X137510000Y-135151333D01*
X137557619Y-135198952D01*
X137605238Y-135294190D01*
X137605238Y-135579904D01*
X137557619Y-135675142D01*
X137510000Y-135722761D01*
X137414761Y-135770380D01*
X137224285Y-135770380D01*
X137129047Y-135722761D01*
X138414761Y-135722761D02*
X138319523Y-135770380D01*
X138129047Y-135770380D01*
X138033809Y-135722761D01*
X137986190Y-135627523D01*
X137986190Y-135246571D01*
X138033809Y-135151333D01*
X138129047Y-135103714D01*
X138319523Y-135103714D01*
X138414761Y-135151333D01*
X138462380Y-135246571D01*
X138462380Y-135341809D01*
X137986190Y-135437047D01*
X138748095Y-135103714D02*
X139129047Y-135103714D01*
X138890952Y-135770380D02*
X138890952Y-134913238D01*
X138938571Y-134818000D01*
X139033809Y-134770380D01*
X139129047Y-134770380D01*
X139605238Y-135770380D02*
X139510000Y-135722761D01*
X139462380Y-135675142D01*
X139414761Y-135579904D01*
X139414761Y-135294190D01*
X139462380Y-135198952D01*
X139510000Y-135151333D01*
X139605238Y-135103714D01*
X139748095Y-135103714D01*
X139843333Y-135151333D01*
X139890952Y-135198952D01*
X139938571Y-135294190D01*
X139938571Y-135579904D01*
X139890952Y-135675142D01*
X139843333Y-135722761D01*
X139748095Y-135770380D01*
X139605238Y-135770380D01*
X140367142Y-135770380D02*
X140367142Y-135103714D01*
X140367142Y-135294190D02*
X140414761Y-135198952D01*
X140462380Y-135151333D01*
X140557619Y-135103714D01*
X140652857Y-135103714D01*
X141367142Y-135722761D02*
X141271904Y-135770380D01*
X141081428Y-135770380D01*
X140986190Y-135722761D01*
X140938571Y-135627523D01*
X140938571Y-135246571D01*
X140986190Y-135151333D01*
X141081428Y-135103714D01*
X141271904Y-135103714D01*
X141367142Y-135151333D01*
X141414761Y-135246571D01*
X141414761Y-135341809D01*
X140938571Y-135437047D01*
X143033809Y-135103714D02*
X143033809Y-135770380D01*
X142605238Y-135103714D02*
X142605238Y-135627523D01*
X142652857Y-135722761D01*
X142748095Y-135770380D01*
X142890952Y-135770380D01*
X142986190Y-135722761D01*
X143033809Y-135675142D01*
X143462380Y-135722761D02*
X143557619Y-135770380D01*
X143748095Y-135770380D01*
X143843333Y-135722761D01*
X143890952Y-135627523D01*
X143890952Y-135579904D01*
X143843333Y-135484666D01*
X143748095Y-135437047D01*
X143605238Y-135437047D01*
X143510000Y-135389428D01*
X143462380Y-135294190D01*
X143462380Y-135246571D01*
X143510000Y-135151333D01*
X143605238Y-135103714D01*
X143748095Y-135103714D01*
X143843333Y-135151333D01*
X144319523Y-135770380D02*
X144319523Y-135103714D01*
X144319523Y-134770380D02*
X144271904Y-134818000D01*
X144319523Y-134865619D01*
X144367142Y-134818000D01*
X144319523Y-134770380D01*
X144319523Y-134865619D01*
X144795714Y-135103714D02*
X144795714Y-135770380D01*
X144795714Y-135198952D02*
X144843333Y-135151333D01*
X144938571Y-135103714D01*
X145081428Y-135103714D01*
X145176666Y-135151333D01*
X145224285Y-135246571D01*
X145224285Y-135770380D01*
X146129047Y-135103714D02*
X146129047Y-135913238D01*
X146081428Y-136008476D01*
X146033809Y-136056095D01*
X145938571Y-136103714D01*
X145795714Y-136103714D01*
X145700476Y-136056095D01*
X146129047Y-135722761D02*
X146033809Y-135770380D01*
X145843333Y-135770380D01*
X145748095Y-135722761D01*
X145700476Y-135675142D01*
X145652857Y-135579904D01*
X145652857Y-135294190D01*
X145700476Y-135198952D01*
X145748095Y-135151333D01*
X145843333Y-135103714D01*
X146033809Y-135103714D01*
X146129047Y-135151333D01*
X147367142Y-134770380D02*
X147367142Y-135579904D01*
X147414761Y-135675142D01*
X147462380Y-135722761D01*
X147557619Y-135770380D01*
X147748095Y-135770380D01*
X147843333Y-135722761D01*
X147890952Y-135675142D01*
X147938571Y-135579904D01*
X147938571Y-134770380D01*
X148367142Y-135722761D02*
X148510000Y-135770380D01*
X148748095Y-135770380D01*
X148843333Y-135722761D01*
X148890952Y-135675142D01*
X148938571Y-135579904D01*
X148938571Y-135484666D01*
X148890952Y-135389428D01*
X148843333Y-135341809D01*
X148748095Y-135294190D01*
X148557619Y-135246571D01*
X148462380Y-135198952D01*
X148414761Y-135151333D01*
X148367142Y-135056095D01*
X148367142Y-134960857D01*
X148414761Y-134865619D01*
X148462380Y-134818000D01*
X148557619Y-134770380D01*
X148795714Y-134770380D01*
X148938571Y-134818000D01*
X149700476Y-135246571D02*
X149843333Y-135294190D01*
X149890952Y-135341809D01*
X149938571Y-135437047D01*
X149938571Y-135579904D01*
X149890952Y-135675142D01*
X149843333Y-135722761D01*
X149748095Y-135770380D01*
X149367142Y-135770380D01*
X149367142Y-134770380D01*
X149700476Y-134770380D01*
X149795714Y-134818000D01*
X149843333Y-134865619D01*
X149890952Y-134960857D01*
X149890952Y-135056095D01*
X149843333Y-135151333D01*
X149795714Y-135198952D01*
X149700476Y-135246571D01*
X149367142Y-135246571D01*
X161727619Y-132358380D02*
X161965714Y-133358380D01*
X162156190Y-132644095D01*
X162346666Y-133358380D01*
X162584761Y-132358380D01*
X163346666Y-133310761D02*
X163251428Y-133358380D01*
X163060952Y-133358380D01*
X162965714Y-133310761D01*
X162918095Y-133215523D01*
X162918095Y-132834571D01*
X162965714Y-132739333D01*
X163060952Y-132691714D01*
X163251428Y-132691714D01*
X163346666Y-132739333D01*
X163394285Y-132834571D01*
X163394285Y-132929809D01*
X162918095Y-133025047D01*
X163775238Y-133310761D02*
X163870476Y-133358380D01*
X164060952Y-133358380D01*
X164156190Y-133310761D01*
X164203809Y-133215523D01*
X164203809Y-133167904D01*
X164156190Y-133072666D01*
X164060952Y-133025047D01*
X163918095Y-133025047D01*
X163822857Y-132977428D01*
X163775238Y-132882190D01*
X163775238Y-132834571D01*
X163822857Y-132739333D01*
X163918095Y-132691714D01*
X164060952Y-132691714D01*
X164156190Y-132739333D01*
X164489523Y-132691714D02*
X164870476Y-132691714D01*
X164632380Y-132358380D02*
X164632380Y-133215523D01*
X164680000Y-133310761D01*
X164775238Y-133358380D01*
X164870476Y-133358380D01*
X165965714Y-133358380D02*
X165965714Y-132358380D01*
X165965714Y-132834571D02*
X166537142Y-132834571D01*
X166537142Y-133358380D02*
X166537142Y-132358380D01*
X167441904Y-132691714D02*
X167441904Y-133358380D01*
X167013333Y-132691714D02*
X167013333Y-133215523D01*
X167060952Y-133310761D01*
X167156190Y-133358380D01*
X167299047Y-133358380D01*
X167394285Y-133310761D01*
X167441904Y-133263142D01*
X167918095Y-132691714D02*
X167918095Y-133358380D01*
X167918095Y-132786952D02*
X167965714Y-132739333D01*
X168060952Y-132691714D01*
X168203809Y-132691714D01*
X168299047Y-132739333D01*
X168346666Y-132834571D01*
X168346666Y-133358380D01*
X168680000Y-132691714D02*
X169060952Y-132691714D01*
X168822857Y-132358380D02*
X168822857Y-133215523D01*
X168870476Y-133310761D01*
X168965714Y-133358380D01*
X169060952Y-133358380D01*
X169346666Y-133310761D02*
X169441904Y-133358380D01*
X169632380Y-133358380D01*
X169727619Y-133310761D01*
X169775238Y-133215523D01*
X169775238Y-133167904D01*
X169727619Y-133072666D01*
X169632380Y-133025047D01*
X169489523Y-133025047D01*
X169394285Y-132977428D01*
X169346666Y-132882190D01*
X169346666Y-132834571D01*
X169394285Y-132739333D01*
X169489523Y-132691714D01*
X169632380Y-132691714D01*
X169727619Y-132739333D01*
X170203809Y-132691714D02*
X170203809Y-133691714D01*
X170203809Y-132739333D02*
X170299047Y-132691714D01*
X170489523Y-132691714D01*
X170584761Y-132739333D01*
X170632380Y-132786952D01*
X170680000Y-132882190D01*
X170680000Y-133167904D01*
X170632380Y-133263142D01*
X170584761Y-133310761D01*
X170489523Y-133358380D01*
X170299047Y-133358380D01*
X170203809Y-133310761D01*
X171108571Y-133358380D02*
X171108571Y-132691714D01*
X171108571Y-132358380D02*
X171060952Y-132406000D01*
X171108571Y-132453619D01*
X171156190Y-132406000D01*
X171108571Y-132358380D01*
X171108571Y-132453619D01*
X171727619Y-133358380D02*
X171632380Y-133310761D01*
X171584761Y-133215523D01*
X171584761Y-132358380D01*
X172251428Y-133358380D02*
X172156190Y-133310761D01*
X172108571Y-133215523D01*
X172108571Y-132358380D01*
X173965714Y-133358380D02*
X173632380Y-132882190D01*
X173394285Y-133358380D02*
X173394285Y-132358380D01*
X173775238Y-132358380D01*
X173870476Y-132406000D01*
X173918095Y-132453619D01*
X173965714Y-132548857D01*
X173965714Y-132691714D01*
X173918095Y-132786952D01*
X173870476Y-132834571D01*
X173775238Y-132882190D01*
X173394285Y-132882190D01*
X174822857Y-133358380D02*
X174822857Y-132834571D01*
X174775238Y-132739333D01*
X174680000Y-132691714D01*
X174489523Y-132691714D01*
X174394285Y-132739333D01*
X174822857Y-133310761D02*
X174727619Y-133358380D01*
X174489523Y-133358380D01*
X174394285Y-133310761D01*
X174346666Y-133215523D01*
X174346666Y-133120285D01*
X174394285Y-133025047D01*
X174489523Y-132977428D01*
X174727619Y-132977428D01*
X174822857Y-132929809D01*
X175299047Y-133358380D02*
X175299047Y-132691714D01*
X175299047Y-132358380D02*
X175251428Y-132406000D01*
X175299047Y-132453619D01*
X175346666Y-132406000D01*
X175299047Y-132358380D01*
X175299047Y-132453619D01*
X175918095Y-133358380D02*
X175822857Y-133310761D01*
X175775238Y-133215523D01*
X175775238Y-132358380D01*
X176203809Y-132691714D02*
X176394285Y-133358380D01*
X176584761Y-132882190D01*
X176775238Y-133358380D01*
X176965714Y-132691714D01*
X177775238Y-133358380D02*
X177775238Y-132834571D01*
X177727619Y-132739333D01*
X177632380Y-132691714D01*
X177441904Y-132691714D01*
X177346666Y-132739333D01*
X177775238Y-133310761D02*
X177680000Y-133358380D01*
X177441904Y-133358380D01*
X177346666Y-133310761D01*
X177299047Y-133215523D01*
X177299047Y-133120285D01*
X177346666Y-133025047D01*
X177441904Y-132977428D01*
X177680000Y-132977428D01*
X177775238Y-132929809D01*
X178156190Y-132691714D02*
X178394285Y-133358380D01*
X178632380Y-132691714D02*
X178394285Y-133358380D01*
X178299047Y-133596476D01*
X178251428Y-133644095D01*
X178156190Y-133691714D01*
X159227619Y-134960761D02*
X159370476Y-135008380D01*
X159608571Y-135008380D01*
X159703809Y-134960761D01*
X159751428Y-134913142D01*
X159799047Y-134817904D01*
X159799047Y-134722666D01*
X159751428Y-134627428D01*
X159703809Y-134579809D01*
X159608571Y-134532190D01*
X159418095Y-134484571D01*
X159322857Y-134436952D01*
X159275238Y-134389333D01*
X159227619Y-134294095D01*
X159227619Y-134198857D01*
X159275238Y-134103619D01*
X159322857Y-134056000D01*
X159418095Y-134008380D01*
X159656190Y-134008380D01*
X159799047Y-134056000D01*
X160608571Y-134960761D02*
X160513333Y-135008380D01*
X160322857Y-135008380D01*
X160227619Y-134960761D01*
X160180000Y-134865523D01*
X160180000Y-134484571D01*
X160227619Y-134389333D01*
X160322857Y-134341714D01*
X160513333Y-134341714D01*
X160608571Y-134389333D01*
X160656190Y-134484571D01*
X160656190Y-134579809D01*
X160180000Y-134675047D01*
X161084761Y-134341714D02*
X161084761Y-135008380D01*
X161084761Y-134436952D02*
X161132380Y-134389333D01*
X161227619Y-134341714D01*
X161370476Y-134341714D01*
X161465714Y-134389333D01*
X161513333Y-134484571D01*
X161513333Y-135008380D01*
X161941904Y-134960761D02*
X162037142Y-135008380D01*
X162227619Y-135008380D01*
X162322857Y-134960761D01*
X162370476Y-134865523D01*
X162370476Y-134817904D01*
X162322857Y-134722666D01*
X162227619Y-134675047D01*
X162084761Y-134675047D01*
X161989523Y-134627428D01*
X161941904Y-134532190D01*
X161941904Y-134484571D01*
X161989523Y-134389333D01*
X162084761Y-134341714D01*
X162227619Y-134341714D01*
X162322857Y-134389333D01*
X162941904Y-135008380D02*
X162846666Y-134960761D01*
X162799047Y-134913142D01*
X162751428Y-134817904D01*
X162751428Y-134532190D01*
X162799047Y-134436952D01*
X162846666Y-134389333D01*
X162941904Y-134341714D01*
X163084761Y-134341714D01*
X163180000Y-134389333D01*
X163227619Y-134436952D01*
X163275238Y-134532190D01*
X163275238Y-134817904D01*
X163227619Y-134913142D01*
X163180000Y-134960761D01*
X163084761Y-135008380D01*
X162941904Y-135008380D01*
X163703809Y-135008380D02*
X163703809Y-134341714D01*
X163703809Y-134532190D02*
X163751428Y-134436952D01*
X163799047Y-134389333D01*
X163894285Y-134341714D01*
X163989523Y-134341714D01*
X165894285Y-135008380D02*
X165846666Y-135008380D01*
X165751428Y-134960761D01*
X165608571Y-134817904D01*
X165370476Y-134532190D01*
X165275238Y-134389333D01*
X165227619Y-134246476D01*
X165227619Y-134151238D01*
X165275238Y-134056000D01*
X165370476Y-134008380D01*
X165418095Y-134008380D01*
X165513333Y-134056000D01*
X165560952Y-134151238D01*
X165560952Y-134198857D01*
X165513333Y-134294095D01*
X165465714Y-134341714D01*
X165180000Y-134532190D01*
X165132380Y-134579809D01*
X165084761Y-134675047D01*
X165084761Y-134817904D01*
X165132380Y-134913142D01*
X165180000Y-134960761D01*
X165275238Y-135008380D01*
X165418095Y-135008380D01*
X165513333Y-134960761D01*
X165560952Y-134913142D01*
X165703809Y-134722666D01*
X165751428Y-134579809D01*
X165751428Y-134484571D01*
X167560952Y-135008380D02*
X167084761Y-135008380D01*
X167084761Y-134008380D01*
X167894285Y-135008380D02*
X167894285Y-134341714D01*
X167894285Y-134008380D02*
X167846666Y-134056000D01*
X167894285Y-134103619D01*
X167941904Y-134056000D01*
X167894285Y-134008380D01*
X167894285Y-134103619D01*
X168799047Y-134341714D02*
X168799047Y-135151238D01*
X168751428Y-135246476D01*
X168703809Y-135294095D01*
X168608571Y-135341714D01*
X168465714Y-135341714D01*
X168370476Y-135294095D01*
X168799047Y-134960761D02*
X168703809Y-135008380D01*
X168513333Y-135008380D01*
X168418095Y-134960761D01*
X168370476Y-134913142D01*
X168322857Y-134817904D01*
X168322857Y-134532190D01*
X168370476Y-134436952D01*
X168418095Y-134389333D01*
X168513333Y-134341714D01*
X168703809Y-134341714D01*
X168799047Y-134389333D01*
X169275238Y-135008380D02*
X169275238Y-134008380D01*
X169703809Y-135008380D02*
X169703809Y-134484571D01*
X169656190Y-134389333D01*
X169560952Y-134341714D01*
X169418095Y-134341714D01*
X169322857Y-134389333D01*
X169275238Y-134436952D01*
X170037142Y-134341714D02*
X170418095Y-134341714D01*
X170180000Y-134008380D02*
X170180000Y-134865523D01*
X170227619Y-134960761D01*
X170322857Y-135008380D01*
X170418095Y-135008380D01*
X170703809Y-134960761D02*
X170799047Y-135008380D01*
X170989523Y-135008380D01*
X171084761Y-134960761D01*
X171132380Y-134865523D01*
X171132380Y-134817904D01*
X171084761Y-134722666D01*
X170989523Y-134675047D01*
X170846666Y-134675047D01*
X170751428Y-134627428D01*
X170703809Y-134532190D01*
X170703809Y-134484571D01*
X170751428Y-134389333D01*
X170846666Y-134341714D01*
X170989523Y-134341714D01*
X171084761Y-134389333D01*
X172322857Y-135008380D02*
X172322857Y-134008380D01*
X172656190Y-134722666D01*
X172989523Y-134008380D01*
X172989523Y-135008380D01*
X173608571Y-135008380D02*
X173513333Y-134960761D01*
X173465714Y-134913142D01*
X173418095Y-134817904D01*
X173418095Y-134532190D01*
X173465714Y-134436952D01*
X173513333Y-134389333D01*
X173608571Y-134341714D01*
X173751428Y-134341714D01*
X173846666Y-134389333D01*
X173894285Y-134436952D01*
X173941904Y-134532190D01*
X173941904Y-134817904D01*
X173894285Y-134913142D01*
X173846666Y-134960761D01*
X173751428Y-135008380D01*
X173608571Y-135008380D01*
X174799047Y-135008380D02*
X174799047Y-134008380D01*
X174799047Y-134960761D02*
X174703809Y-135008380D01*
X174513333Y-135008380D01*
X174418095Y-134960761D01*
X174370476Y-134913142D01*
X174322857Y-134817904D01*
X174322857Y-134532190D01*
X174370476Y-134436952D01*
X174418095Y-134389333D01*
X174513333Y-134341714D01*
X174703809Y-134341714D01*
X174799047Y-134389333D01*
X175703809Y-134341714D02*
X175703809Y-135008380D01*
X175275238Y-134341714D02*
X175275238Y-134865523D01*
X175322857Y-134960761D01*
X175418095Y-135008380D01*
X175560952Y-135008380D01*
X175656190Y-134960761D01*
X175703809Y-134913142D01*
X176322857Y-135008380D02*
X176227619Y-134960761D01*
X176180000Y-134865523D01*
X176180000Y-134008380D01*
X177084761Y-134960761D02*
X176989523Y-135008380D01*
X176799047Y-135008380D01*
X176703809Y-134960761D01*
X176656190Y-134865523D01*
X176656190Y-134484571D01*
X176703809Y-134389333D01*
X176799047Y-134341714D01*
X176989523Y-134341714D01*
X177084761Y-134389333D01*
X177132380Y-134484571D01*
X177132380Y-134579809D01*
X176656190Y-134675047D01*
X178180000Y-134008380D02*
X178513333Y-135008380D01*
X178846666Y-134008380D01*
X179703809Y-135008380D02*
X179132380Y-135008380D01*
X179418095Y-135008380D02*
X179418095Y-134008380D01*
X179322857Y-134151238D01*
X179227619Y-134246476D01*
X179132380Y-134294095D01*
X180132380Y-134913142D02*
X180180000Y-134960761D01*
X180132380Y-135008380D01*
X180084761Y-134960761D01*
X180132380Y-134913142D01*
X180132380Y-135008380D01*
X181132380Y-135008380D02*
X180560952Y-135008380D01*
X180846666Y-135008380D02*
X180846666Y-134008380D01*
X180751428Y-134151238D01*
X180656190Y-134246476D01*
X180560952Y-134294095D01*
D10*
%TO.C,RV2*%
X177902000Y-100711000D02*
X177902000Y-107823000D01*
X182474000Y-100711000D02*
X177902000Y-100711000D01*
X182474000Y-107823000D02*
X182474000Y-100711000D01*
X177902000Y-107823000D02*
X182474000Y-107823000D01*
%TO.C,RV1*%
X172212000Y-100711000D02*
X172212000Y-107823000D01*
X176784000Y-100711000D02*
X172212000Y-100711000D01*
X176784000Y-107823000D02*
X176784000Y-100711000D01*
X172212000Y-107823000D02*
X176784000Y-107823000D01*
%TO.C,C1*%
X149555000Y-67564000D02*
G75*
G03*
X149555000Y-67564000I-2120000J0D01*
G01*
D13*
G36*
X148209000Y-65532000D02*
G01*
X148971000Y-66040000D01*
X149479000Y-66802000D01*
X149555000Y-67564000D01*
X149479000Y-68326000D01*
X148971000Y-69088000D01*
X148209000Y-69596000D01*
X147435000Y-69684000D01*
X147447000Y-68326000D01*
X148971000Y-68326000D01*
X148971000Y-66802000D01*
X147447000Y-66802000D01*
X147435000Y-65444000D01*
X148209000Y-65532000D01*
G37*
X148209000Y-65532000D02*
X148971000Y-66040000D01*
X149479000Y-66802000D01*
X149555000Y-67564000D01*
X149479000Y-68326000D01*
X148971000Y-69088000D01*
X148209000Y-69596000D01*
X147435000Y-69684000D01*
X147447000Y-68326000D01*
X148971000Y-68326000D01*
X148971000Y-66802000D01*
X147447000Y-66802000D01*
X147435000Y-65444000D01*
X148209000Y-65532000D01*
D10*
X144145000Y-66040000D02*
X145161000Y-66040000D01*
X144653000Y-65532000D02*
X144653000Y-66548000D01*
%TO.C,C4*%
X134757001Y-72829001D02*
G75*
G03*
X134757001Y-72829001I-2120000J0D01*
G01*
D13*
G36*
X133157001Y-70797001D02*
G01*
X133919001Y-71051001D01*
X134427001Y-71559001D01*
X134681001Y-72321001D01*
X134681001Y-73337001D01*
X134173001Y-74353001D01*
X133411001Y-74861001D01*
X132637001Y-74949001D01*
X132649001Y-73591001D01*
X134173001Y-73591001D01*
X134173001Y-72067001D01*
X132649001Y-72067001D01*
X132637001Y-70709001D01*
X133157001Y-70797001D01*
G37*
X133157001Y-70797001D02*
X133919001Y-71051001D01*
X134427001Y-71559001D01*
X134681001Y-72321001D01*
X134681001Y-73337001D01*
X134173001Y-74353001D01*
X133411001Y-74861001D01*
X132637001Y-74949001D01*
X132649001Y-73591001D01*
X134173001Y-73591001D01*
X134173001Y-72067001D01*
X132649001Y-72067001D01*
X132637001Y-70709001D01*
X133157001Y-70797001D01*
D10*
X129347001Y-71559001D02*
X130363001Y-71559001D01*
X129855001Y-72067001D02*
X129855001Y-71051001D01*
%TO.C,J5*%
X136398000Y-55880000D02*
X141478000Y-55880000D01*
X136398000Y-48260000D02*
X141478000Y-48260000D01*
X136398000Y-50546000D02*
X141478000Y-50546000D01*
X141478000Y-53340000D02*
X141478000Y-55880000D01*
X136398000Y-55880000D02*
X136398000Y-48260000D01*
X141478000Y-48260000D02*
X141478000Y-53340000D01*
%TO.C,J2*%
X114046000Y-55880000D02*
X119126000Y-55880000D01*
X114046000Y-48260000D02*
X119126000Y-48260000D01*
X114046000Y-50546000D02*
X119126000Y-50546000D01*
X119126000Y-53340000D02*
X119126000Y-55880000D01*
X114046000Y-55880000D02*
X114046000Y-48260000D01*
X119126000Y-48260000D02*
X119126000Y-53340000D01*
%TO.C,U3*%
X131174000Y-57725000D02*
X129524000Y-57725000D01*
X131174000Y-68005000D02*
X131174000Y-57725000D01*
X125874000Y-68005000D02*
X131174000Y-68005000D01*
X125874000Y-57725000D02*
X125874000Y-68005000D01*
X127524000Y-57725000D02*
X125874000Y-57725000D01*
X129524000Y-57725000D02*
G75*
G02*
X127524000Y-57725000I-1000000J0D01*
G01*
%TO.C,J4*%
X155829000Y-56007000D02*
X164973000Y-56007000D01*
X155829000Y-48387000D02*
X164973000Y-48387000D01*
X155829000Y-50165000D02*
X164973000Y-50165000D01*
X164973000Y-53467000D02*
X164973000Y-56007000D01*
X155829000Y-56007000D02*
X155829000Y-48387000D01*
X164973000Y-48387000D02*
X164973000Y-53467000D01*
%TO.C,J3*%
X170053000Y-56134000D02*
X179197000Y-56134000D01*
X170053000Y-48514000D02*
X179197000Y-48514000D01*
X170053000Y-50292000D02*
X179197000Y-50292000D01*
X179197000Y-53594000D02*
X179197000Y-56134000D01*
X170053000Y-56134000D02*
X170053000Y-48514000D01*
X179197000Y-48514000D02*
X179197000Y-53594000D01*
%TO.C,J1*%
X125476000Y-55880000D02*
X134620000Y-55880000D01*
X125476000Y-48260000D02*
X134620000Y-48260000D01*
X125476000Y-50038000D02*
X134620000Y-50038000D01*
X134620000Y-53340000D02*
X134620000Y-55880000D01*
X125476000Y-55880000D02*
X125476000Y-48260000D01*
X134620000Y-48260000D02*
X134620000Y-53340000D01*
%TO.C,U2*%
X129667000Y-132588000D02*
X129667000Y-84328000D01*
X157607000Y-84328000D02*
X157607000Y-132588000D01*
X153797000Y-84328000D02*
X157607000Y-84328000D01*
X153797000Y-79502000D02*
X153797000Y-84328000D01*
X133477000Y-79502000D02*
X153797000Y-79502000D01*
X133477000Y-84328000D02*
X133477000Y-79502000D01*
X129667000Y-84328000D02*
X133477000Y-84328000D01*
X131637000Y-132582000D02*
X129667000Y-132588000D01*
X155637000Y-132582000D02*
X157607000Y-132588000D01*
X131637000Y-132582000D02*
X155637000Y-132582000D01*
X139637000Y-126582000D02*
X139637000Y-132582000D01*
X147637000Y-126582000D02*
X147637000Y-132582000D01*
X139637000Y-126582000D02*
X147637000Y-126582000D01*
X134747000Y-80828000D02*
X152527000Y-80828000D01*
X152527000Y-80828000D02*
X152527000Y-85908000D01*
X152527000Y-85908000D02*
X134747000Y-85908000D01*
X134747000Y-85908000D02*
X134747000Y-80828000D01*
X136017000Y-85146000D02*
X136017000Y-81590000D01*
X136017000Y-81590000D02*
X138557000Y-81590000D01*
X138557000Y-81590000D02*
X138557000Y-83622000D01*
X138557000Y-83622000D02*
X141097000Y-83622000D01*
X141097000Y-83622000D02*
X141097000Y-81590000D01*
X141097000Y-81590000D02*
X143637000Y-81590000D01*
X143637000Y-81590000D02*
X143637000Y-83622000D01*
X143637000Y-83622000D02*
X146177000Y-83622000D01*
X146177000Y-83622000D02*
X146177000Y-81590000D01*
X146177000Y-81590000D02*
X151257000Y-81590000D01*
X151257000Y-81590000D02*
X151257000Y-85146000D01*
X148717000Y-81590000D02*
X148717000Y-85146000D01*
X136137000Y-86558000D02*
X151137000Y-86558000D01*
X151137000Y-86558000D02*
X151137000Y-104558000D01*
X151137000Y-104558000D02*
X136137000Y-104558000D01*
X136137000Y-104558000D02*
X136137000Y-86558000D01*
D14*
X138957000Y-102418000D02*
G75*
G03*
X138957000Y-102418000I-400000J0D01*
G01*
D10*
X149987000Y-128072000D02*
X152527000Y-128072000D01*
X152527000Y-128072000D02*
X152527000Y-131882000D01*
X152527000Y-131882000D02*
X149987000Y-131882000D01*
X149987000Y-131882000D02*
X149987000Y-128072000D01*
X137287000Y-131882000D02*
X134747000Y-131882000D01*
X134747000Y-131882000D02*
X134747000Y-128072000D01*
X134747000Y-128072000D02*
X137287000Y-128072000D01*
X137287000Y-128072000D02*
X137287000Y-131882000D01*
D15*
X136317000Y-129977000D02*
G75*
G03*
X136317000Y-129977000I-300000J0D01*
G01*
X151557000Y-129977000D02*
G75*
G03*
X151557000Y-129977000I-300000J0D01*
G01*
D10*
%TO.C,SW1*%
X122519000Y-94428000D02*
X121269000Y-94428000D01*
X122519000Y-104708000D02*
X122519000Y-94428000D01*
X118019000Y-104708000D02*
X122519000Y-104708000D01*
X118019000Y-94428000D02*
X118019000Y-104708000D01*
X119269000Y-94428000D02*
X118019000Y-94428000D01*
X121269000Y-94428000D02*
G75*
G02*
X119269000Y-94428000I-1000000J0D01*
G01*
%TO.C,U1*%
X108458000Y-106680000D02*
X106172000Y-106680000D01*
X106172000Y-106680000D02*
X106172000Y-96520000D01*
X106172000Y-96520000D02*
X108458000Y-96520000D01*
X108458000Y-96520000D02*
X108458000Y-106680000D01*
X108458000Y-104140000D02*
X106172000Y-104140000D01*
X110490000Y-124206000D02*
X110490000Y-78994000D01*
X110490000Y-78994000D02*
X108458000Y-78994000D01*
X108458000Y-78994000D02*
X108458000Y-81026000D01*
X108458000Y-81026000D02*
X96266000Y-81026000D01*
X96266000Y-122174000D02*
X108458000Y-122174000D01*
X108458000Y-122174000D02*
X108458000Y-124206000D01*
X108458000Y-124206000D02*
X110490000Y-124206000D01*
X96266000Y-96266000D02*
X108458000Y-96266000D01*
X96266000Y-106934000D02*
X108458000Y-106934000D01*
X108458000Y-106680000D02*
X108458000Y-106934000D01*
X108458000Y-106934000D02*
X108458000Y-96266000D01*
X96266000Y-122174000D02*
X96266000Y-106934000D01*
X96266000Y-96266000D02*
X96266000Y-81026000D01*
%TO.C,C2*%
X141463776Y-67548001D02*
G75*
G03*
X141463776Y-67548001I-2620000J0D01*
G01*
X138843776Y-68588001D02*
X138843776Y-70128001D01*
X138843776Y-64968001D02*
X138843776Y-66508001D01*
X138883776Y-68588001D02*
X138883776Y-70128001D01*
X138883776Y-64968001D02*
X138883776Y-66508001D01*
X138923776Y-64969001D02*
X138923776Y-66508001D01*
X138923776Y-68588001D02*
X138923776Y-70127001D01*
X138963776Y-64970001D02*
X138963776Y-66508001D01*
X138963776Y-68588001D02*
X138963776Y-70126001D01*
X139003776Y-64972001D02*
X139003776Y-66508001D01*
X139003776Y-68588001D02*
X139003776Y-70124001D01*
X139043776Y-64975001D02*
X139043776Y-66508001D01*
X139043776Y-68588001D02*
X139043776Y-70121001D01*
X139083776Y-64979001D02*
X139083776Y-66508001D01*
X139083776Y-68588001D02*
X139083776Y-70117001D01*
X139123776Y-64983001D02*
X139123776Y-66508001D01*
X139123776Y-68588001D02*
X139123776Y-70113001D01*
X139163776Y-64987001D02*
X139163776Y-66508001D01*
X139163776Y-68588001D02*
X139163776Y-70109001D01*
X139203776Y-64992001D02*
X139203776Y-66508001D01*
X139203776Y-68588001D02*
X139203776Y-70104001D01*
X139243776Y-64998001D02*
X139243776Y-66508001D01*
X139243776Y-68588001D02*
X139243776Y-70098001D01*
X139283776Y-65005001D02*
X139283776Y-66508001D01*
X139283776Y-68588001D02*
X139283776Y-70091001D01*
X139323776Y-65012001D02*
X139323776Y-66508001D01*
X139323776Y-68588001D02*
X139323776Y-70084001D01*
X139363776Y-65020001D02*
X139363776Y-66508001D01*
X139363776Y-68588001D02*
X139363776Y-70076001D01*
X139403776Y-65028001D02*
X139403776Y-66508001D01*
X139403776Y-68588001D02*
X139403776Y-70068001D01*
X139443776Y-65037001D02*
X139443776Y-66508001D01*
X139443776Y-68588001D02*
X139443776Y-70059001D01*
X139483776Y-65047001D02*
X139483776Y-66508001D01*
X139483776Y-68588001D02*
X139483776Y-70049001D01*
X139523776Y-65057001D02*
X139523776Y-66508001D01*
X139523776Y-68588001D02*
X139523776Y-70039001D01*
X139564776Y-65068001D02*
X139564776Y-66508001D01*
X139564776Y-68588001D02*
X139564776Y-70028001D01*
X139604776Y-65080001D02*
X139604776Y-66508001D01*
X139604776Y-68588001D02*
X139604776Y-70016001D01*
X139644776Y-65093001D02*
X139644776Y-66508001D01*
X139644776Y-68588001D02*
X139644776Y-70003001D01*
X139684776Y-65106001D02*
X139684776Y-66508001D01*
X139684776Y-68588001D02*
X139684776Y-69990001D01*
X139724776Y-65120001D02*
X139724776Y-66508001D01*
X139724776Y-68588001D02*
X139724776Y-69976001D01*
X139764776Y-65134001D02*
X139764776Y-66508001D01*
X139764776Y-68588001D02*
X139764776Y-69962001D01*
X139804776Y-65150001D02*
X139804776Y-66508001D01*
X139804776Y-68588001D02*
X139804776Y-69946001D01*
X139844776Y-65166001D02*
X139844776Y-66508001D01*
X139844776Y-68588001D02*
X139844776Y-69930001D01*
X139884776Y-65183001D02*
X139884776Y-66508001D01*
X139884776Y-68588001D02*
X139884776Y-69913001D01*
X139924776Y-65200001D02*
X139924776Y-66508001D01*
X139924776Y-68588001D02*
X139924776Y-69896001D01*
X139964776Y-65219001D02*
X139964776Y-66508001D01*
X139964776Y-68588001D02*
X139964776Y-69877001D01*
X140004776Y-65238001D02*
X140004776Y-66508001D01*
X140004776Y-68588001D02*
X140004776Y-69858001D01*
X140044776Y-65258001D02*
X140044776Y-66508001D01*
X140044776Y-68588001D02*
X140044776Y-69838001D01*
X140084776Y-65280001D02*
X140084776Y-66508001D01*
X140084776Y-68588001D02*
X140084776Y-69816001D01*
X140124776Y-65301001D02*
X140124776Y-66508001D01*
X140124776Y-68588001D02*
X140124776Y-69795001D01*
X140164776Y-65324001D02*
X140164776Y-66508001D01*
X140164776Y-68588001D02*
X140164776Y-69772001D01*
X140204776Y-65348001D02*
X140204776Y-66508001D01*
X140204776Y-68588001D02*
X140204776Y-69748001D01*
X140244776Y-65373001D02*
X140244776Y-66508001D01*
X140244776Y-68588001D02*
X140244776Y-69723001D01*
X140284776Y-65399001D02*
X140284776Y-66508001D01*
X140284776Y-68588001D02*
X140284776Y-69697001D01*
X140324776Y-65426001D02*
X140324776Y-66508001D01*
X140324776Y-68588001D02*
X140324776Y-69670001D01*
X140364776Y-65453001D02*
X140364776Y-66508001D01*
X140364776Y-68588001D02*
X140364776Y-69643001D01*
X140404776Y-65483001D02*
X140404776Y-66508001D01*
X140404776Y-68588001D02*
X140404776Y-69613001D01*
X140444776Y-65513001D02*
X140444776Y-66508001D01*
X140444776Y-68588001D02*
X140444776Y-69583001D01*
X140484776Y-65544001D02*
X140484776Y-66508001D01*
X140484776Y-68588001D02*
X140484776Y-69552001D01*
X140524776Y-65577001D02*
X140524776Y-66508001D01*
X140524776Y-68588001D02*
X140524776Y-69519001D01*
X140564776Y-65611001D02*
X140564776Y-66508001D01*
X140564776Y-68588001D02*
X140564776Y-69485001D01*
X140604776Y-65647001D02*
X140604776Y-66508001D01*
X140604776Y-68588001D02*
X140604776Y-69449001D01*
X140644776Y-65684001D02*
X140644776Y-66508001D01*
X140644776Y-68588001D02*
X140644776Y-69412001D01*
X140684776Y-65722001D02*
X140684776Y-66508001D01*
X140684776Y-68588001D02*
X140684776Y-69374001D01*
X140724776Y-65763001D02*
X140724776Y-66508001D01*
X140724776Y-68588001D02*
X140724776Y-69333001D01*
X140764776Y-65805001D02*
X140764776Y-66508001D01*
X140764776Y-68588001D02*
X140764776Y-69291001D01*
X140804776Y-65849001D02*
X140804776Y-66508001D01*
X140804776Y-68588001D02*
X140804776Y-69247001D01*
X140844776Y-65895001D02*
X140844776Y-66508001D01*
X140844776Y-68588001D02*
X140844776Y-69201001D01*
X140884776Y-65943001D02*
X140884776Y-69153001D01*
X140924776Y-65994001D02*
X140924776Y-69102001D01*
X140964776Y-66048001D02*
X140964776Y-69048001D01*
X141004776Y-66105001D02*
X141004776Y-68991001D01*
X141044776Y-66165001D02*
X141044776Y-68931001D01*
X141084776Y-66229001D02*
X141084776Y-68867001D01*
X141124776Y-66297001D02*
X141124776Y-68799001D01*
X141164776Y-66370001D02*
X141164776Y-68726001D01*
X141204776Y-66450001D02*
X141204776Y-68646001D01*
X141244776Y-66537001D02*
X141244776Y-68559001D01*
X141284776Y-66633001D02*
X141284776Y-68463001D01*
X141324776Y-66743001D02*
X141324776Y-68353001D01*
X141364776Y-66871001D02*
X141364776Y-68225001D01*
X141404776Y-67030001D02*
X141404776Y-68066001D01*
X141444776Y-67264001D02*
X141444776Y-67832001D01*
X136039001Y-66073001D02*
X136539001Y-66073001D01*
X136289001Y-65823001D02*
X136289001Y-66323001D01*
%TO.C,C3*%
X107597001Y-69689001D02*
X117837001Y-69689001D01*
X107597001Y-73929001D02*
X117837001Y-73929001D01*
X107597001Y-69689001D02*
X107597001Y-73929001D01*
X117837001Y-69689001D02*
X117837001Y-73929001D01*
%TO.C,D1*%
X169251000Y-120269000D02*
G75*
G03*
X169251000Y-120269000I-2500000J0D01*
G01*
X164191000Y-118724000D02*
X164191000Y-121814000D01*
X169741000Y-120269462D02*
G75*
G03*
X164191000Y-118724170I-2990000J462D01*
G01*
X169741000Y-120268538D02*
G75*
G02*
X164191000Y-121813830I-2990000J-462D01*
G01*
%TO.C,D2*%
X173716000Y-118724000D02*
X173716000Y-121814000D01*
X178776000Y-120269000D02*
G75*
G03*
X178776000Y-120269000I-2500000J0D01*
G01*
X179266000Y-120268538D02*
G75*
G02*
X173716000Y-121813830I-2990000J-462D01*
G01*
X179266000Y-120269462D02*
G75*
G03*
X173716000Y-118724170I-2990000J462D01*
G01*
%TO.C,D3*%
X187920000Y-120269000D02*
G75*
G03*
X187920000Y-120269000I-2500000J0D01*
G01*
X182860000Y-118724000D02*
X182860000Y-121814000D01*
X188410000Y-120269462D02*
G75*
G03*
X182860000Y-118724170I-2990000J462D01*
G01*
X188410000Y-120268538D02*
G75*
G02*
X182860000Y-121813830I-2990000J-462D01*
G01*
%TO.C,D4*%
X169237000Y-61754000D02*
X169237000Y-63264000D01*
X165536000Y-61754000D02*
X165536000Y-63264000D01*
X162266000Y-63264000D02*
X172506000Y-63264000D01*
X172506000Y-61754000D02*
X172506000Y-66395000D01*
X162266000Y-61754000D02*
X162266000Y-66395000D01*
X162266000Y-66395000D02*
X172506000Y-66395000D01*
X162266000Y-61754000D02*
X172506000Y-61754000D01*
%TO.C,D5*%
X121457001Y-70839001D02*
X121457001Y-70709001D01*
X121457001Y-70709001D02*
X126897001Y-70709001D01*
X126897001Y-70709001D02*
X126897001Y-70839001D01*
X121457001Y-73519001D02*
X121457001Y-73649001D01*
X121457001Y-73649001D02*
X126897001Y-73649001D01*
X126897001Y-73649001D02*
X126897001Y-73519001D01*
X122357001Y-70709001D02*
X122357001Y-73649001D01*
X122477001Y-70709001D02*
X122477001Y-73649001D01*
X122237001Y-70709001D02*
X122237001Y-73649001D01*
%TO.C,JP1*%
X120717000Y-49216000D02*
X122047000Y-49216000D01*
X120717000Y-50546000D02*
X120717000Y-49216000D01*
X120717000Y-51816000D02*
X123377000Y-51816000D01*
X123377000Y-51816000D02*
X123377000Y-54416000D01*
X120717000Y-51816000D02*
X120717000Y-54416000D01*
X120717000Y-54416000D02*
X123377000Y-54416000D01*
%TO.C,JP2*%
X122241000Y-114868000D02*
X124901000Y-114868000D01*
X122241000Y-112268000D02*
X122241000Y-114868000D01*
X124901000Y-112268000D02*
X124901000Y-114868000D01*
X122241000Y-112268000D02*
X124901000Y-112268000D01*
X122241000Y-110998000D02*
X122241000Y-109668000D01*
X122241000Y-109668000D02*
X123571000Y-109668000D01*
%TO.C,JP3*%
X116145000Y-109668000D02*
X117475000Y-109668000D01*
X116145000Y-110998000D02*
X116145000Y-109668000D01*
X116145000Y-112268000D02*
X118805000Y-112268000D01*
X118805000Y-112268000D02*
X118805000Y-114868000D01*
X116145000Y-112268000D02*
X116145000Y-114868000D01*
X116145000Y-114868000D02*
X118805000Y-114868000D01*
%TO.C,JP4*%
X116018000Y-123758000D02*
X118678000Y-123758000D01*
X116018000Y-121158000D02*
X116018000Y-123758000D01*
X118678000Y-121158000D02*
X118678000Y-123758000D01*
X116018000Y-121158000D02*
X118678000Y-121158000D01*
X116018000Y-119888000D02*
X116018000Y-118558000D01*
X116018000Y-118558000D02*
X117348000Y-118558000D01*
%TO.C,L1*%
X122572001Y-59229001D02*
X122572001Y-68109001D01*
X107602001Y-59229001D02*
X107602001Y-68109001D01*
X116452001Y-68109001D02*
X122572001Y-68109001D01*
X107602001Y-68109001D02*
X113722001Y-68109001D01*
X116452001Y-59229001D02*
X122572001Y-59229001D01*
X107602001Y-59229001D02*
X113722001Y-59229001D01*
%TO.C,Q1*%
X170013000Y-72168000D02*
X180253000Y-72168000D01*
X170013000Y-76809000D02*
X180253000Y-76809000D01*
X170013000Y-72168000D02*
X170013000Y-76809000D01*
X180253000Y-72168000D02*
X180253000Y-76809000D01*
X170013000Y-73678000D02*
X180253000Y-73678000D01*
X173283000Y-72168000D02*
X173283000Y-73678000D01*
X176984000Y-72168000D02*
X176984000Y-73678000D01*
%TO.C,Q2*%
X155154000Y-72295000D02*
X165394000Y-72295000D01*
X155154000Y-76936000D02*
X165394000Y-76936000D01*
X155154000Y-72295000D02*
X155154000Y-76936000D01*
X165394000Y-72295000D02*
X165394000Y-76936000D01*
X155154000Y-73805000D02*
X165394000Y-73805000D01*
X158424000Y-72295000D02*
X158424000Y-73805000D01*
X162125000Y-72295000D02*
X162125000Y-73805000D01*
%TO.C,R1*%
X125126000Y-86345000D02*
X125126000Y-90185000D01*
X123286000Y-86345000D02*
X123286000Y-90185000D01*
%TO.C,R2*%
X121062000Y-81549000D02*
X121062000Y-77709000D01*
X119222000Y-81549000D02*
X119222000Y-77709000D01*
%TO.C,R3*%
X119222000Y-90185000D02*
X119222000Y-86345000D01*
X121062000Y-90185000D02*
X121062000Y-86345000D01*
%TO.C,R4*%
X117125000Y-90185000D02*
X117125000Y-86345000D01*
X115285000Y-90185000D02*
X115285000Y-86345000D01*
%TO.C,R5*%
X165085000Y-113696000D02*
X168925000Y-113696000D01*
X165085000Y-111856000D02*
X168925000Y-111856000D01*
%TO.C,R6*%
X176626000Y-82408000D02*
X176626000Y-86248000D01*
X178466000Y-82408000D02*
X178466000Y-86248000D01*
%TO.C,R7*%
X174229000Y-113696000D02*
X178069000Y-113696000D01*
X174229000Y-111856000D02*
X178069000Y-111856000D01*
%TO.C,R8*%
X183373000Y-111856000D02*
X187213000Y-111856000D01*
X183373000Y-113696000D02*
X187213000Y-113696000D01*
%TO.C,R9*%
X163861000Y-82535000D02*
X163861000Y-86375000D01*
X162021000Y-82535000D02*
X162021000Y-86375000D01*
%TO.C,R10*%
X163607000Y-101712000D02*
X163607000Y-105552000D01*
X161767000Y-101712000D02*
X161767000Y-105552000D01*
%TO.C,R11*%
X119222000Y-130698000D02*
X119222000Y-126858000D01*
X121062000Y-130698000D02*
X121062000Y-126858000D01*
%TO.C,R12*%
X124745000Y-130698000D02*
X124745000Y-126858000D01*
X122905000Y-130698000D02*
X122905000Y-126858000D01*
%TO.C,R13*%
X115158000Y-130698000D02*
X115158000Y-126858000D01*
X116998000Y-130698000D02*
X116998000Y-126858000D01*
%TO.C,RV2*%
D12*
X179744761Y-109418380D02*
X179411428Y-108942190D01*
X179173333Y-109418380D02*
X179173333Y-108418380D01*
X179554285Y-108418380D01*
X179649523Y-108466000D01*
X179697142Y-108513619D01*
X179744761Y-108608857D01*
X179744761Y-108751714D01*
X179697142Y-108846952D01*
X179649523Y-108894571D01*
X179554285Y-108942190D01*
X179173333Y-108942190D01*
X180030476Y-108418380D02*
X180363809Y-109418380D01*
X180697142Y-108418380D01*
X180982857Y-108513619D02*
X181030476Y-108466000D01*
X181125714Y-108418380D01*
X181363809Y-108418380D01*
X181459047Y-108466000D01*
X181506666Y-108513619D01*
X181554285Y-108608857D01*
X181554285Y-108704095D01*
X181506666Y-108846952D01*
X180935238Y-109418380D01*
X181554285Y-109418380D01*
%TO.C,RV1*%
X173902761Y-109418380D02*
X173569428Y-108942190D01*
X173331333Y-109418380D02*
X173331333Y-108418380D01*
X173712285Y-108418380D01*
X173807523Y-108466000D01*
X173855142Y-108513619D01*
X173902761Y-108608857D01*
X173902761Y-108751714D01*
X173855142Y-108846952D01*
X173807523Y-108894571D01*
X173712285Y-108942190D01*
X173331333Y-108942190D01*
X174188476Y-108418380D02*
X174521809Y-109418380D01*
X174855142Y-108418380D01*
X175712285Y-109418380D02*
X175140857Y-109418380D01*
X175426571Y-109418380D02*
X175426571Y-108418380D01*
X175331333Y-108561238D01*
X175236095Y-108656476D01*
X175140857Y-108704095D01*
%TO.C,C1*%
X147268333Y-64671142D02*
X147220714Y-64718761D01*
X147077857Y-64766380D01*
X146982619Y-64766380D01*
X146839761Y-64718761D01*
X146744523Y-64623523D01*
X146696904Y-64528285D01*
X146649285Y-64337809D01*
X146649285Y-64194952D01*
X146696904Y-64004476D01*
X146744523Y-63909238D01*
X146839761Y-63814000D01*
X146982619Y-63766380D01*
X147077857Y-63766380D01*
X147220714Y-63814000D01*
X147268333Y-63861619D01*
X148220714Y-64766380D02*
X147649285Y-64766380D01*
X147935000Y-64766380D02*
X147935000Y-63766380D01*
X147839761Y-63909238D01*
X147744523Y-64004476D01*
X147649285Y-64052095D01*
%TO.C,C4*%
X132470334Y-69936143D02*
X132422715Y-69983762D01*
X132279858Y-70031381D01*
X132184620Y-70031381D01*
X132041762Y-69983762D01*
X131946524Y-69888524D01*
X131898905Y-69793286D01*
X131851286Y-69602810D01*
X131851286Y-69459953D01*
X131898905Y-69269477D01*
X131946524Y-69174239D01*
X132041762Y-69079001D01*
X132184620Y-69031381D01*
X132279858Y-69031381D01*
X132422715Y-69079001D01*
X132470334Y-69126620D01*
X133327477Y-69364715D02*
X133327477Y-70031381D01*
X133089381Y-68983762D02*
X132851286Y-69698048D01*
X133470334Y-69698048D01*
%TO.C,J5*%
X134834380Y-53165333D02*
X135548666Y-53165333D01*
X135691523Y-53212952D01*
X135786761Y-53308190D01*
X135834380Y-53451047D01*
X135834380Y-53546285D01*
X134834380Y-52212952D02*
X134834380Y-52689142D01*
X135310571Y-52736761D01*
X135262952Y-52689142D01*
X135215333Y-52593904D01*
X135215333Y-52355809D01*
X135262952Y-52260571D01*
X135310571Y-52212952D01*
X135405809Y-52165333D01*
X135643904Y-52165333D01*
X135739142Y-52212952D01*
X135786761Y-52260571D01*
X135834380Y-52355809D01*
X135834380Y-52593904D01*
X135786761Y-52689142D01*
X135739142Y-52736761D01*
%TO.C,J2*%
X112482380Y-53165333D02*
X113196666Y-53165333D01*
X113339523Y-53212952D01*
X113434761Y-53308190D01*
X113482380Y-53451047D01*
X113482380Y-53546285D01*
X112577619Y-52736761D02*
X112530000Y-52689142D01*
X112482380Y-52593904D01*
X112482380Y-52355809D01*
X112530000Y-52260571D01*
X112577619Y-52212952D01*
X112672857Y-52165333D01*
X112768095Y-52165333D01*
X112910952Y-52212952D01*
X113482380Y-52784380D01*
X113482380Y-52165333D01*
%TO.C,U3*%
X123317095Y-56729380D02*
X123317095Y-57538904D01*
X123364714Y-57634142D01*
X123412333Y-57681761D01*
X123507571Y-57729380D01*
X123698047Y-57729380D01*
X123793285Y-57681761D01*
X123840904Y-57634142D01*
X123888523Y-57538904D01*
X123888523Y-56729380D01*
X124269476Y-56729380D02*
X124888523Y-56729380D01*
X124555190Y-57110333D01*
X124698047Y-57110333D01*
X124793285Y-57157952D01*
X124840904Y-57205571D01*
X124888523Y-57300809D01*
X124888523Y-57538904D01*
X124840904Y-57634142D01*
X124793285Y-57681761D01*
X124698047Y-57729380D01*
X124412333Y-57729380D01*
X124317095Y-57681761D01*
X124269476Y-57634142D01*
%TO.C,J4*%
X154265380Y-52276333D02*
X154979666Y-52276333D01*
X155122523Y-52323952D01*
X155217761Y-52419190D01*
X155265380Y-52562047D01*
X155265380Y-52657285D01*
X154598714Y-51371571D02*
X155265380Y-51371571D01*
X154217761Y-51609666D02*
X154932047Y-51847761D01*
X154932047Y-51228714D01*
%TO.C,J3*%
X168489380Y-52403333D02*
X169203666Y-52403333D01*
X169346523Y-52450952D01*
X169441761Y-52546190D01*
X169489380Y-52689047D01*
X169489380Y-52784285D01*
X168489380Y-52022380D02*
X168489380Y-51403333D01*
X168870333Y-51736666D01*
X168870333Y-51593809D01*
X168917952Y-51498571D01*
X168965571Y-51450952D01*
X169060809Y-51403333D01*
X169298904Y-51403333D01*
X169394142Y-51450952D01*
X169441761Y-51498571D01*
X169489380Y-51593809D01*
X169489380Y-51879523D01*
X169441761Y-51974761D01*
X169394142Y-52022380D01*
%TO.C,J1*%
X123912380Y-52149333D02*
X124626666Y-52149333D01*
X124769523Y-52196952D01*
X124864761Y-52292190D01*
X124912380Y-52435047D01*
X124912380Y-52530285D01*
X124912380Y-51149333D02*
X124912380Y-51720761D01*
X124912380Y-51435047D02*
X123912380Y-51435047D01*
X124055238Y-51530285D01*
X124150476Y-51625523D01*
X124198095Y-51720761D01*
%TO.C,U2*%
X129667095Y-81875380D02*
X129667095Y-82684904D01*
X129714714Y-82780142D01*
X129762333Y-82827761D01*
X129857571Y-82875380D01*
X130048047Y-82875380D01*
X130143285Y-82827761D01*
X130190904Y-82780142D01*
X130238523Y-82684904D01*
X130238523Y-81875380D01*
X130667095Y-81970619D02*
X130714714Y-81923000D01*
X130809952Y-81875380D01*
X131048047Y-81875380D01*
X131143285Y-81923000D01*
X131190904Y-81970619D01*
X131238523Y-82065857D01*
X131238523Y-82161095D01*
X131190904Y-82303952D01*
X130619476Y-82875380D01*
X131238523Y-82875380D01*
X133755095Y-126730571D02*
X134088428Y-126730571D01*
X134231285Y-127254380D02*
X133755095Y-127254380D01*
X133755095Y-126254380D01*
X134231285Y-126254380D01*
X134659857Y-126587714D02*
X134659857Y-127254380D01*
X134659857Y-126682952D02*
X134707476Y-126635333D01*
X134802714Y-126587714D01*
X134945571Y-126587714D01*
X135040809Y-126635333D01*
X135088428Y-126730571D01*
X135088428Y-127254380D01*
X135993190Y-127254380D02*
X135993190Y-126730571D01*
X135945571Y-126635333D01*
X135850333Y-126587714D01*
X135659857Y-126587714D01*
X135564619Y-126635333D01*
X135993190Y-127206761D02*
X135897952Y-127254380D01*
X135659857Y-127254380D01*
X135564619Y-127206761D01*
X135517000Y-127111523D01*
X135517000Y-127016285D01*
X135564619Y-126921047D01*
X135659857Y-126873428D01*
X135897952Y-126873428D01*
X135993190Y-126825809D01*
X136469380Y-127254380D02*
X136469380Y-126254380D01*
X136469380Y-126635333D02*
X136564619Y-126587714D01*
X136755095Y-126587714D01*
X136850333Y-126635333D01*
X136897952Y-126682952D01*
X136945571Y-126778190D01*
X136945571Y-127063904D01*
X136897952Y-127159142D01*
X136850333Y-127206761D01*
X136755095Y-127254380D01*
X136564619Y-127254380D01*
X136469380Y-127206761D01*
X137517000Y-127254380D02*
X137421761Y-127206761D01*
X137374142Y-127111523D01*
X137374142Y-126254380D01*
X138278904Y-127206761D02*
X138183666Y-127254380D01*
X137993190Y-127254380D01*
X137897952Y-127206761D01*
X137850333Y-127111523D01*
X137850333Y-126730571D01*
X137897952Y-126635333D01*
X137993190Y-126587714D01*
X138183666Y-126587714D01*
X138278904Y-126635333D01*
X138326523Y-126730571D01*
X138326523Y-126825809D01*
X137850333Y-126921047D01*
X150137952Y-126730571D02*
X150280809Y-126778190D01*
X150328428Y-126825809D01*
X150376047Y-126921047D01*
X150376047Y-127063904D01*
X150328428Y-127159142D01*
X150280809Y-127206761D01*
X150185571Y-127254380D01*
X149804619Y-127254380D01*
X149804619Y-126254380D01*
X150137952Y-126254380D01*
X150233190Y-126302000D01*
X150280809Y-126349619D01*
X150328428Y-126444857D01*
X150328428Y-126540095D01*
X150280809Y-126635333D01*
X150233190Y-126682952D01*
X150137952Y-126730571D01*
X149804619Y-126730571D01*
X150947476Y-127254380D02*
X150852238Y-127206761D01*
X150804619Y-127159142D01*
X150757000Y-127063904D01*
X150757000Y-126778190D01*
X150804619Y-126682952D01*
X150852238Y-126635333D01*
X150947476Y-126587714D01*
X151090333Y-126587714D01*
X151185571Y-126635333D01*
X151233190Y-126682952D01*
X151280809Y-126778190D01*
X151280809Y-127063904D01*
X151233190Y-127159142D01*
X151185571Y-127206761D01*
X151090333Y-127254380D01*
X150947476Y-127254380D01*
X151852238Y-127254380D02*
X151757000Y-127206761D01*
X151709380Y-127159142D01*
X151661761Y-127063904D01*
X151661761Y-126778190D01*
X151709380Y-126682952D01*
X151757000Y-126635333D01*
X151852238Y-126587714D01*
X151995095Y-126587714D01*
X152090333Y-126635333D01*
X152137952Y-126682952D01*
X152185571Y-126778190D01*
X152185571Y-127063904D01*
X152137952Y-127159142D01*
X152090333Y-127206761D01*
X151995095Y-127254380D01*
X151852238Y-127254380D01*
X152471285Y-126587714D02*
X152852238Y-126587714D01*
X152614142Y-126254380D02*
X152614142Y-127111523D01*
X152661761Y-127206761D01*
X152757000Y-127254380D01*
X152852238Y-127254380D01*
X142375095Y-130064380D02*
X142375095Y-130873904D01*
X142422714Y-130969142D01*
X142470333Y-131016761D01*
X142565571Y-131064380D01*
X142756047Y-131064380D01*
X142851285Y-131016761D01*
X142898904Y-130969142D01*
X142946523Y-130873904D01*
X142946523Y-130064380D01*
X143375095Y-131016761D02*
X143517952Y-131064380D01*
X143756047Y-131064380D01*
X143851285Y-131016761D01*
X143898904Y-130969142D01*
X143946523Y-130873904D01*
X143946523Y-130778666D01*
X143898904Y-130683428D01*
X143851285Y-130635809D01*
X143756047Y-130588190D01*
X143565571Y-130540571D01*
X143470333Y-130492952D01*
X143422714Y-130445333D01*
X143375095Y-130350095D01*
X143375095Y-130254857D01*
X143422714Y-130159619D01*
X143470333Y-130112000D01*
X143565571Y-130064380D01*
X143803666Y-130064380D01*
X143946523Y-130112000D01*
X144708428Y-130540571D02*
X144851285Y-130588190D01*
X144898904Y-130635809D01*
X144946523Y-130731047D01*
X144946523Y-130873904D01*
X144898904Y-130969142D01*
X144851285Y-131016761D01*
X144756047Y-131064380D01*
X144375095Y-131064380D01*
X144375095Y-130064380D01*
X144708428Y-130064380D01*
X144803666Y-130112000D01*
X144851285Y-130159619D01*
X144898904Y-130254857D01*
X144898904Y-130350095D01*
X144851285Y-130445333D01*
X144803666Y-130492952D01*
X144708428Y-130540571D01*
X144375095Y-130540571D01*
%TO.C,SW1*%
X118935666Y-93832761D02*
X119078523Y-93880380D01*
X119316619Y-93880380D01*
X119411857Y-93832761D01*
X119459476Y-93785142D01*
X119507095Y-93689904D01*
X119507095Y-93594666D01*
X119459476Y-93499428D01*
X119411857Y-93451809D01*
X119316619Y-93404190D01*
X119126142Y-93356571D01*
X119030904Y-93308952D01*
X118983285Y-93261333D01*
X118935666Y-93166095D01*
X118935666Y-93070857D01*
X118983285Y-92975619D01*
X119030904Y-92928000D01*
X119126142Y-92880380D01*
X119364238Y-92880380D01*
X119507095Y-92928000D01*
X119840428Y-92880380D02*
X120078523Y-93880380D01*
X120269000Y-93166095D01*
X120459476Y-93880380D01*
X120697571Y-92880380D01*
X121602333Y-93880380D02*
X121030904Y-93880380D01*
X121316619Y-93880380D02*
X121316619Y-92880380D01*
X121221380Y-93023238D01*
X121126142Y-93118476D01*
X121030904Y-93166095D01*
%TO.C,U1*%
X104354380Y-102234904D02*
X105163904Y-102234904D01*
X105259142Y-102187285D01*
X105306761Y-102139666D01*
X105354380Y-102044428D01*
X105354380Y-101853952D01*
X105306761Y-101758714D01*
X105259142Y-101711095D01*
X105163904Y-101663476D01*
X104354380Y-101663476D01*
X105354380Y-100663476D02*
X105354380Y-101234904D01*
X105354380Y-100949190D02*
X104354380Y-100949190D01*
X104497238Y-101044428D01*
X104592476Y-101139666D01*
X104640095Y-101234904D01*
X101560380Y-88677714D02*
X101560380Y-88106285D01*
X102560380Y-88392000D02*
X101560380Y-88392000D01*
X102560380Y-114498476D02*
X102084190Y-114831809D01*
X102560380Y-115069904D02*
X101560380Y-115069904D01*
X101560380Y-114688952D01*
X101608000Y-114593714D01*
X101655619Y-114546095D01*
X101750857Y-114498476D01*
X101893714Y-114498476D01*
X101988952Y-114546095D01*
X102036571Y-114593714D01*
X102084190Y-114688952D01*
X102084190Y-115069904D01*
%TO.C,C2*%
X138677109Y-64155143D02*
X138629490Y-64202762D01*
X138486633Y-64250381D01*
X138391395Y-64250381D01*
X138248537Y-64202762D01*
X138153299Y-64107524D01*
X138105680Y-64012286D01*
X138058061Y-63821810D01*
X138058061Y-63678953D01*
X138105680Y-63488477D01*
X138153299Y-63393239D01*
X138248537Y-63298001D01*
X138391395Y-63250381D01*
X138486633Y-63250381D01*
X138629490Y-63298001D01*
X138677109Y-63345620D01*
X139058061Y-63345620D02*
X139105680Y-63298001D01*
X139200918Y-63250381D01*
X139439014Y-63250381D01*
X139534252Y-63298001D01*
X139581871Y-63345620D01*
X139629490Y-63440858D01*
X139629490Y-63536096D01*
X139581871Y-63678953D01*
X139010442Y-64250381D01*
X139629490Y-64250381D01*
%TO.C,C3*%
X112550334Y-68916143D02*
X112502715Y-68963762D01*
X112359858Y-69011381D01*
X112264620Y-69011381D01*
X112121762Y-68963762D01*
X112026524Y-68868524D01*
X111978905Y-68773286D01*
X111931286Y-68582810D01*
X111931286Y-68439953D01*
X111978905Y-68249477D01*
X112026524Y-68154239D01*
X112121762Y-68059001D01*
X112264620Y-68011381D01*
X112359858Y-68011381D01*
X112502715Y-68059001D01*
X112550334Y-68106620D01*
X112883667Y-68011381D02*
X113502715Y-68011381D01*
X113169381Y-68392334D01*
X113312239Y-68392334D01*
X113407477Y-68439953D01*
X113455096Y-68487572D01*
X113502715Y-68582810D01*
X113502715Y-68820905D01*
X113455096Y-68916143D01*
X113407477Y-68963762D01*
X113312239Y-69011381D01*
X113026524Y-69011381D01*
X112931286Y-68963762D01*
X112883667Y-68916143D01*
%TO.C,D1*%
X166012904Y-116761380D02*
X166012904Y-115761380D01*
X166251000Y-115761380D01*
X166393857Y-115809000D01*
X166489095Y-115904238D01*
X166536714Y-115999476D01*
X166584333Y-116189952D01*
X166584333Y-116332809D01*
X166536714Y-116523285D01*
X166489095Y-116618523D01*
X166393857Y-116713761D01*
X166251000Y-116761380D01*
X166012904Y-116761380D01*
X167536714Y-116761380D02*
X166965285Y-116761380D01*
X167251000Y-116761380D02*
X167251000Y-115761380D01*
X167155761Y-115904238D01*
X167060523Y-115999476D01*
X166965285Y-116047095D01*
%TO.C,D2*%
X175537904Y-116761380D02*
X175537904Y-115761380D01*
X175776000Y-115761380D01*
X175918857Y-115809000D01*
X176014095Y-115904238D01*
X176061714Y-115999476D01*
X176109333Y-116189952D01*
X176109333Y-116332809D01*
X176061714Y-116523285D01*
X176014095Y-116618523D01*
X175918857Y-116713761D01*
X175776000Y-116761380D01*
X175537904Y-116761380D01*
X176490285Y-115856619D02*
X176537904Y-115809000D01*
X176633142Y-115761380D01*
X176871238Y-115761380D01*
X176966476Y-115809000D01*
X177014095Y-115856619D01*
X177061714Y-115951857D01*
X177061714Y-116047095D01*
X177014095Y-116189952D01*
X176442666Y-116761380D01*
X177061714Y-116761380D01*
%TO.C,D3*%
X184681904Y-116761380D02*
X184681904Y-115761380D01*
X184920000Y-115761380D01*
X185062857Y-115809000D01*
X185158095Y-115904238D01*
X185205714Y-115999476D01*
X185253333Y-116189952D01*
X185253333Y-116332809D01*
X185205714Y-116523285D01*
X185158095Y-116618523D01*
X185062857Y-116713761D01*
X184920000Y-116761380D01*
X184681904Y-116761380D01*
X185586666Y-115761380D02*
X186205714Y-115761380D01*
X185872380Y-116142333D01*
X186015238Y-116142333D01*
X186110476Y-116189952D01*
X186158095Y-116237571D01*
X186205714Y-116332809D01*
X186205714Y-116570904D01*
X186158095Y-116666142D01*
X186110476Y-116713761D01*
X186015238Y-116761380D01*
X185729523Y-116761380D01*
X185634285Y-116713761D01*
X185586666Y-116666142D01*
%TO.C,D4*%
X166647904Y-61206380D02*
X166647904Y-60206380D01*
X166886000Y-60206380D01*
X167028857Y-60254000D01*
X167124095Y-60349238D01*
X167171714Y-60444476D01*
X167219333Y-60634952D01*
X167219333Y-60777809D01*
X167171714Y-60968285D01*
X167124095Y-61063523D01*
X167028857Y-61158761D01*
X166886000Y-61206380D01*
X166647904Y-61206380D01*
X168076476Y-60539714D02*
X168076476Y-61206380D01*
X167838380Y-60158761D02*
X167600285Y-60873047D01*
X168219333Y-60873047D01*
%TO.C,D5*%
X123438905Y-70161381D02*
X123438905Y-69161381D01*
X123677001Y-69161381D01*
X123819858Y-69209001D01*
X123915096Y-69304239D01*
X123962715Y-69399477D01*
X124010334Y-69589953D01*
X124010334Y-69732810D01*
X123962715Y-69923286D01*
X123915096Y-70018524D01*
X123819858Y-70113762D01*
X123677001Y-70161381D01*
X123438905Y-70161381D01*
X124915096Y-69161381D02*
X124438905Y-69161381D01*
X124391286Y-69637572D01*
X124438905Y-69589953D01*
X124534143Y-69542334D01*
X124772239Y-69542334D01*
X124867477Y-69589953D01*
X124915096Y-69637572D01*
X124962715Y-69732810D01*
X124962715Y-69970905D01*
X124915096Y-70066143D01*
X124867477Y-70113762D01*
X124772239Y-70161381D01*
X124534143Y-70161381D01*
X124438905Y-70113762D01*
X124391286Y-70066143D01*
X120105096Y-70531381D02*
X120105096Y-69531381D01*
X120676524Y-70531381D02*
X120247953Y-69959953D01*
X120676524Y-69531381D02*
X120105096Y-70102810D01*
%TO.C,JP1*%
X121213666Y-47668380D02*
X121213666Y-48382666D01*
X121166047Y-48525523D01*
X121070809Y-48620761D01*
X120927952Y-48668380D01*
X120832714Y-48668380D01*
X121689857Y-48668380D02*
X121689857Y-47668380D01*
X122070809Y-47668380D01*
X122166047Y-47716000D01*
X122213666Y-47763619D01*
X122261285Y-47858857D01*
X122261285Y-48001714D01*
X122213666Y-48096952D01*
X122166047Y-48144571D01*
X122070809Y-48192190D01*
X121689857Y-48192190D01*
X123213666Y-48668380D02*
X122642238Y-48668380D01*
X122927952Y-48668380D02*
X122927952Y-47668380D01*
X122832714Y-47811238D01*
X122737476Y-47906476D01*
X122642238Y-47954095D01*
%TO.C,JP2*%
X122737666Y-108120380D02*
X122737666Y-108834666D01*
X122690047Y-108977523D01*
X122594809Y-109072761D01*
X122451952Y-109120380D01*
X122356714Y-109120380D01*
X123213857Y-109120380D02*
X123213857Y-108120380D01*
X123594809Y-108120380D01*
X123690047Y-108168000D01*
X123737666Y-108215619D01*
X123785285Y-108310857D01*
X123785285Y-108453714D01*
X123737666Y-108548952D01*
X123690047Y-108596571D01*
X123594809Y-108644190D01*
X123213857Y-108644190D01*
X124166238Y-108215619D02*
X124213857Y-108168000D01*
X124309095Y-108120380D01*
X124547190Y-108120380D01*
X124642428Y-108168000D01*
X124690047Y-108215619D01*
X124737666Y-108310857D01*
X124737666Y-108406095D01*
X124690047Y-108548952D01*
X124118619Y-109120380D01*
X124737666Y-109120380D01*
%TO.C,JP3*%
X116641666Y-108120380D02*
X116641666Y-108834666D01*
X116594047Y-108977523D01*
X116498809Y-109072761D01*
X116355952Y-109120380D01*
X116260714Y-109120380D01*
X117117857Y-109120380D02*
X117117857Y-108120380D01*
X117498809Y-108120380D01*
X117594047Y-108168000D01*
X117641666Y-108215619D01*
X117689285Y-108310857D01*
X117689285Y-108453714D01*
X117641666Y-108548952D01*
X117594047Y-108596571D01*
X117498809Y-108644190D01*
X117117857Y-108644190D01*
X118022619Y-108120380D02*
X118641666Y-108120380D01*
X118308333Y-108501333D01*
X118451190Y-108501333D01*
X118546428Y-108548952D01*
X118594047Y-108596571D01*
X118641666Y-108691809D01*
X118641666Y-108929904D01*
X118594047Y-109025142D01*
X118546428Y-109072761D01*
X118451190Y-109120380D01*
X118165476Y-109120380D01*
X118070238Y-109072761D01*
X118022619Y-109025142D01*
%TO.C,JP4*%
X116514666Y-117010380D02*
X116514666Y-117724666D01*
X116467047Y-117867523D01*
X116371809Y-117962761D01*
X116228952Y-118010380D01*
X116133714Y-118010380D01*
X116990857Y-118010380D02*
X116990857Y-117010380D01*
X117371809Y-117010380D01*
X117467047Y-117058000D01*
X117514666Y-117105619D01*
X117562285Y-117200857D01*
X117562285Y-117343714D01*
X117514666Y-117438952D01*
X117467047Y-117486571D01*
X117371809Y-117534190D01*
X116990857Y-117534190D01*
X118419428Y-117343714D02*
X118419428Y-118010380D01*
X118181333Y-116962761D02*
X117943238Y-117677047D01*
X118562285Y-117677047D01*
%TO.C,L1*%
X114920334Y-58281381D02*
X114444143Y-58281381D01*
X114444143Y-57281381D01*
X115777477Y-58281381D02*
X115206048Y-58281381D01*
X115491762Y-58281381D02*
X115491762Y-57281381D01*
X115396524Y-57424239D01*
X115301286Y-57519477D01*
X115206048Y-57567096D01*
%TO.C,Q1*%
X175037761Y-71715619D02*
X174942523Y-71668000D01*
X174847285Y-71572761D01*
X174704428Y-71429904D01*
X174609190Y-71382285D01*
X174513952Y-71382285D01*
X174561571Y-71620380D02*
X174466333Y-71572761D01*
X174371095Y-71477523D01*
X174323476Y-71287047D01*
X174323476Y-70953714D01*
X174371095Y-70763238D01*
X174466333Y-70668000D01*
X174561571Y-70620380D01*
X174752047Y-70620380D01*
X174847285Y-70668000D01*
X174942523Y-70763238D01*
X174990142Y-70953714D01*
X174990142Y-71287047D01*
X174942523Y-71477523D01*
X174847285Y-71572761D01*
X174752047Y-71620380D01*
X174561571Y-71620380D01*
X175942523Y-71620380D02*
X175371095Y-71620380D01*
X175656809Y-71620380D02*
X175656809Y-70620380D01*
X175561571Y-70763238D01*
X175466333Y-70858476D01*
X175371095Y-70906095D01*
%TO.C,Q2*%
X160178761Y-71842619D02*
X160083523Y-71795000D01*
X159988285Y-71699761D01*
X159845428Y-71556904D01*
X159750190Y-71509285D01*
X159654952Y-71509285D01*
X159702571Y-71747380D02*
X159607333Y-71699761D01*
X159512095Y-71604523D01*
X159464476Y-71414047D01*
X159464476Y-71080714D01*
X159512095Y-70890238D01*
X159607333Y-70795000D01*
X159702571Y-70747380D01*
X159893047Y-70747380D01*
X159988285Y-70795000D01*
X160083523Y-70890238D01*
X160131142Y-71080714D01*
X160131142Y-71414047D01*
X160083523Y-71604523D01*
X159988285Y-71699761D01*
X159893047Y-71747380D01*
X159702571Y-71747380D01*
X160512095Y-70842619D02*
X160559714Y-70795000D01*
X160654952Y-70747380D01*
X160893047Y-70747380D01*
X160988285Y-70795000D01*
X161035904Y-70842619D01*
X161083523Y-70937857D01*
X161083523Y-71033095D01*
X161035904Y-71175952D01*
X160464476Y-71747380D01*
X161083523Y-71747380D01*
%TO.C,R1*%
X122753380Y-88431666D02*
X122277190Y-88765000D01*
X122753380Y-89003095D02*
X121753380Y-89003095D01*
X121753380Y-88622142D01*
X121801000Y-88526904D01*
X121848619Y-88479285D01*
X121943857Y-88431666D01*
X122086714Y-88431666D01*
X122181952Y-88479285D01*
X122229571Y-88526904D01*
X122277190Y-88622142D01*
X122277190Y-89003095D01*
X122753380Y-87479285D02*
X122753380Y-88050714D01*
X122753380Y-87765000D02*
X121753380Y-87765000D01*
X121896238Y-87860238D01*
X121991476Y-87955476D01*
X122039095Y-88050714D01*
%TO.C,R2*%
X118674380Y-79795666D02*
X118198190Y-80129000D01*
X118674380Y-80367095D02*
X117674380Y-80367095D01*
X117674380Y-79986142D01*
X117722000Y-79890904D01*
X117769619Y-79843285D01*
X117864857Y-79795666D01*
X118007714Y-79795666D01*
X118102952Y-79843285D01*
X118150571Y-79890904D01*
X118198190Y-79986142D01*
X118198190Y-80367095D01*
X117769619Y-79414714D02*
X117722000Y-79367095D01*
X117674380Y-79271857D01*
X117674380Y-79033761D01*
X117722000Y-78938523D01*
X117769619Y-78890904D01*
X117864857Y-78843285D01*
X117960095Y-78843285D01*
X118102952Y-78890904D01*
X118674380Y-79462333D01*
X118674380Y-78843285D01*
%TO.C,R3*%
X118674380Y-88431666D02*
X118198190Y-88765000D01*
X118674380Y-89003095D02*
X117674380Y-89003095D01*
X117674380Y-88622142D01*
X117722000Y-88526904D01*
X117769619Y-88479285D01*
X117864857Y-88431666D01*
X118007714Y-88431666D01*
X118102952Y-88479285D01*
X118150571Y-88526904D01*
X118198190Y-88622142D01*
X118198190Y-89003095D01*
X117674380Y-88098333D02*
X117674380Y-87479285D01*
X118055333Y-87812619D01*
X118055333Y-87669761D01*
X118102952Y-87574523D01*
X118150571Y-87526904D01*
X118245809Y-87479285D01*
X118483904Y-87479285D01*
X118579142Y-87526904D01*
X118626761Y-87574523D01*
X118674380Y-87669761D01*
X118674380Y-87955476D01*
X118626761Y-88050714D01*
X118579142Y-88098333D01*
%TO.C,R4*%
X114737380Y-88431666D02*
X114261190Y-88765000D01*
X114737380Y-89003095D02*
X113737380Y-89003095D01*
X113737380Y-88622142D01*
X113785000Y-88526904D01*
X113832619Y-88479285D01*
X113927857Y-88431666D01*
X114070714Y-88431666D01*
X114165952Y-88479285D01*
X114213571Y-88526904D01*
X114261190Y-88622142D01*
X114261190Y-89003095D01*
X114070714Y-87574523D02*
X114737380Y-87574523D01*
X113689761Y-87812619D02*
X114404047Y-88050714D01*
X114404047Y-87431666D01*
%TO.C,R5*%
X166838333Y-111308380D02*
X166505000Y-110832190D01*
X166266904Y-111308380D02*
X166266904Y-110308380D01*
X166647857Y-110308380D01*
X166743095Y-110356000D01*
X166790714Y-110403619D01*
X166838333Y-110498857D01*
X166838333Y-110641714D01*
X166790714Y-110736952D01*
X166743095Y-110784571D01*
X166647857Y-110832190D01*
X166266904Y-110832190D01*
X167743095Y-110308380D02*
X167266904Y-110308380D01*
X167219285Y-110784571D01*
X167266904Y-110736952D01*
X167362142Y-110689333D01*
X167600238Y-110689333D01*
X167695476Y-110736952D01*
X167743095Y-110784571D01*
X167790714Y-110879809D01*
X167790714Y-111117904D01*
X167743095Y-111213142D01*
X167695476Y-111260761D01*
X167600238Y-111308380D01*
X167362142Y-111308380D01*
X167266904Y-111260761D01*
X167219285Y-111213142D01*
%TO.C,R6*%
X175966380Y-84367666D02*
X175490190Y-84701000D01*
X175966380Y-84939095D02*
X174966380Y-84939095D01*
X174966380Y-84558142D01*
X175014000Y-84462904D01*
X175061619Y-84415285D01*
X175156857Y-84367666D01*
X175299714Y-84367666D01*
X175394952Y-84415285D01*
X175442571Y-84462904D01*
X175490190Y-84558142D01*
X175490190Y-84939095D01*
X174966380Y-83510523D02*
X174966380Y-83701000D01*
X175014000Y-83796238D01*
X175061619Y-83843857D01*
X175204476Y-83939095D01*
X175394952Y-83986714D01*
X175775904Y-83986714D01*
X175871142Y-83939095D01*
X175918761Y-83891476D01*
X175966380Y-83796238D01*
X175966380Y-83605761D01*
X175918761Y-83510523D01*
X175871142Y-83462904D01*
X175775904Y-83415285D01*
X175537809Y-83415285D01*
X175442571Y-83462904D01*
X175394952Y-83510523D01*
X175347333Y-83605761D01*
X175347333Y-83796238D01*
X175394952Y-83891476D01*
X175442571Y-83939095D01*
X175537809Y-83986714D01*
%TO.C,R7*%
X175982333Y-111308380D02*
X175649000Y-110832190D01*
X175410904Y-111308380D02*
X175410904Y-110308380D01*
X175791857Y-110308380D01*
X175887095Y-110356000D01*
X175934714Y-110403619D01*
X175982333Y-110498857D01*
X175982333Y-110641714D01*
X175934714Y-110736952D01*
X175887095Y-110784571D01*
X175791857Y-110832190D01*
X175410904Y-110832190D01*
X176315666Y-110308380D02*
X176982333Y-110308380D01*
X176553761Y-111308380D01*
%TO.C,R8*%
X185126333Y-111308380D02*
X184793000Y-110832190D01*
X184554904Y-111308380D02*
X184554904Y-110308380D01*
X184935857Y-110308380D01*
X185031095Y-110356000D01*
X185078714Y-110403619D01*
X185126333Y-110498857D01*
X185126333Y-110641714D01*
X185078714Y-110736952D01*
X185031095Y-110784571D01*
X184935857Y-110832190D01*
X184554904Y-110832190D01*
X185697761Y-110736952D02*
X185602523Y-110689333D01*
X185554904Y-110641714D01*
X185507285Y-110546476D01*
X185507285Y-110498857D01*
X185554904Y-110403619D01*
X185602523Y-110356000D01*
X185697761Y-110308380D01*
X185888238Y-110308380D01*
X185983476Y-110356000D01*
X186031095Y-110403619D01*
X186078714Y-110498857D01*
X186078714Y-110546476D01*
X186031095Y-110641714D01*
X185983476Y-110689333D01*
X185888238Y-110736952D01*
X185697761Y-110736952D01*
X185602523Y-110784571D01*
X185554904Y-110832190D01*
X185507285Y-110927428D01*
X185507285Y-111117904D01*
X185554904Y-111213142D01*
X185602523Y-111260761D01*
X185697761Y-111308380D01*
X185888238Y-111308380D01*
X185983476Y-111260761D01*
X186031095Y-111213142D01*
X186078714Y-111117904D01*
X186078714Y-110927428D01*
X186031095Y-110832190D01*
X185983476Y-110784571D01*
X185888238Y-110736952D01*
%TO.C,R9*%
X161488380Y-84621666D02*
X161012190Y-84955000D01*
X161488380Y-85193095D02*
X160488380Y-85193095D01*
X160488380Y-84812142D01*
X160536000Y-84716904D01*
X160583619Y-84669285D01*
X160678857Y-84621666D01*
X160821714Y-84621666D01*
X160916952Y-84669285D01*
X160964571Y-84716904D01*
X161012190Y-84812142D01*
X161012190Y-85193095D01*
X161488380Y-84145476D02*
X161488380Y-83955000D01*
X161440761Y-83859761D01*
X161393142Y-83812142D01*
X161250285Y-83716904D01*
X161059809Y-83669285D01*
X160678857Y-83669285D01*
X160583619Y-83716904D01*
X160536000Y-83764523D01*
X160488380Y-83859761D01*
X160488380Y-84050238D01*
X160536000Y-84145476D01*
X160583619Y-84193095D01*
X160678857Y-84240714D01*
X160916952Y-84240714D01*
X161012190Y-84193095D01*
X161059809Y-84145476D01*
X161107428Y-84050238D01*
X161107428Y-83859761D01*
X161059809Y-83764523D01*
X161012190Y-83716904D01*
X160916952Y-83669285D01*
%TO.C,R10*%
X160853380Y-104401857D02*
X160377190Y-104735190D01*
X160853380Y-104973285D02*
X159853380Y-104973285D01*
X159853380Y-104592333D01*
X159901000Y-104497095D01*
X159948619Y-104449476D01*
X160043857Y-104401857D01*
X160186714Y-104401857D01*
X160281952Y-104449476D01*
X160329571Y-104497095D01*
X160377190Y-104592333D01*
X160377190Y-104973285D01*
X160853380Y-103449476D02*
X160853380Y-104020904D01*
X160853380Y-103735190D02*
X159853380Y-103735190D01*
X159996238Y-103830428D01*
X160091476Y-103925666D01*
X160139095Y-104020904D01*
X159853380Y-102830428D02*
X159853380Y-102735190D01*
X159901000Y-102639952D01*
X159948619Y-102592333D01*
X160043857Y-102544714D01*
X160234333Y-102497095D01*
X160472428Y-102497095D01*
X160662904Y-102544714D01*
X160758142Y-102592333D01*
X160805761Y-102639952D01*
X160853380Y-102735190D01*
X160853380Y-102830428D01*
X160805761Y-102925666D01*
X160758142Y-102973285D01*
X160662904Y-103020904D01*
X160472428Y-103068523D01*
X160234333Y-103068523D01*
X160043857Y-103020904D01*
X159948619Y-102973285D01*
X159901000Y-102925666D01*
X159853380Y-102830428D01*
%TO.C,R11*%
X118674380Y-129420857D02*
X118198190Y-129754190D01*
X118674380Y-129992285D02*
X117674380Y-129992285D01*
X117674380Y-129611333D01*
X117722000Y-129516095D01*
X117769619Y-129468476D01*
X117864857Y-129420857D01*
X118007714Y-129420857D01*
X118102952Y-129468476D01*
X118150571Y-129516095D01*
X118198190Y-129611333D01*
X118198190Y-129992285D01*
X118674380Y-128468476D02*
X118674380Y-129039904D01*
X118674380Y-128754190D02*
X117674380Y-128754190D01*
X117817238Y-128849428D01*
X117912476Y-128944666D01*
X117960095Y-129039904D01*
X118674380Y-127516095D02*
X118674380Y-128087523D01*
X118674380Y-127801809D02*
X117674380Y-127801809D01*
X117817238Y-127897047D01*
X117912476Y-127992285D01*
X117960095Y-128087523D01*
%TO.C,R12*%
X122357380Y-129420857D02*
X121881190Y-129754190D01*
X122357380Y-129992285D02*
X121357380Y-129992285D01*
X121357380Y-129611333D01*
X121405000Y-129516095D01*
X121452619Y-129468476D01*
X121547857Y-129420857D01*
X121690714Y-129420857D01*
X121785952Y-129468476D01*
X121833571Y-129516095D01*
X121881190Y-129611333D01*
X121881190Y-129992285D01*
X122357380Y-128468476D02*
X122357380Y-129039904D01*
X122357380Y-128754190D02*
X121357380Y-128754190D01*
X121500238Y-128849428D01*
X121595476Y-128944666D01*
X121643095Y-129039904D01*
X121452619Y-128087523D02*
X121405000Y-128039904D01*
X121357380Y-127944666D01*
X121357380Y-127706571D01*
X121405000Y-127611333D01*
X121452619Y-127563714D01*
X121547857Y-127516095D01*
X121643095Y-127516095D01*
X121785952Y-127563714D01*
X122357380Y-128135142D01*
X122357380Y-127516095D01*
%TO.C,R13*%
X114610380Y-129420857D02*
X114134190Y-129754190D01*
X114610380Y-129992285D02*
X113610380Y-129992285D01*
X113610380Y-129611333D01*
X113658000Y-129516095D01*
X113705619Y-129468476D01*
X113800857Y-129420857D01*
X113943714Y-129420857D01*
X114038952Y-129468476D01*
X114086571Y-129516095D01*
X114134190Y-129611333D01*
X114134190Y-129992285D01*
X114610380Y-128468476D02*
X114610380Y-129039904D01*
X114610380Y-128754190D02*
X113610380Y-128754190D01*
X113753238Y-128849428D01*
X113848476Y-128944666D01*
X113896095Y-129039904D01*
X113610380Y-128135142D02*
X113610380Y-127516095D01*
X113991333Y-127849428D01*
X113991333Y-127706571D01*
X114038952Y-127611333D01*
X114086571Y-127563714D01*
X114181809Y-127516095D01*
X114419904Y-127516095D01*
X114515142Y-127563714D01*
X114562761Y-127611333D01*
X114610380Y-127706571D01*
X114610380Y-127992285D01*
X114562761Y-128087523D01*
X114515142Y-128135142D01*
%TD*%
M02*
